<svg width="39" height="44" viewBox="0 0 39 44" fill="none" xmlns="http://www.w3.org/2000/svg">
<g clip-path="url(#clip0_5_2429)">
<path fill-rule="evenodd" clip-rule="evenodd" d="M8.62063 11.1003L9.07208 16.6755C9.07451 17.0448 9.18676 17.405 9.39455 17.7103C9.46619 17.7776 9.55186 17.8283 9.64539 17.8586C9.73893 17.889 9.83803 17.8982 9.93558 17.8858H11.6662C11.7692 17.8975 11.8736 17.8841 11.9703 17.8467C12.067 17.8092 12.1532 17.7489 12.2215 17.6709C12.3769 17.4186 12.453 17.1255 12.4401 16.8295V10.6849C12.4346 10.6517 12.4346 10.6179 12.4401 10.5847C12.4326 10.5189 12.4111 10.4555 12.3771 10.3987C12.3431 10.3419 12.2974 10.293 12.243 10.2552C12.0219 10.1429 11.7734 10.0957 11.5264 10.1192C10.7704 10.1192 9.99291 10.1406 9.24407 10.1192C9.14651 10.1119 9.0485 10.1247 8.95607 10.1567C8.86364 10.1887 8.77874 10.2393 8.70662 10.3054C8.64101 10.4205 8.59899 10.5476 8.583 10.6791C8.567 10.8107 8.57736 10.9441 8.61346 11.0716V11.1003H8.62063ZM34.8265 27.0739L38.3378 29.8418C38.5614 30.0181 38.7059 30.2759 38.7395 30.5585C38.773 30.8412 38.693 31.1256 38.5169 31.3493L36.9834 33.3008L31.7845 29.1973L33.3216 27.253C33.498 27.0295 33.756 26.8851 34.0388 26.8515C34.3216 26.818 34.6062 26.898 34.8301 27.0739H34.8265ZM20.8995 41.6618C21.0585 41.653 21.2177 41.6767 21.3673 41.7315C21.5169 41.7863 21.6538 41.871 21.7695 41.9804C21.8852 42.0898 21.9774 42.2217 22.0404 42.3679C22.1034 42.5142 22.1359 42.6717 22.1359 42.8309C22.1359 42.9901 22.1034 43.1477 22.0404 43.2939C21.9774 43.4402 21.8852 43.572 21.7695 43.6814C21.6538 43.7909 21.5169 43.8756 21.3673 43.9303C21.2177 43.9851 21.0585 44.0088 20.8995 44H2.72306C2.00115 43.9991 1.30908 43.7121 0.798612 43.2019C0.288145 42.6918 0.00094801 42.0001 0 41.2787L0 2.72138C0.00094801 1.99992 0.288145 1.30828 0.798612 0.798134C1.30908 0.287986 2.00115 0.000968602 2.72306 2.11849e-05H35.2421C35.6008 -0.00139219 35.9562 0.0679286 36.288 0.204013C36.6198 0.340097 36.9215 0.540269 37.1758 0.793064C37.4301 1.04586 37.632 1.34631 37.7699 1.6772C37.9078 2.00809 37.979 2.36293 37.9795 2.72138V22.4154C37.9795 23.6901 37.4313 23.8871 36.8652 23.9265C36.2991 23.9658 35.6398 23.7725 35.6398 22.4154V2.72138C35.6407 2.67107 35.6309 2.62116 35.6111 2.57489C35.5914 2.52862 35.5621 2.48702 35.5252 2.45282C35.4542 2.38068 35.3576 2.33949 35.2564 2.33824H2.72306C2.62143 2.33911 2.524 2.37883 2.45075 2.44924C2.38091 2.52283 2.34127 2.61996 2.33968 2.72138V41.2751C2.33884 41.3254 2.34862 41.3753 2.36837 41.4216C2.38813 41.4679 2.41742 41.5094 2.45434 41.5436C2.48988 41.5798 2.53226 41.6085 2.579 41.6282C2.62574 41.6479 2.67593 41.6581 2.72664 41.6582L20.8995 41.6618ZM8.44865 35.0518C8.14585 35.0351 7.86094 34.9032 7.65248 34.6831C7.44402 34.463 7.32785 34.1714 7.32785 33.8684C7.32785 33.5653 7.44402 33.2737 7.65248 33.0536C7.86094 32.8335 8.14585 32.7016 8.44865 32.6849H25.1596L23.6476 34.6328C23.5369 34.7639 23.4375 34.9041 23.3502 35.0518H8.44865ZM8.90368 28.5492C8.60462 28.5326 8.32325 28.4023 8.11739 28.1848C7.91153 27.9674 7.79682 27.6794 7.79682 27.3801C7.79682 27.0807 7.91153 26.7928 8.11739 26.5753C8.32325 26.3579 8.60462 26.2275 8.90368 26.211H28.0618C28.3719 26.2119 28.669 26.3357 28.888 26.5552C29.1069 26.7747 29.2299 27.0719 29.2299 27.3819C29.2317 27.4045 29.2317 27.4273 29.2299 27.4499C29.1487 27.564 29.0757 27.6836 29.0113 27.808C28.8444 27.9506 28.6942 28.1115 28.5634 28.2878L28.3986 28.4955C28.2894 28.5284 28.1759 28.5453 28.0618 28.5456L8.90368 28.5492ZM31.2113 40.7237C29.9966 41.2608 29.0221 41.5257 27.811 42.0629C25.2313 42.9509 25.3029 43.5489 25.5179 40.9886L26.0195 36.6273L31.0142 30.182L36.2131 34.2784L31.2184 40.7237H31.2113ZM26.9117 37.3327L30.3263 40.0254L27.9364 41.0996C26.0661 41.9268 26.1234 42.3242 26.428 40.3835L26.9117 37.3399V37.3327ZM25.9335 9.9258C25.9619 9.89215 25.993 9.861 26.0267 9.83271C26.3387 9.57798 26.7353 9.45013 27.1374 9.47463H29.2406C29.6943 9.44196 30.1462 9.55895 30.5269 9.80764C30.7055 9.9532 30.8402 10.1454 30.9161 10.3628C30.992 10.5802 31.0061 10.8144 30.9569 11.0394L30.3836 16.9584C30.3774 17.4035 30.2265 17.8346 29.9536 18.1866C29.8152 18.3414 29.6421 18.4614 29.4485 18.5367C29.2548 18.612 29.0461 18.6405 28.8393 18.6198H26.9941C26.6927 18.6423 26.3938 18.5516 26.1557 18.3656C26.0081 18.2427 25.8863 18.0918 25.7974 17.9216H25.0808C25.1495 18.188 25.142 18.4684 25.0593 18.7308C24.9618 19.022 24.7812 19.2784 24.5398 19.4685C24.3035 19.6526 24.0253 19.7756 23.73 19.8265C23.4596 19.8725 23.1819 19.8478 22.9239 19.7549C22.6611 20.0325 22.33 20.2363 21.9636 20.3457C21.628 20.4366 21.2732 20.4279 20.9425 20.3207C20.6514 20.647 20.2677 20.8769 19.8425 20.9795C19.4006 21.0654 18.9428 21.0051 18.5383 20.8076C18.4077 20.9045 18.2657 20.9851 18.1155 21.0476C17.8818 21.1445 17.6303 21.1909 17.3774 21.1836C16.8813 21.1924 16.3998 21.0163 16.0266 20.6895C15.7246 20.3905 15.4729 20.0447 15.2814 19.6654L14.0309 17.4811H13.1782C13.1252 17.7291 13.0189 17.9624 12.8665 18.1651C12.7229 18.3472 12.5366 18.4911 12.3242 18.5842C12.1117 18.6772 11.8795 18.7165 11.6482 18.6986H9.93916C9.72703 18.7157 9.51374 18.6854 9.3148 18.6098C9.11586 18.5342 8.93625 18.4153 8.78903 18.2617C8.45846 17.8314 8.27282 17.3074 8.25875 16.765V16.7292L7.8073 11.1683C7.75012 10.9302 7.74485 10.6826 7.79183 10.4423C7.83881 10.2019 7.93695 9.97451 8.0796 9.77541C8.22404 9.62241 8.39934 9.5018 8.59391 9.42155C8.78847 9.34131 8.99786 9.30326 9.20824 9.30992H11.5228C11.9243 9.28492 12.3242 9.3783 12.673 9.57847C12.9032 9.72303 13.0776 9.94144 13.1674 10.1979H14.9302C15.358 9.89142 15.8289 9.65007 16.3276 9.48179C16.8386 9.31308 17.3796 9.2545 17.9149 9.30992L18.5168 8.59377L18.5526 8.55797C18.7353 8.38275 18.943 8.23554 19.1689 8.12112C19.4034 7.99645 19.6526 7.90143 19.9106 7.83824C20.3215 7.73474 20.7446 7.68775 21.1682 7.69859C21.6193 7.70646 22.068 7.76776 22.5046 7.88121C23.2417 8.12517 23.9304 8.49599 24.5398 8.97691L24.9984 9.29202L25.9121 9.90432L25.9335 9.9258ZM17.9614 20.2097L17.1194 18.6198C17.0683 18.5242 17.0569 18.4124 17.0878 18.3085C17.1186 18.2046 17.1892 18.117 17.2843 18.0648C17.3805 18.0149 17.4924 18.0046 17.5962 18.036C17.6999 18.0675 17.7873 18.1382 17.8396 18.2331L18.7891 20.0235C19.0561 20.1719 19.3657 20.2249 19.6669 20.1739C19.9164 20.1113 20.1419 19.9768 20.3155 19.7871L18.9647 17.6709C18.9067 17.5793 18.8875 17.4684 18.9114 17.3626C18.9352 17.2569 19.0002 17.1649 19.0919 17.107C19.1836 17.049 19.2945 17.0299 19.4004 17.0537C19.5062 17.0776 19.5982 17.1424 19.6562 17.2341L21.0894 19.5078C21.2922 19.5935 21.5176 19.6099 21.7307 19.5544C21.9481 19.4857 22.1443 19.3624 22.3004 19.1963L21.0105 16.765C20.98 16.7177 20.9595 16.6646 20.9505 16.609C20.9414 16.5535 20.944 16.4966 20.958 16.4421C20.9719 16.3875 20.9971 16.3365 21.0318 16.2921C21.0665 16.2477 21.11 16.211 21.1595 16.1843C21.2091 16.1575 21.2637 16.1413 21.3198 16.1367C21.376 16.132 21.4325 16.139 21.4858 16.1572C21.5391 16.1754 21.5881 16.2045 21.6296 16.2425C21.6711 16.2806 21.7043 16.3268 21.7271 16.3783L23.0887 18.9385C23.24 19.0156 23.4125 19.0407 23.5795 19.0101C23.7358 18.9853 23.8829 18.9199 24.0059 18.8203C24.1248 18.73 24.2125 18.6048 24.2567 18.4623C24.3083 18.2915 24.2942 18.1076 24.2173 17.9466C24.1994 17.9083 24.1885 17.8671 24.1851 17.8249C24.1246 17.7819 24.0765 17.7239 24.0453 17.6566L21.007 12.1781C20.7167 11.6875 20.4624 11.6696 20.2223 11.82C19.9978 11.9695 19.7879 12.1397 19.5953 12.3285C19.4699 12.4466 19.3409 12.5612 19.2155 12.6651L18.6744 13.1127C18.3176 13.4004 17.884 13.5772 17.4276 13.6211C17.1566 13.6441 16.8838 13.6075 16.6286 13.5137C16.3725 13.4196 16.1461 13.2589 15.9729 13.0482C15.7753 12.8016 15.6577 12.5005 15.6361 12.1852C15.6314 12.1253 15.6398 12.0651 15.6609 12.0088C15.6819 11.9525 15.715 11.9015 15.7579 11.8594L17.2305 10.1084C17.0007 10.1217 16.7733 10.1626 16.5533 10.2302C16.1016 10.388 15.6755 10.6112 15.2885 10.8926C15.2169 10.9514 15.1268 10.9831 15.0341 10.9821H13.257V16.6612H14.2638C14.338 16.6625 14.4105 16.6838 14.4735 16.7229C14.5366 16.762 14.5879 16.8173 14.6221 16.8832L15.9836 19.2572C16.1335 19.559 16.328 19.8367 16.5605 20.0808C16.7915 20.2752 17.0863 20.3772 17.3882 20.3672C17.527 20.3717 17.6651 20.3461 17.793 20.292C17.8489 20.2689 17.9028 20.2413 17.9543 20.2097H17.9614ZM25.5251 17.1016L25.5824 10.6563L24.5649 9.97952L24.0919 9.66799C23.5553 9.24177 22.9493 8.91109 22.3004 8.69045C21.9281 8.59378 21.5457 8.54091 21.161 8.5329C20.8101 8.52276 20.4593 8.5601 20.1184 8.6439C19.9217 8.69414 19.7317 8.76745 19.5523 8.86233C19.3974 8.94181 19.254 9.04178 19.1259 9.15953L18.4523 9.95803C18.4268 10.0056 18.3914 10.0471 18.3484 10.0798L16.4817 12.2819C16.5067 12.3933 16.5601 12.4963 16.6367 12.581C16.7132 12.6657 16.8104 12.7292 16.9188 12.7653C17.0613 12.815 17.2128 12.8334 17.3631 12.819C17.6584 12.7884 17.9384 12.6727 18.1692 12.486L18.6959 12.0492C18.8178 11.9525 18.9324 11.8451 19.0542 11.7412C19.2869 11.514 19.5413 11.3101 19.8138 11.1325C20.4624 10.7422 21.1001 10.7422 21.7271 11.7806L24.6795 17.1016H25.5251ZM10.9711 15.3972C11.0745 15.3972 11.1757 15.4278 11.2617 15.4853C11.3477 15.5427 11.4148 15.6244 11.4544 15.7199C11.4939 15.8154 11.5043 15.9205 11.4841 16.0219C11.4639 16.1233 11.4141 16.2165 11.341 16.2896C11.2678 16.3627 11.1746 16.4125 11.0731 16.4327C10.9716 16.4529 10.8665 16.4425 10.7709 16.4029C10.6753 16.3634 10.5936 16.2964 10.5361 16.2104C10.4786 16.1244 10.4479 16.0233 10.4479 15.9199C10.4475 15.8512 10.4607 15.783 10.4868 15.7193C10.5129 15.6557 10.5514 15.5979 10.6001 15.5492C10.6488 15.5006 10.7066 15.4621 10.7703 15.436C10.834 15.4099 10.9022 15.3967 10.9711 15.3972ZM27.811 15.3972C27.9146 15.3965 28.0161 15.4265 28.1026 15.4835C28.1891 15.5405 28.2567 15.6219 28.2969 15.7174C28.337 15.8129 28.3479 15.9181 28.3281 16.0197C28.3083 16.1214 28.2588 16.2149 28.1858 16.2883C28.1128 16.3618 28.0196 16.4119 27.918 16.4324C27.8164 16.4529 27.7111 16.4427 27.6153 16.4033C27.5195 16.3638 27.4375 16.2968 27.3799 16.2108C27.3223 16.1247 27.2915 16.0235 27.2915 15.9199C27.2905 15.7835 27.3434 15.6521 27.4386 15.5543C27.5338 15.4564 27.6637 15.4 27.8003 15.3972H27.811Z" fill="#FF914D"/>
</g>
<defs>
<clipPath id="clip0_5_2429">
<rect width="38.7463" height="44" fill="white"/>
</clipPath>
</defs>
</svg>
