<svg width="50" height="41" viewBox="0 0 50 41" fill="none" xmlns="http://www.w3.org/2000/svg">
<g clip-path="url(#clip0_5_2441)">
<path fill-rule="evenodd" clip-rule="evenodd" d="M29.1042 14.9764C29.2655 15.2407 29.3529 15.5435 29.3576 15.8531C29.3576 17.506 26.7998 18.8492 23.6429 18.8492C20.486 18.8492 17.9322 17.506 17.9322 15.8531C17.9367 15.536 18.027 15.2261 18.1937 14.9563C18.9216 16.1627 21.0852 17.0555 23.6429 17.0555C26.2006 17.0555 28.3441 16.1828 29.0841 14.9804C29.0841 14.9522 29.0841 14.9482 29.1082 14.9804L29.1042 14.9764ZM10.0982 35.583V19.9832H17.1199C20.1079 20.5101 23.0678 22.1187 26.0438 24.0008H31.493C33.9623 24.1496 35.2532 26.651 32.8563 28.2918C30.9461 29.6954 28.4326 29.6149 25.8347 29.3857C24.0531 29.2972 23.9767 31.6901 25.8347 31.6981C26.4821 31.7504 27.1859 31.5976 27.7972 31.5976C31.0145 31.5976 33.6808 30.9783 35.3055 28.4286L36.1098 26.5223L44.2374 22.5209C48.2952 21.1857 51.1827 25.4285 48.1907 28.3803C42.5345 32.5108 36.4834 36.0712 30.1257 39.0094C25.6497 41.732 21.1736 41.6395 16.7057 39.0094L10.0982 35.583ZM0 18.4993H7.98687V37.1514H0V18.4993ZM45.645 16.1225C45.7673 16.3903 45.8317 16.6808 45.834 16.9751C45.834 18.9859 42.6972 20.6468 38.8324 20.6468C34.9677 20.6468 31.8308 19.002 31.8308 16.9751C31.8368 16.5868 31.948 16.2073 32.1526 15.8772C33.0454 17.3692 35.6996 18.451 38.8324 18.451C41.7843 18.451 44.2937 17.5301 45.3313 16.1547C45.5565 15.8531 45.4721 15.7525 45.645 16.1225ZM45.5686 11.5339C45.7381 11.8408 45.8292 12.1847 45.834 12.5353C45.834 14.5461 42.6972 16.207 38.8324 16.207C34.9677 16.207 31.8308 14.5622 31.8308 12.5353C31.841 12.1397 31.9592 11.7545 32.1727 11.4213C33.0655 12.9133 35.7197 13.9951 38.8525 13.9951C41.913 13.9951 44.5109 12.9696 45.46 11.5379C45.5525 11.4012 45.5163 11.3771 45.5887 11.5178L45.5686 11.5339ZM41.354 2.28426L41.2816 3.08858L37.8431 2.78696C38.128 3.15038 38.3298 3.5718 38.4343 4.02158L37.6058 3.94517C37.5284 3.65755 37.4018 3.38546 37.2318 3.14086C37.0635 2.86157 36.8157 2.63891 36.52 2.50142L36.5964 1.76145L41.3137 2.16361C41.4062 2.16361 41.3781 2.16361 41.366 2.27219L41.354 2.28426ZM39.2105 0.756058C42.2106 0.828446 44.5873 1.81373 44.5873 3.00412C44.5873 4.25484 42.0095 5.26425 38.8324 5.26425C35.6554 5.26425 33.0775 4.25081 33.0775 3.00412C33.0775 1.81776 35.4181 0.844532 38.382 0.756058C38.6595 0.756058 38.937 0.756058 39.2105 0.756058ZM39.307 0C42.9505 0.132712 45.8461 1.72928 45.8461 3.67171C45.8461 5.6825 42.7092 7.34341 38.8445 7.34341C34.9797 7.34341 31.8429 5.69456 31.8429 3.67171C31.8308 1.7333 34.7023 0.140755 38.3378 0C38.6595 0 38.9852 0 39.307 0ZM45.8461 8.16784C45.8461 10.1786 42.7092 11.8395 38.8445 11.8395C34.9797 11.8395 31.8429 10.1947 31.8429 8.16784C31.8462 7.79634 31.949 7.4325 32.1405 7.11418C32.977 8.6263 35.6634 9.73223 38.8324 9.73223C40.9076 9.73223 44.4023 9.10889 45.5404 7.11418C45.7291 7.43351 45.8304 7.79693 45.834 8.16784H45.8461ZM25.7381 7.41178L25.6698 8.15175L22.8547 7.91045C23.0832 8.20862 23.2438 8.55313 23.3252 8.91987L22.6375 8.84748C22.5754 8.61078 22.4734 8.38638 22.3359 8.18392C22.1947 7.95814 21.9926 7.77689 21.7528 7.66112L21.805 7.0619L25.706 7.39971L25.7381 7.41178ZM24.407 6.26965C26.651 6.40638 28.3683 7.17048 28.3683 8.0874C28.3683 9.10487 26.265 9.92929 23.671 9.92929C21.0771 9.92929 18.9779 9.10084 18.9779 8.0874C18.9779 7.19059 20.6106 6.44258 22.7742 6.28171C23.3177 6.2415 23.8635 6.2415 24.407 6.28171V6.26965ZM24.5116 5.66641C27.2382 5.87955 29.3576 7.12625 29.3576 8.63032C29.3576 10.2832 26.7998 11.6264 23.6429 11.6264C20.486 11.6264 17.9322 10.2832 17.9322 8.63032C17.9322 7.12222 20.0556 5.87553 22.8185 5.66641C23.3726 5.62216 23.9293 5.62216 24.4834 5.66641H24.5116ZM29.1404 11.4856C29.2754 11.7326 29.3485 12.0086 29.3535 12.29C29.3576 13.9549 26.7958 15.282 23.6389 15.282C20.4819 15.282 17.9282 13.9388 17.9282 12.2859C17.9283 11.9824 18.0118 11.6847 18.1695 11.4253C18.8733 12.6599 21.053 13.5608 23.6389 13.5608C26.2248 13.5608 28.3562 12.6801 29.0881 11.4696C29.1203 11.4133 29.0881 11.4092 29.1404 11.4696V11.4856Z" fill="#FF914D"/>
</g>
<defs>
<clipPath id="clip0_5_2441">
<rect width="49.4172" height="41" fill="white"/>
</clipPath>
</defs>
</svg>
