<svg width="41" height="45" viewBox="0 0 41 45" fill="none" xmlns="http://www.w3.org/2000/svg">
<g clip-path="url(#clip0_0_853)">
<path fill-rule="evenodd" clip-rule="evenodd" d="M20.7825 41.5906V27.4915C20.7863 26.5888 21.1469 25.7242 21.7856 25.0862C22.4242 24.4482 23.2892 24.0886 24.1919 24.0857H37.5586C38.4613 24.0886 39.3263 24.4482 39.9649 25.0862C40.6036 25.7242 40.9642 26.5888 40.968 27.4915V41.5906C40.9651 42.4939 40.605 43.3594 39.9662 43.9982C39.3275 44.637 38.4619 44.9971 37.5586 45H24.1919C23.2886 44.9971 22.423 44.637 21.7843 43.9982C21.1455 43.3594 20.7854 42.4939 20.7825 41.5906ZM21.7859 4.20044L28.96 10.9204H21.7859V4.20044ZM7.58789 25.4077C7.38387 25.4191 7.19256 25.5104 7.05545 25.6619C6.91833 25.8134 6.84648 26.0129 6.85547 26.217C6.84905 26.3186 6.86303 26.4204 6.89659 26.5164C6.93015 26.6125 6.98262 26.7008 7.05089 26.7763C7.11916 26.8517 7.20185 26.9127 7.29408 26.9557C7.38632 26.9986 7.48622 27.0227 7.58789 27.0264H16.5894V25.4077H7.58789ZM7.58789 31.2048C7.38387 31.2162 7.19256 31.3076 7.05545 31.4591C6.91833 31.6106 6.84648 31.81 6.85547 32.0142C6.84905 32.1157 6.86303 32.2175 6.89659 32.3136C6.93015 32.4096 6.98262 32.498 7.05089 32.5734C7.11916 32.6488 7.20185 32.7098 7.29408 32.7528C7.38632 32.7957 7.48622 32.8198 7.58789 32.8235H16.5894V31.2048H7.58789ZM7.58789 13.8098C7.38387 13.8212 7.19256 13.9125 7.05545 14.064C6.91833 14.2155 6.84648 14.415 6.85547 14.6191C6.84955 14.7206 6.86389 14.8222 6.89764 14.918C6.93139 15.0138 6.98388 15.102 7.05206 15.1773C7.12023 15.2526 7.20272 15.3137 7.29472 15.3568C7.38672 15.3999 7.48638 15.4243 7.58789 15.4285H15.9119C16.1149 15.4162 16.3051 15.3251 16.4419 15.1746C16.5787 15.0241 16.6513 14.8261 16.6443 14.6228C16.6502 14.5212 16.6359 14.4194 16.6022 14.3234C16.5685 14.2273 16.5161 14.1389 16.4479 14.0633C16.3798 13.9877 16.2973 13.9263 16.2053 13.8828C16.1133 13.8393 16.0136 13.8145 15.9119 13.8098H7.58789ZM7.58789 8.0127C7.38387 8.02407 7.19256 8.11541 7.05545 8.26692C6.91833 8.41843 6.84648 8.61788 6.85547 8.82203C6.84905 8.92357 6.86303 9.02536 6.89659 9.12141C6.93015 9.21746 6.98262 9.30581 7.05089 9.38125C7.11916 9.45669 7.20185 9.51769 7.29408 9.56064C7.38632 9.6036 7.48622 9.62764 7.58789 9.63135H12.1655C12.3696 9.61998 12.5609 9.52864 12.698 9.37713C12.8351 9.22562 12.9069 9.02617 12.898 8.82203C12.9034 8.72071 12.8887 8.61932 12.8548 8.5237C12.8208 8.42808 12.7683 8.34012 12.7002 8.26489C12.6321 8.18966 12.5498 8.12865 12.4581 8.08536C12.3663 8.04208 12.2669 8.01738 12.1655 8.0127H7.58789ZM7.58789 19.6106C7.38387 19.622 7.19256 19.7133 7.05545 19.8648C6.91833 20.0163 6.84648 20.2158 6.85547 20.4199C6.85005 20.5212 6.86473 20.6226 6.89867 20.7183C6.9326 20.8139 6.98512 20.9018 7.0532 20.9771C7.12129 21.0523 7.20358 21.1133 7.29535 21.1566C7.38712 21.1999 7.48654 21.2246 7.58789 21.2293H21.665C21.8687 21.217 22.0595 21.1253 22.1964 20.974C22.3333 20.8227 22.4055 20.6238 22.3975 20.4199C22.4034 20.3185 22.3891 20.2169 22.3553 20.1211C22.3216 20.0252 22.2691 19.9371 22.2009 19.8618C22.1327 19.7864 22.0502 19.7254 21.9582 19.6823C21.8662 19.6392 21.7666 19.6148 21.665 19.6106H7.58789ZM32.959 11.8835C32.9593 11.6235 32.8747 11.3705 32.718 11.1629C32.5614 10.9554 32.3412 10.8046 32.0911 10.7336L21.5112 0.439456C21.4008 0.301945 21.2608 0.191045 21.1017 0.114974C20.9426 0.0389017 20.7684 -0.000392193 20.592 3.12495e-06H2.14966C1.86754 -0.000478316 1.58809 0.0546743 1.3273 0.162305C1.06651 0.269936 0.829508 0.427933 0.629846 0.627255C0.430184 0.826577 0.271783 1.06331 0.163708 1.32392C0.0556323 1.58452 3.38632e-06 1.86387 3.79711e-06 2.146V38.9099C-0.000528255 39.1923 0.0548582 39.472 0.162967 39.7328C0.271077 39.9936 0.429768 40.2305 0.629887 40.4297C1.03442 40.8302 1.58043 41.0552 2.14966 41.0559H16.6223V38.6572H2.39869V2.40235H19.3872V12.1143C19.3872 12.4338 19.5142 12.7403 19.7401 12.9662C19.9661 13.1922 20.2725 13.3191 20.592 13.3191H30.553V21.1743H32.959V11.8835ZM30.1758 38.8184L25.9351 39.95L26.5466 35.398L30.1758 38.8184ZM27.4658 34.3726L31.9922 29.2456C32.0271 29.2058 32.0699 29.1736 32.1177 29.1509C32.1656 29.1282 32.2176 29.1156 32.2705 29.1138C32.3365 29.1136 32.4017 29.1286 32.4609 29.1577L35.6946 32.0874C35.7583 32.149 35.7951 32.2332 35.7971 32.3218C35.799 32.3709 35.7898 32.4198 35.7701 32.4648C35.7505 32.5098 35.7209 32.5498 35.6836 32.5818L31.0986 37.793L27.4658 34.3726Z" fill="#FF914D"/>
</g>
<defs>
<clipPath id="clip0_0_853">
<rect width="40.968" height="45" fill="white"/>
</clipPath>
</defs>
</svg>
