<svg width="209" height="259" viewBox="0 0 209 259" fill="none" xmlns="http://www.w3.org/2000/svg">
<g opacity="0.2">
<path d="M102.563 259C151.653 259 191.449 255.73 191.449 251.696C191.449 247.661 151.653 244.391 102.563 244.391C53.4733 244.391 13.678 247.661 13.678 251.696C13.678 255.73 53.4733 259 102.563 259Z" fill="#369FFF"/>
</g>
<path d="M102.717 248.482C63.9389 247.119 23.8253 241.827 3.05881 170.361C-3.11757 149.115 0.896603 133.03 7.67463 120.903C9.34799 117.904 11.1906 115.159 13.0895 112.63C13.804 111.681 14.5279 110.76 15.2517 109.866C30.4059 91.2809 55.8165 84.6157 78.3504 92.8321C90.9852 97.4385 107.192 104.245 121.641 113.1C150.671 130.896 157.487 151.174 166.972 185.976C167.79 188.965 168.599 192.312 169.219 195.875C169.548 197.774 169.821 199.739 170.009 201.732C172.115 223.993 163.532 250.616 102.717 248.482Z" fill="#E1EDD2"/>
<path d="M170.009 201.741C168.721 205.361 166.888 209.046 164.444 212.543C157.111 223.053 141.834 235.744 110.736 236.572C109.364 236.609 108.02 236.628 106.685 236.628C94.8019 236.628 84.3199 235.19 74.7404 232.266C64.7191 229.211 55.9763 224.585 48.0043 218.155C34.6833 207.401 23.6937 191.673 12.4032 167.165C7.93779 157.482 5.62518 147.667 5.53117 137.994C5.47477 132.231 6.18923 126.506 7.68397 120.922C9.35733 117.923 11.1999 115.178 13.0989 112.649C12.6194 113.758 12.1494 114.924 11.7075 116.137C7.64637 127.277 4.84491 145.007 14.5936 166.159C34.4201 209.187 57.4052 235.566 110.68 234.174C140.782 233.385 155.466 221.229 162.479 211.18C166.145 205.934 168.213 200.623 169.229 195.894C169.548 197.784 169.821 199.739 170.009 201.741Z" fill="#194E7E"/>
<path d="M114.535 69.8562C114.535 69.8562 138.883 102.891 144.439 119.352C149.995 135.813 136.514 147.498 136.514 147.498L123.992 152.198C123.992 152.189 111.122 94.0823 114.535 69.8562Z" fill="#006ED3"/>
<path d="M112.382 162.389C101.74 165.914 75.7369 175.165 64.4465 171.423C63.967 171.263 63.5252 171.085 63.1022 170.878C61.8706 170.276 60.8836 169.468 60.1879 168.415C55.7601 161.674 51.3699 133.387 53.344 116.766C53.5885 114.689 53.7107 112.433 53.7483 110.064C53.8047 106.576 53.6919 102.844 53.5415 99.0928C52.9868 84.9727 50.7588 75.224 56.8036 71.7927C62.2279 68.7092 69.0905 66.3026 73.4619 65.2591C76.1694 64.6104 80.6066 63.2567 83.7183 63.3131L97.1803 65.7573C97.1803 65.7573 108.8 67.6939 111.479 69.6775C114.158 71.6517 115.531 80.3663 120.372 88.3476C125.214 96.329 126.267 104.339 121.641 113.1C117.618 120.724 118.323 117.829 117.796 130.332C117.157 145.655 133.167 155.507 112.382 162.389Z" fill="#E1EDD2"/>
<g opacity="0.8">
<g opacity="0.8">
<path opacity="0.8" d="M76.6395 90.5946C76.6395 90.5946 91.2297 86.8248 109.853 90.3032L110.304 103.173C110.304 103.173 89.829 100.898 76.931 104.179L76.6395 90.5946Z" fill="#CED3E6"/>
</g>
</g>
<g opacity="0.8">
<path opacity="0.8" d="M93.4012 79.7272C93.2038 79.7272 93.0064 79.7178 92.7996 79.7084C84.8276 79.2947 77.5137 72.2629 77.2129 71.962C76.9967 71.7552 76.9967 71.4074 77.2035 71.1912C77.4103 70.9749 77.7582 70.9749 77.9744 71.1818C78.0496 71.2476 85.2977 78.2324 92.856 78.6179C100.095 79.0033 100.969 71.821 101.007 71.5108C101.044 71.21 101.307 70.9937 101.608 71.0313C101.909 71.0596 102.125 71.3322 102.088 71.633C102.088 71.7176 101.129 79.7272 93.4012 79.7272Z" fill="#CED3E6"/>
</g>
<g opacity="0.8">
<path opacity="0.8" d="M70.8016 144.161C70.7452 144.114 70.6982 144.067 70.6512 144.001C70.4913 143.728 70.5759 143.381 70.8392 143.221C81.2083 136.941 91.1545 134.732 97.6693 133.98C104.748 133.162 109.308 133.82 109.496 133.857C109.806 133.904 110.022 134.196 109.975 134.506C109.928 134.816 109.637 135.033 109.326 134.986C109.279 134.976 104.692 134.318 97.7539 135.127C91.3613 135.869 81.5938 138.05 71.422 144.208C71.234 144.311 70.9896 144.292 70.8016 144.161Z" fill="#CED3E6"/>
</g>
<path d="M84.3576 167.513C74.7781 164.476 66.1105 158.366 60.1973 152.922C59.7273 152.49 59.2761 152.067 58.8436 151.644C55.7789 148.664 53.6167 150.196 52.6766 148.485C49.0949 141.933 51.1255 116.221 52.6766 106.773C54.2278 97.335 47.713 80.0374 51.2195 73.8516C54.726 67.6658 66.8062 65.5037 66.8062 65.5037C66.8062 65.5037 65.0952 63.5107 68.3385 61.2262C71.5818 58.9418 80.2118 59.8913 80.2118 59.8913C80.6254 100.757 86.4164 138.708 84.3576 167.513Z" fill="#369FFF"/>
<path d="M74.9379 155.799C74.6747 155.799 74.449 155.611 74.4114 155.348C70.0494 127.004 74.3644 73.6824 74.4114 73.1466C74.4396 72.8552 74.6935 72.639 74.9849 72.6578C75.2763 72.686 75.5019 72.9398 75.4737 73.2312C75.4267 73.7671 71.1305 126.957 75.4737 155.179C75.5207 155.47 75.3139 155.743 75.0225 155.79C74.9943 155.799 74.9661 155.799 74.9379 155.799Z" fill="#E1EDD2"/>
<path d="M83.709 160.048C83.4552 160.048 83.2296 159.87 83.1826 159.606C77.4763 127.051 77.025 70.8715 77.025 70.3075C77.025 70.016 77.26 69.7716 77.5515 69.7716C77.8429 69.7716 78.0873 70.0066 78.0873 70.2981C78.0873 70.8621 78.548 126.948 84.2355 159.418C84.2825 159.71 84.0945 159.982 83.8031 160.039C83.7655 160.048 83.7372 160.048 83.709 160.048Z" fill="#006ED3"/>
<path d="M74.2422 69.9878C74.1952 69.9878 74.1482 69.9784 74.1012 69.969C69.5888 68.7657 66.825 66.1052 66.7027 65.9924C66.4959 65.7856 66.4865 65.4472 66.6933 65.2403C66.9002 65.0335 67.2386 65.0241 67.4454 65.2309C67.4736 65.2591 70.1341 67.8162 74.3644 68.9443C74.6465 69.0195 74.8157 69.3109 74.7405 69.6023C74.6935 69.828 74.4773 69.9878 74.2422 69.9878Z" fill="#006ED3"/>
<path d="M125.863 149.67C125.863 149.67 122.45 161.167 109.74 166.648C108.161 135.474 104.588 99.8733 99.9725 62.0066C99.9725 62.0066 104.833 61.1511 106.854 63.9338C107.728 65.1277 107.916 67.1583 107.916 67.1583C107.916 67.1583 110.398 67.6377 113.115 68.9068C115.832 70.176 115.522 71.9151 116.17 76.3335C116.819 80.7519 123.644 87.5864 125.863 96.8462C128.081 106.106 122.196 112.01 120.363 119.784C118.52 127.54 125.863 149.67 125.863 149.67Z" fill="#369FFF"/>
<path d="M114.948 154.492C114.657 154.492 114.422 154.267 114.412 153.975C113.181 111.568 105.434 73.673 105.359 73.297C105.303 73.0055 105.481 72.7235 105.773 72.6671C106.064 72.6107 106.346 72.7893 106.403 73.0807C106.478 73.4568 114.243 111.436 115.475 153.947C115.484 154.239 115.249 154.492 114.958 154.492C114.958 154.492 114.958 154.492 114.948 154.492Z" fill="#E1EDD2"/>
<path d="M103.253 71.163C103 71.163 102.774 70.975 102.727 70.7211C102.68 70.4297 102.877 70.1571 103.159 70.1007C103.197 70.0913 106.619 69.4708 107.399 66.9984C107.484 66.7164 107.785 66.5565 108.067 66.6506C108.349 66.7352 108.499 67.036 108.415 67.318C107.427 70.4203 103.498 71.1254 103.338 71.1536C103.31 71.1536 103.282 71.163 103.253 71.163Z" fill="#006ED3"/>
<path d="M113.707 154.492C113.444 154.492 113.209 154.295 113.181 154.022C109.42 122.755 103.479 72.7892 103.423 72.291C103.385 71.9995 103.601 71.7363 103.893 71.6987C104.184 71.6611 104.447 71.8773 104.485 72.1688C104.541 72.667 110.483 122.642 114.243 153.9C114.281 154.191 114.074 154.455 113.773 154.492C113.745 154.492 113.726 154.492 113.707 154.492Z" fill="#006ED3"/>
<path d="M82.1297 176.942C83.756 178.107 86.3131 179.32 90.158 180.542C111.968 187.48 131.964 176.284 131.964 176.284C133.176 170.314 132.424 163.527 130.413 161.045C131.042 160.161 130.629 159.108 130.629 159.108L150.7 138.276C139.287 147.733 125.167 150.826 114.177 157.472C114.177 157.472 114.177 157.472 114.168 157.472C111 159.39 108.151 161.073 106.064 162.239C102.877 164.025 98.8162 164.203 94.8303 163.649C87.0651 162.577 79.6196 158.751 79.6196 158.751C79.6196 158.751 54.6227 147.423 49.9411 147.799C46.3029 148.09 65.9132 168.556 82.1297 176.942Z" fill="#FF993A"/>
<path d="M120.758 194.409C120.758 194.409 114.328 192.557 112.344 190.47L107.87 200.999L123.09 205.746C123.099 205.746 123.306 196.496 120.758 194.409Z" fill="#EA9B7A"/>
<path d="M157.487 224.82L137.811 181.153C137.078 181.097 136.157 181.294 135.123 181.67C131.306 183.062 125.938 186.897 122.488 189.144C122.084 189.407 121.708 189.652 121.36 189.868C120.777 190.225 120.279 190.507 119.903 190.686C116.866 192.049 118.464 193.685 118.464 193.685C124.124 196.514 120.674 204.9 124.124 206.855C124.124 206.855 125.59 207.711 130.272 209.77C134.953 211.828 139.663 216.801 144.025 220.872C149.656 226.136 153.191 226.748 155.212 226.268C156.829 225.892 157.487 224.82 157.487 224.82Z" fill="#006ED3"/>
<path d="M157.487 224.82L137.811 181.153C137.078 181.097 136.157 181.294 135.123 181.67L155.212 226.268C156.829 225.892 157.487 224.82 157.487 224.82Z" fill="#369FFF"/>
<path d="M139.823 185.609L139.24 184.312C138.347 186.277 136.617 188.505 133.308 189.812C128.899 191.541 124.819 190.263 122.497 189.153C122.093 189.417 121.717 189.661 121.369 189.877C123.729 191.146 128.438 192.951 133.722 190.883C136.88 189.624 138.742 187.574 139.823 185.609Z" fill="#369FFF"/>
<path d="M132.519 207.871C132.378 207.551 132.02 207.354 131.654 207.419C131.221 207.495 130.939 207.908 131.014 208.341L131.569 211.377C131.644 211.81 132.058 212.092 132.49 212.017C132.923 211.941 133.205 211.528 133.13 211.095L132.575 208.059C132.566 207.993 132.547 207.927 132.519 207.871Z" fill="#E1EDD2"/>
<path d="M129.031 206.188C128.89 205.868 128.533 205.671 128.166 205.737C127.733 205.812 127.451 206.225 127.527 206.658L128.081 209.694C128.157 210.127 128.57 210.409 129.003 210.334C129.435 210.258 129.717 209.845 129.642 209.412L129.087 206.376C129.078 206.301 129.059 206.244 129.031 206.188Z" fill="#E1EDD2"/>
<path d="M135.339 209.882C135.198 209.563 134.841 209.365 134.474 209.431C134.041 209.506 133.759 209.92 133.835 210.352L134.389 213.389C134.464 213.821 134.878 214.103 135.311 214.028C135.743 213.953 136.025 213.539 135.95 213.107L135.395 210.07C135.386 210.005 135.367 209.939 135.339 209.882Z" fill="#E1EDD2"/>
<path d="M138.093 211.922C137.952 211.603 137.595 211.405 137.228 211.471C136.796 211.546 136.514 211.96 136.589 212.392L137.144 215.429C137.219 215.861 137.633 216.143 138.065 216.068C138.498 215.993 138.78 215.579 138.704 215.147L138.15 212.11C138.131 212.045 138.112 211.979 138.093 211.922Z" fill="#E1EDD2"/>
<path d="M140.838 214.263C140.697 213.944 140.34 213.746 139.974 213.812C139.541 213.887 139.259 214.301 139.334 214.733L139.889 217.77C139.964 218.202 140.378 218.484 140.81 218.409C141.243 218.334 141.525 217.92 141.449 217.488L140.895 214.451C140.885 214.386 140.867 214.32 140.838 214.263Z" fill="#E1EDD2"/>
<path d="M143.499 216.952C143.358 216.632 143.001 216.435 142.634 216.501C142.201 216.576 141.919 216.989 141.995 217.422L142.549 220.458C142.625 220.891 143.038 221.173 143.471 221.098C143.903 221.022 144.185 220.609 144.11 220.176L143.555 217.14C143.536 217.065 143.518 217.008 143.499 216.952Z" fill="#E1EDD2"/>
<path d="M49.9505 147.799C49.9505 147.799 34.1288 139.263 24.9724 145.862C8.22 157.933 36.6483 181.144 69.1753 192.481C101.702 203.819 112.259 202.268 112.259 202.268C112.259 202.268 119.329 200.322 116.819 188.871C116.819 188.871 98.0736 181.746 88.3155 174.281C78.548 166.808 71.9015 157.661 49.9505 147.799Z" fill="#FF993A"/>
<path d="M115.54 192.199C108.715 190.564 94.8209 184.18 78.36 175.146C66.0448 168.387 51.8495 159.748 49.7625 156.749C48.6344 155.132 48.3524 153.806 48.9164 152.81C49.7625 151.324 52.2067 151.174 53.316 151.183C53.5981 151.183 53.8237 151.428 53.8049 151.71C53.7861 151.973 53.5699 152.17 53.3066 152.17C52.2161 152.161 50.3078 152.349 49.7719 153.299C49.3207 154.088 49.9599 155.301 50.571 156.175C52.2537 158.591 64.1364 166.206 78.83 174.272C91.4836 181.219 107.832 189.323 115.766 191.231L115.54 192.199Z" fill="#FF7E07"/>
<path d="M114.253 187.349C113.482 193.365 111.921 198.836 108.527 203.039C108.527 203.039 111.442 205.135 114.102 203.631C116.133 202.484 120.053 193.083 118.558 188.063C116.857 187.132 115.39 186.803 114.253 187.349Z" fill="#FF7E07"/>
<path d="M72.9826 193.215C72.9826 193.215 79.4504 191.964 81.2836 189.746L86.4446 199.946L71.5819 205.699C71.5725 205.708 70.576 195.471 72.9826 193.215Z" fill="#EA9B7A"/>
<path d="M38.5377 227.039L55.2525 182.159C55.9858 182.046 56.907 182.187 57.9693 182.498C61.8707 183.635 67.483 187.095 71.0741 189.116C71.4972 189.351 71.8826 189.567 72.2493 189.755C72.8603 190.075 73.368 190.328 73.7628 190.469C76.8839 191.626 75.5866 192.509 75.5866 192.509C69.4384 195.395 73.9414 204.702 70.6323 206.893C70.6323 206.893 69.2222 207.842 64.691 210.211C60.1597 212.58 55.7883 217.854 51.7083 222.207C46.4439 227.829 42.9561 228.684 40.9067 228.336C39.271 228.064 38.5377 227.039 38.5377 227.039Z" fill="#006ED3"/>
<path d="M38.5377 227.039L55.2525 182.159C55.9858 182.046 56.907 182.187 57.9693 182.498L40.8973 228.336C39.271 228.064 38.5377 227.039 38.5377 227.039Z" fill="#369FFF"/>
<path d="M53.5415 186.737L54.0397 185.402C55.0644 187.301 56.9352 189.417 60.3289 190.488C64.8414 191.927 68.8273 190.375 71.0741 189.106C71.4972 189.341 71.8826 189.558 72.2492 189.746C69.9836 191.174 65.396 193.29 59.9905 191.569C56.7472 190.554 54.7542 188.617 53.5415 186.737Z" fill="#369FFF"/>
<path d="M62.3125 208.463C62.4347 208.134 62.7732 207.908 63.1398 207.955C63.5722 208.002 63.8824 208.397 63.8354 208.829L63.4876 211.894C63.4406 212.327 63.0458 212.637 62.6133 212.59C62.1809 212.543 61.8707 212.148 61.9177 211.716L62.2655 208.651C62.2749 208.585 62.2937 208.519 62.3125 208.463Z" fill="#E1EDD2"/>
<path d="M65.6874 206.545C65.8096 206.216 66.148 205.99 66.5147 206.037C66.9471 206.084 67.2573 206.479 67.2103 206.912L66.8625 209.976C66.8155 210.409 66.4207 210.719 65.9882 210.672C65.5558 210.625 65.2455 210.23 65.2925 209.798L65.6404 206.733C65.6498 206.667 65.6686 206.601 65.6874 206.545Z" fill="#E1EDD2"/>
<path d="M59.6427 210.663C59.7649 210.333 60.1033 210.117 60.47 210.155C60.9024 210.202 61.2126 210.597 61.1656 211.029L60.8178 214.094C60.7708 214.526 60.376 214.837 59.9435 214.789C59.5111 214.742 59.2009 214.348 59.2479 213.915L59.5957 210.851C59.6051 210.785 59.6239 210.719 59.6427 210.663Z" fill="#E1EDD2"/>
<path d="M57.0293 212.881C57.1515 212.552 57.49 212.336 57.8566 212.374C58.289 212.421 58.5993 212.815 58.5523 213.248L58.2044 216.312C58.1574 216.745 57.7626 217.055 57.3301 217.008C56.8977 216.961 56.5875 216.566 56.6345 216.134L56.9823 213.069C56.9917 213.003 57.0105 212.938 57.0293 212.881Z" fill="#E1EDD2"/>
<path d="M54.444 215.401C54.5662 215.072 54.9046 214.855 55.2713 214.893C55.7037 214.94 56.0139 215.335 55.9669 215.767L55.6191 218.832C55.5721 219.264 55.1773 219.575 54.7448 219.528C54.3124 219.481 54.0021 219.086 54.0491 218.653L54.397 215.589C54.4064 215.523 54.4252 215.457 54.444 215.401Z" fill="#E1EDD2"/>
<path d="M51.9716 218.249C52.0938 217.92 52.4322 217.694 52.7988 217.741C53.2313 217.788 53.5415 218.183 53.4945 218.616L53.1467 221.68C53.0997 222.113 52.7048 222.423 52.2724 222.376C51.8399 222.329 51.5297 221.934 51.5767 221.502L51.9246 218.437C51.934 218.371 51.9528 218.315 51.9716 218.249Z" fill="#E1EDD2"/>
<path d="M144.251 140.861C144.251 140.861 159.217 130.906 168.947 136.64C186.742 147.122 160.561 172.843 129.209 187.113C97.8666 201.384 87.206 200.81 87.206 200.81C87.206 200.81 79.9956 199.522 81.4339 187.884C81.4339 187.884 99.446 179.066 108.48 170.737C117.514 162.417 123.296 152.697 144.251 140.861Z" fill="#FF993A"/>
<path d="M116.875 192.481C115.145 193.045 113.397 193.619 111.582 194.192C104.569 196.401 96.5598 198.714 89.3118 200.491L89.2836 201.525C95.836 199.927 103.516 197.765 111.874 195.132C113.51 194.615 115.174 194.079 116.847 193.525L116.875 192.481Z" fill="#FF7E07"/>
<path d="M83.0132 191.09C89.6597 188.834 102.915 181.21 118.473 170.699C130.112 162.84 143.461 152.932 145.256 149.754C146.225 148.043 146.394 146.699 145.736 145.759C144.758 144.358 142.314 144.424 141.205 144.537C140.923 144.565 140.716 144.828 140.763 145.11C140.81 145.364 141.035 145.543 141.299 145.524C142.389 145.42 144.298 145.43 144.927 146.323C145.444 147.066 144.927 148.335 144.401 149.265C142.953 151.822 131.813 160.49 117.919 169.882C105.961 177.957 90.4211 187.527 82.6936 190.159L83.0132 191.09Z" fill="#FF7E07"/>
<path d="M83.8405 186.145C85.1566 192.068 87.2154 197.37 90.9852 201.243C90.9852 201.243 88.2777 203.603 85.4951 202.343C83.3705 201.384 78.6042 192.378 79.6289 187.245C81.2365 186.164 82.6654 185.713 83.8405 186.145Z" fill="#FF7E07"/>
<path d="M81.8194 138.661L80.6161 155.837C80.6161 155.837 60.188 152.923 50.1667 150.365C47.243 149.623 43.9715 148.664 40.9632 147.066C35.4261 144.123 30.8385 139 31.1769 129.016C31.2803 125.81 31.9008 122.106 33.1605 117.801C40.4556 92.8603 52.6767 71.9152 52.6767 71.9152C68.4044 78.6462 67.0788 89.852 67.0788 89.852C62.5946 101.819 52.6767 127.305 52.6767 127.305C58.4394 134.346 81.8194 138.661 81.8194 138.661Z" fill="#369FFF"/>
<path d="M52.6766 127.841C52.5826 127.841 52.4792 127.813 52.3946 127.756C50.6555 126.685 45.9268 125.566 45.8798 125.557C45.5884 125.491 45.4098 125.199 45.485 124.917C45.5508 124.626 45.8422 124.457 46.1242 124.523C46.2935 124.56 49.612 125.34 51.8024 126.28C51.4827 125.566 50.9563 124.805 50.2324 123.977C50.035 123.752 50.0632 123.423 50.2794 123.225C50.505 123.028 50.8341 123.056 51.0315 123.272C52.2912 124.701 53.0057 125.998 53.2031 127.23C53.2407 127.437 53.1467 127.644 52.9775 127.756C52.8835 127.813 52.7801 127.841 52.6766 127.841Z" fill="#084FC7"/>
<path d="M40.9726 147.066C35.4355 144.123 30.8479 139 31.1863 129.016C35.5671 131.31 43.21 136.875 40.9726 147.066Z" fill="#006ED3"/>
<path d="M68.9779 136.02C68.9308 136.02 68.8932 136.01 68.8462 136.001C58.7309 133.387 52.5827 127.935 52.3289 127.7C52.1503 127.54 52.1033 127.277 52.2067 127.061C59.4266 112.875 63.986 101.612 66.5712 91.6099C66.6464 91.3279 66.9379 91.1493 67.2199 91.2245C67.5019 91.2997 67.6805 91.5911 67.6053 91.8732C65.0201 101.866 60.4889 113.082 53.3442 127.164C54.7073 128.292 60.4983 132.739 69.1095 134.957C69.3915 135.033 69.5701 135.324 69.4949 135.606C69.4291 135.86 69.2129 136.02 68.9779 136.02Z" fill="#084FC7"/>
<path d="M64.926 99.5725C64.8132 99.5725 64.6909 99.5349 64.5969 99.4597C64.3619 99.2717 64.3243 98.9427 64.5123 98.7077L68.2633 93.9978C68.4513 93.7628 68.7803 93.7252 69.0154 93.9132C69.2504 94.1012 69.288 94.4303 69.1 94.6653L65.349 99.3751C65.2362 99.4973 65.0858 99.5725 64.926 99.5725Z" fill="#084FC7"/>
<path d="M82.4117 56.2814L100.555 58.8761C112.344 57.701 116.095 53.0099 118.022 43.1014C118.99 38.119 118.351 33.7193 117.402 30.4478C117.157 26.7251 116.302 23.51 114.544 21.3854C106.581 11.7871 99.5683 12.1631 99.5683 12.1631C96.0054 10.5274 84.2355 9.40869 76.4703 18.8378C76.2259 19.0446 71.4879 24.0646 70.3974 34.5936C69.3445 44.6338 76.0473 57.4566 82.4117 56.2814Z" fill="#39393B"/>
<path d="M92.5458 14.7954C92.5458 14.7954 94.4354 -1.93815 79.582 0.186452C69.8803 1.56838 63.8732 14.7202 72.7476 20.6898C81.622 26.6593 92.5458 14.7954 92.5458 14.7954Z" fill="#39393B"/>
<path d="M74.2425 22.4101C74.1673 22.4101 74.092 22.3913 74.0168 22.3537C73.7912 22.2315 73.7066 21.94 73.8288 21.7144C77.2695 15.4628 82.1768 12.699 85.6833 11.4769C89.4907 10.1607 92.452 10.3206 92.5742 10.3206C92.8374 10.3394 93.0348 10.5556 93.016 10.8188C92.9972 11.082 92.781 11.2794 92.5178 11.2606C92.405 11.2512 80.9453 10.7248 74.6561 22.1657C74.5621 22.3161 74.4023 22.4101 74.2425 22.4101Z" fill="#006ED3"/>
<path d="M83.8313 52.5023C83.8313 52.5023 72.2588 46.0251 74.5338 32.5443C76.8089 19.0634 85.6833 10.9504 99.2864 14.8612C99.2958 14.8612 97.9702 53.8278 83.8313 52.5023Z" fill="#39393B"/>
<path d="M116.02 27.7122C116.02 27.7122 117.204 39.2846 115.089 40.958C112.983 42.6313 110.915 38.0531 110.915 38.0531C110.915 38.0531 113.792 27.8438 116.02 27.7122Z" fill="#39393B"/>
<path d="M110.689 42.0111C110.689 42.0111 114.14 38.984 115.286 42.6974C116.433 46.4107 114.111 53.2452 109.815 51.4308L110.689 42.0111Z" fill="#D46A43"/>
<path d="M114.939 50.5846C114.469 51.017 113.942 51.3931 113.369 51.7033C111.197 52.869 108.367 53.01 104.964 51.2238C104.964 51.2238 100.612 45.5645 107.042 35.5808C107.042 35.5808 112.936 34.0296 116.311 37.5926C116.687 37.9874 117.026 38.4387 117.326 38.9651C117.514 39.2847 117.674 39.6326 117.825 40.0086C119.019 43.0451 117.909 47.8865 114.939 50.5846Z" fill="#FF993A"/>
<path d="M114.788 36.38C115.061 35.045 115.333 33.3905 115.512 31.5573C115.427 31.5949 115.343 31.6231 115.249 31.6231C114.882 31.6513 114.525 31.5009 114.168 31.2377C114.008 32.9486 113.763 34.4998 113.519 35.7877L114.788 36.38Z" fill="#E1EDD2"/>
<path d="M114.939 50.5847C114.469 51.0171 113.942 51.3931 113.369 51.7034C116.349 45.527 116.433 39.8865 116.311 37.5927C116.687 37.9875 117.026 38.4387 117.326 38.9652C117.326 41.5598 116.941 45.8278 114.939 50.5847Z" fill="#FF7E07"/>
<path d="M100.63 58.7069L99.2109 68.277C99.2109 68.277 93.3542 75.7883 79.7981 63.539C81.3398 59.647 83.7089 54.6363 83.0978 50.8008C83.0978 50.8008 84.0849 51.7127 85.7959 52.7938C86.1437 53.0194 86.5197 53.2544 86.9146 53.4894C90.4305 55.6328 95.8078 58.3685 100.63 58.7069Z" fill="#EA9B7A"/>
<path d="M100.63 58.707L99.9629 63.1818C96.0051 61.6588 89.1613 58.3591 85.7864 52.7844C86.1342 53.01 86.5102 53.2451 86.9051 53.4801C90.4304 55.6329 95.8077 58.3685 100.63 58.707Z" fill="#39393B"/>
<path d="M113.632 42.4341C113.482 43.4211 113.341 44.3518 113.19 45.2355C112.1 51.8349 111.103 55.3885 109.27 56.7986C99.9913 63.9151 83.6337 51.3367 83.1073 50.9324C83.0979 50.923 83.0979 50.923 83.0979 50.923C83.0415 50.1522 83.0039 49.3907 82.9851 48.648C82.7689 42.293 83.5491 36.5397 84.9969 31.1718C85.5515 25.3715 89.7725 20.5206 95.4788 19.3549C101.392 18.1516 106.055 21.3667 108.941 22.7392C113.293 24.8262 115.286 31.153 114.064 39.5574C113.914 40.5633 113.773 41.5316 113.632 42.4341Z" fill="#EA9B7A"/>
<path d="M105.34 50.124C100.151 50.124 98.0735 45.1603 98.0547 45.1039C97.9607 44.8595 98.0735 44.5868 98.3179 44.4928C98.5624 44.3988 98.835 44.5116 98.929 44.7561C99.023 44.9723 101.195 50.124 106.854 49.0335C107.108 48.9864 107.362 49.1557 107.409 49.4095C107.456 49.6633 107.286 49.9077 107.033 49.9641C106.431 50.077 105.867 50.124 105.34 50.124Z" fill="#39393B"/>
<path d="M101.345 32.206C102.68 31.7453 102.407 29.7805 100.997 29.6865C98.5998 29.5267 94.7455 29.5925 94.4259 31.5291C93.9558 34.3588 98.4306 33.1837 101.26 32.2342C101.288 32.2248 101.317 32.2154 101.345 32.206Z" fill="#39393B"/>
<path d="M108.424 33.0425C107.39 32.0836 108.433 30.3914 109.759 30.8803C112.015 31.7076 115.521 33.3151 115.033 35.2141C114.327 37.9967 110.699 35.1107 108.49 33.1083C108.461 33.0801 108.443 33.0613 108.424 33.0425Z" fill="#39393B"/>
<path d="M101.514 52.446C102.464 52.681 103.263 52.5024 103.319 52.4836C103.488 52.446 103.592 52.2768 103.554 52.1075C103.517 51.9383 103.347 51.8349 103.178 51.8725C103.159 51.8725 101.608 52.2204 100.433 51.1863C100.301 51.0734 100.104 51.0828 99.9912 51.2145C99.8784 51.3461 99.8878 51.5435 100.019 51.6563C100.499 52.0887 101.025 52.3238 101.514 52.446Z" fill="#D46A43"/>
<path d="M104.767 45.997C104.682 45.9594 104.626 45.8842 104.588 45.7996C104.532 45.621 104.626 45.4236 104.805 45.3671L107.07 44.6245L105.726 43.2614C105.651 43.1861 105.613 43.0827 105.632 42.9793L106.045 39.2284C106.064 39.0404 106.233 38.8993 106.431 38.9275C106.619 38.9464 106.76 39.1156 106.732 39.3036L106.328 42.8853L107.944 44.5211C108.029 44.6057 108.067 44.7279 108.038 44.8407C108.01 44.9535 107.926 45.0475 107.813 45.0851L105.021 46.0064C104.936 46.044 104.852 46.0346 104.767 45.997Z" fill="#39393B"/>
<path d="M98.9007 42.4059C98.7879 43.1862 97.0864 43.5716 95.1122 43.2802C93.138 42.9888 91.6244 42.1145 91.7467 41.3342C91.8595 40.5539 93.561 40.1685 95.5352 40.4599C97.5094 40.7607 99.0135 41.635 98.9007 42.4059Z" fill="#D46A43"/>
<g opacity="0.8">
<g opacity="0.8">
<g opacity="0.8">
<g opacity="0.8">
<g opacity="0.8">
<g opacity="0.8">
<g opacity="0.8">
<g opacity="0.8">
<g opacity="0.8">
<g opacity="0.8">
<g opacity="0.8">
<path opacity="0.8" d="M113.632 43.346C113.481 44.3331 113.34 45.2638 113.19 46.1475C111.385 45.809 110.06 44.9912 110.172 44.2673C110.276 43.5246 111.799 43.1392 113.632 43.346Z" fill="#D46A43"/>
</g>
</g>
</g>
</g>
</g>
</g>
</g>
</g>
</g>
</g>
</g>
<path d="M100.828 39.6231C100.668 40.6948 100.057 41.4845 99.4554 41.3999C98.8537 41.3153 98.5059 40.3752 98.6563 39.3035C98.8161 38.2318 99.4271 37.4421 100.029 37.5267C100.63 37.6113 100.988 38.5514 100.828 39.6231Z" fill="#39393B"/>
<path d="M111.404 41.1931C111.244 42.2648 110.633 43.0544 110.031 42.9698C109.43 42.8852 109.082 41.9451 109.232 40.8734C109.392 39.8017 110.003 39.0121 110.605 39.0967C111.206 39.1907 111.554 40.1308 111.404 41.1931Z" fill="#39393B"/>
<path d="M87.2343 47.1157C87.1685 47.2285 85.2789 50.2744 83.1073 50.9325C83.0979 50.9231 83.0979 50.9231 83.0979 50.9231C83.0415 50.1522 83.0039 49.3907 82.9851 48.6481C83.0603 48.6387 85.1473 48.5917 87.2343 47.1157Z" fill="#39393B"/>
<path d="M86.3788 39.3976C86.3788 39.3976 82.9569 33.0238 79.1589 37.0662C76.0284 40.3941 79.4127 51.0171 85.1755 48.1781L86.3788 39.3976Z" fill="#EA9B7A"/>
<path d="M84.7335 46.4389C84.5079 46.4013 84.3481 46.2132 84.3575 45.9782C84.5267 41.5598 81.1142 39.5104 80.9732 39.4258C80.7664 39.3036 80.6912 39.031 80.8134 38.8147C80.9356 38.5985 81.2082 38.5327 81.4244 38.6549C81.5843 38.7489 85.448 41.0522 85.2506 46.0158C85.2412 46.2602 85.0344 46.4483 84.79 46.4389C84.7712 46.4389 84.7523 46.4389 84.7335 46.4389Z" fill="#39393B"/>
<path d="M81.0297 43.1673C80.8981 43.1485 80.7853 43.0733 80.7101 42.9511C80.5879 42.7443 80.6537 42.4717 80.8699 42.34C81.0673 42.2272 82.8253 41.2119 84.0944 41.7478C84.32 41.8418 84.4235 42.105 84.3294 42.3306C84.2354 42.5563 83.9722 42.6597 83.7466 42.5657C83.0133 42.2554 81.716 42.8665 81.3212 43.1015C81.2272 43.1579 81.1238 43.1767 81.0297 43.1673Z" fill="#39393B"/>
<path d="M96.9736 45.2355C93.6269 43.957 91.9441 40.1966 93.2226 36.8499C94.5011 33.5032 98.2615 31.8205 101.608 33.099C104.955 34.3775 106.638 38.1378 105.359 41.4846C104.081 44.8313 100.32 46.514 96.9736 45.2355ZM101.27 33.9827C98.4119 32.8922 95.1968 34.3305 94.1063 37.1884C93.0158 40.0462 94.4541 43.2613 97.312 44.3518C100.17 45.4423 103.385 44.004 104.475 41.1461C105.566 38.2883 104.128 35.0732 101.27 33.9827Z" fill="#E1EDD2"/>
<path d="M93.4295 37.7148C93.3731 37.7148 93.3167 37.696 93.2603 37.6678C89.7443 36.0603 86.4446 37.2824 86.407 37.3012C86.1626 37.3952 85.89 37.273 85.796 37.0286C85.702 36.7841 85.8242 36.5115 86.0686 36.4175C86.219 36.3611 89.7819 35.0356 93.6551 36.8123C93.8901 36.9251 93.9935 37.2072 93.8901 37.4422C93.7961 37.6208 93.6175 37.7242 93.4295 37.7148Z" fill="#E1EDD2"/>
<path d="M111.347 46.8618C108.001 45.5833 106.318 41.823 107.596 38.4763C108.875 35.1296 112.635 33.4468 115.982 34.7253C119.329 36.0038 121.011 39.7642 119.733 43.1109C118.464 46.4576 114.694 48.1404 111.347 46.8618ZM115.653 35.609C112.795 34.5185 109.58 35.9568 108.489 38.8147C107.399 41.6726 108.837 44.8877 111.695 45.9782C114.553 47.0687 117.768 45.6303 118.859 42.7725C119.949 39.9146 118.511 36.6995 115.653 35.609Z" fill="#E1EDD2"/>
<path d="M105.058 38.7301C104.983 38.6925 104.927 38.6361 104.88 38.5609C104.739 38.3353 104.805 38.0439 105.03 37.9029C105.096 37.8653 106.675 36.897 108.32 38.1567C108.527 38.3165 108.565 38.6173 108.405 38.8242C108.245 39.031 107.944 39.0686 107.738 38.9088C106.61 38.0439 105.538 38.7019 105.528 38.7019C105.378 38.8053 105.199 38.8054 105.058 38.7301Z" fill="#E1EDD2"/>
<path d="M108.537 16.9107C112.485 18.6874 115.587 21.9777 116.969 26.0765C117.834 28.643 118.558 32.0367 114.948 31.5948C105.096 30.4009 99.822 20.1728 99.822 20.1728C99.822 20.1728 97.9043 29.5925 90.1673 28.4455C82.4304 27.2892 82.6748 21.4607 87.0744 18.161C90.6562 15.4629 99.7844 12.9623 108.537 16.9107Z" fill="#39393B"/>
<path d="M90.4681 27.355C90.4681 27.355 86.0685 32.0836 87.6479 37.1695C89.2272 42.2554 89.3306 46.3353 87.6855 49.071C87.6855 49.071 87.2624 43.7125 85.2977 39.6513C83.6901 36.314 82.186 33.7758 83.3517 29.9308C84.1508 27.2986 86.0779 24.7603 90.4681 27.355Z" fill="#39393B"/>
<path d="M83.3142 50.4342C79.9016 51.2614 77.26 50.782 75.3046 49.5505C74.9944 49.3531 74.703 49.1368 74.4209 48.9112C70.3221 45.4799 70.0213 38.3634 72.5313 34.8757C73.415 33.6442 74.4397 32.8169 75.5208 32.2905C75.8499 32.1212 76.1789 31.9896 76.5079 31.8862C80.7477 30.4949 85.3447 33.0425 85.3447 33.0425C90.158 46.2602 83.3142 50.4342 83.3142 50.4342Z" fill="#FF993A"/>
<path d="M95.319 56.2156C85.3447 54.1756 81.1049 46.9934 80.9075 46.6455C80.7477 46.3729 80.8417 46.0157 81.1237 45.8559C81.3963 45.696 81.7536 45.7901 81.9134 46.0721C81.9792 46.1849 87.1591 54.8901 99.2486 55.5482C99.5682 55.567 99.8127 55.8396 99.7938 56.1592C99.775 56.4788 99.5024 56.7233 99.1828 56.7045C97.8103 56.6293 96.5223 56.46 95.319 56.2156Z" fill="#E1EDD2"/>
<path d="M102.426 56.5542C102.219 57.5507 101.242 58.1993 100.245 57.9925C99.2487 57.7857 98.6001 56.808 98.8069 55.8115C99.0137 54.815 99.9914 54.1663 100.988 54.3732C101.984 54.58 102.633 55.5483 102.426 56.5542Z" fill="#243434"/>
<path d="M75.3047 49.5505C74.9945 49.3531 74.703 49.1368 74.421 48.9112C77.5797 41.7666 76.508 35.5244 75.5115 32.2905C75.8405 32.1213 76.1696 31.9896 76.4986 31.8862C77.5703 35.3081 78.7266 41.9734 75.3047 49.5505Z" fill="#FF7E07"/>
<path d="M115.794 23.3972C114.957 21.8272 114.027 20.7837 113.566 20.2667C113.181 19.148 112.767 18.0951 112.147 17.1174C110.06 13.8083 106.76 11.7777 102.323 11.0914C97.5376 10.3488 93.3824 11.2982 89.9793 13.9023C88.917 14.7108 87.9769 15.6602 87.1308 16.6755C85.9651 18.0951 84.9968 19.665 84.2071 21.235C81.4621 26.7251 80.804 32.3656 80.7946 32.4408L79.4879 32.2998C79.5443 31.7639 81.0202 19.0916 89.1708 12.8494C92.8653 10.0197 97.359 8.98562 102.52 9.7847C107.352 10.5274 110.962 12.7648 113.256 16.4123C114.6 18.5181 115.38 20.9341 115.794 23.3972Z" fill="#E1EDD2"/>
<path d="M66.195 168.067L61.645 159.418C60.5075 157.266 62.0962 154.68 64.531 154.699L136.006 155.47L133.9 166.544L66.195 168.067Z" fill="#39393B"/>
<path d="M132.659 165.632H68.6956C67.1539 165.632 66.0352 164.382 66.2138 162.84L70.5758 123.319C70.745 121.777 72.1364 120.527 73.6781 120.527H137.642C139.183 120.527 140.302 121.777 140.124 123.319L135.761 162.84C135.592 164.382 134.201 165.632 132.659 165.632Z" fill="#39393B"/>
<path d="M67.7462 167.334C67.7274 167.334 67.6992 167.334 67.6804 167.334C67.3889 167.297 67.1727 167.024 67.2103 166.732L72.5218 124.41C72.5594 124.118 72.832 123.902 73.1235 123.94C73.4149 123.977 73.6311 124.25 73.5935 124.541L68.282 166.864C68.2444 167.137 68.0094 167.334 67.7462 167.334Z" fill="#564C54"/>
<path d="M98.863 143.785C98.6186 146.962 100.959 149.698 104.08 149.895C107.211 150.093 109.947 147.686 110.191 144.509C110.435 141.331 108.095 138.596 104.974 138.398C101.843 138.201 99.1074 140.607 98.863 143.785Z" fill="#585859"/>
<path d="M132.969 169.073H68.1222C66.6933 169.073 65.6028 167.813 65.7908 166.403L66.4112 161.881H136.006L135.301 167.033C135.141 168.208 134.145 169.073 132.969 169.073Z" fill="#39393B"/>
<path d="M151.133 82.9155C151.133 98.6938 163.926 111.502 179.719 111.502C195.498 111.502 208.306 98.7091 208.306 82.9155C208.306 67.1372 195.513 54.3287 179.719 54.3287C163.926 54.3287 151.133 67.1372 151.133 82.9155Z" fill="#369FFF"/>
<path d="M167.841 72.5302V64.6102H168.881L171.752 70.5667L174.606 64.6102H175.657V72.5247H174.568V67.1072L172.01 72.5302H171.488L168.925 67.1072V72.5302H167.841ZM178.875 72.6952C178.435 72.6952 178.067 72.6145 177.77 72.4532C177.473 72.2882 177.247 72.0718 177.093 71.8042C176.943 71.5328 176.868 71.2358 176.868 70.9132C176.868 70.6125 176.921 70.3485 177.027 70.1212C177.134 69.8938 177.291 69.7013 177.5 69.5437C177.709 69.3823 177.966 69.2522 178.27 69.1532C178.534 69.0762 178.833 69.0083 179.167 68.9497C179.5 68.891 179.851 68.836 180.217 68.7847C180.588 68.7333 180.954 68.682 181.317 68.6307L180.899 68.8617C180.907 68.396 180.808 68.0513 180.602 67.8277C180.401 67.6003 180.052 67.4867 179.557 67.4867C179.246 67.4867 178.96 67.56 178.699 67.7067C178.439 67.8497 178.257 68.088 178.155 68.4217L177.082 68.0917C177.229 67.582 177.508 67.1768 177.918 66.8762C178.333 66.5755 178.883 66.4252 179.568 66.4252C180.1 66.4252 180.562 66.5168 180.954 66.7002C181.35 66.8798 181.64 67.1658 181.823 67.5582C181.919 67.7525 181.977 67.9578 181.999 68.1742C182.021 68.3905 182.032 68.6233 182.032 68.8727V72.5302H181.015V71.1717L181.213 71.3477C180.967 71.8023 180.654 72.1415 180.272 72.3652C179.895 72.5852 179.429 72.6952 178.875 72.6952ZM179.079 71.7547C179.405 71.7547 179.686 71.6978 179.92 71.5842C180.155 71.4668 180.344 71.3183 180.487 71.1387C180.63 70.959 180.723 70.772 180.767 70.5777C180.83 70.4017 180.864 70.2037 180.872 69.9837C180.883 69.7637 180.888 69.5877 180.888 69.4557L181.262 69.5932C180.899 69.6482 180.569 69.6977 180.272 69.7417C179.975 69.7857 179.706 69.8297 179.464 69.8737C179.225 69.914 179.013 69.9635 178.826 70.0222C178.668 70.0772 178.527 70.1432 178.402 70.2202C178.281 70.2972 178.184 70.3907 178.111 70.5007C178.041 70.6107 178.006 70.7445 178.006 70.9022C178.006 71.0562 178.045 71.1992 178.122 71.3312C178.199 71.4595 178.316 71.5622 178.474 71.6392C178.631 71.7162 178.833 71.7547 179.079 71.7547ZM183.93 75.1702L185.08 72.0407L185.096 72.9647L182.506 66.5902H183.705L185.641 71.5127H185.289L187.137 66.5902H188.303L185.025 75.1702H183.93ZM191.477 72.5302V64.6102H192.626V72.5302H191.477ZM169.071 87.5302V79.6102H170.221V83.0257H174.181V79.6102H175.336V87.5302H174.181V84.1092H170.221V87.5302H169.071ZM179.515 87.6952C178.925 87.6952 178.406 87.5668 177.959 87.3102C177.515 87.0498 177.169 86.6887 176.919 86.2267C176.674 85.761 176.551 85.222 176.551 84.6097C176.551 83.9607 176.672 83.3978 176.914 82.9212C177.159 82.4445 177.5 82.076 177.937 81.8157C178.373 81.5553 178.881 81.4252 179.46 81.4252C180.065 81.4252 180.58 81.5663 181.006 81.8487C181.431 82.1273 181.748 82.5252 181.957 83.0422C182.17 83.5592 182.254 84.1733 182.21 84.8847H181.061V84.4667C181.053 83.7773 180.921 83.2677 180.665 82.9377C180.412 82.6077 180.025 82.4427 179.504 82.4427C178.929 82.4427 178.496 82.6242 178.206 82.9872C177.917 83.3502 177.772 83.8745 177.772 84.5602C177.772 85.2128 177.917 85.7188 178.206 86.0782C178.496 86.4338 178.914 86.6117 179.46 86.6117C179.82 86.6117 180.129 86.531 180.39 86.3697C180.654 86.2047 180.859 85.97 181.006 85.6657L182.133 86.0232C181.902 86.5548 181.552 86.9673 181.083 87.2607C180.613 87.5503 180.091 87.6952 179.515 87.6952ZM177.398 84.8847V83.9882H181.638V84.8847H177.398ZM183.554 87.5302V79.4452H184.704V87.5302H183.554ZM189.144 87.6952C188.576 87.6952 188.099 87.5577 187.714 87.2827C187.329 87.004 187.037 86.6282 186.839 86.1552C186.641 85.6822 186.542 85.1487 186.542 84.5547C186.542 83.9607 186.64 83.4272 186.834 82.9542C187.032 82.4812 187.322 82.109 187.703 81.8377C188.088 81.5627 188.561 81.4252 189.122 81.4252C189.679 81.4252 190.16 81.5627 190.563 81.8377C190.97 82.109 191.283 82.4812 191.503 82.9542C191.723 83.4235 191.833 83.957 191.833 84.5547C191.833 85.1487 191.723 85.684 191.503 86.1607C191.287 86.6337 190.977 87.0077 190.574 87.2827C190.174 87.5577 189.698 87.6952 189.144 87.6952ZM186.35 90.1702V81.5902H187.373V85.8637H187.505V90.1702H186.35ZM188.984 86.6557C189.351 86.6557 189.654 86.5622 189.892 86.3752C190.134 86.1882 190.314 85.937 190.431 85.6217C190.552 85.3027 190.612 84.947 190.612 84.5547C190.612 84.166 190.552 83.814 190.431 83.4987C190.314 83.1833 190.132 82.9322 189.886 82.7452C189.641 82.5582 189.327 82.4647 188.946 82.4647C188.587 82.4647 188.29 82.5527 188.055 82.7287C187.824 82.9047 187.652 83.1503 187.538 83.4657C187.428 83.781 187.373 84.144 187.373 84.5547C187.373 84.9653 187.428 85.3283 187.538 85.6437C187.648 85.959 187.822 86.2065 188.06 86.3862C188.299 86.5658 188.607 86.6557 188.984 86.6557ZM173.413 102.53V99.2577L170.734 94.6102H172.076L173.996 97.9377L175.915 94.6102H177.257L174.579 99.2577V102.53H173.413ZM179.723 102.695C179.129 102.695 178.614 102.561 178.178 102.294C177.742 102.026 177.404 101.657 177.166 101.188C176.931 100.715 176.814 100.171 176.814 99.5547C176.814 98.935 176.935 98.3905 177.177 97.9212C177.419 97.4482 177.758 97.0815 178.194 96.8212C178.631 96.5572 179.14 96.4252 179.723 96.4252C180.317 96.4252 180.833 96.559 181.269 96.8267C181.705 97.0943 182.043 97.4628 182.281 97.9322C182.519 98.4015 182.638 98.9423 182.638 99.5547C182.638 100.174 182.517 100.721 182.275 101.194C182.037 101.663 181.7 102.031 181.263 102.299C180.827 102.563 180.314 102.695 179.723 102.695ZM179.723 101.612C180.292 101.612 180.715 101.421 180.994 101.04C181.276 100.655 181.417 100.16 181.417 99.5547C181.417 98.935 181.274 98.44 180.988 98.0697C180.706 97.6957 180.284 97.5087 179.723 97.5087C179.338 97.5087 179.021 97.5967 178.772 97.7727C178.523 97.945 178.337 98.1852 178.216 98.4932C178.095 98.7975 178.035 99.1513 178.035 99.5547C178.035 100.178 178.178 100.677 178.464 101.051C178.75 101.425 179.17 101.612 179.723 101.612ZM186.086 102.69C185.675 102.69 185.33 102.624 185.052 102.492C184.773 102.36 184.546 102.187 184.37 101.975C184.197 101.758 184.065 101.524 183.974 101.271C183.882 101.018 183.82 100.77 183.787 100.528C183.754 100.286 183.737 100.073 183.737 99.8902V96.5902H184.903V99.5107C184.903 99.7417 184.921 99.98 184.958 100.226C184.998 100.468 185.072 100.693 185.178 100.902C185.288 101.111 185.44 101.28 185.635 101.408C185.833 101.536 186.089 101.601 186.405 101.601C186.61 101.601 186.804 101.568 186.988 101.502C187.171 101.432 187.33 101.322 187.466 101.172C187.605 101.021 187.714 100.823 187.791 100.578C187.871 100.332 187.912 100.033 187.912 99.6812L188.627 99.9507C188.627 100.49 188.526 100.966 188.324 101.381C188.122 101.791 187.833 102.112 187.455 102.343C187.077 102.574 186.621 102.69 186.086 102.69ZM188.049 102.53V100.814H187.912V96.5902H189.072V102.53H188.049Z" fill="#E1EDD2"/>
<path d="M165.098 106.294L149.731 109.538L156.387 96.3026L165.098 106.294Z" fill="#369FFF"/>
</svg>
