<svg width="20" height="27" viewBox="0 0 20 27" fill="none" xmlns="http://www.w3.org/2000/svg">
<path fill-rule="evenodd" clip-rule="evenodd" d="M9.9795 0.00230504C10.4484 -0.0174703 10.818 0.147325 11.1918 0.389024C11.6651 0.694444 12.1988 1.29869 12.8579 1.68102C13.785 2.21935 15.5008 1.47667 16.3781 2.80382C16.8903 3.57726 16.914 4.1837 16.9529 4.78356C16.994 5.42955 17.1064 6.02501 17.7568 6.89952C18.8351 8.34972 19.0599 9.31432 18.5045 10.3185C18.1263 11.004 17.3289 11.3841 17.1453 11.8192C16.752 12.7421 17.1863 13.4386 16.6504 14.5152C16.2766 15.2623 15.7017 15.7545 14.9346 16.005C14.2885 16.2159 13.6402 15.9105 13.1215 16.1324C12.2118 16.5213 11.5419 17.4244 10.818 17.6529C10.5392 17.7408 10.2604 17.7848 9.98166 17.7826C9.7029 17.7848 9.42413 17.7408 9.14537 17.6529C8.42144 17.4244 7.75154 16.5213 6.84178 16.1324C6.32315 15.9105 5.67486 16.2181 5.02873 16.005C4.26158 15.7545 3.68677 15.2623 3.31292 14.5152C2.77484 13.4386 3.20919 12.7421 2.81806 11.8192C2.63438 11.3841 1.83698 11.004 1.45881 10.3185C0.89912 9.31432 1.12386 8.34972 2.20218 6.90172C2.85263 6.02721 2.965 5.43175 3.00606 4.78575C3.04496 4.1859 3.06873 3.57945 3.58088 2.80602C4.46039 1.47887 6.1762 2.22154 7.10109 1.68321C7.76019 1.30089 8.29395 0.696641 8.7672 0.391221C9.13889 0.147325 9.51057 -0.0196676 9.9795 0.00230504ZM9.9795 5.70641L10.9433 8.10143L13.4824 8.29259L11.5397 9.96471L12.1448 12.4784L9.9795 11.1161L7.81421 12.4784L8.41928 9.96471L6.47657 8.29259L9.01571 8.10143L9.9795 5.70641ZM19.2241 24.8446L16.7282 24.3898L15.49 26.6442C14.591 27.7757 14.0205 25.9147 13.7698 25.2665L11.3604 20.6456C11.9157 20.4501 12.5856 19.8854 13.2728 19.2504C14.645 19.2789 15.9243 19.0372 16.8643 17.8199L19.6325 23.2582L19.8724 23.7811C20.0626 24.4601 19.9632 24.9083 19.2241 24.8446ZM0.732726 24.8446L3.2308 24.3898L4.46904 26.6442C5.368 27.7757 5.93849 25.9147 6.18917 25.2665L8.59864 20.6456C8.04328 20.4501 7.37338 19.8854 6.68619 19.2504C5.31397 19.2789 4.03468 19.0372 3.09466 17.8199L0.324303 23.2582L0.0844359 23.7811C-0.105729 24.4601 -0.00632471 24.9083 0.732726 24.8446ZM9.95357 3.53771C12.9357 3.53771 15.3538 5.99645 15.3538 9.02867C15.3538 12.0609 12.9357 14.5196 9.95357 14.5196C6.97144 14.5196 4.55331 12.0609 4.55331 9.02867C4.55548 5.99645 6.97144 3.53771 9.95357 3.53771Z" fill="white"/>
</svg>
