<svg width="24" height="24" viewBox="0 0 24 24" fill="none" xmlns="http://www.w3.org/2000/svg">
<path d="M20.4 0H3.6C1.61177 0 0 1.61177 0 3.6V20.4C0 22.3882 1.61177 24 3.6 24H20.4C22.3882 24 24 22.3882 24 20.4V3.6C24 1.61177 22.3882 0 20.4 0Z" fill="#C80A0A"/>
<path d="M19.3594 14.1562C18.9375 13.6875 18 13.4531 16.7344 13.4531C15.9844 13.4531 15.1875 13.5469 14.25 13.6875C13.2574 12.7577 12.4327 11.6635 11.8125 10.4531C12.2813 9.04688 12.6094 7.6875 12.6094 6.65625C12.6094 5.85938 12.3281 4.59375 11.2031 4.59375C10.875 4.59375 10.5938 4.78125 10.4063 5.0625C9.9375 5.90625 10.125 7.78125 11.0156 9.75C10.365 11.6312 9.58182 13.464 8.67188 15.2344C6.1875 16.2656 4.54688 17.3906 4.40625 18.2812C4.3125 18.7031 4.59375 19.4062 5.57813 19.4062C7.03125 19.4062 8.625 17.2969 9.84375 15.1406C11.2507 14.6568 12.6923 14.2808 14.1563 14.0156C15.9375 15.5625 17.4844 15.7969 18.2344 15.7969C19.7344 15.7969 19.875 14.7188 19.3594 14.1562ZM10.6406 5.20312C11.0156 4.64062 11.8594 4.82812 11.8594 5.95312C11.8594 6.70312 11.625 7.92188 11.1563 9.32812C10.3125 7.35938 10.3125 5.8125 10.6406 5.20312ZM4.6875 18.3281C4.82813 17.5781 6.23438 16.5469 8.4375 15.6562C7.21875 17.7188 6 19.0312 5.25 19.0312C4.78125 19.0312 4.64063 18.6094 4.6875 18.3281ZM13.9219 13.7344C12.6011 13.9805 11.3006 14.3252 10.0313 14.7656C10.725 13.5134 11.2904 12.1942 11.7188 10.8281C12.3349 11.8811 13.0745 12.8568 13.9219 13.7344ZM14.5313 13.9219C16.0313 13.6875 17.2969 13.7344 17.8594 13.8281C19.2188 14.1094 18.75 15.75 17.25 15.375C16.1719 15.1406 15.2813 14.5312 14.5313 13.9219Z" fill="white"/>
</svg>
