<svg width="27" height="25" viewBox="0 0 27 25" fill="none" xmlns="http://www.w3.org/2000/svg">
<path d="M27 15H15V17H27V15Z" fill="white"/>
<path d="M27 19H15V21H27V19Z" fill="white"/>
<path d="M23 23H15V25H23V23Z" fill="white"/>
<path d="M20.9999 0C20.1156 0.00268739 19.2571 0.298656 18.559 0.841539C17.8608 1.38442 17.3625 2.14355 17.142 3H8.99994V0H0.999941V8H8.99994V5H17.142C17.2351 5.35792 17.3781 5.70095 17.5668 6.019L7.01894 16.5669C6.40927 16.1996 5.71171 16.0037 4.99994 16C4.25117 15.9972 3.51664 16.2046 2.87993 16.5986C2.24322 16.9926 1.72989 17.5575 1.39835 18.2288C1.0668 18.9002 0.930361 19.6512 1.00454 20.3963C1.07873 21.1414 1.36056 21.8507 1.81797 22.4435C2.27538 23.0363 2.89 23.4888 3.59191 23.7496C4.29381 24.0103 5.05481 24.0688 5.78833 23.9184C6.52184 23.768 7.19841 23.4148 7.74106 22.8988C8.28371 22.3829 8.67064 21.725 8.85784 21H12.9999V19H8.85784C8.76477 18.6421 8.62176 18.299 8.43304 17.981L18.9809 7.4331C19.5906 7.80043 20.2882 7.99629 20.9999 8C22.0608 8 23.0782 7.57857 23.8284 6.82843C24.5785 6.07828 24.9999 5.06087 24.9999 4C24.9999 2.93913 24.5785 1.92172 23.8284 1.17157C23.0782 0.421427 22.0608 0 20.9999 0ZM6.99994 6H2.99994V2H6.99994V6ZM4.99994 22C4.60438 22 4.2177 21.8827 3.8888 21.6629C3.5599 21.4432 3.30356 21.1308 3.15218 20.7654C3.00081 20.3999 2.9612 19.9978 3.03837 19.6098C3.11554 19.2219 3.30602 18.8655 3.58573 18.5858C3.86543 18.3061 4.2218 18.1156 4.60976 18.0384C4.99772 17.9613 5.39986 18.0009 5.76531 18.1522C6.13076 18.3036 6.44312 18.56 6.66288 18.8889C6.88264 19.2178 6.99994 19.6044 6.99994 20C6.99933 20.5302 6.78842 21.0386 6.41348 21.4135C6.03854 21.7885 5.53019 21.9994 4.99994 22ZM20.9999 6C20.6044 6 20.2177 5.8827 19.8888 5.66294C19.5599 5.44318 19.3036 5.13082 19.1522 4.76537C19.0008 4.39991 18.9612 3.99778 19.0384 3.60982C19.1155 3.22186 19.306 2.86549 19.5857 2.58579C19.8654 2.30608 20.2218 2.1156 20.6098 2.03843C20.9977 1.96126 21.3999 2.00087 21.7653 2.15224C22.1308 2.30362 22.4431 2.55996 22.6629 2.88886C22.8826 3.21776 22.9999 3.60444 22.9999 4C22.9993 4.53025 22.7884 5.0386 22.4135 5.41354C22.0385 5.78848 21.5302 5.99939 20.9999 6Z" fill="white"/>
</svg>
