<svg width="37" height="37" viewBox="0 0 37 37" fill="none" xmlns="http://www.w3.org/2000/svg">
<path d="M4.03235 0.98149C4.38258 0.374144 5.02985 0 5.73032 0H13.2696C13.97 0 14.6174 0.374144 14.9676 0.98149L18.7374 7.51847C19.0875 8.12582 19.0875 8.8741 18.7374 9.48145L14.9676 16.0185C14.6174 16.6259 13.97 17 13.2696 17H5.73032C5.02985 17 4.38258 16.6259 4.03235 16.0185L0.262689 9.48145C-0.087563 8.8741 -0.087563 8.12582 0.262689 7.51847L4.03235 0.98149Z" fill="#FF914D"/>
<path d="M4.03237 20.9815C4.3826 20.3741 5.02987 20 5.73034 20H13.2697C13.9702 20 14.6174 20.3741 14.9676 20.9815L18.7374 27.5186C19.0875 28.126 19.0875 28.8742 18.7374 29.4816L14.9676 36.0185C14.6174 36.6259 13.9702 37 13.2697 37H5.73034C5.02987 37 4.3826 36.6259 4.03237 36.0185L0.26269 29.4816C-0.0875634 28.8742 -0.0875634 28.126 0.26269 27.5186L4.03237 20.9815Z" fill="#FF914D"/>
<path d="M21.2446 11.9815C21.6132 11.3741 22.2947 11 23.0319 11H30.9681C31.7055 11 32.3868 11.3741 32.7554 11.9815L36.7235 18.5186C37.0922 19.1259 37.0922 19.8742 36.7235 20.4816L32.7554 27.0185C32.3868 27.6259 31.7055 28 30.9681 28H23.0319C22.2947 28 21.6132 27.6259 21.2446 27.0185L17.2765 20.4816C16.9078 19.8742 16.9078 19.1259 17.2765 18.5186L21.2446 11.9815Z" fill="#FF914D"/>
</svg>
