<svg width="79" height="80" viewBox="0 0 79 80" fill="none" xmlns="http://www.w3.org/2000/svg">
<path d="M31.2699 66.0221C29.9473 66.0508 17.4719 66.3411 13.1166 66.2741C8.76128 66.2072 7.93223 42.334 12.3751 42.2499C16.8179 42.1659 29.5772 41.4111 30.5228 41.3934C31.4683 41.3756 32.5954 65.9946 31.2699 66.0221Z" fill="#191919"/>
<path d="M11.7443 68.4789C10.053 67.7966 8.79155 65.7935 7.9889 62.5049C7.278 59.3087 6.92933 56.0427 6.94947 52.7685C6.94019 46.895 7.86607 39.8749 12.3313 39.7932C15.3489 39.7364 22.4497 39.3572 26.6913 39.1287C29.021 39.0039 30.154 38.942 30.4761 38.9355C32.8256 38.8853 33.2232 41.4049 33.3741 42.474C33.5179 43.4205 33.6578 44.7314 33.7979 46.3718C34.0522 49.4691 34.2385 53.4441 34.3098 56.9701C34.362 59.6199 34.345 61.8724 34.2582 63.4811C34.2282 64.2447 34.1501 65.0056 34.0244 65.7593C33.569 68.191 31.9786 68.4876 31.315 68.4994L30.617 68.5139C21.6103 68.7097 15.708 68.7905 13.0705 68.7545C12.6152 68.7454 12.1655 68.652 11.7443 68.4789ZM12.9932 44.7088C12.4906 45.6906 11.7299 48.8376 11.9187 54.291C12.1074 59.7444 13.1025 62.8944 13.6601 63.8049C16.3143 63.8243 21.5794 63.7559 29.323 63.5895C29.6222 59.3845 29.1536 48.2746 28.6171 43.9553L26.9562 44.0471C22.6693 44.2806 16.3118 44.6237 12.9932 44.7088Z" fill="#191919"/>
<path d="M31.2694 66.0221C29.9468 66.0508 17.4714 66.3411 13.1161 66.2741C8.76079 66.2072 7.93174 42.334 12.3746 42.2499C16.8174 42.1659 29.5768 41.4111 30.5223 41.3934C31.4678 41.3756 32.5949 65.9946 31.2694 66.0221Z" fill="#FF914D"/>
<path d="M58.8895 62.3954C57.9488 62.2449 57.9811 61.1966 58.926 61.2544C61.7414 61.4335 64.7488 55.6182 60.7549 54.711C59.8163 54.4973 59.7589 53.3488 61.1496 53.4517C64.3031 53.6863 66.872 46.2689 62.7073 45.9093C60.7397 45.7387 60.9642 44.7107 61.9498 44.5928C64.27 44.3362 64.7206 43.0624 64.7466 41.0951C64.7974 37.0722 59.3256 36.2122 51.1814 34.1155C47.4492 33.1555 46.0934 34.3976 47.0618 36.5977C46.7991 36.5752 46.5443 36.4981 46.3133 36.3713C46.0824 36.2444 45.8804 36.0707 45.72 35.8609C44.6268 33.9204 47.941 32.8384 47.932 21.2776C47.9323 14.2524 40.8355 13.1174 38.3873 21.5101C35.3903 31.7839 30.9474 32.9328 25.4747 38.7439C18.9456 45.6753 19.7493 55.7878 23.859 60.9503C27.9687 66.1127 32.7914 68.5977 40.5374 69.0916C48.5153 69.6151 52.6544 69.0782 55.6982 68.9147C60.7269 68.639 61.5228 62.8109 58.8895 62.3954Z" fill="#191919"/>
<path d="M31.3072 69.4883C27.7004 68.033 24.7545 65.7271 22.0986 62.3909C17.238 56.2819 16.5255 44.8722 23.8497 37.0899C25.3714 35.4761 26.8299 34.1913 28.1235 33.0609C31.598 30.0039 34.1125 27.7838 36.089 20.9981C37.9085 14.7579 41.8779 13.0011 44.721 13.3956C47.5642 13.7902 50.3761 16.42 50.3767 21.4311C50.38 26.1155 49.8399 29.2426 49.252 31.397C50.1051 31.4409 50.9506 31.5757 51.7743 31.7993C52.7032 32.0403 53.5963 32.2635 54.45 32.4775C57.9282 33.3491 60.6781 34.0405 62.7784 35.0619C65.6498 36.4613 67.0897 38.5041 67.0541 41.1356C67.0333 42.735 66.6861 44.0166 66.0126 44.9803C66.8709 45.9789 67.2983 47.389 67.1549 49.0405C66.9621 51.1487 65.989 53.1123 64.4293 54.5404C64.9452 55.5079 65.1253 56.6234 64.941 57.7106C64.635 59.5056 63.6993 61.1345 62.3047 62.3C62.6142 63.0515 62.7465 63.8662 62.6915 64.6805C62.5148 67.7435 60.0582 70.977 55.7198 71.2034C55.1922 71.2314 54.6296 71.272 54.019 71.3167C49.4827 71.6842 44.9279 71.707 40.3931 71.3849C36.9141 71.1552 33.9347 70.5485 31.3072 69.4883ZM44.2128 18.3553C44.1486 18.3291 44.0814 18.311 44.0128 18.3013C43.2599 18.1983 41.7239 19.2075 40.8034 22.3584C38.4122 30.549 34.9768 33.5749 31.3438 36.7787C30.0805 37.8913 28.7759 39.0408 27.4152 40.4853C23.6852 44.4461 21.1021 53.1781 25.9519 59.2727C29.6972 63.9784 33.837 65.9832 40.7421 66.4345C45.0551 66.7404 49.3873 66.7183 53.7017 66.3684C54.3426 66.3226 54.9325 66.2797 55.4876 66.2494C56.3642 66.2017 57.0429 65.8734 57.4439 65.3061C57.6027 65.0785 57.7079 64.8178 57.7515 64.5437C57.0818 64.3329 56.5065 63.8952 56.1225 63.3046C55.7385 62.714 55.5693 62.0065 55.6436 61.3015C55.8282 59.7035 57.2292 58.5695 58.9128 58.6467C59.3435 58.5061 59.9804 57.5923 60.0656 57.0446C58.3641 56.6592 57.2718 55.1413 57.5189 53.5116C57.7322 52.1627 58.9492 50.7872 61.1001 50.8957C61.496 50.586 61.8001 50.1728 61.9791 49.7017C62.1723 49.2798 62.2685 48.8199 62.2603 48.3567C58.8202 48.0223 58.6343 45.6526 58.6311 45.1764C58.6233 43.6044 59.8573 42.3261 61.5701 42.1341C61.7331 42.1195 61.8944 42.0882 62.0513 42.0406C62.1139 41.7347 62.142 41.4228 62.1351 41.111C62.1402 40.7786 62.1406 40.277 60.6105 39.5325C58.95 38.7254 56.3044 38.0626 53.2371 37.2966C52.3708 37.0809 51.4663 36.8531 50.5346 36.611C50.1985 36.5214 49.8574 36.4519 49.5129 36.4028C49.5482 36.7627 49.5047 37.1266 49.3856 37.4688C49.2665 37.8111 49.0745 38.1235 48.8233 38.384C48.5722 38.6445 48.2678 38.8469 47.9316 38.9768C47.5954 39.1067 47.2356 39.161 46.8775 39.136C46.2145 39.0872 45.573 38.8841 45.0031 38.5427C44.4333 38.2014 43.9506 37.731 43.5931 37.1686C42.5944 35.3941 43.1908 33.8586 43.7198 32.5065C44.3766 30.8214 45.4753 28 45.4783 21.4784C45.4518 19.6982 44.8562 18.6149 44.2128 18.3553Z" fill="#191919"/>
<path d="M58.8895 62.3954C57.9488 62.2449 57.9811 61.1966 58.926 61.2544C61.7414 61.4335 64.7488 55.6182 60.7549 54.711C59.8163 54.4973 59.7589 53.3488 61.1496 53.4517C64.3031 53.6863 66.872 46.2689 62.7073 45.9093C60.7397 45.7387 60.9642 44.7107 61.9498 44.5928C64.27 44.3362 64.7206 43.0624 64.7466 41.0951C64.7974 37.0722 59.3256 36.2122 51.1814 34.1155C47.4492 33.1555 46.0934 34.3976 47.0618 36.5977C46.7991 36.5752 46.5443 36.4981 46.3133 36.3713C46.0824 36.2444 45.8804 36.0707 45.72 35.8609C44.6268 33.9204 47.941 32.8384 47.932 21.2776C47.9323 14.2524 40.8355 13.1174 38.3873 21.5101C35.3903 31.7839 30.9474 32.9328 25.4747 38.7439C18.9456 45.6753 19.7493 55.7878 23.859 60.9503C27.9687 66.1127 32.7914 68.5977 40.5374 69.0916C48.5153 69.6151 52.6544 69.0782 55.6982 68.9147C60.7269 68.639 61.5228 62.8109 58.8895 62.3954Z" fill="white"/>
<path d="M64.6849 40.2702C63.6613 37.2143 59.3331 36.3572 51.0321 34.1187C46.8786 32.9982 45.6724 34.1403 46.7184 36.2255C55.2193 37.8332 63.454 36.5503 64.6849 40.2702Z" fill="#E6E6E6"/>
<path d="M47.1877 4.87061C47.023 4.02549 44.8412 3.5611 44.5101 4.47234C44.3519 4.86438 43.6074 10.264 43.6746 10.7902C43.7641 11.4918 45.9052 11.7768 46.3522 11.1885C46.6577 10.786 47.2786 5.32987 47.1877 4.87061Z" fill="#191919"/>
<path d="M30.7308 16.9675C29.4468 17.1149 29.3574 19.6044 30.3249 19.7052C30.5483 19.7288 33.9986 20.4222 34.2423 20.3708C34.8042 20.2648 35.2328 17.7758 34.6482 17.633C34.39 17.5721 30.967 16.9429 30.7308 16.9675Z" fill="#191919"/>
<path d="M55.8306 24.19C56.6474 23.914 57.2373 21.3469 56.431 21.168C55.9094 21.0507 53.3324 20.6997 52.8791 20.8995C52.0759 21.2409 51.5221 23.6195 52.4855 23.7554C53.174 23.8468 55.3333 24.3587 55.8306 24.19Z" fill="#191919"/>
<path d="M56.4603 13.367C57.08 12.5323 55.6474 10.813 54.615 11.1451C53.9456 11.3608 50.3512 13.6306 50.0538 14.0131C49.547 14.6671 50.7916 16.3572 51.6129 16.1196C52.1394 15.9693 56.1007 13.8708 56.4603 13.367Z" fill="#191919"/>
<path d="M35.397 6.46837C34.4632 5.64902 32.7148 6.8236 33.2227 8.08003C33.3501 8.40761 37.0463 13.2664 37.189 13.4571C37.5715 13.9442 39.5068 12.5289 39.3633 11.8454C39.3016 11.5943 35.5805 6.63223 35.397 6.46837Z" fill="#191919"/>
<path d="M45.3356 37.3129C45.068 37.2046 44.8482 37.0023 44.7146 36.7412C44.0528 35.4381 44.8537 34.4178 45.3872 33.7387C45.8671 33.1974 46.2361 32.5634 46.4714 31.8761C46.5719 31.5503 46.7934 31.2756 47.087 31.1123C47.3806 30.949 47.7223 30.9106 48.0369 31.0055C48.1927 31.0525 48.3371 31.1308 48.462 31.236C48.5869 31.3411 48.6897 31.471 48.7647 31.6183C48.916 31.9158 48.9446 32.2659 48.844 32.5917C48.5206 33.5901 48.0045 34.5157 47.3271 35.3123C47.2295 35.4387 47.1021 35.5979 47.022 35.7141C47.0937 35.944 47.0993 36.1919 47.0381 36.4285C46.9769 36.6652 46.8515 36.8806 46.6767 37.0494C46.5019 37.2182 46.285 37.3333 46.0516 37.3811C45.8182 37.4289 45.5781 37.4074 45.3597 37.3192L45.3356 37.3129Z" fill="#191919"/>
</svg>
