<svg width="54" height="55" viewBox="0 0 54 55" fill="none" xmlns="http://www.w3.org/2000/svg">
<path d="M15.8465 25.7499C15.1019 25.0053 13.8919 25.0053 13.1473 25.7499C12.4027 26.4945 12.4027 27.7045 13.1473 28.4491L21.943 37.2448C22.3153 37.6171 22.7807 37.8032 23.2926 37.8032C23.3391 37.8032 23.3391 37.8032 23.3857 37.8032C23.8976 37.7567 24.4095 37.524 24.7818 37.1052L46.7942 10.7181C47.4458 9.927 47.3527 8.71702 46.5616 8.01895C45.7704 7.36742 44.5604 7.46049 43.8624 8.25164L23.153 33.0564L15.8465 25.7499Z" fill="#17AB13"/>
<path d="M41.2559 4.43552C30.5521 -2.26594 16.8235 -0.683653 7.88818 8.25163C-2.62939 18.7692 -2.62939 35.9417 7.88818 46.4593C13.147 51.7181 20.0811 54.3707 26.9687 54.3707C33.8563 54.3707 40.7905 51.7181 46.0493 46.4593C55.0311 37.4774 56.5669 23.7022 49.8189 12.9985C49.2604 12.1143 48.097 11.835 47.2127 12.3935C46.3285 12.952 46.0493 14.1154 46.6077 14.9996C52.425 24.2141 51.0754 36.0348 43.3501 43.7601C34.3217 52.7884 19.5692 52.7884 10.5408 43.7601C1.51248 34.7317 1.51248 19.9792 10.5408 10.9508C18.2661 3.27207 30.0402 1.92247 39.2547 7.64664C40.139 8.20509 41.3024 7.92586 41.8609 7.04164C42.4193 6.15742 42.1401 4.99397 41.2559 4.43552Z" fill="#4A4A4A"/>
</svg>
