<svg width="43" height="38" viewBox="0 0 43 38" fill="none" xmlns="http://www.w3.org/2000/svg">
<path d="M26.8011 26.875L34.8743 16.125L43 26.875H37.625V29.5625C37.625 34.009 34.009 37.625 29.5625 37.625H13.4375C8.99103 37.625 5.375 34.009 5.375 29.5625V26.875H10.75V29.5625C10.75 31.0433 11.9567 32.25 13.4375 32.25H29.5625C31.0433 32.25 32.25 31.0433 32.25 29.5625V26.875H26.8011Z" fill="#FF914C"/>
<path d="M16.1989 10.75L8.12566 21.5L0 10.75H5.375V8.0625C5.375 3.61603 8.99103 0 13.4375 0H29.5625C34.009 0 37.625 3.61603 37.625 8.0625V10.75H32.25V8.0625C32.25 6.58169 31.0433 5.375 29.5625 5.375H13.4375C11.9567 5.375 10.75 6.58169 10.75 8.0625V10.75H16.1989Z" fill="#FF914C"/>
</svg>
