<svg width="41" height="39" viewBox="0 0 41 39" fill="none" xmlns="http://www.w3.org/2000/svg">
<path fill-rule="evenodd" clip-rule="evenodd" d="M17.8134 2.68267H35.8661L37.222 4.024V16.1148C36.3915 15.482 35.4903 14.9499 34.5367 14.5293V10.7038H17.7602L15.4737 13.0109L14.5432 13.4133H2.60554V29.5093H16.1916C16.3777 30.4429 16.6622 31.3389 17.0317 32.192H1.32936L0 30.8507V1.34133L1.32936 0H14.6229L15.5535 0.4024L17.8134 2.68267ZM17.2285 8.048H34.5101L34.5367 5.39216H17.2551L16.2979 4.98976L14.038 2.70949H2.63213V10.7575H14.0114L16.2979 8.4504L17.2285 8.048Z" fill="#FF914C"/>
<path fill-rule="evenodd" clip-rule="evenodd" d="M23.7632 17.993C24.9164 17.1767 26.2123 16.6072 27.5763 16.3172C28.9403 16.0273 30.3456 16.0225 31.7113 16.3034C33.0771 16.5842 34.3764 17.145 35.5346 17.9536C36.6928 18.7621 37.6871 19.8025 38.4602 21.0149C39.2334 22.2274 39.7702 23.5879 40.0398 25.0184C40.3095 26.4488 40.3066 27.921 40.0314 29.3503C39.7562 30.7796 39.2141 32.1378 38.4362 33.3469C37.6583 34.556 36.66 35.5922 35.4987 36.3958C33.1691 38.0078 30.3251 38.588 27.5883 38.0097C24.8515 37.4313 22.4446 35.7414 20.8937 33.3094C19.3428 30.8774 18.7741 27.901 19.3117 25.031C19.8494 22.1609 21.4499 19.6305 23.7632 17.993ZM29.388 31.7979L35.6914 22.9949L33.5788 21.335L28.094 28.9954L24.6584 26.1155L23.0079 28.2733L27.5078 32.0468L29.3906 31.7979H29.388Z" fill="#FF914C"/>
</svg>
