<svg width="28" height="22" viewBox="0 0 28 22" fill="none" xmlns="http://www.w3.org/2000/svg">
<path d="M10.0001 9.8335C11.1507 9.8335 12.0834 8.71421 12.0834 7.3335C12.0834 5.95278 11.1507 4.8335 10.0001 4.8335C8.84949 4.8335 7.91675 5.95278 7.91675 7.3335C7.91675 8.71421 8.84949 9.8335 10.0001 9.8335Z" stroke="white" stroke-width="2"/>
<path d="M14.5835 14.8333C14.5835 16.214 14.5835 17.3333 10.0002 17.3333C5.41687 17.3333 5.41687 16.214 5.41687 14.8333C5.41687 13.4525 7.4689 12.3333 10.0002 12.3333C12.5315 12.3333 14.5835 13.4525 14.5835 14.8333Z" stroke="white" stroke-width="2"/>
<path d="M26.25 11.0833C26.25 15.6009 26.25 17.8598 24.7855 19.2632C23.3211 20.6667 20.964 20.6667 16.25 20.6667H11.25C6.53595 20.6667 4.17894 20.6667 2.71446 19.2632C1.25 17.8598 1.25 15.6009 1.25 11.0833C1.25 6.5657 1.25 4.3069 2.71446 2.90344C4.17894 1.5 6.53595 1.5 11.25 1.5H16.25C20.964 1.5 23.3211 1.5 24.7855 2.90344C25.3725 3.466 25.7242 4.16596 25.935 5.09375" stroke="white" stroke-width="2" stroke-linecap="round"/>
<path d="M22.0835 10.6665H17.0835" stroke="white" stroke-width="2" stroke-linecap="round"/>
<path d="M22.0835 7.33325H16.2501" stroke="white" stroke-width="2" stroke-linecap="round"/>
<path d="M22.0838 14.8334H18.7505" stroke="white" stroke-width="2" stroke-linecap="round"/>
</svg>
