<svg width="28" height="29" viewBox="0 0 28 29" fill="none" xmlns="http://www.w3.org/2000/svg">
<path d="M12.2693 25.0813C11.2865 25.5137 10.6182 26.182 10.2644 27.2041C10.1465 27.5186 10.1071 27.8725 10.0678 28.2263C10.0285 28.5801 10.2251 28.7766 10.5789 28.7766C10.6575 28.7766 10.6968 28.7766 10.7754 28.7766C16.2792 28.7766 21.7829 28.7766 27.2866 28.7766C27.9549 28.7766 28.0336 28.5015 27.9942 27.9904C27.837 26.6931 27.1687 25.7496 25.9893 25.1599C25.95 25.1206 25.9107 25.1206 25.8321 25.0813C26.1073 24.6095 26.1466 24.1378 25.9893 23.666C25.7928 23.037 25.2424 22.6046 24.5741 22.6046C20.8787 22.6046 17.1834 22.6046 13.488 22.6046C12.3873 22.6046 11.6796 23.7447 12.1121 24.7668C12.1514 24.8454 12.1907 24.9633 12.2693 25.0813Z" fill="white"/>
<path d="M12.5446 11.5579C12.1121 11.951 11.6404 12.3834 11.1686 12.8159C7.74847 16.0002 4.36761 19.1845 0.947436 22.3687C0.043253 23.1943 -0.231934 24.2557 0.200502 25.2779C0.947436 27.0469 3.10961 27.44 4.40692 26.0248C6.8836 23.3909 9.32096 20.7176 11.7976 18.0444C12.8984 16.865 13.9991 15.6857 15.0606 14.5063C15.1392 14.4277 15.2178 14.349 15.2571 14.3097C14.3529 13.3662 13.4881 12.462 12.5446 11.5579Z" fill="white"/>
<path d="M17.8124 4.24573C15.9648 6.09341 14.1171 7.94109 12.3087 9.78877C13.8812 11.3613 15.4537 12.9731 17.0655 14.5456C18.8739 12.7372 20.7609 10.8502 22.5692 9.00252C20.9967 7.43003 19.4242 5.81822 17.8124 4.24573Z" fill="#FF914D"/>
<path d="M14.7853 0C14.5494 0 14.2349 0.117935 13.999 0.353808C12.1513 2.20149 10.3037 4.04917 8.45599 5.89685C7.90562 6.48653 7.90562 7.27278 8.45599 7.82315C8.84912 8.21627 9.24224 8.64871 9.67468 9.04183C10.2644 9.63152 11.0899 9.63152 11.6796 9.04183C13.488 7.27278 15.257 5.50372 17.0654 3.69536C17.6944 3.06636 17.7337 2.2408 17.1047 1.6118C16.7116 1.21868 16.3578 0.825555 15.9646 0.432432C15.6501 0.157246 15.2963 0 14.7853 0Z" fill="#FF914D"/>
<path d="M19.9746 18.7913C20.3284 18.7913 20.6429 18.6734 20.8787 18.4375C22.7264 16.5899 24.5741 14.7422 26.4218 12.8945C26.9722 12.3441 26.9328 11.5186 26.3825 10.9289C25.9893 10.5358 25.5962 10.1426 25.2031 9.74951C24.6134 9.15983 23.7879 9.15983 23.1982 9.74951C21.3898 11.5579 19.5421 13.4056 17.7338 15.2139C17.2227 15.725 17.1441 16.236 17.5372 16.8257C17.7338 17.1402 17.9696 17.4154 18.2448 17.6513C18.4807 17.9265 18.7559 18.1624 19.0311 18.3982C19.2669 18.6734 19.6208 18.7913 19.9746 18.7913Z" fill="#FF914D"/>
</svg>
