<svg width="41" height="39" viewBox="0 0 41 39" fill="none" xmlns="http://www.w3.org/2000/svg">
<path fill-rule="evenodd" clip-rule="evenodd" d="M17.8134 2.68267H35.866L37.222 4.024V16.1148C36.3915 15.482 35.4902 14.9499 34.5367 14.5293V10.7038H17.7602L15.4737 13.0109L14.5431 13.4133H2.60551V29.5093H16.1915C16.3777 30.4429 16.6621 31.3389 17.0317 32.192H1.32933L-3.05176e-05 30.8507V1.34133L1.32933 0H14.6229L15.5535 0.4024L17.8134 2.68267ZM17.2284 8.048H34.5101L34.5367 5.39216H17.255L16.2979 4.98976L14.038 2.70949H2.6321V10.7575H14.0114L16.2979 8.4504L17.2284 8.048Z" fill="#FF914C"/>
<path fill-rule="evenodd" clip-rule="evenodd" d="M23.7632 17.993C24.9164 17.1767 26.2123 16.6072 27.5763 16.3172C28.9403 16.0273 30.3456 16.0225 31.7113 16.3034C33.0771 16.5842 34.3764 17.145 35.5346 17.9536C36.6928 18.7621 37.6871 19.8025 38.4602 21.0149C39.2334 22.2274 39.7702 23.5879 40.0399 25.0184C40.3095 26.4488 40.3066 27.921 40.0314 29.3503C39.7562 30.7796 39.2141 32.1378 38.4362 33.3469C37.6583 34.556 36.66 35.5922 35.4987 36.3958C33.1691 38.0078 30.3251 38.588 27.5883 38.0097C24.8516 37.4313 22.4447 35.7414 20.8938 33.3094C19.3429 30.8774 18.7741 27.901 19.3118 25.031C19.8495 22.1609 21.4499 19.6305 23.7632 17.993ZM29.388 31.7979L35.6915 22.9949L33.5789 21.335L28.094 28.9954L24.6584 26.1155L23.008 28.2733L27.5078 32.0468L29.3906 31.7979H29.388Z" fill="#FF914C"/>
<circle cx="29.5" cy="27.5" r="9.5" fill="#FF914C"/>
<path d="M30.9427 28.0001L33.8047 25.1382C34.0654 24.8775 34.0654 24.4561 33.8047 24.1955C33.5441 23.9348 33.1227 23.9348 32.8621 24.1955L30.0001 27.0575L27.1382 24.1955C26.8775 23.9348 26.4561 23.9348 26.1955 24.1955C25.9349 24.4561 25.9348 24.8775 26.1955 25.1382L29.0575 28.0001L26.1955 30.8621C25.9348 31.1228 25.9348 31.5441 26.1955 31.8047C26.3255 31.9347 26.4962 32 26.6668 32C26.8375 32 27.0082 31.9347 27.1382 31.8047L30.0001 28.9427L32.8621 31.8047C32.9921 31.9347 33.1628 32 33.3334 32C33.5041 32 33.6747 31.9347 33.8047 31.8047C34.0654 31.544 34.0654 31.1227 33.8047 30.8621L30.9427 28.0001Z" fill="white"/>
</svg>
