<svg width="23" height="25" viewBox="0 0 23 25" fill="none" xmlns="http://www.w3.org/2000/svg">
<path d="M5.80402 24.6648H2.51311C2.03128 24.6648 1.64099 24.2697 1.64099 23.7927V17.0567C1.64099 16.5749 2.03609 16.1846 2.51311 16.1846H5.80402C6.28585 16.1846 6.67614 16.5797 6.67614 17.0567V23.7927C6.68096 24.2745 6.28585 24.6648 5.80402 24.6648Z" fill="white"/>
<path d="M12.9881 24.6647H10.0104C9.44663 24.6647 8.97925 24.2021 8.97925 23.6336V13.915C8.97925 13.3513 9.44181 12.8839 10.0104 12.8839H12.9881C13.5518 12.8839 14.0192 13.3465 14.0192 13.915V23.6336C14.0192 24.2021 13.5567 24.6647 12.9881 24.6647Z" fill="white"/>
<path d="M20.1964 24.6649H17.4837C16.8429 24.6649 16.3225 24.1397 16.3225 23.5037V10.8075C16.3225 10.1666 16.8477 9.64624 17.4837 9.64624H20.1964C20.8373 9.64624 21.3577 10.1714 21.3577 10.8075V23.5037C21.3577 24.1446 20.8373 24.6649 20.1964 24.6649Z" fill="white"/>
<path d="M20.6107 -0.000194872C19.5507 0.04317 18.7268 0.939378 18.7701 2.00423L13.8747 6.81773L9.70204 3.16544L2.065 10.8266C1.08206 10.9518 0.344856 11.7999 0.383403 12.8069C0.426768 13.8669 1.32779 14.6909 2.38782 14.6475C3.44786 14.6041 4.27179 13.7031 4.22842 12.6431C4.22361 12.5564 4.20433 12.4744 4.18988 12.3877L9.93814 6.87073L13.9711 10.4026L20.6541 3.84001C20.6926 3.84001 20.7312 3.84964 20.7697 3.84483C21.8298 3.80146 22.6537 2.90043 22.6103 1.8404C22.567 0.780373 21.6707 -0.0435598 20.6107 -0.000194872Z" fill="white"/>
</svg>
