<svg width="40" height="33" viewBox="0 0 40 33" fill="none" xmlns="http://www.w3.org/2000/svg">
<path d="M39.348 4.03406H35.966V0.651406C35.966 0.29125 35.6749 0 35.3153 0H34.0003C33.6407 0 33.3481 0.29125 33.3481 0.651406V4.03406H29.9662C29.6067 4.03406 29.3155 4.32523 29.3155 4.68477V5.99984C29.3155 6.35938 29.6067 6.65187 29.9662 6.65187H33.3481V10.0339C33.3481 10.3934 33.6407 10.6852 34.0003 10.6852H35.3153C35.6749 10.6852 35.966 10.3934 35.966 10.0339V6.65187H39.348C39.7088 6.65187 40 6.35938 40 5.99984V4.68477C40 4.32531 39.7088 4.03406 39.348 4.03406Z" fill="#FF914C"/>
<path d="M39.1278 14.8495L39.1114 14.8161L39.0895 14.7853C38.4211 13.7997 37.3069 13.1941 36.1039 13.1941H29.8609L28.874 10.3726L28.8439 10.3801C28.1536 8.87982 26.669 7.86623 24.9752 7.86623H11.327C11.1712 7.8642 11.0113 7.77803 10.9184 7.57982L10.9197 7.58256C10.2484 6.10686 8.78578 5.13498 7.15219 5.13498H3.63078C3.62805 5.13498 3.62805 5.13428 3.62672 5.13428C2.44562 5.13498 1.35062 5.71936 0.678047 6.6735L0.631562 6.74115L0.621953 6.77053C0.214687 7.38701 0 8.10068 0 8.82381C0 9.19631 0.0575 9.57154 0.170937 9.93654H0.169531L0.170937 9.93928L0.172266 9.94404L0.173672 9.94889V9.95022L6.12016 29.2975V29.3002L6.14609 29.3809C6.68609 31.0841 8.26492 32.2393 10.0502 32.2393L31.3564 32.24C32.897 32.2393 34.2845 31.3726 34.9817 30.0315L35.0159 30.0426L39.5093 18.1537L39.5148 18.1379L39.5161 18.1331L39.5175 18.1304C39.6611 17.7244 39.7308 17.3007 39.7308 16.881C39.7308 16.1702 39.5257 15.4641 39.1279 14.851V14.8495H39.1278ZM36.9242 17.2144L32.625 28.5879L32.6223 28.5962C32.4323 29.132 31.9237 29.4901 31.3564 29.4901L10.0502 29.4888C9.46383 29.4901 8.9443 29.1101 8.76805 28.551L2.79555 9.11842L2.79687 9.12178C2.76547 9.02404 2.75039 8.92357 2.75039 8.82381C2.75039 8.62006 2.81328 8.42053 2.9268 8.25787L2.92539 8.2592C3.09906 8.01592 3.35875 7.88529 3.62805 7.88529H7.15227C7.67992 7.88529 8.17617 8.19834 8.41672 8.72396C8.93617 9.86475 10.0667 10.6159 11.3271 10.6159H24.9753C25.6233 10.6159 26.218 11.0445 26.4326 11.7219L26.438 11.7383L27.1407 13.7444H16.2291C14.6448 13.7444 13.2463 14.7615 12.7173 16.2548L9.93547 24.2942L12.0133 25.0133L14.7924 16.9835L14.7897 16.993C15.022 16.3465 15.6003 15.9446 16.2291 15.9446H36.1041C36.3761 15.9446 36.6441 16.0806 36.815 16.3329C36.9216 16.4914 36.9817 16.6841 36.9804 16.881C36.9803 16.9937 36.9612 17.1065 36.9242 17.2144Z" fill="#FF914C"/>
</svg>
