<svg width="44" height="45" viewBox="0 0 44 45" fill="none" xmlns="http://www.w3.org/2000/svg">
<path d="M41.8213 34.3676C37.4213 32.0518 34.0561 30.7669 31.0677 30.2587L31.3933 29.8114C31.5209 29.6362 31.5641 29.4132 31.5114 29.2027L30.8308 26.4799C32.6546 23.9074 33.7334 20.6939 33.7334 17.6469V12.5136C33.7334 6.044 28.4695 0.780151 22 0.780151C15.5306 0.780151 10.2667 6.044 10.2667 12.5135V17.6468C10.2667 20.6938 11.3455 23.9073 13.1693 26.4798L12.4887 29.2027C12.436 29.4131 12.4792 29.636 12.6068 29.8114L12.9324 30.2587C9.94411 30.7669 6.57879 32.0517 2.17878 34.3675C0.835228 35.0745 0 36.4576 0 37.9785V43.986C0 44.3915 0.32854 44.7193 0.733306 44.7193H18.3333H18.334L25.6322 44.7127C25.644 44.7135 25.655 44.7193 25.6667 44.7193H43.2667C43.6715 44.7193 44 44.3915 44 43.986V37.9785C44.0001 36.4576 43.1649 35.0745 41.8213 34.3676ZM11.7333 17.6469V12.5136C11.7333 6.85225 16.3386 2.24685 22 2.24685C27.6614 2.24685 32.2668 6.85216 32.2668 12.5135V17.6468C32.2668 20.949 31.0985 23.8552 29.3708 26.0347C29.3444 26.0596 29.3114 26.0757 29.2894 26.1036C29.0372 26.4263 28.7761 26.7306 28.507 27.0166C28.5055 27.018 28.5041 27.0195 28.5026 27.021C28.3251 27.2102 28.1388 27.3781 27.9548 27.5504C26.1626 29.166 24.033 30.1134 22.0001 30.1134C19.9674 30.1134 17.8377 29.166 16.0454 27.5504C15.8613 27.3781 15.6751 27.2102 15.4977 27.021C15.4962 27.0195 15.4947 27.018 15.4933 27.0166C15.2241 26.7306 14.963 26.4263 14.7108 26.1036C14.6888 26.0757 14.6558 26.0596 14.6294 26.0347C12.9016 23.8553 11.7333 20.949 11.7333 17.6469ZM23.8048 36.7135H20.1954L22 32.6524L23.8048 36.7135ZM13.9943 29.2255L14.3235 27.9099C14.3257 27.9121 14.3272 27.9136 14.3293 27.9157C16.1011 29.843 18.3561 31.2011 20.8986 31.5098C20.8994 31.5098 20.9008 31.5106 20.9023 31.5106L18.9127 35.9884L13.9943 29.2255ZM19.154 43.252L19.7223 38.1802H24.2777L24.3298 38.6445L24.846 43.2468L19.154 43.252ZM25.0874 35.9883L23.0978 31.5105C23.0986 31.5105 23.1 31.5097 23.1015 31.5097C25.644 31.201 27.899 29.8429 29.6708 27.9157L29.6766 27.9098L30.0051 29.2254L25.0874 35.9883Z" fill="#FF914D"/>
</svg>
