<svg width="37" height="42" viewBox="0 0 37 42" fill="none" xmlns="http://www.w3.org/2000/svg">
<path d="M18.5002 2H8.30024C5.92003 2 4.7299 2 3.82079 2.46323C3.02108 2.87068 2.37092 3.52084 1.96347 4.32054C1.50024 5.22966 1.50024 6.41979 1.50024 8.8V33.45C1.50024 35.8302 1.50024 37.0204 1.96347 37.9295C2.37092 38.7291 3.02108 39.3794 3.82079 39.7867C4.7299 40.25 5.92003 40.25 8.30024 40.25H16.3752M18.5002 2L31.2502 14.75M18.5002 2V11.35C18.5002 12.5401 18.5002 13.1352 18.7319 13.5897C18.9356 13.9896 19.2606 14.3147 19.6605 14.5184C20.115 14.75 20.71 14.75 21.9002 14.75H31.2502M31.2502 14.75V19M10.0002 31.75H12.1252M10.0002 23.25H16.3752M10.0002 14.75H12.1252M28.0576 29.0128C26.5706 27.3572 24.0909 26.9118 22.2277 28.428C20.3647 29.944 20.1023 32.4789 21.5655 34.272C22.3915 35.2843 24.3542 37.0589 25.9067 38.4125C26.643 39.0545 27.0111 39.3756 27.4565 39.5069C27.8362 39.6189 28.2791 39.6189 28.6588 39.5069C29.1042 39.3756 29.4722 39.0545 30.2086 38.4125C31.7611 37.0589 33.7237 35.2843 34.5497 34.272C36.013 32.4789 35.7826 29.928 33.8876 28.428C31.9923 26.9277 29.5447 27.3572 28.0576 29.0128Z" stroke="#FF914D" stroke-width="2.5" stroke-linecap="round" stroke-linejoin="round"/>
</svg>
