<svg width="43" height="47" viewBox="0 0 43 47" fill="none" xmlns="http://www.w3.org/2000/svg">
<path d="M26.375 40.7451L31.25 45.5882L41 35.902M21.5 2H9.8C7.06976 2 5.70461 2 4.6618 2.52788C3.74449 2.99219 2.99872 3.73309 2.53135 4.6444C2 5.6804 2 7.03662 2 9.74902V37.8392C2 40.5516 2 41.9079 2.53135 42.9439C2.99872 43.8551 3.74449 44.5961 4.6618 45.0603C5.70461 45.5882 7.06976 45.5882 9.8 45.5882H17.8438M21.5 2L36.125 16.5294M21.5 2V12.6549C21.5 14.0111 21.5 14.6892 21.7657 15.2072C21.9994 15.6629 22.3721 16.0333 22.8309 16.2655C23.3523 16.5294 24.0348 16.5294 25.4 16.5294H36.125M36.125 16.5294V27.1843M11.75 35.902H17.8438M11.75 26.2157H26.375M11.75 16.5294H14.1875" stroke="#FF914D" stroke-width="2.5" stroke-linecap="round" stroke-linejoin="round"/>
</svg>
