<svg width="43" height="42" viewBox="0 0 43 42" fill="none" xmlns="http://www.w3.org/2000/svg">
<path d="M21.6305 0C10.0298 0 0.630493 9.40565 0.630493 21C0.630493 32.5943 10.0361 42 21.6305 42C33.2312 42 42.6305 32.5943 42.6305 21C42.6305 9.40565 33.2248 0 21.6305 0ZM21.6305 37.3418C12.6205 37.3418 5.29503 30.0164 5.29503 21.0064C5.29503 11.9964 12.6205 4.67092 21.6305 4.67092C30.6405 4.67092 37.966 11.9964 37.966 21.0064C37.966 30.0164 30.6341 37.3418 21.6305 37.3418Z" fill="#FF914D"/>
<path d="M23.7606 11.667H19.2972V21.6865L26.6448 29.167L29.7972 25.9575L23.7606 19.8117V11.667Z" fill="#FF914D"/>
</svg>
