<svg width="42" height="39" viewBox="0 0 42 39" fill="none" xmlns="http://www.w3.org/2000/svg">
<path fill-rule="evenodd" clip-rule="evenodd" d="M18.6147 2.68267H36.6674L38.0233 4.024V16.1148C37.1929 15.482 36.2916 14.9499 35.338 14.5293V10.7038H18.5615L16.2751 13.0109L15.3445 13.4133H3.40687V29.5093H16.9929C17.179 30.4429 17.4635 31.3389 17.8331 32.192H2.13069L0.801331 30.8507V1.34133L2.13069 0H15.4243L16.3548 0.4024L18.6147 2.68267ZM18.0298 8.048H35.3114L35.338 5.39216H18.0564L17.0993 4.98976L14.8393 2.70949H3.43346V10.7575H14.8128L17.0993 8.4504L18.0298 8.048Z" fill="#FF914C"/>
<path fill-rule="evenodd" clip-rule="evenodd" d="M24.5645 17.9928C25.7177 17.1765 27.0136 16.607 28.3776 16.317C29.7416 16.027 31.1469 16.0223 32.5126 16.3031C33.8784 16.5839 35.1777 17.1447 36.3359 17.9533C37.4941 18.7619 38.4884 19.8023 39.2615 21.0147C40.0347 22.2271 40.5715 23.5876 40.8412 25.0181C41.1108 26.4486 41.1079 27.9208 40.8327 29.3501C40.5575 30.7794 40.0154 32.1376 39.2375 33.3467C38.4596 34.5558 37.4613 35.5919 36.3 36.3955C33.9704 38.0075 31.1264 38.5877 28.3896 38.0094C25.6529 37.4311 23.246 35.7412 21.6951 33.3092C20.1442 30.8771 19.5754 27.9008 20.1131 25.0307C20.6508 22.1606 22.2512 19.6303 24.5645 17.9928ZM30.1893 31.7976L36.4928 22.9946L34.3802 21.3347L28.8953 28.9951L25.4597 26.1152L23.8093 28.2731L28.3091 32.0466L30.1919 31.7976H30.1893Z" fill="#FF914C"/>
</svg>
