<svg width="24" height="23" viewBox="0 0 24 23" fill="none" xmlns="http://www.w3.org/2000/svg">
<path d="M21.3332 21H2.6665C1.56193 21 0.666504 20.1046 0.666504 19V3C0.666504 1.89543 1.56193 0.999998 2.6665 0.999998H21.3332C22.4377 0.999998 23.3332 1.89543 23.3332 3V19C23.3332 20.1046 22.4377 21 21.3332 21Z" stroke="#194E7E"/>
<path d="M1 16L23 16" stroke="#194E7E" stroke-linecap="square"/>
<path d="M6.13333 22.2666C6.13333 22.3035 6.10349 22.3333 6.06667 22.3333C6.02985 22.3333 6 22.3035 6 22.2666V19.7333C6 19.6965 6.02985 19.6666 6.06667 19.6666C6.10349 19.6666 6.13333 19.6965 6.13333 19.7333V22.2666Z" stroke="#194E7E"/>
<path d="M18.1333 22.2666C18.1333 22.3035 18.1035 22.3333 18.0667 22.3333C18.0298 22.3333 18 22.3035 18 22.2666V19.7333C18 19.6965 18.0298 19.6666 18.0667 19.6666C18.1035 19.6666 18.1333 19.6965 18.1333 19.7333V22.2666Z" stroke="#194E7E"/>
<path d="M6.2665 12.3333H5.73317C5.14407 12.3333 4.6665 11.8558 4.6665 11.2666V10.7333C4.6665 10.1442 5.14407 9.66665 5.73317 9.66665H6.2665C6.85561 9.66665 7.33317 10.1442 7.33317 10.7333V11.2666C7.33317 11.8558 6.85561 12.3333 6.2665 12.3333Z" stroke="#194E7E"/>
<path d="M6.2665 7H5.73317C5.14407 7 4.6665 6.52244 4.6665 5.93333V5.4C4.6665 4.8109 5.14407 4.33333 5.73317 4.33333H6.2665C6.85561 4.33333 7.33317 4.8109 7.33317 5.4V5.93333C7.33317 6.52244 6.85561 7 6.2665 7Z" stroke="#194E7E"/>
<path d="M12.2665 12.3333H11.7332C11.1441 12.3333 10.6665 11.8558 10.6665 11.2666V10.7333C10.6665 10.1442 11.1441 9.66665 11.7332 9.66665H12.2665C12.8556 9.66665 13.3332 10.1442 13.3332 10.7333V11.2666C13.3332 11.8558 12.8556 12.3333 12.2665 12.3333Z" stroke="#194E7E"/>
<path d="M12.2665 7H11.7332C11.1441 7 10.6665 6.52244 10.6665 5.93333V5.4C10.6665 4.8109 11.1441 4.33333 11.7332 4.33333H12.2665C12.8556 4.33333 13.3332 4.8109 13.3332 5.4V5.93333C13.3332 6.52244 12.8556 7 12.2665 7Z" stroke="#194E7E"/>
<path d="M18.2665 12.3333H17.7332C17.1441 12.3333 16.6665 11.8558 16.6665 11.2666V10.7333C16.6665 10.1442 17.1441 9.66665 17.7332 9.66665H18.2665C18.8556 9.66665 19.3332 10.1442 19.3332 10.7333V11.2666C19.3332 11.8558 18.8556 12.3333 18.2665 12.3333Z" stroke="#194E7E"/>
<path d="M18.2665 7H17.7332C17.1441 7 16.6665 6.52244 16.6665 5.93333V5.4C16.6665 4.8109 17.1441 4.33333 17.7332 4.33333H18.2665C18.8556 4.33333 19.3332 4.8109 19.3332 5.4V5.93333C19.3332 6.52244 18.8556 7 18.2665 7Z" stroke="#194E7E"/>
</svg>
