<svg width="38" height="43" viewBox="0 0 38 43" fill="none" xmlns="http://www.w3.org/2000/svg">
<path d="M27.5 36.5397H36M31.75 32.2222V40.8571M19 2H8.8C6.41979 2 5.22966 2 4.32054 2.47058C3.52084 2.8845 2.87068 3.54498 2.46323 4.35738C2 5.28092 2 6.48994 2 8.90794V33.9492C2 36.3672 2 37.5763 2.46323 38.4998C2.87068 39.3121 3.52084 39.9727 4.32054 40.3865C5.22966 40.8571 6.41979 40.8571 8.8 40.8571H16.875M19 2L31.75 14.9524M19 2V11.4984C19 12.7074 19 13.3119 19.2316 13.7737C19.4354 14.1799 19.7603 14.5101 20.1602 14.7171C20.6148 14.9524 21.2098 14.9524 22.4 14.9524H31.75M31.75 14.9524V21.4286M10.5 32.2222H16.875M10.5 23.5873H23.25M10.5 14.9524H12.625" stroke="#FF914D" stroke-width="2.5" stroke-linecap="round" stroke-linejoin="round"/>
</svg>
