<svg width="45" height="40" viewBox="0 0 45 40" fill="none" xmlns="http://www.w3.org/2000/svg">
<g clip-path="url(#clip0_0_865)">
<path fill-rule="evenodd" clip-rule="evenodd" d="M44.0825 21.0152L31.5265 40L21.5247 33.5785L22.1883 32.1758L29.5175 36.8395L29.6072 36.9004C29.7731 37.0047 29.958 37.0752 30.1513 37.1078C30.3445 37.1404 30.5423 37.1345 30.7333 37.0905C30.9243 37.0466 31.1047 36.9653 31.2642 36.8514C31.4237 36.7375 31.5592 36.5933 31.6628 36.4269L32.0682 35.7812H32.0897L33.9803 32.7067L42.5901 20.043L44.1005 21.0081L44.0825 21.0152ZM11.0206 5.35247C11.8983 5.33285 12.7722 5.47263 13.6 5.76502L13.0045 8.20448H12.7857C12.4031 8.00663 12.0047 7.84104 11.5946 7.70942C11.2379 7.60627 10.8681 7.55551 10.4969 7.55874C10.1604 7.53919 9.82476 7.60978 9.52466 7.76323C9.27886 7.93378 9.10502 8.18942 9.03677 8.48072C8.92018 8.97653 8.86952 9.48555 8.8861 9.99462C8.86963 10.512 8.92027 11.0293 9.03677 11.5336C9.10461 11.8395 9.29021 12.1063 9.55336 12.2762C9.88035 12.4381 10.2438 12.5123 10.6081 12.4915C10.78 12.4919 10.9516 12.4775 11.1211 12.4484V12.0072L11.0816 10.5076L13.5928 10.3283L13.5498 11.5408V13.991C12.5347 14.3846 11.4564 14.59 10.3677 14.5973C8.93274 14.5973 7.84335 14.2135 7.09955 13.4457C6.35576 12.678 5.98625 11.5791 5.99103 10.1489C5.99103 8.58475 6.42511 7.39492 7.29327 6.57937C8.16144 5.76383 9.40389 5.35486 11.0206 5.35247ZM18.3605 5.35247C19.2462 5.3549 20.124 5.51903 20.9507 5.83677L20.5094 8.08251L20.122 8.25112C19.7608 8.02373 19.3773 7.83381 18.9776 7.6843C18.6884 7.56655 18.3817 7.49745 18.07 7.47982C17.8942 7.46988 17.7194 7.51233 17.5677 7.60179C17.5102 7.6354 17.4627 7.68366 17.4299 7.74164C17.3971 7.79961 17.3803 7.86525 17.3812 7.93184C17.3846 8.02496 17.4126 8.11551 17.4624 8.19428C17.5122 8.27305 17.5819 8.33723 17.6646 8.38027C17.9673 8.56579 18.2826 8.73001 18.6081 8.87175C19.042 9.06031 19.4648 9.27351 19.8744 9.51031C20.2168 9.71911 20.5124 9.99635 20.7426 10.3247C20.9947 10.7001 21.1204 11.1463 21.1013 11.5982C21.1064 12.1418 20.9449 12.6738 20.6386 13.1229C20.306 13.5949 19.8507 13.9671 19.322 14.1991C18.6983 14.4774 18.0209 14.6146 17.3381 14.6009C16.3332 14.5883 15.337 14.4114 14.3892 14.0771L14.791 11.6771L15.0637 11.5121C15.4781 11.8304 15.936 12.0877 16.4233 12.2762C16.8045 12.4434 17.213 12.5395 17.6287 12.5596C17.8241 12.5751 18.0195 12.53 18.1883 12.4305C18.2402 12.3932 18.2825 12.3442 18.3118 12.2875C18.3411 12.2307 18.3565 12.1679 18.357 12.104C18.3539 12.0043 18.3253 11.907 18.2738 11.8216C18.2222 11.7361 18.1496 11.6654 18.0628 11.6161C17.7628 11.4247 17.4472 11.2591 17.1193 11.1211C16.6904 10.9382 16.2734 10.7285 15.8709 10.4933C15.5351 10.2867 15.2466 10.0117 15.0242 9.6861C14.7739 9.30978 14.6484 8.86421 14.6655 8.41256C14.6595 7.85554 14.8235 7.30993 15.1354 6.84843C15.4627 6.3665 15.9155 5.98319 16.4448 5.73991C17.0456 5.46572 17.7002 5.32965 18.3605 5.3417V5.35247ZM28.5489 5.71121L28.3982 7.72377L26.5794 7.64125H26.4144L26.3462 11.5408L26.4538 14.4323H23.6987L23.8386 11.817L23.7668 7.64125H23.5874L21.7578 7.72377L21.5892 7.53363L21.7435 5.52108H28.3982L28.5489 5.7148V5.71121ZM17.4278 29.8906L17.2197 29.6753L14.2422 32.7354C14.2265 32.7566 14.2097 32.777 14.1919 32.7964C14.1083 32.88 14.009 32.9464 13.8998 32.9916C13.7905 33.0369 13.6734 33.0602 13.5552 33.0602C13.4369 33.0602 13.3198 33.0369 13.2105 32.9916C13.1013 32.9464 13.002 32.88 12.9184 32.7964L9.79731 29.6753L6.56861 32.739C6.39819 32.9001 6.17165 32.9884 5.93716 32.985C5.70268 32.9817 5.47875 32.887 5.313 32.7211L2.26009 29.6287L1.62152 30.3462C1.50947 30.4962 1.35345 30.6075 1.17517 30.6647C0.996893 30.7219 0.805226 30.722 0.626839 30.6652C0.448451 30.6084 0.292214 30.4974 0.179866 30.3476C0.0675178 30.1978 0.00464663 30.0168 0 29.8296L0 0.900448C0 0.661635 0.0948684 0.432602 0.263735 0.263735C0.432602 0.0948684 0.661635 0 0.900449 0L33.6753 0C33.7934 -9.44614e-07 33.9103 0.0233154 34.0194 0.068611C34.1284 0.113907 34.2275 0.18029 34.3108 0.263952C34.3941 0.347613 34.4601 0.446906 34.505 0.556133C34.5498 0.665359 34.5727 0.782369 34.5722 0.900448V7.78117L34.1309 7.49776C33.9325 7.36918 33.7093 7.28359 33.4757 7.24652C33.2422 7.20945 33.0034 7.22171 32.7749 7.28251V1.79372H1.79372V27.5157C1.95328 27.4316 2.13449 27.3976 2.31368 27.4181C2.49288 27.4385 2.66173 27.5126 2.79821 27.6305C2.81549 27.6442 2.83114 27.6598 2.84484 27.6771H2.86996L5.97668 30.852L9.20538 27.7919C9.37242 27.6278 9.59723 27.5359 9.83139 27.5359C10.0656 27.5359 10.2904 27.6278 10.4574 27.7919L13.5534 30.8879L16.5489 27.8027C16.7112 27.6337 16.9334 27.5353 17.1675 27.5286C17.4017 27.5218 17.6292 27.6074 17.8009 27.7668L18.3677 28.2906L17.6502 29.3453C17.5448 29.5092 17.4684 29.69 17.4242 29.8798L17.4278 29.8906ZM21.5749 23.4332H6.86637C6.69035 23.4332 6.52154 23.3633 6.39708 23.2388C6.27261 23.1143 6.20269 22.9455 6.20269 22.7695C6.20269 22.5935 6.27261 22.4247 6.39708 22.3002C6.52154 22.1758 6.69035 22.1058 6.86637 22.1058H22.4538L21.5785 23.4332H21.5749ZM24.4987 19.0135H6.66906C6.49304 19.0135 6.32423 18.9435 6.19977 18.8191C6.0753 18.6946 6.00538 18.5258 6.00538 18.3498C6.00538 18.1738 6.0753 18.0049 6.19977 17.8805C6.32423 17.756 6.49304 17.6861 6.66906 17.6861H25.374L24.4987 19.0135ZM42.9058 16.9184L30.3498 35.8744L20.3336 29.4673L32.8897 10.4825L42.9022 16.904L42.9058 16.9184ZM33.7507 22.0879C34.0176 22.5515 34.1411 23.0838 34.1055 23.6175C34.0699 24.1513 33.8769 24.6625 33.5508 25.0865C33.2247 25.5105 32.7802 25.8284 32.2735 25.9998C31.7668 26.1713 31.2206 26.1886 30.7041 26.0497C30.1875 25.9108 29.7237 25.6218 29.3713 25.2193C29.019 24.8169 28.7939 24.319 28.7245 23.7886C28.6551 23.2582 28.7445 22.7191 28.9814 22.2395C29.2184 21.7599 29.5922 21.3613 30.0556 21.0942C30.3633 20.9162 30.7032 20.8008 31.0556 20.7544C31.408 20.7081 31.7661 20.7317 32.1094 20.824C32.4527 20.9164 32.7744 21.0755 33.056 21.2924C33.3376 21.5093 33.5737 21.7796 33.7507 22.0879ZM39.3184 19.1462L30.8987 31.6735C30.5055 31.4232 30.0291 31.3388 29.5739 31.439C29.1186 31.5392 28.7217 31.8158 28.47 32.2081L24.5238 29.6717C24.6482 29.4772 24.7331 29.26 24.7736 29.0327C24.8141 28.8053 24.8094 28.5722 24.7597 28.3466C24.7101 28.1211 24.6165 27.9075 24.4843 27.7182C24.3521 27.5288 24.1839 27.3674 23.9892 27.243L32.3982 14.7085C32.5923 14.833 32.809 14.9181 33.0359 14.9588C33.2628 14.9995 33.4956 14.9951 33.7208 14.9458C33.9461 14.8965 34.1594 14.8032 34.3485 14.6714C34.5377 14.5396 34.6991 14.3718 34.8233 14.1776L38.7874 16.7139C38.6628 16.9082 38.5777 17.1252 38.5369 17.3524C38.4962 17.5797 38.5006 17.8127 38.5499 18.0382C38.5992 18.2637 38.6924 18.4774 38.8243 18.6668C38.9562 18.8563 39.124 19.018 39.3184 19.1426V19.1462Z" fill="#FF914D"/>
</g>
<defs>
<clipPath id="clip0_0_865">
<rect width="44.0825" height="40" fill="white"/>
</clipPath>
</defs>
</svg>
