<svg width="24" height="24" viewBox="0 0 24 24" fill="none" xmlns="http://www.w3.org/2000/svg">
<g clip-path="url(#clip0_0_1643)">
<path d="M3.73242 3H10.2349C10.4289 3.00043 10.6149 3.07861 10.752 3.21735C10.8203 3.28571 10.8746 3.36699 10.9118 3.45655C10.949 3.5461 10.9683 3.64217 10.9688 3.73928V10.273C10.9688 10.4691 10.8916 10.6571 10.7542 10.7958C10.6169 10.9344 10.4306 11.0123 10.2363 11.0123H3.73242C3.63583 11.0125 3.54015 10.9934 3.4509 10.9561C3.36165 10.9188 3.2806 10.864 3.2124 10.795L3.19922 10.7787C3.07153 10.6419 3.00029 10.461 3 10.273V3.73928C3 3.54321 3.07717 3.35517 3.21452 3.21653C3.35188 3.07789 3.53817 3 3.73242 3ZM13.7651 12.9847H20.2646C20.4583 12.9866 20.6435 13.0652 20.7804 13.2034C20.9174 13.3416 20.9952 13.5285 20.9971 13.724V20.2548C20.9971 20.4509 20.9199 20.6389 20.7825 20.7776C20.6452 20.9162 20.4589 20.9941 20.2646 20.9941H13.7651C13.5739 20.9937 13.3904 20.9178 13.2539 20.7827L13.2407 20.7664C13.1105 20.6298 13.038 20.4474 13.0386 20.2578V13.727C13.0384 13.6295 13.0573 13.5329 13.0943 13.4428C13.1313 13.3527 13.1855 13.2709 13.2539 13.2021L13.2686 13.1873C13.4044 13.0566 13.5848 12.9836 13.7725 12.9832L13.7651 12.9847ZM3.73242 12.9847H10.2349C10.4289 12.9852 10.6149 13.0633 10.752 13.2021C10.8208 13.2703 10.8755 13.3518 10.9128 13.4417C10.95 13.5316 10.969 13.6281 10.9688 13.7255V20.2563C10.9688 20.4524 10.8916 20.6404 10.7542 20.779C10.6169 20.9177 10.4306 20.9956 10.2363 20.9956H3.73242C3.63583 20.9957 3.54015 20.9766 3.4509 20.9393C3.36165 20.902 3.2806 20.8473 3.2124 20.7782L3.19922 20.762C3.07188 20.6255 3.00067 20.4452 3 20.2578V13.727C3 13.5309 3.07717 13.3429 3.21452 13.2042C3.35188 13.0656 3.53817 12.9877 3.73242 12.9877V12.9847ZM13.7651 3H20.2646C20.4589 3 20.6452 3.07789 20.7825 3.21653C20.9199 3.35517 20.9971 3.54321 20.9971 3.73928V10.273C20.9971 10.4691 20.9199 10.6571 20.7825 10.7958C20.6452 10.9344 20.4589 11.0123 20.2646 11.0123H13.7651C13.5709 11.0123 13.3846 10.9344 13.2472 10.7958C13.1099 10.6571 13.0327 10.4691 13.0327 10.273V3.73928C13.0337 3.64186 13.0537 3.5456 13.0917 3.45603C13.1297 3.36646 13.1848 3.28534 13.2539 3.21735L13.2686 3.20404C13.4026 3.07512 13.58 3.00222 13.7651 3Z" fill="white"/>
</g>
<defs>
<clipPath id="clip0_0_1643">
<rect width="18" height="18" fill="white" transform="translate(3 3)"/>
</clipPath>
</defs>
</svg>
