<svg width="20" height="27" viewBox="0 0 20 27" fill="none" xmlns="http://www.w3.org/2000/svg">
<g clip-path="url(#clip0_0_2428)">
<path fill-rule="evenodd" clip-rule="evenodd" d="M10.0008 0.00193883C10.4707 -0.0178366 10.841 0.146958 11.2157 0.388658C11.69 0.694077 12.2249 1.29833 12.8854 1.68065C13.8145 2.21898 15.5341 1.4763 16.4133 2.80345C16.9266 3.57689 16.9504 4.18334 16.9894 4.78319C17.0305 5.42918 17.1431 6.02464 17.795 6.89916C18.8757 8.34935 19.1009 9.31395 18.5443 10.3181C18.1653 11.0036 17.3662 11.3838 17.1821 11.8188C16.788 12.7417 17.2233 13.4382 16.6862 14.5149C16.3115 15.2619 15.7355 15.7541 14.9666 16.0046C14.3191 16.2156 13.6694 15.9101 13.1496 16.1321C12.2379 16.521 11.5665 17.4241 10.841 17.6526C10.5617 17.7405 10.2823 17.7844 10.0029 17.7822C9.72355 17.7844 9.44418 17.7405 9.1648 17.6526C8.4393 17.4241 7.76794 16.521 6.85619 16.1321C6.33643 15.9101 5.68673 16.2178 5.03919 16.0046C4.27038 15.7541 3.69431 15.2619 3.31965 14.5149C2.7804 13.4382 3.2157 12.7417 2.82371 11.8188C2.63963 11.3838 1.84049 11.0036 1.4615 10.3181C0.90059 9.31395 1.12582 8.34935 2.20649 6.90135C2.85836 6.02684 2.97097 5.43138 3.01212 4.78539C3.0511 4.18553 3.07493 3.57909 3.58819 2.80565C4.46962 1.4785 6.18917 2.22118 7.11608 1.68285C7.77661 1.30052 8.31153 0.696275 8.78581 0.390855C9.15831 0.146958 9.5308 -0.0200338 10.0008 0.00193883ZM10.0008 5.70604L10.9666 8.10106L13.5113 8.29222L11.5644 9.96434L12.1708 12.478L10.0008 11.1157L7.83075 12.478L8.43714 9.96434L6.4902 8.29222L9.03486 8.10106L10.0008 5.70604ZM19.2655 24.8442L16.7642 24.3894L15.5232 26.6438C14.6223 27.7754 14.0506 25.9143 13.7993 25.2661L11.3846 20.6453C11.9412 20.4497 12.6126 19.885 13.3012 19.25C14.6764 19.2786 15.9585 19.0368 16.9006 17.8196L19.6748 23.2578L19.9152 23.7807C20.1058 24.4597 20.0062 24.9079 19.2655 24.8442ZM0.733833 24.8442L3.23735 24.3894L4.47828 26.6438C5.3792 27.7754 5.95094 25.9143 6.20216 25.2661L8.61689 20.6453C8.06031 20.4497 7.38895 19.885 6.70027 19.25C5.32506 19.2786 4.04298 19.0368 3.10091 17.8196L0.32452 23.2578L0.0841305 23.7807C-0.106449 24.4597 -0.00682783 24.9079 0.733833 24.8442ZM9.97477 3.53734C12.9634 3.53734 15.3868 5.99608 15.3868 9.02831C15.3868 12.0605 12.9634 14.5193 9.97477 14.5193C6.98614 14.5193 4.56275 12.0605 4.56275 9.02831C4.56491 5.99608 6.98614 3.53734 9.97477 3.53734Z" fill="#FF914D"/>
</g>
<defs>
<clipPath id="clip0_0_2428">
<rect width="20" height="27" fill="white"/>
</clipPath>
</defs>
</svg>
