<svg width="21" height="22" viewBox="0 0 21 22" fill="none" xmlns="http://www.w3.org/2000/svg">
<g opacity="0.6">
<path fill-rule="evenodd" clip-rule="evenodd" d="M12.5152 6.58838L13.1211 5.8426C13.3544 5.55548 13.7606 5.52144 14.0419 5.74999C14.315 5.97186 14.367 6.39056 14.1397 6.67026L6.43145 16.1574C6.19816 16.4445 5.79194 16.4785 5.51065 16.25C5.23758 16.0281 5.18555 15.6094 5.4128 15.3297L5.95493 14.6625C3.2762 13.5578 1.63248 11.864 1.63248 11.864C1.09318 11.3868 1.07831 10.6083 1.63248 10.1359C1.63248 10.1359 5.25203 6.40624 10.502 6.40624C11.2039 6.40624 11.8765 6.47289 12.5152 6.58838ZM14.9749 7.30752C17.6959 8.41127 19.3679 10.1359 19.3679 10.1359C19.9067 10.6131 19.9216 11.3917 19.3679 11.864C19.3679 11.864 15.752 15.5937 10.502 15.5937C9.75416 15.5937 9.03938 15.5181 8.36343 15.3883L9.41838 14.0989C9.75697 14.217 10.1209 14.2812 10.4997 14.2812C12.3119 14.2812 13.781 12.8122 13.781 11C13.781 10.3888 13.6139 9.81664 13.3229 9.32671L14.9749 7.30752ZM10.3478 12.963L12.3941 10.4619C12.4426 10.6329 12.4685 10.8134 12.4685 11C12.4685 12.0873 11.5871 12.9687 10.4997 12.9687C10.4486 12.9687 10.3979 12.9668 10.3478 12.963Z" fill="#333333"/>
</g>
</svg>
