<svg width="51" height="41" viewBox="0 0 51 41" fill="none" xmlns="http://www.w3.org/2000/svg">
<g clip-path="url(#clip0_0_870)">
<path d="M48.8701 38.7908L48.3269 38.1659L45.7417 40.7511L45.7376 40.747C45.4477 41.037 44.978 41.0411 44.688 40.7552L42.0538 38.1945L39.4727 40.6735C39.1909 40.9635 38.7253 40.9798 38.4271 40.7021L35.6908 38.1741L33.2077 40.7307C33.1914 40.7471 33.1791 40.7634 33.1628 40.7797C32.8687 41.0738 32.395 41.0738 32.1009 40.7797L29.4953 38.1741L26.808 40.7348C26.5139 41.0125 26.0483 41.0084 25.7625 40.7185L23.2058 38.1373L22.6749 38.7499C22.5401 38.9337 22.3196 39.0522 22.0705 39.0522C21.6539 39.0522 21.319 38.7132 21.319 38.3007V28.2865C21.4905 28.3151 21.6661 28.3315 21.8417 28.3315C22.1726 28.3356 22.5034 28.2947 22.826 28.2049V36.373C23.0915 36.2341 23.4223 36.2627 23.6632 36.471C23.6796 36.4833 23.6918 36.4955 23.7041 36.5119L26.3097 39.1461L28.9929 36.5895C29.2911 36.3077 29.7526 36.3158 30.0385 36.6017L30.0426 36.5976L32.6278 39.1828L35.1313 36.6058C35.4172 36.3158 35.8787 36.3036 36.1768 36.5772L38.9336 39.1216L41.5474 36.614C41.8414 36.3322 42.307 36.3362 42.5929 36.6221L45.2067 39.1665L47.8368 36.5364C48.0615 36.3077 48.4086 36.2587 48.6863 36.3893V16.0098H34.825C34.874 15.7689 34.8944 15.5238 34.8944 15.2788C34.8903 15.0215 34.8577 14.7601 34.8005 14.5069H49.4378C49.8544 14.5069 50.1893 14.8418 50.1893 15.2583V38.3007H50.1852C50.1852 38.509 50.0994 38.7173 49.9238 38.8684C49.6134 39.1379 49.1397 39.1053 48.8701 38.7908ZM28.6417 32.1868C28.3068 32.1868 28.0332 31.9132 28.0332 31.5783C28.0332 31.2434 28.3068 30.9698 28.6417 30.9698H34.094C34.4288 30.9698 34.7025 31.2434 34.7025 31.5783C34.7025 31.9132 34.4288 32.1868 34.094 32.1868H28.6417ZM28.6417 24.8192C28.3068 24.8192 28.0332 24.5455 28.0332 24.2106C28.0332 23.8757 28.3068 23.6021 28.6417 23.6021H44.8106C45.1454 23.6021 45.4191 23.8757 45.4191 24.2106C45.4191 24.5455 45.1454 24.8192 44.8106 24.8192H28.6417ZM28.6417 28.5234C28.3068 28.5234 28.0332 28.2498 28.0332 27.9149C28.0332 27.58 28.3068 27.3064 28.6417 27.3064H42.4663C42.8012 27.3064 43.0748 27.58 43.0748 27.9149C43.0748 28.2498 42.8012 28.5234 42.4663 28.5234H28.6417ZM25.6073 6.9881C26.42 7.80083 26.4363 9.11182 25.644 9.90413L25.2152 10.333L28.6581 13.7146L19.9549 22.1033L16.6019 18.6318L3.53695 31.6967C2.74464 32.4891 1.43365 32.4727 0.620921 31.66C-0.191809 30.8473 -0.208145 29.5363 0.584164 28.744L13.6981 15.63L11.0721 12.9018L19.2974 4.51315L22.242 7.40059L22.6953 6.94726C23.4835 6.16312 24.7945 6.17945 25.6073 6.9881ZM18.9421 0.494421C19.5873 1.1397 19.5996 2.18523 18.9706 2.81417L9.37308 12.4117C8.74413 13.0407 7.69861 13.0284 7.05333 12.3832C6.40805 11.7379 6.39579 10.6924 7.02474 10.0634L16.6223 0.465832C17.2513 -0.167199 18.2968 -0.150863 18.9421 0.494421ZM32.5828 14.1352C33.2281 14.7805 33.2404 15.826 32.6114 16.455L23.0139 26.0526C22.3849 26.6815 21.3394 26.6692 20.6941 26.024C20.0488 25.3787 20.0366 24.3332 20.6655 23.7042L30.2631 14.1066C30.8961 13.4777 31.9376 13.4899 32.5828 14.1352Z" fill="#FF914D"/>
</g>
<defs>
<clipPath id="clip0_0_870">
<rect width="50.1851" height="41" fill="white"/>
</clipPath>
</defs>
</svg>
