<svg width="14" height="17" viewBox="0 0 14 17" fill="none" xmlns="http://www.w3.org/2000/svg">
<path d="M6.99414 0C10.834 0 14 3.16043 14 7.07031C13.9999 9.04047 13.3057 10.8696 12.1631 12.4199C10.9025 14.13 9.34844 15.6205 7.59961 16.79C7.19965 17.0599 6.83836 17.0804 6.39941 16.79C4.64061 15.6205 3.08668 14.13 1.83691 12.4199C0.693472 10.8696 5.14574e-05 9.04047 0 7.07031C0 3.16058 3.16529 0.000253943 6.99414 0ZM6.99512 4.91016C5.72546 4.91016 4.68953 5.99049 4.68945 7.29004C4.68945 8.59985 5.72541 9.62988 6.99512 9.62988C8.26546 9.62965 9.31055 8.5997 9.31055 7.29004C9.31046 5.99064 8.26541 4.9104 6.99512 4.91016Z" fill="#FF914D"/>
</svg>
