<svg width="275" height="48" viewBox="0 0 275 48" fill="none" xmlns="http://www.w3.org/2000/svg">
<path d="M20.3131 41.5242C18.6859 42.2402 17.5795 43.3466 16.9937 45.0388C16.7985 45.5595 16.7334 46.1453 16.6683 46.731C16.6032 47.3168 16.9286 47.6422 17.5144 47.6422C17.6446 47.6422 17.7097 47.6422 17.8398 47.6422C26.9517 47.6422 36.0637 47.6422 45.1756 47.6422C46.282 47.6422 46.4122 47.1866 46.3471 46.3405C46.0867 44.1927 44.9803 42.6307 43.0277 41.6544C42.9627 41.5893 42.8976 41.5893 42.7674 41.5242C43.223 40.7432 43.2881 39.9622 43.0277 39.1812C42.7023 38.1398 41.7911 37.4239 40.6847 37.4239C34.5667 37.4239 28.4487 37.4239 22.3307 37.4239C20.5083 37.4239 19.3368 39.3114 20.0527 41.0036C20.1178 41.1337 20.1829 41.329 20.3131 41.5242Z" fill="white"/>
<path d="M20.7686 19.135C20.0527 19.7859 19.2717 20.5018 18.4907 21.2177C12.8283 26.4896 7.23096 31.7615 1.56856 37.0334C0.0716091 38.4002 -0.383987 40.1575 0.331948 41.8497C1.56856 44.7785 5.14824 45.4293 7.29605 43.0863C11.3964 38.7256 15.4317 34.2998 19.532 29.874C21.3544 27.9215 23.1768 25.9689 24.9341 24.0164C25.0643 23.8862 25.1944 23.756 25.2595 23.691C23.7626 22.1289 22.3307 20.632 20.7686 19.135Z" fill="white"/>
<path d="M29.4903 7.02914C26.4313 10.0881 23.3723 13.1471 20.3784 16.2061C22.9818 18.8095 25.5852 21.478 28.2536 24.0814C31.2476 21.0875 34.3716 17.9634 37.3655 14.9044C34.7621 12.301 32.1587 9.63254 29.4903 7.02914Z" fill="#FF914D"/>
<path d="M24.4784 0C24.0879 0 23.5672 0.195251 23.1767 0.585761C20.1177 3.64476 17.0587 6.70376 13.9997 9.76276C13.0885 10.739 13.0885 12.0407 13.9997 12.9519C14.6506 13.6028 15.3014 14.3187 16.0174 14.9696C16.9937 15.9458 18.3604 15.9458 19.3367 14.9696C22.3306 12.0407 25.2594 9.1119 28.2534 6.11799C29.2947 5.07663 29.3598 3.70984 28.3184 2.66848C27.6676 2.01763 27.0818 1.36678 26.431 0.71593C25.9103 0.260334 25.3245 0 24.4784 0Z" fill="#FF914D"/>
<path d="M33.0696 31.1107C33.6553 31.1107 34.176 30.9154 34.5665 30.5249C37.6255 27.4659 40.6845 24.4069 43.7435 21.3479C44.6547 20.4367 44.5896 19.0699 43.6784 18.0937C43.0276 17.4428 42.3767 16.792 41.7259 16.1411C40.7496 15.1648 39.3828 15.1648 38.4065 16.1411C35.4126 19.135 32.3536 22.194 29.3597 25.1879C28.5136 26.034 28.3834 26.8801 29.0343 27.8564C29.3597 28.3771 29.7502 28.8327 30.2058 29.2232C30.5963 29.6788 31.0519 30.0693 31.5075 30.4598C31.898 30.9154 32.4838 31.1107 33.0696 31.1107Z" fill="#FF914D"/>
<path d="M62.4884 4.16542H88.7828V12.1058H71.9258V20.5668H86.2445V28.5072H71.9258V38.2049H89.3685V46.1453H62.4233V4.16542H62.4884Z" fill="white"/>
<path d="M97.8293 4.16542H112.213C120.935 4.16542 127.703 6.57357 127.703 14.579C127.703 18.354 125.621 22.3892 122.171 23.6258V23.8862C126.467 24.9926 129.786 28.1818 129.786 33.7791C129.786 42.3052 122.562 46.1453 113.45 46.1453H97.8944V4.16542H97.8293ZM111.758 21.0224C116.379 21.0224 118.396 19.0699 118.396 16.0109C118.396 12.7566 116.248 11.52 111.823 11.52H107.332V21.0224H111.758ZM112.604 38.8557C117.81 38.8557 120.479 37.0334 120.479 33.1933C120.479 29.4835 117.876 27.9865 112.604 27.9865H107.332V38.8557H112.604Z" fill="white"/>
<path d="M136.815 4.16542H146.318V46.2103H136.815V4.16542Z" fill="white"/>
<path d="M156.211 4.16542H168.056C180.878 4.16542 189.144 10.5438 189.144 24.9926C189.144 39.4415 180.878 46.2103 168.577 46.2103H156.146V4.16542H156.211ZM167.536 38.5303C174.63 38.5303 179.446 35.0157 179.446 24.9926C179.446 14.9695 174.63 11.8455 167.536 11.8455H165.713V38.5954H167.536V38.5303Z" fill="white"/>
<path d="M195.197 25.4482C195.197 11.5201 204.439 3.44951 215.698 3.44951C221.816 3.44951 226.112 6.05291 228.976 8.91666L223.964 15.0346C221.882 13.1472 219.604 11.7153 216.024 11.7153C209.58 11.7153 204.959 16.7919 204.959 25.1879C204.959 33.8442 208.865 38.8557 216.805 38.8557C218.497 38.8557 220.254 38.4002 221.231 37.6191V30.3947H214.267V22.6496H229.692V41.9147C226.763 44.7785 221.686 46.9914 215.829 46.9914C204.178 46.9914 195.197 39.5717 195.197 25.4482Z" fill="white"/>
<path d="M236.33 24.9926C236.33 11.2597 244.075 3.38438 255.4 3.38438C266.725 3.38438 274.47 11.3248 274.47 24.9926C274.47 38.7255 266.725 46.9263 255.4 46.9263C244.075 46.9913 236.33 38.7255 236.33 24.9926ZM264.707 24.9926C264.707 16.5966 261.063 11.5851 255.335 11.5851C249.608 11.5851 245.963 16.5316 245.963 24.9926C245.963 33.3886 249.608 38.7255 255.335 38.7255C261.063 38.7255 264.707 33.4537 264.707 24.9926Z" fill="white"/>
</svg>
