<svg width="27" height="28" viewBox="0 0 27 28" fill="none" xmlns="http://www.w3.org/2000/svg">
<path fill-rule="evenodd" clip-rule="evenodd" d="M24.3435 11.1794C23.9199 6.83335 21.3505 0 13.4102 0C5.4698 0 2.90046 6.83335 2.4768 11.1794C0.990557 11.7434 0.0102121 13.1704 0.0167562 14.76V16.6734C0.0167562 18.7868 1.73005 20.5001 3.84347 20.5001C5.95688 20.5001 7.67014 18.7868 7.67014 16.6734V14.76C7.66327 13.2047 6.71893 11.8071 5.27847 11.2204C5.5518 8.70569 6.89114 2.73334 13.4102 2.73334C19.9292 2.73334 21.2548 8.70569 21.5282 11.2204C20.0906 11.8083 19.1511 13.2069 19.1502 14.76V16.6734C19.1561 18.1425 19.9997 19.4795 21.3232 20.1174C20.7492 21.1971 19.2868 22.6594 15.6925 23.0967C14.974 22.0057 13.5839 21.5756 12.3748 22.0702C11.1657 22.5648 10.4756 23.8458 10.7278 25.1276C10.9799 26.4094 12.1038 27.3334 13.4102 27.3334C14.4425 27.3277 15.3835 26.7409 15.8428 25.8164C21.7058 25.1467 23.5782 22.1264 24.1659 20.3497C25.7557 19.8347 26.825 18.3444 26.8035 16.6734V14.76C26.8101 13.1704 25.8298 11.7434 24.3435 11.1794ZM4.9368 16.6734C4.9368 17.2772 4.4473 17.7667 3.84347 17.7667C3.23963 17.7667 2.75013 17.2772 2.75013 16.6734V14.76C2.75013 14.3694 2.95852 14.0085 3.2968 13.8132C3.63508 13.6179 4.05185 13.6179 4.39013 13.8132C4.72841 14.0085 4.9368 14.3694 4.9368 14.76V16.6734ZM21.8835 14.76C21.8835 14.1562 22.373 13.6667 22.9769 13.6667C23.5807 13.6667 24.0702 14.1562 24.0702 14.76V16.6734C24.0702 17.2772 23.5807 17.7667 22.9769 17.7667C22.373 17.7667 21.8835 17.2772 21.8835 16.6734V14.76Z" fill="white"/>
</svg>
