<svg width="175" height="152" viewBox="0 0 175 152" fill="none" xmlns="http://www.w3.org/2000/svg">
<path d="M170.765 26.0796H35.1294C32.7906 26.0796 30.8945 27.9756 30.8945 30.3145V117.915C30.8945 120.254 32.7906 122.15 35.1294 122.15H170.765C173.104 122.15 175 120.254 175 117.915V30.3145C175 27.9756 173.104 26.0796 170.765 26.0796Z" fill="#F5F5F5"/>
<path d="M168.027 28.4243H37.4781C35.1392 28.4243 33.2432 30.3204 33.2432 32.6592V115.303C33.2432 117.642 35.1392 119.538 37.4781 119.538H168.027C170.366 119.538 172.262 117.642 172.262 115.303V32.6592C172.262 30.3204 170.366 28.4243 168.027 28.4243Z" fill="#E0E0E0"/>
<path d="M168.985 56.4724H35.3354V106.806H168.985V56.4724Z" fill="white"/>
<path d="M145.207 55.3231H9.57086C7.23198 55.3231 5.33594 57.2192 5.33594 59.558V147.159C5.33594 149.497 7.23198 151.394 9.57086 151.394H145.207C147.546 151.394 149.442 149.497 149.442 147.159V59.558C149.442 57.2192 147.546 55.3231 145.207 55.3231Z" fill="#F5F5F5"/>
<path d="M142.469 57.6715H11.9195C9.58061 57.6715 7.68457 59.5676 7.68457 61.9064V144.55C7.68457 146.889 9.58061 148.785 11.9195 148.785H142.469C144.808 148.785 146.704 146.889 146.704 144.55V61.9064C146.704 59.5676 144.808 57.6715 142.469 57.6715Z" fill="#E0E0E0"/>
<path d="M143.427 85.7159H9.77734V136.05H143.427V85.7159Z" fill="white"/>
<path d="M130.066 43.722C130.066 43.722 130.188 43.7563 130.417 43.8327C130.646 43.9091 130.986 44.016 131.444 44.1306C132.778 44.4607 134.159 44.5588 135.526 44.4208C136.511 44.3228 137.485 44.1349 138.436 43.8594C139.573 43.5463 140.676 43.1243 141.732 42.5993C144.3 41.2939 146.561 39.4572 148.365 37.2111C148.891 36.5935 149.29 35.8786 149.541 35.107C149.801 34.3019 149.734 33.4266 149.354 32.6707C149.13 32.2982 148.818 31.986 148.446 31.7611C148.074 31.5361 147.653 31.4053 147.219 31.38C146.306 31.2983 145.389 31.4757 144.573 31.8917C144.14 32.0972 143.694 32.2708 143.236 32.411C142.756 32.5524 142.246 32.5524 141.766 32.411C141.513 32.3474 141.281 32.222 141.089 32.046C140.897 31.87 140.751 31.649 140.666 31.4029C140.599 31.1498 140.587 30.8853 140.63 30.6272C140.674 30.369 140.772 30.1231 140.918 29.906C141.198 29.4684 141.595 29.1178 142.064 28.894C142.529 28.6716 143.009 28.4815 143.5 28.325C144.48 27.9772 145.431 27.552 146.345 27.0534C147.283 26.5427 148.177 25.9552 149.018 25.2968C149.452 24.9795 149.845 24.6087 150.186 24.1932C150.537 23.7913 150.737 23.2795 150.751 22.7459C150.731 22.4834 150.644 22.2304 150.497 22.0116C150.351 21.7928 150.15 21.6156 149.915 21.4972C149.424 21.2522 148.883 21.1216 148.334 21.1154C147.761 21.1079 147.189 21.0479 146.627 20.9359C146.329 20.8754 146.05 20.7448 145.813 20.5548C145.576 20.3649 145.388 20.1211 145.264 19.8437C145.207 19.6945 145.185 19.5342 145.201 19.3752C145.216 19.2163 145.268 19.063 145.352 18.9273C145.527 18.6787 145.75 18.4683 146.009 18.3086C146.482 17.9802 146.947 17.6327 147.402 17.2661C148.315 16.5262 149.169 15.7168 149.957 14.8451C150.786 13.9938 151.476 13.0185 152.004 11.9543C152.25 11.4166 152.356 10.8256 152.313 10.2359C152.262 9.64529 152.01 9.09001 151.599 8.66264C151.185 8.23856 150.669 7.92775 150.101 7.75993C149.533 7.59212 148.931 7.57291 148.353 7.70415C147.203 7.99033 146.171 8.62847 145.401 9.52948C143.817 11.2975 143.08 13.5926 141.789 15.5172C141.472 16.0021 141.112 16.4572 140.712 16.8766C140.517 17.0968 140.29 17.2872 140.04 17.4418C139.908 17.53 139.756 17.5821 139.597 17.5928C139.439 17.6035 139.281 17.5725 139.139 17.5029C139.007 17.4173 138.895 17.3052 138.81 17.1736C138.724 17.0421 138.667 16.8941 138.642 16.7391C138.591 16.4544 138.58 16.164 138.608 15.8761C138.637 15.609 138.619 15.3389 138.554 15.078C138.481 14.8255 138.341 14.5973 138.15 14.4174C137.955 14.24 137.728 14.1027 137.48 14.0136C137.232 13.9245 136.969 13.8852 136.706 13.8981C136.18 13.9453 135.687 14.1749 135.312 14.5472C134.941 14.9154 134.655 15.3614 134.476 15.8532C134.294 16.3444 134.181 16.8584 134.14 17.3807C134.048 18.4232 134.09 19.4733 134.075 20.5005C134.06 21.5278 134.075 22.5512 134.075 23.5555C134.075 24.5598 134.159 25.5641 133.827 26.5226C133.75 26.7651 133.621 26.9878 133.449 27.1752C133.276 27.3625 133.065 27.5099 132.83 27.6071C132.357 27.7601 131.844 27.7412 131.383 27.5537C130.504 27.2106 129.724 26.6557 129.111 25.9384C128.815 25.594 128.559 25.2174 128.347 24.8157C128.154 24.422 127.938 24.0395 127.702 23.6701C127.48 23.3128 127.141 23.0431 126.743 22.9063C126.347 22.8015 125.927 22.8435 125.559 23.0247C125.195 23.1994 124.88 23.4618 124.643 23.7884C124.415 24.1127 124.262 24.4829 124.192 24.8729C124.094 25.6441 124.048 26.4211 124.055 27.1985C124.024 27.9623 124.021 28.6954 124.032 29.4172C124.055 30.7709 124.177 32.1211 124.395 33.4573C124.576 34.6259 124.861 35.776 125.246 36.8942C125.407 37.4135 125.628 37.8832 125.815 38.3453C126.002 38.8073 126.228 39.2197 126.457 39.6016C127.131 40.7976 127.989 41.88 129 42.8093C129.148 42.9539 129.305 43.0891 129.47 43.2141L129.821 43.4967L130.1 43.7296C130.1 43.7296 130.001 43.6609 129.81 43.5119L129.451 43.237C129.284 43.1201 129.124 42.9925 128.973 42.8551C127.948 41.9328 127.076 40.8524 126.392 39.6551C126.159 39.2732 125.96 38.8417 125.735 38.3949C125.51 37.9481 125.319 37.4631 125.159 36.94C124.766 35.8228 124.474 34.6726 124.288 33.5032C124.061 32.1613 123.933 30.8045 123.906 29.4439C123.906 28.7222 123.906 27.9813 123.906 27.2176C123.897 26.4339 123.941 25.6505 124.04 24.8729C124.113 24.4619 124.273 24.0713 124.509 23.7273C124.762 23.3807 125.096 23.1025 125.483 22.9178C125.882 22.7206 126.339 22.6745 126.77 22.7879C127.2 22.9323 127.568 23.2193 127.813 23.6013C128.052 23.9713 128.271 24.3537 128.469 24.7469C128.682 25.1388 128.938 25.5052 129.233 25.8391C129.829 26.5323 130.586 27.0697 131.436 27.4047C131.863 27.575 132.335 27.5926 132.773 27.4544C132.985 27.3654 133.175 27.231 133.329 27.0608C133.483 26.8906 133.599 26.6887 133.667 26.4691C133.98 25.5679 133.877 24.5598 133.899 23.5593C133.922 22.5588 133.899 21.5392 133.899 20.5044C133.899 19.4695 133.869 18.4308 133.961 17.3654C134.003 16.8249 134.12 16.2929 134.308 15.7845C134.502 15.266 134.81 14.7976 135.209 14.4136C135.621 14.0086 136.161 13.7612 136.737 13.7148C137.311 13.693 137.87 13.8973 138.295 14.2837C138.516 14.4906 138.675 14.7551 138.753 15.0475C138.822 15.3283 138.843 15.6189 138.814 15.9067C138.788 16.1779 138.798 16.4516 138.845 16.7201C138.866 16.8462 138.912 16.9667 138.981 17.0744C139.05 17.182 139.14 17.2746 139.246 17.3463C139.36 17.3992 139.486 17.4214 139.611 17.4107C139.736 17.4 139.856 17.3567 139.96 17.2852C140.194 17.1327 140.405 16.9475 140.586 16.7353C140.977 16.3236 141.329 15.8776 141.64 15.4026C142.912 13.4933 143.645 11.2021 145.264 9.38819C146.061 8.45707 147.129 7.79768 148.319 7.50176C148.931 7.36251 149.569 7.38316 150.171 7.56173C150.773 7.7403 151.318 8.07077 151.756 8.52135C152.195 8.98027 152.465 9.57589 152.519 10.2092C152.565 10.8315 152.453 11.4552 152.195 12.0231C151.66 13.1098 150.956 14.1048 150.11 14.9711C149.313 15.8482 148.452 16.6639 147.532 17.4112C147.078 17.7931 146.604 18.1291 146.127 18.4614C145.891 18.6074 145.686 18.7981 145.524 19.0227C145.452 19.1354 145.409 19.2635 145.397 19.3963C145.385 19.5291 145.405 19.6628 145.455 19.7865C145.572 20.0321 145.745 20.2467 145.961 20.4126C146.177 20.5785 146.428 20.6911 146.696 20.7411C147.247 20.8501 147.807 20.9089 148.368 20.9168C148.948 20.9286 149.518 21.0722 150.033 21.3368C150.293 21.4762 150.516 21.6735 150.686 21.9135C150.853 22.1591 150.948 22.4459 150.961 22.7421C150.952 23.3208 150.737 23.8772 150.354 24.3116C150.006 24.7429 149.605 25.1279 149.159 25.4572C148.309 26.1183 147.408 26.7096 146.463 27.2252C145.542 27.728 144.581 28.1558 143.591 28.5045C143.107 28.6575 142.633 28.8438 142.175 29.062C141.729 29.2687 141.35 29.5969 141.082 30.0091C140.949 30.2053 140.859 30.4277 140.818 30.6614C140.777 30.8951 140.787 31.1349 140.846 31.3647C140.923 31.5841 141.053 31.781 141.225 31.9376C141.397 32.0942 141.605 32.2057 141.831 32.2621C142.281 32.3937 142.759 32.3937 143.209 32.2621C143.66 32.1267 144.099 31.9569 144.523 31.7542C145.367 31.3312 146.313 31.1514 147.253 31.2349C147.713 31.2794 148.159 31.4213 148.559 31.6511C148.955 31.8809 149.281 32.2134 149.503 32.6134C149.901 33.4048 149.971 34.3216 149.697 35.1643C149.44 35.9532 149.03 36.6837 148.491 37.3142C146.669 39.5699 144.387 41.4108 141.797 42.7138C140.733 43.2374 139.622 43.6568 138.478 43.9663C137.52 44.2393 136.538 44.4221 135.545 44.5124C134.171 44.6419 132.784 44.5307 131.448 44.184C131.101 44.0974 130.76 43.9915 130.425 43.8671C130.18 43.7716 130.066 43.722 130.066 43.722Z" fill="#BFDFEF"/>
<path d="M150.897 8.38391C150.897 8.38391 150.866 8.4221 150.797 8.4832C150.729 8.5443 150.618 8.63594 150.492 8.7505C150.221 8.98344 149.824 9.32712 149.323 9.78537C147.908 11.0759 146.592 12.4711 145.386 13.9592C144.623 14.8986 143.817 15.9602 142.981 17.1172C142.144 18.2743 141.262 19.523 140.38 20.8672C139.448 22.2648 138.594 23.713 137.822 25.2052C137.421 25.9689 137.058 26.7938 136.695 27.6224C136.332 28.4511 135.962 29.295 135.588 30.1466C134.164 33.337 132.92 36.6045 131.861 39.9339C131.006 42.6581 130.41 45.4568 130.081 48.2929C129.865 50.2071 129.815 52.1364 129.932 54.0592C129.978 54.7389 130.024 55.2659 130.07 55.6248C130.089 55.7928 130.1 55.9303 130.112 56.0296C130.114 56.0767 130.114 56.1238 130.112 56.1709C130.096 56.1265 130.086 56.0803 130.081 56.0334C130.081 55.9341 130.047 55.7967 130.02 55.6286C129.963 55.2735 129.905 54.7465 129.844 54.063C129.7 52.137 129.731 50.202 129.936 48.2815C130.248 45.4315 130.834 42.6182 131.685 39.8804C132.735 36.5402 133.977 33.2635 135.404 30.0664L136.512 27.5422C136.894 26.7174 137.241 25.8964 137.657 25.1174C138.436 23.6202 139.297 22.1669 140.235 20.7641C141.125 19.4199 142.014 18.1788 142.855 17.0218C143.695 15.8647 144.508 14.8031 145.283 13.8675C146.503 12.3838 147.838 10.9997 149.278 9.72809C149.785 9.27748 150.19 8.94144 150.465 8.71614L150.786 8.4641L150.897 8.38391Z" fill="#BFDFEF"/>
<path d="M137.707 25.1136C137.66 24.9708 137.628 24.8237 137.612 24.6744C137.562 24.3918 137.501 23.9832 137.432 23.4715C137.298 22.4558 137.161 21.0429 137.012 19.4887C136.863 17.9345 136.71 16.5215 136.558 15.5096C136.485 15.0055 136.42 14.5931 136.374 14.3105C136.341 14.1651 136.324 14.0166 136.321 13.8676C136.379 14.0063 136.421 14.151 136.447 14.2991C136.516 14.574 136.6 14.9826 136.691 15.4905C136.875 16.4986 137.054 17.9077 137.199 19.4696C137.344 21.0314 137.466 22.3947 137.581 23.4563C137.627 23.9374 137.669 24.3422 137.699 24.6668C137.717 24.8151 137.72 24.9648 137.707 25.1136Z" fill="#BFDFEF"/>
<path d="M150.855 22.7803C150.683 22.8184 150.508 22.8388 150.332 22.8414C149.992 22.8681 149.507 22.9025 148.903 22.9674C147.701 23.0858 146.043 23.3073 144.229 23.6319C142.415 23.9565 140.793 24.3269 139.609 24.6286C139.021 24.7737 138.547 24.9035 138.219 24.9913C138.052 25.0482 137.881 25.0892 137.707 25.1135C137.864 25.0325 138.029 24.9672 138.2 24.9188C138.52 24.8119 138.99 24.6591 139.574 24.4987C140.72 24.1627 142.373 23.7732 144.195 23.4448C145.749 23.1612 147.317 22.9573 148.892 22.8338C149.495 22.788 149.988 22.7689 150.328 22.765C150.504 22.7562 150.68 22.7614 150.855 22.7803Z" fill="#BFDFEF"/>
<path d="M131.853 39.6436C131.818 39.5933 131.789 39.5396 131.765 39.4832C131.708 39.3534 131.635 39.1968 131.547 39.0059C131.356 38.5896 131.097 37.9825 130.784 37.2264C130.161 35.718 129.375 33.6063 128.534 31.2654C127.694 28.9246 126.923 26.8052 126.339 25.2853L125.636 23.4868C125.56 23.292 125.499 23.1278 125.449 22.9941C125.421 22.9391 125.403 22.8797 125.396 22.8185C125.431 22.8694 125.461 22.9246 125.483 22.9827C125.544 23.1087 125.617 23.2653 125.705 23.4562C125.892 23.8724 126.152 24.4796 126.469 25.2357C127.087 26.7632 127.878 28.8558 128.718 31.2005C129.558 33.5452 130.325 35.6569 130.914 37.1767L131.612 38.9868L131.799 39.4794C131.826 39.5309 131.844 39.5863 131.853 39.6436Z" fill="#BFDFEF"/>
<path d="M149.346 34.1866L149.175 34.2554L148.663 34.4196L146.792 35.0077C145.211 35.5041 143.034 36.2144 140.628 37.0048C138.223 37.7953 136.046 38.4865 134.446 38.9485C133.652 39.1815 133.006 39.3648 132.556 39.4793L132.04 39.6092C131.98 39.631 131.917 39.6426 131.853 39.6435C131.908 39.6128 131.967 39.5897 132.029 39.5748L132.537 39.4068L134.408 38.8187C135.992 38.3223 138.169 37.612 140.571 36.8254C142.973 36.0387 145.153 35.3437 146.754 34.8778C147.548 34.6449 148.197 34.4654 148.663 34.347L149.182 34.2172C149.235 34.1995 149.291 34.1892 149.346 34.1866Z" fill="#BFDFEF"/>
<path d="M120.821 20.4242C121.396 20.471 121.955 20.6331 122.466 20.9008C122.978 21.1685 123.429 21.5362 123.795 21.9822C124.524 22.8795 125.037 23.9327 125.292 25.0601C125.85 27.2176 125.476 29.7532 124.842 31.8879C122.52 31.0363 121.107 28.5389 120.466 27.2291C119.457 25.1555 118.892 20.7984 120.821 20.4242Z" fill="#194E7E"/>
<path d="M128.172 34.5227C127.827 33.9777 127.633 33.3512 127.608 32.7069C127.583 32.0625 127.729 31.423 128.03 30.853C128.343 30.2893 128.765 29.7933 129.271 29.3941C129.777 28.9948 130.357 28.7002 130.978 28.5274C131.254 28.4171 131.551 28.3685 131.848 28.385C132.145 28.4015 132.435 28.4827 132.697 28.6229C132.918 28.7932 133.09 29.0198 133.194 29.279C133.298 29.5383 133.331 29.8207 133.289 30.0969C133.197 30.6476 132.961 31.1641 132.605 31.5938C131.459 33.1213 130.073 34.3815 128.172 34.5227Z" fill="#194E7E"/>
<path d="M128.367 41.7133C128.319 41.5678 128.284 41.4183 128.264 41.2665C128.206 40.9457 128.13 40.5333 128.038 40.0369C127.743 38.6856 127.668 37.2955 127.817 35.9204C127.986 34.5307 128.526 33.2119 129.379 32.1017C129.638 31.7712 129.937 31.4737 130.268 31.2157C130.358 31.1447 130.451 31.0785 130.547 31.0172C130.581 30.9952 130.619 30.9785 130.658 30.9675C130.224 31.3309 129.828 31.7364 129.474 32.1781C128.669 33.2837 128.157 34.575 127.985 35.9318C127.84 37.2923 127.898 38.6667 128.157 40.0102C128.237 40.5295 128.298 40.9534 128.336 41.2436C128.361 41.3989 128.371 41.5561 128.367 41.7133Z" fill="#BFDFEF"/>
<path d="M121.546 23.712C121.582 23.7676 121.613 23.8264 121.638 23.8877C121.699 24.0213 121.776 24.1932 121.875 24.407C122.073 24.8615 122.36 25.5221 122.703 26.3393C123.391 27.9737 124.307 30.2458 125.266 32.7776C126.224 35.3094 127.038 37.6235 127.603 39.3037C127.885 40.1438 128.111 40.8312 128.26 41.3009L128.424 41.847C128.447 41.91 128.464 41.9753 128.473 42.0417C128.443 41.9825 128.416 41.9213 128.393 41.8584C128.344 41.7171 128.279 41.5415 128.199 41.32C128.027 40.835 127.786 40.1744 127.496 39.3419C126.9 37.6693 126.072 35.3666 125.113 32.8501C124.155 30.3336 123.257 28.0424 122.597 26.3966C122.272 25.587 122.008 24.9264 121.814 24.449L121.607 23.9144C121.578 23.8501 121.557 23.782 121.546 23.712Z" fill="#BFDFEF"/>
<path d="M125.644 36.9361C124.955 35.7617 123.997 34.7682 122.848 34.0377C121.699 33.3073 120.393 32.8609 119.037 32.7356C118.346 32.6783 117.51 32.7891 117.208 33.4039C116.907 34.0187 117.3 34.7557 117.762 35.2712C118.751 36.3231 120.03 37.0584 121.437 37.3846C122.844 37.7108 124.315 37.6132 125.667 37.1042" fill="#194E7E"/>
<path d="M120.068 34.6029C120.212 34.5886 120.356 34.5886 120.5 34.6029C120.668 34.6148 120.835 34.6364 121 34.6679C121.195 34.706 121.42 34.729 121.661 34.7977C121.925 34.8583 122.187 34.9322 122.444 35.0192C122.74 35.1177 123.031 35.2325 123.314 35.3629C124.628 35.9513 125.776 36.8535 126.659 37.9901C126.851 38.2342 127.028 38.4892 127.19 38.7538C127.33 38.9849 127.458 39.2233 127.572 39.4679C127.672 39.6681 127.761 39.8733 127.839 40.0827C127.906 40.2378 127.962 40.3973 128.007 40.5601C128.058 40.6959 128.094 40.8367 128.114 40.9801C128.08 40.9801 127.92 40.3959 127.469 39.5176C127.346 39.2803 127.211 39.0496 127.064 38.8264C126.9 38.5621 126.722 38.3072 126.53 38.0627C126.088 37.5145 125.587 37.0163 125.036 36.5772C124.479 36.148 123.877 35.7794 123.242 35.4774C122.963 35.3453 122.678 35.2293 122.386 35.1299C122.137 35.035 121.882 34.9547 121.623 34.8893C120.679 34.6755 120.065 34.6373 120.068 34.6029Z" fill="#BFDFEF"/>
<path d="M159.97 39.8269H24.334C21.9952 39.8269 20.0991 41.7229 20.0991 44.0618V131.662C20.0991 134.001 21.9952 135.897 24.334 135.897H159.97C162.309 135.897 164.205 134.001 164.205 131.662V44.0618C164.205 41.7229 162.309 39.8269 159.97 39.8269Z" fill="#F5F5F5"/>
<path d="M157.232 42.1754H26.6827C24.3438 42.1754 22.4478 44.0715 22.4478 46.4103V129.054C22.4478 131.393 24.3438 133.289 26.6827 133.289H157.232C159.571 133.289 161.467 131.393 161.467 129.054V46.4103C161.467 44.0715 159.571 42.1754 157.232 42.1754Z" fill="#194E7E"/>
<path d="M158.191 70.2236H24.5405V120.558H158.191V70.2236Z" fill="white"/>
<path d="M95.8048 52.9594V62.38H93.6167V58.5194H89.3435V62.38H87.1631V52.9594H89.3435V56.6749H93.6167V52.9594H95.8048Z" fill="white"/>
<path d="M105.336 60.6311V62.38H98.0425V52.9594H105.161V54.7083H100.196V56.7551H104.569V58.4621H100.208V60.6425L105.336 60.6311Z" fill="white"/>
<path d="M107.073 52.9594H109.273V60.5967H113.997V62.3724H107.073V52.9594Z" fill="white"/>
<path d="M115.204 52.9594H117.384V60.5967H122.112V62.3724H115.204V52.9594Z" fill="white"/>
<path d="M122.581 57.6716C122.581 54.8687 124.762 52.799 127.736 52.799C130.711 52.799 132.891 54.8572 132.891 57.6716C132.891 60.486 130.7 62.5442 127.736 62.5442C124.773 62.5442 122.581 60.4707 122.581 57.6716ZM130.684 57.6716C130.672 57.0915 130.488 56.528 130.156 56.0518C129.825 55.5756 129.36 55.2079 128.82 54.9947C128.28 54.7815 127.69 54.7323 127.122 54.8533C126.555 54.9742 126.036 55.26 125.63 55.6748C125.224 56.0895 124.95 56.6148 124.841 57.1848C124.732 57.7549 124.795 58.3442 125.019 58.8791C125.244 59.4141 125.622 59.8707 126.105 60.1918C126.589 60.513 127.156 60.6844 127.736 60.6845C128.132 60.695 128.525 60.6237 128.892 60.4751C129.259 60.3265 129.591 60.1039 129.867 59.8211C130.144 59.5383 130.36 59.2014 130.5 58.8315C130.641 58.4617 130.703 58.0668 130.684 57.6716Z" fill="white"/>
<path d="M19.1864 88.6908L12.6946 100.636L13.2292 71.6327C13.3513 69.7903 13.9731 68.016 15.0278 66.5004C15.4751 65.8201 15.9991 65.1935 16.5897 64.6331C17.3534 63.9877 18.373 63.1705 19.0718 62.8956C19.9386 62.5519 19.9654 61.349 19.1596 61.139C18.3539 60.9289 15.9405 61.8149 13.8402 63.9686C11.7399 66.1223 12.2134 61.4674 12.3586 59.7681C12.5037 58.0687 12.6984 52.799 12.2096 52.356C11.4955 51.703 10.644 52.356 10.5409 54.0668C10.4378 55.7775 9.77713 60.8449 8.8721 60.7495C7.96707 60.654 8.84155 52.0161 8.84155 52.0161C8.84155 52.0161 9.32271 50.1908 8.29548 50.0457C6.4396 49.7822 6.2143 59.0158 6.2143 59.8979C6.2143 60.5089 5.24054 60.4401 5.2749 59.7833C5.30927 59.1265 6.32122 51.176 4.43479 50.8934C2.98751 50.6758 4.17894 58.4888 3.05625 60.0583C1.93356 61.6277 2.75839 54.0248 1.36457 53.872C0.849051 53.8147 0.451908 53.8453 0.600837 58.252C0.684848 60.6234 1.74644 64.1672 1.55551 68.742L1.50968 69.9257C0.413721 78.4834 -4.52383 123.38 12.4731 122.161C12.4731 122.161 25.3688 120.371 32.5365 96.9009L19.1864 88.6908Z" fill="#FFBE9D"/>
<path d="M4.64111 66.7753C4.64111 66.8173 4.92751 66.8517 5.35139 67.0731C5.92278 67.3678 6.36882 67.8586 6.60773 68.4555L6.74139 68.7954L6.89032 68.4631C7.10443 67.9891 7.40338 67.5581 7.77243 67.1915C8.48344 66.4682 9.39666 65.977 10.392 65.7824C11.1558 65.6259 11.6522 65.7137 11.6599 65.6526C11.2423 65.4986 10.7899 65.4642 10.3539 65.5533C9.28259 65.6922 8.28958 66.1887 7.53567 66.9624C7.14332 67.3594 6.82975 67.8272 6.61155 68.3409H6.89414C6.75721 68.0165 6.55751 67.7222 6.30652 67.4752C6.05553 67.2281 5.75818 67.0331 5.43158 66.9013C5.18827 66.7761 4.9113 66.7319 4.64111 66.7753Z" fill="#EB996E"/>
<path d="M96.7131 94.2698L103.934 107.872L110.529 120.558H95.6172L86.376 101.514" fill="#FFBE9D"/>
<path d="M40.1548 120.558C41.5753 115.719 40.6435 114.956 39.1161 110.152L35.832 99.8412L28.6452 110.457L13.3667 98.1763L18.4341 86.747C27.9006 65.2936 43.2555 66.8173 43.2555 66.8173L62.8225 63.0826C62.8225 63.0826 75.3401 61.937 83.4433 69.2918C86.0859 71.6899 98.088 93.296 98.088 93.296L83.3402 103.629L79.7239 97.4622L78.7234 105.844C77.9368 110.427 77.9864 116.258 79.7239 120.558" fill="#455A64"/>
<path d="M38.4515 74.1186C38.4515 74.1721 35.2323 74.8823 31.2418 75.7033C27.2513 76.5244 23.9863 77.1468 23.9863 77.0933C23.9863 77.0399 27.2017 76.3296 31.196 75.5086C35.1903 74.6876 38.44 74.0575 38.4515 74.1186Z" fill="#FAFAFA"/>
<path d="M81.4767 67.94C81.4767 67.9973 78.3186 68.6274 74.3969 69.3491C70.4751 70.0708 67.2903 70.6169 67.2788 70.5596C67.2674 70.5023 70.4407 69.8761 74.3625 69.1544C78.2843 68.4326 81.4691 67.8866 81.4767 67.94Z" fill="#FAFAFA"/>
<path d="M87.5063 74.9244C87.5063 74.9778 82.5917 76.07 76.5047 77.395C70.4177 78.7201 65.4763 79.7244 65.4649 79.6863C65.4534 79.6481 70.3757 78.5407 76.4627 77.2156C82.5496 75.8905 87.4796 74.8824 87.5063 74.9244Z" fill="#FAFAFA"/>
<path d="M93.5361 85.6892L93.3299 85.7312L92.7265 85.8381L90.3933 86.22L81.8127 87.6253L53.4858 92.1695C42.4116 93.9223 32.3952 95.4841 25.1321 96.5763C21.5043 97.1262 18.5639 97.5539 16.5286 97.8364C15.5128 97.9739 14.7223 98.077 14.1839 98.1343C13.9156 98.1927 13.6398 98.2082 13.3667 98.1801C13.6397 98.1758 13.9119 98.1477 14.1801 98.0961L16.5171 97.7601L25.113 96.4388L53.4552 91.9709L81.7784 87.484L90.3704 86.1398L92.7074 85.7847L93.3184 85.6969L93.5361 85.6892Z" fill="#FAFAFA"/>
<path d="M79.1283 102.407C79.1283 102.461 70.0322 103.694 58.8014 105.157C47.5707 106.619 38.4593 107.761 38.4517 107.708C38.444 107.654 47.5439 106.425 58.7785 104.958C70.0131 103.492 79.1054 102.354 79.1283 102.407Z" fill="#FAFAFA"/>
<path d="M77.3909 116.705C77.3909 116.762 69.2494 116.754 59.2139 116.705C49.1785 116.655 41.0332 116.552 41.0332 116.494C41.0332 116.437 49.1708 116.445 59.2139 116.494C69.2571 116.544 77.3909 116.651 77.3909 116.705Z" fill="#FAFAFA"/>
<path d="M44.0461 82.9551C43.9605 82.9831 43.8722 83.0023 43.7826 83.0123L43.0189 83.1384L40.2313 83.5813C37.8751 83.9632 34.6254 84.5016 31.0664 85.1699C27.5074 85.8382 24.2615 86.5064 21.9283 87.0067L19.1521 87.5986L18.3884 87.7551C18.3011 87.779 18.2115 87.7931 18.1211 87.7972C18.2035 87.7619 18.2892 87.7351 18.3769 87.717L19.1521 87.5222C19.8013 87.3618 20.7407 87.1403 21.9016 86.8692C24.2272 86.3308 27.4501 85.6434 31.0321 84.9599C34.614 84.2763 37.8675 83.7723 40.2274 83.4324C41.4112 83.2606 42.3659 83.1307 43.0304 83.0505L43.7941 82.9627C43.8776 82.9518 43.9621 82.9492 44.0461 82.9551Z" fill="#FAFAFA"/>
<path d="M60.8444 21.333C60.3747 26.9923 67.9586 31.0095 67.2827 36.6459C67.0955 38.2116 66.2822 39.9147 67.1108 41.2589C68.1037 42.8742 70.5209 42.5343 72.2851 43.2331C74.458 44.0924 75.5692 46.7082 75.2408 49.0185C74.9124 51.3288 73.4155 53.3259 71.6551 54.8649C68.8759 57.2946 65.402 58.7871 61.7265 59.1303C60.0234 59.2831 58.2438 59.1609 56.724 58.3666C55.2042 57.5723 54.0013 56.041 53.9937 54.3302" fill="#263238"/>
<path d="M61.5928 66.3285C60.5847 61.4978 59.6109 56.3999 59.6109 56.3999C59.6109 56.3999 65.61 54.0476 65.1785 45.6656C64.7699 37.6693 59.7102 20.0804 59.7102 20.0804C49.9916 18.3276 39.9065 23.0017 35.0415 31.5364L43.8741 70.6168C44.8975 75.1534 49.6021 77.8723 54.4633 76.7535C59.3627 75.5849 62.5513 70.93 61.5928 66.3285Z" fill="#FFBE9D"/>
<path d="M60.3668 34.5188C60.4257 34.7894 60.3769 35.0723 60.2307 35.3075C60.0846 35.5428 59.8526 35.7119 59.584 35.779C59.4538 35.8178 59.3172 35.8302 59.1823 35.8153C59.0473 35.8004 58.9167 35.7587 58.7981 35.6925C58.6796 35.6262 58.5755 35.5369 58.492 35.4298C58.4086 35.3226 58.3475 35.1999 58.3123 35.0687C58.2517 34.8002 58.2973 34.5186 58.4397 34.2829C58.5821 34.0473 58.8101 33.8759 59.0761 33.8047C59.2077 33.7635 59.3462 33.7495 59.4834 33.7634C59.6206 33.7773 59.7536 33.8189 59.8742 33.8856C59.9949 33.9524 60.1007 34.0429 60.1854 34.1517C60.2701 34.2606 60.3318 34.3855 60.3668 34.5188Z" fill="#263238"/>
<path d="M61.5393 33.4687C61.44 33.6329 60.5273 33.2167 59.4085 33.4687C58.2896 33.7207 57.587 34.4425 57.438 34.3317C57.3655 34.2821 57.438 34.011 57.7473 33.6749C58.156 33.2381 58.6894 32.9381 59.2748 32.8157C59.8559 32.6901 60.4618 32.7529 61.0047 32.9952C61.4095 33.1747 61.5775 33.3962 61.5393 33.4687Z" fill="#263238"/>
<path d="M48.9379 37.1424C48.9986 37.4109 48.953 37.6925 48.8106 37.9281C48.6682 38.1638 48.4401 38.3351 48.1742 38.4063C48.0438 38.4446 47.9071 38.4563 47.7721 38.441C47.6371 38.4256 47.5065 38.3835 47.3881 38.3169C47.2696 38.2504 47.1656 38.1609 47.0823 38.0536C46.9989 37.9463 46.9378 37.8235 46.9026 37.6922C46.842 37.4242 46.8878 37.1431 47.0302 36.9081C47.1726 36.6731 47.4006 36.5024 47.6663 36.4321C47.7964 36.3932 47.933 36.3809 48.068 36.3958C48.203 36.4106 48.3336 36.4524 48.4521 36.5186C48.5707 36.5848 48.6748 36.6741 48.7582 36.7813C48.8416 36.8884 48.9028 37.0112 48.9379 37.1424Z" fill="#263238"/>
<path d="M50.0832 36.0807C49.984 36.2411 49.0713 35.8249 47.9524 36.0807C46.8335 36.3366 46.1347 37.0545 45.982 36.9437C45.9094 36.8979 45.982 36.623 46.2913 36.2869C46.7016 35.8523 47.2343 35.5527 47.8188 35.4277C48.4012 35.3036 49.0078 35.3664 49.5524 35.6072C49.9725 35.7867 50.1443 36.0043 50.0832 36.0807Z" fill="#263238"/>
<path d="M56.0328 43.3172C56.0137 43.2523 56.6858 42.9849 57.7817 42.6031C58.0605 42.5114 58.3202 42.4007 58.3278 42.1945C58.2848 41.8935 58.1517 41.6126 57.9459 41.3887L56.6399 39.3916C54.807 36.539 53.417 34.1714 53.5354 34.0989C53.6537 34.0263 55.227 36.2793 57.0562 39.1281L58.3316 41.1443C58.5816 41.4531 58.7166 41.8392 58.7135 42.2365C58.6933 42.3458 58.6485 42.4491 58.5823 42.5385C58.5161 42.6278 58.4304 42.7009 58.3316 42.752C58.1829 42.8289 58.0251 42.8866 57.8619 42.9238C56.7545 43.2255 56.0519 43.3783 56.0328 43.3172Z" fill="#263238"/>
<path d="M59.6299 56.4C55.8291 57.2616 51.8639 57.0541 48.1738 55.8004C48.1738 55.8004 51.9925 60.8143 59.9468 58.336L59.6299 56.4Z" fill="#EB996E"/>
<path d="M56.1322 46.1124C55.8622 45.8898 55.54 45.7396 55.1959 45.6761C54.8518 45.6126 54.4972 45.6379 54.1656 45.7496C53.9229 45.823 53.6978 45.9452 53.5041 46.1087C53.3103 46.2722 53.1521 46.4736 53.039 46.7005C52.928 46.9181 52.8867 47.1646 52.9209 47.4066C52.955 47.6485 53.063 47.874 53.23 48.0523C53.4504 48.2116 53.7128 48.3023 53.9845 48.3132C54.2562 48.3241 54.5251 48.2546 54.7575 48.1134C55.2461 47.8175 55.6718 47.4282 56.01 46.9678C56.1148 46.8563 56.1989 46.727 56.2582 46.5859C56.2869 46.5148 56.2934 46.4367 56.2771 46.3618C56.2608 46.2868 56.2222 46.2186 56.1665 46.1659" fill="#194E7E"/>
<path d="M52.9014 44.7874C53.0847 44.7377 53.3443 45.9521 54.5663 46.5974C55.7883 47.2428 57.0523 46.8304 57.0981 46.9793C57.1325 47.0518 56.8613 47.2771 56.3153 47.407C55.6056 47.5687 54.8615 47.474 54.215 47.1397C53.5947 46.8213 53.1233 46.2732 52.9014 45.6122C52.7563 45.1272 52.8174 44.7988 52.9014 44.7874Z" fill="#263238"/>
<path d="M39.9181 39.8268C39.0087 39.8248 38.1166 40.0746 37.3405 40.5485C36.5681 41.0308 36.0188 41.8 35.813 42.687C35.6519 43.5881 35.8403 44.5167 36.34 45.2837C36.839 46.0432 37.5019 46.6813 38.2799 47.151C38.8133 47.5269 39.4285 47.7704 40.0747 47.8613C40.3981 47.9046 40.7272 47.8669 41.0325 47.7516C41.3377 47.6363 41.6096 47.447 41.8236 47.2007" fill="#FFBE9D"/>
<path d="M40.5365 45.1883C40.6434 45.1883 40.3761 45.8031 39.5398 45.7573C39.0871 45.7008 38.6753 45.4674 38.3942 45.1081C38.062 44.7117 37.8116 44.2536 37.6572 43.7601C37.4791 43.2376 37.494 42.6687 37.6992 42.1563C37.7842 41.9379 37.9183 41.742 38.0911 41.5837C38.2639 41.4254 38.4708 41.3091 38.6959 41.2436C39.5092 41.0527 39.8796 41.5644 39.7918 41.5987C39.704 41.6331 39.3603 41.4536 38.8562 41.6942C38.3522 41.9348 38.0085 42.71 38.3064 43.5615C38.6042 44.4131 39.1083 45.1768 39.6276 45.2799C40.147 45.383 40.483 45.1272 40.5365 45.1883Z" fill="#EB996E"/>
<path d="M57.339 18.2895C57.9288 19.4499 58.127 20.77 57.904 22.0525C57.681 23.3349 57.0487 24.5106 56.1017 25.4037C54.1618 27.1488 51.3513 27.3971 48.8462 28.1264C46.3412 28.8558 43.6567 30.7002 43.7712 33.3084C43.8399 34.8893 44.9626 36.4091 44.5579 37.9366C44.0882 39.7276 41.8008 40.4913 41.1554 42.225C40.1206 45.0126 43.9087 47.5215 43.7407 50.4886C43.6414 52.249 42.1521 53.6849 41.9879 55.4529C41.7511 57.9503 44.2027 60.6043 42.8395 62.7084C41.7931 64.3275 39.3568 64.0946 37.5697 63.3919C35.7825 62.6893 33.8274 61.6888 32.0364 62.3914C30.9595 62.8115 30.1996 63.7738 29.2411 64.423C28.3658 65.0171 27.334 65.3381 26.2761 65.3456C25.2183 65.353 24.1821 65.0464 23.2985 64.4646C22.415 63.8828 21.724 63.052 21.3128 62.0773C20.9017 61.1026 20.789 60.0278 20.989 58.989C21.2792 57.4615 22.2033 56.1517 22.9479 54.7885C23.6926 53.4252 24.2845 51.8328 23.8377 50.3473C23.4902 49.2017 22.5966 48.3387 21.8863 47.384C21.1761 46.4294 20.6224 45.173 21.0806 44.0771C21.8825 42.1486 24.9566 42.3166 26.0716 40.5524C27.5991 38.1276 24.0554 35.0421 24.9642 32.3232C25.9952 29.2453 31.456 29.7952 32.4946 26.7173C32.8765 25.5985 32.4946 24.365 32.5977 23.1889C32.8689 20.5158 35.6909 18.7783 38.3525 18.3162C41.0141 17.8542 43.7941 18.1979 46.4061 17.5105C47.8343 17.1286 49.1708 16.4527 50.5761 15.983C51.9814 15.5133 53.5394 15.2804 54.9294 15.7959C56.3194 16.3114 57.4306 17.7663 57.1519 19.2327" fill="#263238"/>
<path d="M56.1357 24.0252C56.9086 25.3626 57.9774 26.5053 59.2601 27.3658C60.5429 28.2263 62.0057 28.7817 63.5363 28.9895C63.4867 26.9426 63.3797 24.8806 62.826 22.9139C62.2723 20.9473 61.2336 19.0418 59.6298 17.7931C58.026 16.5444 55.7577 16.025 53.856 16.7697" fill="#263238"/>
<path d="M65.9692 63.2774C66.6604 63.369 70.5249 86.0367 55.6893 88.5532C41.648 90.9399 37.3062 67.6497 37.3062 67.6497C37.3062 67.6497 46.765 60.7112 65.9692 63.2774Z" fill="#FFBE9D"/>
<path d="M57.4687 32.2429C57.5566 32.4071 58.3203 32.1627 59.2712 32.0558C60.222 31.9489 61.0163 32.0024 61.0621 31.8229C61.1079 31.6434 60.2984 31.2768 59.1948 31.4066C58.0912 31.5365 57.3809 32.1131 57.4687 32.2429Z" fill="#263238"/>
<path d="M46.131 33.9995C46.1653 33.969 46.1615 33.9041 46.131 33.8009V33.9728C46.6793 33.6942 47.2587 33.4814 47.857 33.3389C48.911 33.1098 49.8045 33.3618 49.8771 33.19C49.9077 33.1098 49.7167 32.9303 49.3272 32.8081C48.8121 32.6327 48.2589 32.601 47.7272 32.7164C47.3753 32.7702 47.038 32.8951 46.736 33.0835C46.434 33.272 46.1736 33.52 45.9706 33.8124L45.9019 33.9499L45.9591 33.9804C46.0355 34.0224 46.1004 34.0224 46.131 33.9995Z" fill="#263238"/>
<path d="M39.7231 33.3389C38.8572 33.3495 37.9917 33.2946 37.134 33.1747C36.2704 33.1218 35.4123 33.0005 34.5679 32.8119C35.4338 32.8014 36.2993 32.8563 37.1569 32.9761C38.0203 33.0321 38.8781 33.1534 39.7231 33.3389Z" fill="#194E7E"/>
<path d="M38.463 34.7861C37.8199 34.9263 37.1585 34.9624 36.504 34.8931C35.8471 34.8914 35.1948 34.7844 34.5718 34.5761C34.5718 34.5226 35.4463 34.6372 36.5155 34.6945C37.5847 34.7518 38.4592 34.725 38.463 34.7861Z" fill="#194E7E"/>
<path d="M57.465 22.9139C57.4497 22.9958 57.424 23.0753 57.3887 23.1507C57.2954 23.3714 57.1664 23.5753 57.0068 23.754C56.3693 24.3765 55.5286 24.748 54.6392 24.8004C54.0358 24.8678 53.4262 24.8576 52.8253 24.7698C52.18 24.6896 51.4964 24.5712 50.7785 24.5178C50.0328 24.433 49.2775 24.5152 48.5675 24.7584C47.8285 25.0774 47.1897 25.5907 46.7193 26.2438C46.1961 26.893 45.757 27.588 45.2414 28.2028C44.9873 28.5066 44.7047 28.7854 44.3975 29.0353C44.0956 29.2685 43.7643 29.4611 43.4123 29.6081C42.7598 29.8507 42.0842 30.026 41.396 30.1312C40.8063 30.2215 40.2251 30.3607 39.6585 30.5475C38.8375 30.8052 38.1349 31.3466 37.6766 32.075C37.5351 32.3565 37.4483 32.6623 37.4208 32.9762C37.4099 32.8938 37.4099 32.8103 37.4208 32.728C37.445 32.4892 37.5109 32.2565 37.6155 32.0406C38.0575 31.2646 38.7698 30.6787 39.6165 30.3947C40.1885 30.1969 40.7761 30.0475 41.3731 29.948C42.0478 29.8399 42.7094 29.662 43.3474 29.4172C44.0363 29.118 44.639 28.6505 45.1001 28.0577C45.6042 27.4582 46.0395 26.7594 46.5703 26.0987C47.0676 25.4257 47.7361 24.8982 48.5064 24.5712C49.2428 24.3221 50.0255 24.2399 50.7976 24.3307C52.2602 24.4605 53.5394 24.808 54.6163 24.6591C55.4839 24.6296 56.3131 24.2941 56.9571 23.712C57.1669 23.474 57.3382 23.2047 57.465 22.9139Z" fill="#455A64"/>
<path d="M25.5979 64.7705C25.7132 64.7462 25.8267 64.7143 25.9378 64.675C26.2454 64.5338 26.4883 64.2814 26.6175 63.9686C26.8296 63.4742 26.8406 62.9167 26.648 62.4144C26.4647 61.8187 26.1096 61.1848 25.8385 60.4287C25.1417 58.6665 24.9525 56.7443 25.2924 54.8801C25.5246 53.7831 26.0025 52.753 26.69 51.8672C27.059 51.4024 27.4909 50.9911 27.9731 50.6452C28.4749 50.303 29.0159 50.0222 29.5846 49.8089C30.1408 49.6104 30.6579 49.3157 31.1121 48.9382C31.3136 48.7461 31.4707 48.5122 31.5722 48.253C31.6738 47.9937 31.7175 47.7154 31.7002 47.4375C31.6352 46.3263 31.0281 45.3067 31.0472 44.2069C31.0577 43.6727 31.1965 43.1488 31.4519 42.6794C31.689 42.2484 31.9818 41.8504 32.3226 41.4956C32.938 40.8764 33.5937 40.2985 34.2854 39.7658C35.5074 38.7576 36.2673 37.6617 36.4697 36.7987C36.5737 36.3515 36.5737 35.8864 36.4697 35.4392C36.4846 35.4666 36.495 35.4963 36.5002 35.527C36.5002 35.5843 36.5422 35.6721 36.5652 35.7867C36.6208 36.1294 36.6091 36.4796 36.5308 36.8178C36.4 37.3511 36.1651 37.8533 35.8396 38.2956C35.4145 38.8795 34.9195 39.4092 34.3656 39.8727C33.6856 40.4092 33.0402 40.9883 32.4333 41.6064C32.1054 41.9507 31.8231 42.3357 31.5932 42.752C31.3545 43.1938 31.2237 43.6858 31.2114 44.1878C31.2309 44.7189 31.33 45.2441 31.5054 45.7458C31.6975 46.2839 31.8256 46.8427 31.8873 47.4108C31.9075 47.7168 31.8601 48.0236 31.7486 48.3093C31.6371 48.5951 31.4641 48.8528 31.2419 49.0643C30.7718 49.4589 30.2352 49.7666 29.6572 49.9731C29.1023 50.1942 28.5755 50.48 28.0877 50.8247C27.62 51.1598 27.201 51.5582 26.8428 52.0085C26.1713 52.8692 25.7027 53.8704 25.4719 54.9374C25.1329 56.7687 25.3046 58.658 25.9683 60.3981C26.228 61.1618 26.5755 61.7843 26.755 62.4029C26.8419 62.69 26.8831 62.989 26.8772 63.2889C26.8655 63.5435 26.8018 63.793 26.69 64.022C26.5453 64.3451 26.2812 64.5996 25.953 64.7323C25.8393 64.7729 25.7176 64.786 25.5979 64.7705Z" fill="#455A64"/>
</svg>
