<svg width="555" height="750" viewBox="0 0 555 750" fill="none" xmlns="http://www.w3.org/2000/svg">
<rect width="555" height="750" fill="#D9DFE5"/>
<path d="M488.784 480.779H89V480.979H488.784V480.779Z" fill="#EBEBEB"/>
<path d="M448.726 493.644H422.244V493.844H448.726V493.644Z" fill="#EBEBEB"/>
<path d="M353.833 495.819H346.885V496.019H353.833V495.819Z" fill="#EBEBEB"/>
<path d="M421.445 486.224H406.101V486.424H421.445V486.224Z" fill="#EBEBEB"/>
<path d="M165.479 487.567H130.945V487.767H165.479V487.567Z" fill="#EBEBEB"/>
<path d="M177.664 487.567H172.603V487.767H177.664V487.567Z" fill="#EBEBEB"/>
<path d="M269.023 490.941H194.12V491.141H269.023V490.941Z" fill="#EBEBEB"/>
<path d="M278.498 445.118H124.109C122.9 445.116 121.741 444.634 120.886 443.778C120.032 442.922 119.552 441.762 119.552 440.552V223.526C119.562 222.323 120.047 221.173 120.9 220.326C121.754 219.479 122.907 219.002 124.109 219H278.498C279.709 219 280.87 219.481 281.726 220.337C282.583 221.193 283.064 222.355 283.064 223.566V440.552C283.064 441.763 282.583 442.925 281.726 443.781C280.87 444.637 279.709 445.118 278.498 445.118ZM124.109 219.16C122.953 219.162 121.844 219.623 121.027 220.441C120.211 221.26 119.752 222.369 119.752 223.526V440.552C119.752 441.709 120.211 442.818 121.027 443.637C121.844 444.455 122.953 444.916 124.109 444.918H278.498C279.655 444.916 280.764 444.455 281.583 443.637C282.401 442.819 282.862 441.71 282.864 440.552V223.526C282.862 222.368 282.401 221.259 281.583 220.441C280.764 219.623 279.655 219.162 278.498 219.16H124.109Z" fill="#EBEBEB"/>
<path d="M451.452 445.118H297.056C295.846 445.116 294.686 444.634 293.83 443.778C292.974 442.923 292.492 441.763 292.49 440.552V223.526C292.503 222.322 292.989 221.172 293.844 220.325C294.698 219.478 295.852 219.002 297.056 219H451.452C452.654 219.004 453.805 219.482 454.656 220.329C455.508 221.176 455.991 222.324 456.002 223.526V440.552C456.002 441.761 455.523 442.919 454.67 443.775C453.818 444.631 452.661 445.114 451.452 445.118ZM297.056 219.16C295.899 219.162 294.789 219.623 293.971 220.441C293.153 221.259 292.692 222.368 292.69 223.526V440.552C292.692 441.71 293.153 442.819 293.971 443.637C294.789 444.455 295.899 444.916 297.056 444.918H451.452C452.61 444.916 453.719 444.455 454.537 443.637C455.355 442.819 455.816 441.71 455.818 440.552V223.526C455.816 222.368 455.355 221.259 454.537 220.441C453.719 219.623 452.61 219.162 451.452 219.16H297.056Z" fill="#EBEBEB"/>
<path d="M384.904 411.784V427.416L391.501 432.213H360.677L370.528 428.567V412.871L384.904 411.784Z" fill="#E0E0E0"/>
<path d="M297.064 431.765V481.011H448.718V431.765H297.064ZM299.543 434.963H421.301V451.059H299.543V434.963Z" fill="#E0E0E0"/>
<path d="M297.064 431.765V481.011H424.611V431.765H297.064ZM299.543 434.963H421.301V451.059H299.543V434.963Z" fill="#EBEBEB"/>
<path d="M299.55 451.051H321.746V434.955H299.55V451.051Z" fill="#E0E0E0"/>
<path d="M389.158 451.051H421.301V443.007H389.158V451.051Z" fill="#E0E0E0"/>
<path d="M366.451 451.051H387.127V446.269H366.451V451.051Z" fill="#E0E0E0"/>
<path d="M337.298 451.059H361.677V441.28H337.298V451.059Z" fill="#E0E0E0"/>
<path d="M397.09 454.553L397.682 456.48H405.589L406.181 454.553H421.301V475.917H381.978V454.553H397.09Z" fill="#E0E0E0"/>
<path d="M355.928 454.553L356.52 456.48H364.427L365.011 454.553H380.131V475.917H340.808V454.553H355.928Z" fill="#E0E0E0"/>
<path d="M314.766 454.553L315.358 456.48H323.258L323.849 454.553H338.969V475.917H299.646V454.553H314.766Z" fill="#E0E0E0"/>
<path d="M319.867 421.123H424.371C425.93 421.123 427.193 419.859 427.193 418.3V357.389C427.193 355.831 425.93 354.567 424.371 354.567H319.867C318.308 354.567 317.045 355.831 317.045 357.389V418.3C317.045 419.859 318.308 421.123 319.867 421.123Z" fill="#E0E0E0"/>
<path d="M317.277 421.123H421.781C423.339 421.123 424.603 419.859 424.603 418.3V357.389C424.603 355.831 423.339 354.567 421.781 354.567H317.277C315.718 354.567 314.454 355.831 314.454 357.389V418.3C314.454 419.859 315.718 421.123 317.277 421.123Z" fill="#E6E6E6"/>
<path d="M421.373 417.885V357.805H317.701V417.885H421.373Z" fill="#F0F0F0"/>
<path d="M438.084 241.812H348.036V341.454H438.084V241.812Z" fill="#E9E9E9"/>
<path d="M434.35 245.762H351.994V337.712H434.35V245.762Z" fill="#F4F4F4"/>
<path d="M375.27 245.762L351.994 332.931V285.74L362.644 245.762H375.27Z" fill="white"/>
<path d="M385.672 245.762L361.125 337.712H356.496L381.042 245.762H385.672Z" fill="white"/>
<path d="M434.35 270.836V318.035L429.136 337.712H416.511L434.35 270.836Z" fill="white"/>
<path d="M394.651 241.812H391.453V341.454H394.651V241.812Z" fill="#E9E9E9"/>
<path d="M436.349 262.033H349.596V265.231H436.349V262.033Z" fill="#E9E9E9"/>
<path d="M146.065 327.525V352.32H181.142V327.525H146.065Z" fill="#E0E0E0"/>
<path d="M147.712 329.149V350.705H179.495V329.149H147.712Z" fill="#EBEBEB"/>
<path d="M158.235 296.39V321.185H193.312V296.39H158.235Z" fill="#E0E0E0"/>
<path d="M159.882 298.013V319.57H191.665V298.013H159.882Z" fill="#EBEBEB"/>
<path d="M210.127 327.533H187.803V359.116H210.127V327.533Z" fill="#E0E0E0"/>
<path d="M208.671 329.021H189.258V357.637H208.671V329.021Z" fill="#EBEBEB"/>
<path d="M222.824 286.1H198.029V321.177H222.824V286.1Z" fill="#E0E0E0"/>
<path d="M221.201 287.755H199.645V319.538H221.201V287.755Z" fill="#EBEBEB"/>
<path d="M245.172 346.947V327.533H217.707V346.947H245.172Z" fill="#E0E0E0"/>
<path d="M243.876 345.676V328.797H218.994V345.676H243.876Z" fill="#EBEBEB"/>
<path d="M140.172 383.319H226.861C228.735 383.321 230.53 384.067 231.854 385.392C233.178 386.718 233.922 388.514 233.922 390.388L243.516 451.523H142.675L133.08 390.388C133.079 389.457 133.262 388.535 133.618 387.676C133.975 386.816 134.497 386.036 135.156 385.379C135.816 384.722 136.598 384.202 137.459 383.848C138.32 383.495 139.242 383.315 140.172 383.319Z" fill="#EBEBEB"/>
<path d="M243.261 406.963L243.157 406.651H276.739V481.011H235.161V415.566C235.13 413.361 235.957 411.23 237.469 409.624C238.981 408.019 241.058 407.064 243.261 406.963Z" fill="#E0E0E0"/>
<path d="M277.091 406.947C279.374 406.951 281.562 407.861 283.175 409.477C284.788 411.093 285.694 413.283 285.694 415.566V481.011H268.471V415.566C268.471 413.28 269.379 411.088 270.996 409.471C272.612 407.855 274.805 406.947 277.091 406.947Z" fill="#F0F0F0"/>
<path d="M146.513 406.963L146.409 406.651H179.991V481.011H138.413V415.566C138.382 413.361 139.21 411.23 140.721 409.624C142.233 408.019 144.31 407.064 146.513 406.963Z" fill="#E0E0E0"/>
<path d="M188.962 481.011H262.85V428.639H188.962V481.011Z" fill="#E0E0E0"/>
<path d="M258.037 441.424H174.882V423.266H258.037C260.446 423.266 262.756 424.223 264.46 425.926C266.163 427.63 267.12 429.94 267.12 432.349C267.118 434.756 266.16 437.065 264.457 438.766C262.754 440.468 260.445 441.424 258.037 441.424Z" fill="#F5F5F5"/>
<path d="M180.342 406.947C182.626 406.951 184.814 407.861 186.427 409.477C188.04 411.093 188.946 413.283 188.946 415.566V481.011H171.723V415.566C171.723 413.28 172.631 411.088 174.248 409.471C175.864 407.855 178.056 406.947 180.342 406.947Z" fill="#F0F0F0"/>
<path d="M156.795 452.426H142.675L133.08 390.388C133.079 389.457 133.262 388.535 133.618 387.676C133.975 386.816 134.497 386.036 135.156 385.379C135.816 384.722 136.598 384.202 137.459 383.848C138.32 383.495 139.242 383.315 140.172 383.319C141.1 383.319 142.02 383.502 142.877 383.857C143.735 384.213 144.514 384.733 145.17 385.39C145.827 386.046 146.347 386.825 146.702 387.683C147.058 388.54 147.24 389.459 147.24 390.388L156.795 452.426Z" fill="#E0E0E0"/>
<path d="M136.438 235.375V258.978C136.442 259.284 136.508 259.586 136.632 259.865C136.756 260.144 136.936 260.395 137.161 260.602C137.385 260.81 137.65 260.969 137.938 261.071C138.226 261.172 138.532 261.214 138.837 261.193H218.65C218.65 261.193 227.877 256.892 227.221 250.879C226.701 246.081 226.158 242.171 225.71 239.197C225.447 237.451 224.563 235.857 223.221 234.709C221.879 233.561 220.168 232.934 218.402 232.944H138.837C138.519 232.944 138.205 233.008 137.912 233.13C137.618 233.253 137.353 233.432 137.129 233.658C136.906 233.884 136.73 234.153 136.612 234.447C136.493 234.742 136.434 235.057 136.438 235.375Z" fill="#F5F5F5"/>
<path d="M136.438 235.375V258.978C136.442 259.284 136.508 259.586 136.632 259.865C136.757 260.144 136.936 260.395 137.161 260.602C137.385 260.81 137.65 260.969 137.938 261.071C138.226 261.172 138.532 261.214 138.837 261.193H145.881C145.881 261.193 155.108 256.892 154.453 250.879C153.925 246.105 153.389 242.188 152.966 239.221C152.702 237.475 151.819 235.881 150.477 234.733C149.135 233.585 147.424 232.958 145.658 232.968H138.861C138.543 232.965 138.228 233.025 137.934 233.145C137.64 233.265 137.372 233.441 137.147 233.665C136.921 233.889 136.743 234.156 136.621 234.449C136.499 234.743 136.437 235.057 136.438 235.375Z" fill="#E6E6E6"/>
<path d="M225.391 252.806H155.668C155.668 252.806 153.365 257.907 149.456 260.002H217.579C217.579 260.002 224.791 256.708 225.391 252.806Z" fill="#E0E0E0"/>
<path d="M220.577 257.611H153.27L154.269 260.018H220.577V257.611Z" fill="#EBEBEB"/>
<path d="M222.984 254.605H155.668L156.675 257.012H222.984V254.605Z" fill="#EBEBEB"/>
<path d="M158.075 251.702H159.778V250.999H158.075V251.702Z" fill="#E0E0E0"/>
<path d="M160.474 251.702H162.177V250.999H160.474V251.702Z" fill="#E0E0E0"/>
<path d="M288.892 516.887C374.512 516.887 443.92 512.835 443.92 507.836C443.92 502.837 374.512 498.785 288.892 498.785C203.272 498.785 133.864 502.837 133.864 507.836C133.864 512.835 203.272 516.887 288.892 516.887Z" fill="#F5F5F5"/>
<path d="M161.521 450.155C161.689 451.331 158.498 452.106 155.924 452.554C156.14 454.689 157.523 456.848 159.514 458.863C161.985 457.471 165.503 455.664 166.158 456.088C166.814 456.512 163.232 458.871 160.961 460.262C162.574 461.666 164.282 462.959 166.07 464.132C167.174 463.1 168.469 462.189 169.269 462.684C170.068 463.18 169.852 464.787 169.453 466.219C172.139 467.778 174.146 468.729 174.146 468.729C174.927 466.236 175.528 463.689 175.945 461.109C175.809 460.845 175.673 460.574 175.545 460.31C175.113 459.31 175.545 458.887 176.249 458.751C176.452 456.926 176.468 455.085 176.297 453.258C173.258 452.618 169.564 451.443 170.948 449.62C171.747 448.524 173.346 448.396 174.898 448.668C174.682 448.305 174.43 447.965 174.146 447.653C168.621 441.56 164.767 447.653 164.767 447.653C161.569 444.974 157.035 445.694 156.06 449.883C157.859 449.396 161.313 448.708 161.521 450.155Z" fill="#194E7E"/>
<path opacity="0.3" d="M161.521 450.155C161.689 451.331 158.498 452.106 155.924 452.554C156.14 454.689 157.523 456.848 159.514 458.863C161.985 457.471 165.503 455.664 166.158 456.088C166.814 456.512 163.232 458.871 160.961 460.262C162.574 461.666 164.282 462.959 166.07 464.132C167.174 463.1 168.469 462.189 169.269 462.684C170.068 463.18 169.852 464.787 169.453 466.219C172.139 467.778 174.146 468.729 174.146 468.729C174.927 466.236 175.528 463.689 175.945 461.109C175.809 460.845 175.673 460.574 175.545 460.31C175.113 459.31 175.545 458.887 176.249 458.751C176.452 456.926 176.468 455.085 176.297 453.258C173.258 452.618 169.564 451.443 170.948 449.62C171.747 448.524 173.346 448.396 174.898 448.668C174.682 448.305 174.43 447.965 174.146 447.653C168.621 441.56 164.767 447.653 164.767 447.653C161.569 444.974 157.035 445.694 156.06 449.883C157.859 449.396 161.313 448.708 161.521 450.155Z" fill="white"/>
<path d="M168.421 494.923L167.621 494.859C167.621 494.443 170.892 453.657 161.737 449.811C161.3 449.609 160.822 449.51 160.341 449.523C159.86 449.535 159.388 449.659 158.962 449.883C155.66 451.603 154.077 458.743 154.061 458.815L153.261 458.647C153.325 458.343 154.94 451.067 158.578 449.172C159.108 448.892 159.695 448.738 160.294 448.722C160.893 448.705 161.488 448.826 162.032 449.076C171.731 453.146 168.557 493.252 168.421 494.923Z" fill="#194E7E"/>
<path d="M169.573 494.052C169.413 492.221 165.671 449.068 172.659 444.478C174.338 443.375 175.857 443.143 177.096 443.783C180.399 445.454 180.83 452.506 180.846 452.81L180.047 452.858C180.047 452.786 179.623 445.958 176.737 444.502C175.737 443.999 174.514 444.214 173.099 445.142C166.51 449.468 170.332 493.532 170.364 493.98L169.573 494.052Z" fill="#194E7E"/>
<path d="M170.62 497.53C170.572 496.122 169.421 463.092 175.777 460.198C176.371 459.921 177.018 459.778 177.672 459.778C178.327 459.778 178.974 459.921 179.567 460.198C183.933 462.117 186.627 470.256 186.763 470.592L186.004 470.84C186.004 470.76 183.301 462.7 179.263 460.925C178.775 460.693 178.241 460.572 177.7 460.572C177.159 460.572 176.625 460.693 176.137 460.925C171.26 463.14 171.092 488.111 171.444 497.498L170.62 497.53Z" fill="#194E7E"/>
<path d="M169.005 496.019L168.205 495.931C169.333 486.096 171.476 459.894 167.973 456.752C167.804 456.547 167.578 456.395 167.324 456.316C167.07 456.236 166.799 456.232 166.542 456.304C164.16 457.271 162.76 465.747 162.408 468.961L161.609 468.873C161.745 467.642 163.024 456.816 166.246 455.584C166.637 455.45 167.06 455.435 167.459 455.54C167.859 455.645 168.219 455.867 168.493 456.176C173.027 460.214 169.173 494.555 169.005 496.019Z" fill="#194E7E"/>
<path d="M155.66 477.381H184.389L181.99 509.555H158.059L155.66 477.381Z" fill="#263238"/>
<path opacity="0.2" d="M164.383 477.381L165.183 509.555H181.99L184.389 477.381H164.383Z" fill="white"/>
<path d="M159.57 465.571C159.274 466.371 157.043 465.739 155.292 465.115C154.693 466.506 154.829 468.313 155.348 470.232C157.339 470.232 160.146 470.296 160.394 470.8C160.641 471.304 157.635 471.544 155.772 471.6C156.286 473.021 156.897 474.405 157.603 475.741C158.635 475.478 159.746 475.366 160.05 475.933C160.354 476.501 159.69 477.429 158.954 478.172C160.074 480.059 160.985 481.37 160.985 481.37C162.324 480.094 163.567 478.72 164.703 477.261C164.703 477.053 164.703 476.837 164.703 476.621C164.783 475.821 165.191 475.733 165.679 475.893C166.428 474.836 167.068 473.706 167.59 472.519C165.935 471.088 164.056 469.097 165.535 468.441C166.43 468.058 167.414 468.497 168.293 469.241C168.289 468.942 168.251 468.644 168.181 468.353C166.862 462.7 162.4 465.155 162.4 465.155C161.337 462.405 158.299 461.309 156.268 463.556C157.579 463.844 159.946 464.603 159.57 465.571Z" fill="#194E7E"/>
<path opacity="0.3" d="M159.57 465.571C159.274 466.371 157.043 465.739 155.292 465.115C154.693 466.506 154.829 468.313 155.348 470.232C157.339 470.232 160.146 470.296 160.394 470.8C160.641 471.304 157.635 471.544 155.772 471.6C156.286 473.021 156.897 474.405 157.603 475.741C158.635 475.478 159.746 475.366 160.05 475.933C160.354 476.501 159.69 477.429 158.954 478.172C160.074 480.059 160.985 481.37 160.985 481.37C162.324 480.094 163.567 478.72 164.703 477.261C164.703 477.053 164.703 476.837 164.703 476.621C164.783 475.821 165.191 475.733 165.679 475.893C166.428 474.836 167.068 473.706 167.59 472.519C165.935 471.088 164.056 469.097 165.535 468.441C166.43 468.058 167.414 468.497 168.293 469.241C168.289 468.942 168.251 468.644 168.181 468.353C166.862 462.7 162.4 465.155 162.4 465.155C161.337 462.405 158.299 461.309 156.268 463.556C157.579 463.844 159.946 464.603 159.57 465.571Z" fill="white"/>
<path d="M180.903 469.393C180.009 469.467 179.128 469.652 178.28 469.945C178.049 469.335 177.917 468.693 177.888 468.042C177.704 462.253 181.886 464.691 184.045 462.988C184.544 462.554 185.128 462.227 185.759 462.029C186.391 461.831 187.057 461.765 187.715 461.837C187.526 462.158 187.36 462.492 187.219 462.836C187.167 462.962 187.143 463.099 187.151 463.235C187.16 463.371 187.199 463.504 187.266 463.622C187.333 463.741 187.426 463.843 187.539 463.92C187.651 463.997 187.78 464.048 187.915 464.068C188.455 464.174 189.015 464.107 189.514 463.876C189.662 463.795 189.802 463.698 189.93 463.588C190.28 464.195 190.549 464.846 190.729 465.523C190.946 466.333 191.072 467.164 191.105 468.002C190.774 468.072 190.448 468.165 190.13 468.281C190.004 468.336 189.892 468.418 189.803 468.522C189.714 468.626 189.65 468.749 189.615 468.882C189.581 469.014 189.576 469.153 189.603 469.287C189.63 469.421 189.687 469.548 189.77 469.657C190.118 470.003 190.524 470.287 190.969 470.496C190.819 471.423 190.572 472.331 190.234 473.207L189.938 473.255C189.73 473.295 189.522 473.351 189.314 473.407L188.97 473.535C188.828 473.597 188.704 473.694 188.609 473.817C188.514 473.94 188.451 474.085 188.427 474.238C188.413 474.39 188.438 474.542 188.498 474.681C188.558 474.821 188.651 474.943 188.77 475.038C188.906 475.138 189.051 475.226 189.202 475.302C188.649 476.257 187.859 477.053 186.907 477.612C186.067 477.232 185.25 476.802 184.461 476.325C184.637 476.093 184.812 475.861 184.972 475.622C185.161 475.357 185.249 475.034 185.22 474.71C185.169 474.394 185 474.109 184.748 473.91C184.62 473.811 184.474 473.738 184.317 473.696C184.161 473.653 183.998 473.642 183.837 473.663C183.521 473.714 183.235 473.883 183.037 474.134C182.846 474.422 182.63 474.694 182.422 474.934C181.315 474.118 180.325 473.155 179.479 472.071H179.567C180.091 471.935 180.627 471.844 181.166 471.8C181.439 471.71 181.671 471.528 181.823 471.286C181.976 471.043 182.039 470.755 182.002 470.471C181.965 470.187 181.831 469.925 181.621 469.73C181.412 469.534 181.141 469.418 180.855 469.401L180.903 469.393Z" fill="#194E7E"/>
<path opacity="0.5" d="M180.903 469.393C180.009 469.467 179.128 469.652 178.28 469.945C178.049 469.335 177.917 468.693 177.888 468.042C177.704 462.253 181.886 464.691 184.045 462.988C184.544 462.554 185.128 462.227 185.759 462.029C186.391 461.831 187.057 461.765 187.715 461.837C187.526 462.158 187.36 462.492 187.219 462.836C187.167 462.962 187.143 463.099 187.151 463.235C187.16 463.371 187.199 463.504 187.266 463.622C187.333 463.741 187.426 463.843 187.539 463.92C187.651 463.997 187.78 464.048 187.915 464.068C188.455 464.174 189.015 464.107 189.514 463.876C189.662 463.795 189.802 463.698 189.93 463.588C190.28 464.195 190.549 464.846 190.729 465.523C190.946 466.333 191.072 467.164 191.105 468.002C190.774 468.072 190.448 468.165 190.13 468.281C190.004 468.336 189.892 468.418 189.803 468.522C189.714 468.626 189.65 468.749 189.615 468.882C189.581 469.014 189.576 469.153 189.603 469.287C189.63 469.421 189.687 469.548 189.77 469.657C190.118 470.003 190.524 470.287 190.969 470.496C190.819 471.423 190.572 472.331 190.234 473.207L189.938 473.255C189.73 473.295 189.522 473.351 189.314 473.407L188.97 473.535C188.828 473.597 188.704 473.694 188.609 473.817C188.514 473.94 188.451 474.085 188.427 474.238C188.413 474.39 188.438 474.542 188.498 474.681C188.558 474.821 188.651 474.943 188.77 475.038C188.906 475.138 189.051 475.226 189.202 475.302C188.649 476.257 187.859 477.053 186.907 477.612C186.067 477.232 185.25 476.802 184.461 476.325C184.637 476.093 184.812 475.861 184.972 475.622C185.161 475.357 185.249 475.034 185.22 474.71C185.169 474.394 185 474.109 184.748 473.91C184.62 473.811 184.474 473.738 184.317 473.696C184.161 473.653 183.998 473.642 183.837 473.663C183.521 473.714 183.235 473.883 183.037 474.134C182.846 474.422 182.63 474.694 182.422 474.934C181.315 474.118 180.325 473.155 179.479 472.071H179.567C180.091 471.935 180.627 471.844 181.166 471.8C181.439 471.71 181.671 471.528 181.823 471.286C181.976 471.043 182.039 470.755 182.002 470.471C181.965 470.187 181.831 469.925 181.621 469.73C181.412 469.534 181.141 469.418 180.855 469.401L180.903 469.393Z" fill="white"/>
<path d="M182.55 449.42C183.044 449.065 183.581 448.775 184.149 448.556C184.002 448.136 183.789 447.741 183.517 447.389C181.07 444.262 179.967 447.389 178.064 447.437C177.617 447.43 177.173 447.515 176.761 447.687C176.348 447.859 175.975 448.114 175.665 448.436C175.903 448.524 176.135 448.626 176.361 448.74C176.445 448.783 176.518 448.845 176.574 448.921C176.63 448.996 176.668 449.084 176.685 449.177C176.702 449.269 176.697 449.365 176.672 449.455C176.646 449.546 176.6 449.63 176.537 449.7C176.3 450 175.971 450.216 175.601 450.315C175.484 450.323 175.367 450.323 175.25 450.315C175.338 450.787 175.483 451.246 175.681 451.682C175.924 452.202 176.224 452.693 176.577 453.146C176.781 453.038 176.992 452.945 177.208 452.866C177.298 452.838 177.394 452.83 177.487 452.845C177.58 452.859 177.669 452.895 177.746 452.949C177.823 453.003 177.887 453.074 177.933 453.157C177.978 453.239 178.004 453.331 178.008 453.426C177.979 453.761 177.89 454.089 177.744 454.393C178.237 454.818 178.773 455.19 179.343 455.504L179.519 455.392L179.919 455.201C179.996 455.166 180.076 455.139 180.159 455.121C180.26 455.089 180.368 455.084 180.472 455.107C180.575 455.129 180.671 455.178 180.751 455.249C180.83 455.323 180.889 455.416 180.921 455.52C180.953 455.624 180.958 455.734 180.934 455.84C180.907 455.952 180.872 456.061 180.83 456.168C181.538 456.428 182.301 456.499 183.045 456.376C183.322 455.808 183.563 455.223 183.765 454.625L183.189 454.481C182.976 454.423 182.789 454.293 182.662 454.113C182.542 453.923 182.501 453.693 182.55 453.474C182.571 453.365 182.615 453.262 182.678 453.171C182.741 453.08 182.823 453.003 182.917 452.946C183.108 452.826 183.337 452.786 183.557 452.834C183.781 452.898 184.013 452.946 184.237 453.002C184.464 452.09 184.563 451.151 184.533 450.211H184.477C184.135 450.371 183.808 450.561 183.501 450.779C183.408 450.839 183.304 450.88 183.196 450.9C183.087 450.919 182.975 450.917 182.867 450.894C182.759 450.871 182.657 450.826 182.566 450.763C182.475 450.7 182.398 450.62 182.338 450.527C182.278 450.434 182.237 450.33 182.217 450.222C182.197 450.113 182.199 450.001 182.223 449.893C182.246 449.785 182.291 449.683 182.353 449.592C182.416 449.501 182.497 449.424 182.59 449.364L182.55 449.42Z" fill="#194E7E"/>
<path opacity="0.3" d="M182.55 449.42C183.044 449.065 183.581 448.775 184.149 448.556C184.002 448.136 183.789 447.741 183.517 447.389C181.07 444.262 179.967 447.389 178.064 447.437C177.617 447.43 177.173 447.515 176.761 447.687C176.348 447.859 175.975 448.114 175.665 448.436C175.903 448.524 176.135 448.626 176.361 448.74C176.445 448.783 176.518 448.845 176.574 448.921C176.63 448.996 176.668 449.084 176.685 449.177C176.702 449.269 176.697 449.365 176.672 449.455C176.646 449.546 176.6 449.63 176.537 449.7C176.3 450 175.971 450.216 175.601 450.315C175.484 450.323 175.367 450.323 175.25 450.315C175.338 450.787 175.483 451.246 175.681 451.682C175.924 452.202 176.224 452.693 176.577 453.146C176.781 453.038 176.992 452.945 177.208 452.866C177.298 452.838 177.394 452.83 177.487 452.845C177.58 452.859 177.669 452.895 177.746 452.949C177.823 453.003 177.887 453.074 177.933 453.157C177.978 453.239 178.004 453.331 178.008 453.426C177.979 453.761 177.89 454.089 177.744 454.393C178.237 454.818 178.773 455.19 179.343 455.504L179.519 455.392L179.919 455.201C179.996 455.166 180.076 455.139 180.159 455.121C180.26 455.089 180.368 455.084 180.472 455.107C180.575 455.129 180.671 455.178 180.751 455.249C180.83 455.323 180.889 455.416 180.921 455.52C180.953 455.624 180.958 455.734 180.934 455.84C180.907 455.952 180.872 456.061 180.83 456.168C181.538 456.428 182.301 456.499 183.045 456.376C183.322 455.808 183.563 455.223 183.765 454.625L183.189 454.481C182.976 454.423 182.789 454.293 182.662 454.113C182.542 453.923 182.501 453.693 182.55 453.474C182.571 453.365 182.615 453.262 182.678 453.171C182.741 453.08 182.823 453.003 182.917 452.946C183.108 452.826 183.337 452.786 183.557 452.834C183.781 452.898 184.013 452.946 184.237 453.002C184.464 452.09 184.563 451.151 184.533 450.211H184.477C184.135 450.371 183.808 450.561 183.501 450.779C183.408 450.839 183.304 450.88 183.196 450.9C183.087 450.919 182.975 450.917 182.867 450.894C182.759 450.871 182.657 450.826 182.566 450.763C182.475 450.7 182.398 450.62 182.338 450.527C182.278 450.434 182.237 450.33 182.217 450.222C182.197 450.113 182.199 450.001 182.223 449.893C182.246 449.785 182.291 449.683 182.353 449.592C182.416 449.501 182.497 449.424 182.59 449.364L182.55 449.42Z" fill="white"/>
<path d="M159.154 455.217C158.986 456.392 162.176 457.167 164.751 457.615C164.535 459.75 163.152 461.909 161.153 463.916C158.69 462.533 155.164 460.718 154.517 461.141C153.869 461.565 157.419 463.964 159.674 465.331C158.062 466.732 156.355 468.02 154.564 469.185C153.461 468.154 152.166 467.25 151.366 467.738C150.567 468.226 150.783 469.849 151.182 471.272C148.496 472.871 146.489 473.791 146.489 473.791C145.708 471.297 145.106 468.75 144.69 466.171C144.826 465.899 144.962 465.635 145.082 465.371C145.521 464.372 145.082 463.948 144.386 463.772C144.178 461.948 144.162 460.107 144.338 458.279C147.376 457.647 151.07 456.464 149.687 454.641C148.888 453.545 147.328 453.418 145.737 453.697C145.953 453.332 146.205 452.989 146.489 452.674C152.014 446.581 155.868 452.674 155.868 452.674C159.066 449.995 163.592 450.723 164.567 454.905C162.816 454.449 159.362 453.761 159.154 455.217Z" fill="#194E7E"/>
<path opacity="0.5" d="M159.154 455.217C158.986 456.392 162.176 457.167 164.751 457.615C164.535 459.75 163.152 461.909 161.153 463.916C158.69 462.533 155.164 460.718 154.517 461.141C153.869 461.565 157.419 463.964 159.674 465.331C158.062 466.732 156.355 468.02 154.564 469.185C153.461 468.154 152.166 467.25 151.366 467.738C150.567 468.226 150.783 469.849 151.182 471.272C148.496 472.871 146.489 473.791 146.489 473.791C145.708 471.297 145.106 468.75 144.69 466.171C144.826 465.899 144.962 465.635 145.082 465.371C145.521 464.372 145.082 463.948 144.386 463.772C144.178 461.948 144.162 460.107 144.338 458.279C147.376 457.647 151.07 456.464 149.687 454.641C148.888 453.545 147.328 453.418 145.737 453.697C145.953 453.332 146.205 452.989 146.489 452.674C152.014 446.581 155.868 452.674 155.868 452.674C159.066 449.995 163.592 450.723 164.567 454.905C162.816 454.449 159.362 453.761 159.154 455.217Z" fill="white"/>
<path d="M397.194 509.555L412.506 407.81V509.555H416.615V407.178L431.943 509.555H436.349L417.159 381.4L416.615 381.48V377.315H412.506V381.464L411.938 381.4L392.7 509.555H397.194Z" fill="#194E7E"/>
<path opacity="0.3" d="M397.194 509.555L412.506 407.81V509.555H416.615V407.178L431.943 509.555H436.349L417.159 381.4L416.615 381.48V377.315H412.506V381.464L411.938 381.4L392.7 509.555H397.194Z" fill="white"/>
<path d="M435.629 395.617H393.268L396.698 360.22H432.199L435.629 395.617Z" fill="#194E7E"/>
<g opacity="0.5">
<path d="M435.629 395.617H393.268L396.698 360.22H432.199L435.629 395.617Z" fill="white"/>
</g>
<path d="M328.871 349.657H314.942C314.645 349.657 314.361 349.54 314.151 349.33C313.941 349.12 313.823 348.835 313.823 348.538V315.556C313.976 315.483 314.106 315.371 314.2 315.23C314.294 315.089 314.348 314.925 314.356 314.756C314.364 314.587 314.326 314.418 314.247 314.269C314.167 314.12 314.048 313.995 313.902 313.908C313.757 313.821 313.591 313.775 313.422 313.775C313.252 313.775 313.086 313.821 312.941 313.908C312.796 313.995 312.677 314.12 312.597 314.27C312.517 314.419 312.479 314.587 312.487 314.756C312.495 314.926 312.549 315.09 312.643 315.231C312.738 315.372 312.869 315.484 313.023 315.556V348.53C313.022 348.782 313.071 349.032 313.167 349.266C313.263 349.499 313.404 349.711 313.583 349.889C313.761 350.068 313.973 350.209 314.207 350.305C314.44 350.401 314.69 350.45 314.942 350.449H328.871C329.167 350.449 329.452 350.567 329.662 350.777C329.872 350.987 329.99 351.272 329.99 351.568V370.446H330.79V351.576C330.79 351.324 330.74 351.075 330.643 350.842C330.547 350.609 330.406 350.398 330.228 350.22C330.049 350.041 329.838 349.9 329.605 349.804C329.372 349.707 329.123 349.657 328.871 349.657Z" fill="#194E7E"/>
<path opacity="0.4" d="M328.871 349.657H314.942C314.645 349.657 314.361 349.54 314.151 349.33C313.941 349.12 313.823 348.835 313.823 348.538V315.556C313.976 315.483 314.106 315.371 314.2 315.23C314.294 315.089 314.348 314.925 314.356 314.756C314.364 314.587 314.326 314.418 314.247 314.269C314.167 314.12 314.048 313.995 313.902 313.908C313.757 313.821 313.591 313.775 313.422 313.775C313.252 313.775 313.086 313.821 312.941 313.908C312.796 313.995 312.677 314.12 312.597 314.27C312.517 314.419 312.479 314.587 312.487 314.756C312.495 314.926 312.549 315.09 312.643 315.231C312.738 315.372 312.869 315.484 313.023 315.556V348.53C313.022 348.782 313.071 349.032 313.167 349.266C313.263 349.499 313.404 349.711 313.583 349.889C313.761 350.068 313.973 350.209 314.207 350.305C314.44 350.401 314.69 350.45 314.942 350.449H328.871C329.167 350.449 329.452 350.567 329.662 350.777C329.872 350.987 329.99 351.272 329.99 351.568V370.446H330.79V351.576C330.79 351.324 330.74 351.075 330.643 350.842C330.547 350.609 330.406 350.398 330.228 350.22C330.049 350.041 329.838 349.9 329.605 349.804C329.372 349.707 329.123 349.657 328.871 349.657Z" fill="white"/>
<path d="M345.534 369.655H315.174C313.986 369.655 313.023 370.618 313.023 371.806V403.86C313.023 405.048 313.986 406.011 315.174 406.011H345.534C346.722 406.011 347.685 405.048 347.685 403.86V371.806C347.685 370.618 346.722 369.655 345.534 369.655Z" fill="#194E7E"/>
<path opacity="0.4" d="M345.534 369.655H315.174C313.986 369.655 313.023 370.618 313.023 371.806V403.86C313.023 405.048 313.986 406.011 315.174 406.011H345.534C346.722 406.011 347.685 405.048 347.685 403.86V371.806C347.685 370.618 346.722 369.655 345.534 369.655Z" fill="white"/>
<path opacity="0.2" d="M332.684 390.563H328.023V395.225H332.684V390.563Z" fill="white"/>
<path opacity="0.2" d="M337.746 375.38H333.084V380.041H337.746V375.38Z" fill="white"/>
<path opacity="0.2" d="M327.623 395.625H322.962V400.286H327.623V395.625Z" fill="white"/>
<path opacity="0.2" d="M337.746 380.441H333.084V385.102H337.746V380.441Z" fill="white"/>
<path opacity="0.2" d="M337.746 385.502H333.084V390.164H337.746V385.502Z" fill="white"/>
<path opacity="0.2" d="M332.684 380.441H328.023V385.102H332.684V380.441Z" fill="white"/>
<path opacity="0.2" d="M332.684 370.054H328.023V374.98H332.684V370.054Z" fill="white"/>
<path opacity="0.2" d="M327.623 390.563H322.962V395.225H327.623V390.563Z" fill="white"/>
<path opacity="0.2" d="M332.684 375.38H328.023V380.041H332.684V375.38Z" fill="white"/>
<path opacity="0.2" d="M332.684 395.625H328.023V400.286H332.684V395.625Z" fill="white"/>
<path opacity="0.2" d="M337.746 395.625H333.084V400.286H337.746V395.625Z" fill="white"/>
<path opacity="0.2" d="M332.684 385.502H328.023V390.164H332.684V385.502Z" fill="white"/>
<path opacity="0.2" d="M337.746 370.054H333.084V374.98H337.746V370.054Z" fill="white"/>
<path opacity="0.2" d="M317.501 390.563H313.423V395.225H317.501V390.563Z" fill="white"/>
<path opacity="0.2" d="M317.501 375.38H313.423V380.041H317.501V375.38Z" fill="white"/>
<path opacity="0.2" d="M317.501 385.502H313.423V390.164H317.501V385.502Z" fill="white"/>
<path opacity="0.2" d="M317.501 380.441H313.423V385.102H317.501V380.441Z" fill="white"/>
<path opacity="0.2" d="M337.746 390.563H333.084V395.225H337.746V390.563Z" fill="white"/>
<path opacity="0.2" d="M343.207 374.98H347.261V371.782C347.261 371.317 347.076 370.872 346.748 370.543C346.42 370.215 345.974 370.031 345.51 370.031H343.183L343.207 374.98Z" fill="white"/>
<path opacity="0.2" d="M342.807 375.38H338.146V380.041H342.807V375.38Z" fill="white"/>
<path opacity="0.2" d="M317.501 395.625H313.423V400.286H317.501V395.625Z" fill="white"/>
<path opacity="0.2" d="M342.807 380.441H338.146V385.102H342.807V380.441Z" fill="white"/>
<path opacity="0.2" d="M342.807 385.502H338.146V390.164H342.807V385.502Z" fill="white"/>
<path opacity="0.2" d="M342.807 390.563H338.146V395.225H342.807V390.563Z" fill="white"/>
<path opacity="0.2" d="M342.807 395.625H338.146V400.286H342.807V395.625Z" fill="white"/>
<path opacity="0.2" d="M347.285 395.625H343.207V400.286H347.285V395.625Z" fill="white"/>
<path opacity="0.2" d="M342.807 370.054H338.146V374.98H342.807V370.054Z" fill="white"/>
<path opacity="0.2" d="M332.684 400.694H328.023V405.619H332.684V400.694Z" fill="white"/>
<path opacity="0.2" d="M337.746 400.694H333.084V405.619H337.746V400.694Z" fill="white"/>
<path opacity="0.2" d="M347.285 385.502H343.207V390.164H347.285V385.502Z" fill="white"/>
<path opacity="0.2" d="M342.807 400.694H338.146V405.619H342.807V400.694Z" fill="white"/>
<path opacity="0.2" d="M347.285 390.563H343.207V395.225H347.285V390.563Z" fill="white"/>
<path opacity="0.2" d="M317.493 400.694H313.423V403.892C313.425 404.355 313.61 404.799 313.939 405.125C314.267 405.452 314.711 405.635 315.174 405.635H317.493V400.694Z" fill="white"/>
<path opacity="0.2" d="M343.207 400.694V405.611H345.534C345.997 405.611 346.441 405.428 346.769 405.101C347.097 404.775 347.283 404.331 347.285 403.868V400.67L343.207 400.694Z" fill="white"/>
<path opacity="0.2" d="M317.493 374.98V370.054H315.174C314.709 370.054 314.264 370.239 313.936 370.567C313.607 370.896 313.423 371.341 313.423 371.806V375.004L317.493 374.98Z" fill="white"/>
<path opacity="0.2" d="M347.285 380.441H343.207V385.102H347.285V380.441Z" fill="white"/>
<path opacity="0.2" d="M347.285 375.38H343.207V380.041H347.285V375.38Z" fill="white"/>
<path opacity="0.2" d="M322.554 385.502H317.893V390.164H322.554V385.502Z" fill="white"/>
<path opacity="0.2" d="M322.554 395.625H317.893V400.286H322.554V395.625Z" fill="white"/>
<path opacity="0.2" d="M327.623 370.054H322.962V374.98H327.623V370.054Z" fill="white"/>
<path opacity="0.2" d="M322.554 390.563H317.893V395.225H322.554V390.563Z" fill="white"/>
<path opacity="0.2" d="M327.623 380.441H322.962V385.102H327.623V380.441Z" fill="white"/>
<path opacity="0.2" d="M327.623 375.38H322.962V380.041H327.623V375.38Z" fill="white"/>
<path opacity="0.2" d="M327.623 400.694H322.962V405.619H327.623V400.694Z" fill="white"/>
<path opacity="0.2" d="M322.554 400.694H317.893V405.619H322.554V400.694Z" fill="white"/>
<path opacity="0.2" d="M322.554 370.054H317.893V374.98H322.554V370.054Z" fill="white"/>
<path opacity="0.2" d="M327.623 385.502H322.962V390.164H327.623V385.502Z" fill="white"/>
<path opacity="0.2" d="M322.554 380.441H317.893V385.102H322.554V380.441Z" fill="white"/>
<path opacity="0.2" d="M322.554 375.38H317.893V380.041H322.554V375.38Z" fill="white"/>
<path d="M338.634 382.472C338.564 382.107 338.465 381.749 338.338 381.4C337.838 379.976 336.966 378.712 335.812 377.738C334.659 376.764 333.266 376.117 331.778 375.863C330.29 375.61 328.761 375.759 327.35 376.295C325.939 376.832 324.697 377.736 323.754 378.914C323.306 379.468 322.933 380.078 322.642 380.729C322.147 381.821 321.891 383.007 321.891 384.207V391.467C321.889 392.16 321.975 392.85 322.147 393.522C322.271 394.035 322.451 394.534 322.682 395.009C322.884 395.453 323.125 395.879 323.402 396.28C323.618 396.568 323.834 396.84 324.065 397.08C324.35 397.395 324.657 397.689 324.985 397.959C325.253 398.178 325.533 398.381 325.825 398.567C326.329 398.888 326.865 399.156 327.424 399.367C327.696 399.463 327.967 399.551 328.223 399.623C328.574 399.709 328.929 399.776 329.287 399.822C329.552 399.856 329.819 399.875 330.086 399.878H330.302C330.738 399.879 331.174 399.847 331.605 399.782C331.877 399.735 332.149 399.679 332.405 399.615C333.388 399.358 334.316 398.927 335.147 398.343C335.448 398.134 335.734 397.905 336.003 397.656C336.738 396.983 337.349 396.188 337.81 395.305C338.05 394.85 338.246 394.374 338.394 393.882C338.616 393.164 338.737 392.418 338.754 391.667C338.754 391.667 338.754 391.499 338.754 391.419V384.159C338.771 383.594 338.731 383.029 338.634 382.472ZM336.739 395.705C336.285 396.391 335.724 396.998 335.076 397.504C334.84 397.691 334.591 397.862 334.332 398.015C333.647 398.437 332.899 398.747 332.117 398.935C331.861 398.991 331.597 399.039 331.318 399.071C330.997 399.112 330.674 399.134 330.35 399.135H329.99C329.71 399.135 329.447 399.135 329.191 399.055C328.856 399.001 328.525 398.926 328.199 398.831C327.919 398.751 327.648 398.647 327.4 398.543C326.834 398.301 326.297 397.995 325.801 397.632C325.533 397.431 325.279 397.212 325.041 396.976C324.749 396.701 324.482 396.401 324.241 396.08C324.01 395.774 323.801 395.451 323.618 395.113C323.342 394.607 323.128 394.07 322.978 393.514C322.791 392.845 322.697 392.154 322.698 391.459V384.199C322.7 382.513 323.263 380.876 324.297 379.545C324.987 378.645 325.866 377.908 326.872 377.387C327.955 376.821 329.16 376.528 330.382 376.531C332.123 376.532 333.812 377.124 335.172 378.211C336.531 379.297 337.482 380.814 337.866 382.512C337.989 383.06 338.05 383.621 338.05 384.183V391.507C338.043 391.979 337.995 392.45 337.906 392.914C337.781 393.536 337.58 394.141 337.306 394.713C337.144 395.059 336.955 395.39 336.739 395.705Z" fill="white"/>
<path d="M331.318 388.7C330.462 391.411 329.351 394.977 329.99 399.095C330.03 399.359 330.078 399.623 330.134 399.894C329.867 399.891 329.6 399.872 329.335 399.838C329.279 399.559 329.231 399.287 329.199 399.039C328.591 394.801 329.718 391.195 330.574 388.453C331.485 385.542 331.861 384.119 330.486 383.535C330.27 383.445 330.034 383.414 329.803 383.445C329.571 383.476 329.351 383.567 329.167 383.711C326.984 385.158 325.033 391.403 324.257 396.064C324.193 396.432 324.137 396.784 324.089 397.12C323.858 396.856 323.642 396.584 323.426 396.32C323.482 395.937 323.554 395.521 323.634 395.129C324.513 390.507 326.392 384.631 328.727 383.087C329.021 382.871 329.367 382.735 329.73 382.691C330.093 382.648 330.461 382.699 330.798 382.84C332.869 383.711 332.189 385.91 331.318 388.7Z" fill="white"/>
<path d="M329.926 388.509C329.126 391.075 327.951 394.833 328.183 398.831C328.183 399.111 328.183 399.391 328.247 399.679C327.967 399.607 327.695 399.519 327.447 399.423C327.447 399.127 327.407 398.839 327.399 398.543C327.239 394.545 328.399 390.819 329.198 388.269C329.508 387.427 329.733 386.557 329.87 385.67C328.903 386.534 325.872 393.57 325.816 397.664C325.8 397.995 325.814 398.326 325.856 398.655C325.565 398.469 325.284 398.266 325.017 398.047C325.017 397.72 325.017 397.368 325.057 397.008C325.392 392.77 327.943 386.382 329.334 385.118C329.436 384.997 329.572 384.908 329.724 384.864C329.877 384.82 330.039 384.822 330.19 384.871C330.981 385.15 330.606 386.342 329.926 388.509Z" fill="white"/>
<path d="M332.117 398.903C332.215 399.154 332.327 399.4 332.452 399.639C332.197 399.702 331.925 399.758 331.653 399.806C331.524 399.547 331.412 399.28 331.317 399.007C330.661 397.296 330.318 394.697 331.509 391.147C333.836 384.223 333.428 382.576 331.701 381.664C331.26 381.406 330.761 381.262 330.25 381.245C329.739 381.228 329.232 381.339 328.774 381.568C326.376 382.752 324.305 387.029 322.97 393.458C322.866 393.946 322.77 394.441 322.682 394.953C322.45 394.478 322.27 393.979 322.146 393.466C322.314 392.666 322.498 391.867 322.69 391.067C324.081 385.566 326.072 381.992 328.423 380.833C328.991 380.541 329.623 380.396 330.262 380.413C330.9 380.43 331.525 380.607 332.077 380.929C334.475 382.208 334.531 384.647 332.269 391.371C331.109 394.825 331.469 397.288 332.109 398.847L332.117 398.903Z" fill="white"/>
<path d="M336.067 397.712C335.798 397.96 335.512 398.19 335.211 398.399L334.883 398.295C334.691 398.226 334.508 398.132 334.34 398.015C333.436 397.418 332.802 396.491 332.573 395.433C332.157 393.938 332.837 391.779 333.564 389.5C334.292 387.221 335.043 384.838 334.684 383.103C334.586 382.48 334.346 381.888 333.981 381.373C333.616 380.858 333.137 380.435 332.581 380.137C331.181 379.441 329.318 379.561 327.343 380.481C325.369 381.4 323.673 384.343 322.698 386.622C322.354 387.421 322.082 388.157 321.898 388.692V386.446C322.13 385.902 322.394 385.31 322.698 384.719C323.729 382.696 325.177 380.609 327 379.761C329.206 378.73 331.317 378.61 332.94 379.425C333.606 379.776 334.18 380.276 334.619 380.886C335.057 381.497 335.348 382.201 335.467 382.944C335.867 384.862 335.083 387.333 334.324 389.724C333.636 391.891 332.988 393.93 333.34 395.201C333.437 395.69 333.644 396.15 333.946 396.547C334.248 396.943 334.637 397.265 335.083 397.488L335.171 397.528C335.455 397.646 335.759 397.708 336.067 397.712Z" fill="white"/>
<path d="M338.465 393.938C338.317 394.43 338.122 394.906 337.882 395.361C337.531 395.544 337.148 395.661 336.754 395.705H336.531H336.331C335.891 395.669 335.474 395.495 335.139 395.208C334.804 394.921 334.569 394.535 334.468 394.105C334.116 392.914 334.692 390.675 335.267 388.309C335.722 386.811 336.022 385.27 336.163 383.711C336.163 381.248 335.523 378.61 330.798 377.77C328.399 377.339 324.945 378.874 322.922 382.152C322.522 382.792 323.042 380.337 322.602 380.697C322.89 380.041 323.338 380.073 323.777 379.521C324.665 378.946 327.136 376.507 330.934 376.979C336.379 377.65 336.962 381.28 336.962 383.711C336.829 385.339 336.518 386.948 336.035 388.508C335.507 390.563 334.915 392.898 335.235 393.882C335.293 394.152 335.436 394.398 335.644 394.582C335.851 394.766 336.111 394.879 336.387 394.905C336.691 394.924 336.996 394.869 337.274 394.745C337.723 394.561 338.128 394.286 338.465 393.938Z" fill="white"/>
<path d="M338.817 389.588V391.467C338.817 391.547 338.817 391.635 338.817 391.715C338.603 392.186 338.282 392.602 337.882 392.93C337.605 393.13 337.272 393.237 336.93 393.234H336.699C336.577 393.219 336.462 393.174 336.363 393.103C336.263 393.031 336.184 392.936 336.131 392.826C335.771 392.163 336.219 390.819 336.515 390.076C337.554 387.702 338.009 385.114 337.842 382.528C337.842 382.072 337.89 381.792 337.89 381.776C337.9 381.672 337.949 381.575 338.028 381.505C338.107 381.435 338.209 381.398 338.314 381.4C338.441 381.749 338.54 382.107 338.61 382.472C338.61 383.063 338.514 383.655 338.458 384.247C338.346 385.382 338.21 386.518 337.994 387.645C337.938 387.949 338.194 387.829 338.13 388.133C337.934 388.734 337.699 389.322 337.426 389.892C337.234 390.332 337.018 390.763 336.866 391.219C336.771 391.491 336.419 392.77 337.138 392.49C337.408 392.351 337.633 392.137 337.786 391.875C337.858 391.763 337.93 391.651 337.994 391.531C338.227 391.097 338.425 390.645 338.586 390.18C338.681 389.988 338.753 389.788 338.817 389.588Z" fill="white"/>
<path d="M279.865 253.965V274.354C279.865 274.651 279.747 274.936 279.537 275.146C279.327 275.356 279.042 275.473 278.745 275.473H258.013C257.942 275.319 257.83 275.187 257.689 275.093C257.547 274.998 257.383 274.944 257.213 274.938C257.044 274.93 256.876 274.967 256.726 275.047C256.577 275.127 256.452 275.246 256.365 275.391C256.278 275.536 256.232 275.703 256.232 275.872C256.232 276.041 256.278 276.207 256.365 276.353C256.452 276.498 256.577 276.617 256.726 276.697C256.875 276.777 257.043 276.815 257.213 276.807C257.382 276.798 257.546 276.744 257.686 276.65C257.827 276.557 257.94 276.426 258.013 276.273H278.745C279.254 276.271 279.741 276.068 280.1 275.709C280.459 275.349 280.662 274.862 280.664 274.354V253.965H279.865Z" fill="#194E7E"/>
<path opacity="0.4" d="M279.865 253.965V274.354C279.865 274.651 279.747 274.936 279.537 275.146C279.327 275.356 279.042 275.473 278.745 275.473H258.013C257.942 275.319 257.83 275.187 257.689 275.093C257.547 274.998 257.383 274.944 257.213 274.938C257.044 274.93 256.876 274.967 256.726 275.047C256.577 275.127 256.452 275.246 256.365 275.391C256.278 275.536 256.232 275.703 256.232 275.872C256.232 276.041 256.278 276.207 256.365 276.353C256.452 276.498 256.577 276.617 256.726 276.697C256.875 276.777 257.043 276.815 257.213 276.807C257.382 276.798 257.546 276.744 257.686 276.65C257.827 276.557 257.94 276.426 258.013 276.273H278.745C279.254 276.271 279.741 276.068 280.1 275.709C280.459 275.349 280.662 274.862 280.664 274.354V253.965H279.865Z" fill="white"/>
<path d="M298.439 258.163V227.803C298.439 226.615 297.476 225.652 296.288 225.652H264.233C263.046 225.652 262.083 226.615 262.083 227.803V258.163C262.083 259.351 263.046 260.314 264.233 260.314H296.288C297.476 260.314 298.439 259.351 298.439 258.163Z" fill="#194E7E"/>
<path opacity="0.4" d="M298.439 258.163V227.803C298.439 226.615 297.476 225.652 296.288 225.652H264.233C263.046 225.652 262.083 226.615 262.083 227.803V258.163C262.083 259.351 263.046 260.314 264.233 260.314H296.288C297.476 260.314 298.439 259.351 298.439 258.163Z" fill="white"/>
<path opacity="0.2" d="M277.53 240.652H272.869V245.314H277.53V240.652Z" fill="white"/>
<path opacity="0.2" d="M292.714 245.714H288.052V250.375H292.714V245.714Z" fill="white"/>
<path opacity="0.2" d="M272.469 235.583H267.808V240.244H272.469V235.583Z" fill="white"/>
<path opacity="0.2" d="M287.653 245.714H282.991V250.375H287.653V245.714Z" fill="white"/>
<path opacity="0.2" d="M282.592 245.714H277.93V250.375H282.592V245.714Z" fill="white"/>
<path opacity="0.2" d="M287.653 240.652H282.991V245.314H287.653V240.652Z" fill="white"/>
<path opacity="0.2" d="M298.047 240.652H293.122V245.314H298.047V240.652Z" fill="white"/>
<path opacity="0.2" d="M277.53 235.583H272.869V240.244H277.53V235.583Z" fill="white"/>
<path opacity="0.2" d="M292.714 240.652H288.052V245.314H292.714V240.652Z" fill="white"/>
<path opacity="0.2" d="M272.469 240.652H267.808V245.314H272.469V240.652Z" fill="white"/>
<path opacity="0.2" d="M272.469 245.714H267.808V250.375H272.469V245.714Z" fill="white"/>
<path opacity="0.2" d="M282.592 240.652H277.93V245.314H282.592V240.652Z" fill="white"/>
<path opacity="0.2" d="M298.047 245.714H293.122V250.375H298.047V245.714Z" fill="white"/>
<path opacity="0.2" d="M277.53 226.052H272.869V230.13H277.53V226.052Z" fill="white"/>
<path opacity="0.2" d="M292.714 226.052H288.052V230.13H292.714V226.052Z" fill="white"/>
<path opacity="0.2" d="M282.592 226.052H277.93V230.13H282.592V226.052Z" fill="white"/>
<path opacity="0.2" d="M287.653 226.052H282.991V230.13H287.653V226.052Z" fill="white"/>
<path opacity="0.2" d="M277.53 245.714H272.869V250.375H277.53V245.714Z" fill="white"/>
<path opacity="0.2" d="M293.122 255.836V259.914H296.32C296.783 259.912 297.226 259.726 297.553 259.398C297.88 259.07 298.063 258.626 298.063 258.163V255.836H293.122Z" fill="white"/>
<path opacity="0.2" d="M292.714 250.775H288.052V255.436H292.714V250.775Z" fill="white"/>
<path opacity="0.2" d="M272.469 226.052H267.808V230.13H272.469V226.052Z" fill="white"/>
<path opacity="0.2" d="M287.653 250.775H282.991V255.436H287.653V250.775Z" fill="white"/>
<path opacity="0.2" d="M282.592 250.775H277.93V255.436H282.592V250.775Z" fill="white"/>
<path opacity="0.2" d="M277.53 250.775H272.869V255.436H277.53V250.775Z" fill="white"/>
<path opacity="0.2" d="M272.469 250.775H267.808V255.436H272.469V250.775Z" fill="white"/>
<path opacity="0.2" d="M272.469 255.836H267.808V259.914H272.469V255.836Z" fill="white"/>
<path opacity="0.2" d="M298.047 250.775H293.122V255.436H298.047V250.775Z" fill="white"/>
<path opacity="0.2" d="M267.408 240.652H262.482V245.314H267.408V240.652Z" fill="white"/>
<path opacity="0.2" d="M267.408 245.714H262.482V250.375H267.408V245.714Z" fill="white"/>
<path opacity="0.2" d="M282.592 255.836H277.93V259.914H282.592V255.836Z" fill="white"/>
<path opacity="0.2" d="M267.408 250.775H262.482V255.436H267.408V250.775Z" fill="white"/>
<path opacity="0.2" d="M277.53 255.836H272.869V259.914H277.53V255.836Z" fill="white"/>
<path opacity="0.2" d="M267.408 230.122V226.052H264.209C263.755 226.065 263.323 226.253 263.005 226.579C262.687 226.904 262.508 227.34 262.506 227.795V230.122H267.408Z" fill="white"/>
<path opacity="0.2" d="M267.408 255.836H262.506V258.179C262.506 258.643 262.691 259.089 263.019 259.417C263.348 259.745 263.793 259.93 264.257 259.93H267.456L267.408 255.836Z" fill="white"/>
<path opacity="0.2" d="M293.122 230.122H298.039V227.795C298.037 227.334 297.853 226.891 297.526 226.565C297.2 226.239 296.758 226.054 296.296 226.052H293.098L293.122 230.122Z" fill="white"/>
<path opacity="0.2" d="M287.653 255.836H282.991V259.914H287.653V255.836Z" fill="white"/>
<path opacity="0.2" d="M292.714 255.836H288.052V259.914H292.714V255.836Z" fill="white"/>
<path opacity="0.2" d="M282.592 230.522H277.93V235.183H282.592V230.522Z" fill="white"/>
<path opacity="0.2" d="M272.469 230.522H267.808V235.183H272.469V230.522Z" fill="white"/>
<path opacity="0.2" d="M298.047 235.583H293.122V240.244H298.047V235.583Z" fill="white"/>
<path opacity="0.2" d="M277.53 230.522H272.869V235.183H277.53V230.522Z" fill="white"/>
<path opacity="0.2" d="M287.653 235.583H282.991V240.244H287.653V235.583Z" fill="white"/>
<path opacity="0.2" d="M292.714 235.583H288.052V240.244H292.714V235.583Z" fill="white"/>
<path opacity="0.2" d="M267.408 235.583H262.482V240.244H267.408V235.583Z" fill="white"/>
<path opacity="0.2" d="M267.408 230.522H262.482V235.183H267.408V230.522Z" fill="white"/>
<path opacity="0.2" d="M298.047 230.522H293.122V235.183H298.047V230.522Z" fill="white"/>
<path opacity="0.2" d="M282.592 235.583H277.93V240.244H282.592V235.583Z" fill="white"/>
<path opacity="0.2" d="M287.653 230.522H282.991V235.183H287.653V230.522Z" fill="white"/>
<path opacity="0.2" d="M292.714 230.522H288.052V235.183H292.714V230.522Z" fill="white"/>
<path d="M269.702 242.835C269.702 242.835 274.42 248.432 280.248 248.432C286.077 248.432 290.787 242.835 290.787 242.835C290.787 242.835 286.069 237.238 280.248 237.238C274.428 237.238 269.702 242.835 269.702 242.835Z" stroke="white" stroke-linecap="round" stroke-linejoin="round"/>
<path d="M283.935 242.036C283.936 242.764 283.722 243.476 283.318 244.082C282.915 244.688 282.34 245.161 281.668 245.44C280.995 245.719 280.255 245.793 279.541 245.651C278.827 245.51 278.171 245.159 277.656 244.644C277.141 244.129 276.791 243.473 276.649 242.759C276.507 242.045 276.581 241.305 276.86 240.632C277.139 239.96 277.612 239.386 278.218 238.982C278.824 238.579 279.537 238.364 280.265 238.366C281.238 238.366 282.171 238.752 282.86 239.44C283.548 240.129 283.935 241.062 283.935 242.036Z" stroke="white" stroke-miterlimit="10"/>
<path d="M280.672 240.42C280.671 240.184 280.739 239.953 280.869 239.756C280.999 239.559 281.185 239.405 281.402 239.314C281.62 239.223 281.86 239.198 282.091 239.243C282.323 239.288 282.536 239.401 282.703 239.567C282.871 239.733 282.985 239.946 283.032 240.177C283.078 240.408 283.055 240.648 282.965 240.866C282.875 241.085 282.723 241.271 282.526 241.402C282.33 241.534 282.1 241.604 281.864 241.604C281.549 241.604 281.247 241.479 281.024 241.258C280.801 241.036 280.675 240.735 280.672 240.42Z" stroke="white" stroke-miterlimit="10"/>
<path d="M280.265 237.23V233.472" stroke="white" stroke-linecap="round" stroke-linejoin="round"/>
<path d="M283.535 237.502L284.878 234.448" stroke="white" stroke-linecap="round" stroke-linejoin="round"/>
<path d="M286.677 238.893L288.556 236.662" stroke="white" stroke-linecap="round" stroke-linejoin="round"/>
<path d="M289.196 240.612L291.011 239.405" stroke="white" stroke-linecap="round" stroke-linejoin="round"/>
<path d="M276.986 237.502L275.643 234.448" stroke="white" stroke-linecap="round" stroke-linejoin="round"/>
<path d="M273.844 238.893L271.965 236.662" stroke="white" stroke-linecap="round" stroke-linejoin="round"/>
<path d="M271.326 240.612L269.511 239.405" stroke="white" stroke-linecap="round" stroke-linejoin="round"/>
<path d="M225.918 276.737C225.75 276.742 225.587 276.793 225.446 276.885C225.305 276.977 225.192 277.105 225.119 277.257H203.858C203.35 277.259 202.863 277.462 202.503 277.821C202.144 278.18 201.941 278.667 201.939 279.176V300.996C201.939 301.293 201.821 301.577 201.611 301.787C201.401 301.997 201.117 302.115 200.82 302.115H192.28V302.915H200.82C201.328 302.913 201.815 302.71 202.174 302.35C202.534 301.991 202.737 301.504 202.739 300.996V279.176C202.739 278.879 202.857 278.594 203.066 278.384C203.276 278.174 203.561 278.056 203.858 278.056H225.071C225.14 278.21 225.249 278.342 225.387 278.439C225.525 278.535 225.686 278.593 225.854 278.605C226.022 278.618 226.191 278.585 226.341 278.509C226.492 278.434 226.62 278.32 226.711 278.178C226.802 278.036 226.853 277.873 226.859 277.704C226.864 277.536 226.825 277.369 226.743 277.221C226.662 277.074 226.543 276.951 226.397 276.866C226.252 276.78 226.087 276.736 225.918 276.737Z" fill="#194E7E"/>
<path opacity="0.4" d="M225.918 276.737C225.75 276.742 225.587 276.793 225.446 276.885C225.305 276.977 225.192 277.105 225.119 277.257H203.858C203.35 277.259 202.863 277.462 202.503 277.821C202.144 278.18 201.941 278.667 201.939 279.176V300.996C201.939 301.293 201.821 301.577 201.611 301.787C201.401 301.997 201.117 302.115 200.82 302.115H192.28V302.915H200.82C201.328 302.913 201.815 302.71 202.174 302.35C202.534 301.991 202.737 301.504 202.739 300.996V279.176C202.739 278.879 202.857 278.594 203.066 278.384C203.276 278.174 203.561 278.056 203.858 278.056H225.071C225.14 278.21 225.249 278.342 225.387 278.439C225.525 278.535 225.686 278.593 225.854 278.605C226.022 278.618 226.191 278.585 226.341 278.509C226.492 278.434 226.62 278.32 226.711 278.178C226.802 278.036 226.853 277.873 226.859 277.704C226.864 277.536 226.825 277.369 226.743 277.221C226.662 277.074 226.543 276.951 226.397 276.866C226.252 276.78 226.087 276.736 225.918 276.737Z" fill="white"/>
<path d="M190.13 284.333H159.77C158.582 284.333 157.619 285.296 157.619 286.484V318.538C157.619 319.726 158.582 320.689 159.77 320.689H190.13C191.317 320.689 192.28 319.726 192.28 318.538V286.484C192.28 285.296 191.317 284.333 190.13 284.333Z" fill="#194E7E"/>
<path opacity="0.4" d="M190.13 284.333H159.77C158.582 284.333 157.619 285.296 157.619 286.484V318.538C157.619 319.726 158.582 320.689 159.77 320.689H190.13C191.317 320.689 192.28 319.726 192.28 318.538V286.484C192.28 285.296 191.317 284.333 190.13 284.333Z" fill="white"/>
<path opacity="0.2" d="M177.281 305.241H172.619V309.903H177.281V305.241Z" fill="white"/>
<path opacity="0.2" d="M182.342 290.058H177.68V294.719H182.342V290.058Z" fill="white"/>
<path opacity="0.2" d="M172.211 310.311H167.55V314.972H172.211V310.311Z" fill="white"/>
<path opacity="0.2" d="M182.342 295.119H177.68V299.78H182.342V295.119Z" fill="white"/>
<path opacity="0.2" d="M182.342 300.18H177.68V304.842H182.342V300.18Z" fill="white"/>
<path opacity="0.2" d="M177.281 295.119H172.619V299.78H177.281V295.119Z" fill="white"/>
<path opacity="0.2" d="M177.281 284.733H172.619V289.658H177.281V284.733Z" fill="white"/>
<path opacity="0.2" d="M172.211 305.241H167.55V309.903H172.211V305.241Z" fill="white"/>
<path opacity="0.2" d="M177.281 290.058H172.619V294.719H177.281V290.058Z" fill="white"/>
<path opacity="0.2" d="M177.281 310.311H172.619V314.972H177.281V310.311Z" fill="white"/>
<path opacity="0.2" d="M182.342 310.311H177.68V314.972H182.342V310.311Z" fill="white"/>
<path opacity="0.2" d="M177.281 300.18H172.619V304.842H177.281V300.18Z" fill="white"/>
<path opacity="0.2" d="M182.342 284.733H177.68V289.658H182.342V284.733Z" fill="white"/>
<path opacity="0.2" d="M162.097 305.241H158.019V309.903H162.097V305.241Z" fill="white"/>
<path opacity="0.2" d="M162.097 290.058H158.019V294.719H162.097V290.058Z" fill="white"/>
<path opacity="0.2" d="M162.097 300.18H158.019V304.842H162.097V300.18Z" fill="white"/>
<path opacity="0.2" d="M162.097 295.119H158.019V299.78H162.097V295.119Z" fill="white"/>
<path opacity="0.2" d="M182.342 305.241H177.68V309.903H182.342V305.241Z" fill="white"/>
<path opacity="0.2" d="M187.803 289.658H191.881V286.46C191.881 285.995 191.696 285.55 191.368 285.221C191.039 284.893 190.594 284.709 190.129 284.709H187.803V289.658Z" fill="white"/>
<path opacity="0.2" d="M187.403 290.058H182.742V294.719H187.403V290.058Z" fill="white"/>
<path opacity="0.2" d="M162.097 310.311H158.019V314.972H162.097V310.311Z" fill="white"/>
<path opacity="0.2" d="M187.403 295.119H182.742V299.78H187.403V295.119Z" fill="white"/>
<path opacity="0.2" d="M187.403 300.18H182.742V304.842H187.403V300.18Z" fill="white"/>
<path opacity="0.2" d="M187.403 305.241H182.742V309.903H187.403V305.241Z" fill="white"/>
<path opacity="0.2" d="M187.403 310.311H182.742V314.972H187.403V310.311Z" fill="white"/>
<path opacity="0.2" d="M191.881 310.311H187.803V314.972H191.881V310.311Z" fill="white"/>
<path opacity="0.2" d="M187.403 284.733H182.742V289.658H187.403V284.733Z" fill="white"/>
<path opacity="0.2" d="M177.281 315.372H172.619V320.297H177.281V315.372Z" fill="white"/>
<path opacity="0.2" d="M182.342 315.372H177.68V320.297H182.342V315.372Z" fill="white"/>
<path opacity="0.2" d="M191.881 300.18H187.803V304.842H191.881V300.18Z" fill="white"/>
<path opacity="0.2" d="M187.403 315.372H182.742V320.297H187.403V315.372Z" fill="white"/>
<path opacity="0.2" d="M191.881 305.241H187.803V309.903H191.881V305.241Z" fill="white"/>
<path opacity="0.2" d="M162.089 315.372H158.019V318.57C158.021 319.032 158.205 319.474 158.532 319.8C158.858 320.127 159.3 320.311 159.762 320.313H162.089V315.372Z" fill="white"/>
<path opacity="0.2" d="M187.803 315.372V320.289H190.129C190.593 320.289 191.037 320.106 191.365 319.779C191.693 319.453 191.878 319.009 191.881 318.546V315.348L187.803 315.372Z" fill="white"/>
<path opacity="0.2" d="M162.089 289.658V284.733H159.762C159.299 284.735 158.856 284.92 158.529 285.248C158.202 285.576 158.019 286.021 158.019 286.484V289.682L162.089 289.658Z" fill="white"/>
<path opacity="0.2" d="M191.881 295.119H187.803V299.78H191.881V295.119Z" fill="white"/>
<path opacity="0.2" d="M191.881 290.058H187.803V294.719H191.881V290.058Z" fill="white"/>
<path opacity="0.2" d="M167.15 300.18H162.489V304.842H167.15V300.18Z" fill="white"/>
<path opacity="0.2" d="M167.15 310.311H162.489V314.972H167.15V310.311Z" fill="white"/>
<path opacity="0.2" d="M172.211 284.733H167.55V289.658H172.211V284.733Z" fill="white"/>
<path opacity="0.2" d="M167.15 305.241H162.489V309.903H167.15V305.241Z" fill="white"/>
<path opacity="0.2" d="M172.211 295.119H167.55V299.78H172.211V295.119Z" fill="white"/>
<path opacity="0.2" d="M172.211 290.058H167.55V294.719H172.211V290.058Z" fill="white"/>
<path opacity="0.2" d="M172.211 315.372H167.55V320.297H172.211V315.372Z" fill="white"/>
<path opacity="0.2" d="M167.15 315.372H162.489V320.297H167.15V315.372Z" fill="white"/>
<path opacity="0.2" d="M167.15 284.733H162.489V289.658H167.15V284.733Z" fill="white"/>
<path opacity="0.2" d="M172.211 300.18H167.55V304.842H172.211V300.18Z" fill="white"/>
<path opacity="0.2" d="M167.15 295.119H162.489V299.78H167.15V295.119Z" fill="white"/>
<path opacity="0.2" d="M167.15 290.058H162.489V294.719H167.15V290.058Z" fill="white"/>
<path d="M174.946 314.612C172.702 314.61 170.551 313.719 168.964 312.133C167.376 310.547 166.483 308.397 166.479 306.153V298.877C166.479 296.631 167.371 294.477 168.959 292.89C170.547 291.302 172.7 290.409 174.946 290.409C177.192 290.409 179.345 291.302 180.933 292.89C182.521 294.477 183.413 296.631 183.413 298.877V306.153C183.409 308.397 182.515 310.547 180.928 312.133C179.341 313.719 177.19 314.61 174.946 314.612ZM174.946 291.217C172.914 291.219 170.966 292.027 169.529 293.462C168.092 294.898 167.282 296.845 167.278 298.877V306.153C167.278 308.187 168.086 310.137 169.524 311.575C170.962 313.013 172.912 313.821 174.946 313.821C176.98 313.821 178.93 313.013 180.368 311.575C181.806 310.137 182.614 308.187 182.614 306.153V298.877C182.61 296.845 181.8 294.898 180.363 293.462C178.925 292.027 176.978 291.219 174.946 291.217Z" fill="white"/>
<path d="M178.768 301.524C179.262 301.524 179.663 300.979 179.663 300.308C179.663 299.637 179.262 299.093 178.768 299.093C178.273 299.093 177.872 299.637 177.872 300.308C177.872 300.979 178.273 301.524 178.768 301.524Z" fill="white"/>
<path d="M172.02 300.308C172.02 300.972 171.62 301.516 171.124 301.516C170.628 301.516 170.229 300.972 170.229 300.308C170.229 299.645 170.628 299.093 171.124 299.093C171.62 299.093 172.02 299.637 172.02 300.308Z" fill="white"/>
<path d="M174.994 301.515L173.307 305.841H174.994V301.515Z" fill="white"/>
<path d="M174.642 308.84C173.879 308.88 173.117 308.76 172.403 308.488L172.747 307.768C172.747 307.768 174.178 308.4 177.233 307.768L177.401 308.568C176.493 308.755 175.569 308.847 174.642 308.84Z" fill="white"/>
<path d="M407.212 231.225H320.099C317.834 231.225 315.998 233.062 315.998 235.327V322.44C315.998 324.706 317.834 326.542 320.099 326.542H407.212C409.478 326.542 411.314 324.706 411.314 322.44V235.327C411.314 233.062 409.478 231.225 407.212 231.225Z" fill="#194E7E"/>
<path opacity="0.5" d="M397.354 289.978H329.958C327.914 289.978 326.256 291.635 326.256 293.68V306.009C326.256 308.054 327.914 309.711 329.958 309.711H397.354C399.399 309.711 401.056 308.054 401.056 306.009V293.68C401.056 291.635 399.399 289.978 397.354 289.978Z" fill="white"/>
<path d="M339.625 299.852L341.808 301.036L340.864 302.675L338.617 301.356L338.657 303.754H336.778V301.308L334.571 302.627L333.668 301.036L335.851 299.852L333.668 298.653L334.627 297.006L336.834 298.333V295.887H338.713L338.673 298.333L340.88 297.006L341.864 298.653L339.625 299.852Z" fill="white"/>
<path d="M352.586 299.852L354.769 301.036L353.793 302.675L351.586 301.356V303.754H349.707V301.308L347.508 302.627L346.541 300.988L348.724 299.804L346.541 298.605L347.508 296.958L349.707 298.285V295.839H351.586V298.285L353.793 296.958L354.769 298.605L352.586 299.852Z" fill="white"/>
<path d="M365.555 299.852L367.738 301.036L366.754 302.675L364.555 301.356L364.595 303.754H362.708V301.308L360.501 302.627L359.542 300.988L361.725 299.804L359.542 298.605L360.501 296.958L362.708 298.285V295.839H364.595L364.555 298.285L366.754 296.958L367.738 298.605L365.555 299.852Z" fill="white"/>
<path d="M378.524 299.852L380.707 301.036L379.723 302.675L377.516 301.356L377.556 303.754H375.677V301.308L373.479 302.627L372.519 300.988L374.702 299.804L372.519 298.605L373.479 296.958L375.677 298.285V295.839H377.556L377.516 298.285L379.723 296.958L380.707 298.605L378.524 299.852Z" fill="white"/>
<path d="M391.485 299.852L393.636 301.036L392.66 302.675L390.485 301.356L390.525 303.754H388.646V301.308L386.44 302.675L385.472 301.036L387.655 299.852L385.472 298.653L386.44 297.006L388.638 298.333V295.887H390.517L390.477 298.333L392.684 297.006L393.66 298.653L391.485 299.852Z" fill="white"/>
<path opacity="0.5" d="M378.764 275.831C387.11 267.485 387.11 253.953 378.764 245.606C370.417 237.26 356.885 237.26 348.538 245.606C340.192 253.953 340.192 267.485 348.538 275.831C356.885 284.178 370.417 284.178 378.764 275.831Z" fill="white"/>
<path d="M372.047 259.522H355.336C355.035 259.521 354.736 259.58 354.457 259.695C354.178 259.81 353.925 259.979 353.711 260.192C353.498 260.405 353.329 260.659 353.214 260.938C353.099 261.216 353.04 261.515 353.042 261.817V271.995C353.042 272.604 353.283 273.188 353.714 273.618C354.144 274.048 354.728 274.29 355.336 274.29H372.047C372.656 274.29 373.24 274.048 373.67 273.618C374.1 273.188 374.342 272.604 374.342 271.995V261.817C374.343 261.515 374.284 261.216 374.17 260.938C374.055 260.659 373.886 260.405 373.672 260.192C373.459 259.979 373.206 259.81 372.927 259.695C372.648 259.58 372.349 259.521 372.047 259.522ZM365.227 270.852H362.157L362.796 266.686C362.385 266.484 362.053 266.148 361.857 265.734C361.66 265.319 361.61 264.851 361.714 264.404C361.817 263.957 362.069 263.558 362.429 263.273C362.788 262.988 363.233 262.833 363.692 262.833C364.15 262.833 364.596 262.988 364.955 263.273C365.314 263.558 365.566 263.957 365.67 264.404C365.774 264.851 365.723 265.319 365.527 265.734C365.33 266.148 364.999 266.484 364.587 266.686L365.227 270.852Z" fill="#194E7E"/>
<path d="M358.839 257.891L358.527 256.292C358.259 254.953 358.533 253.562 359.291 252.425C360.048 251.289 361.226 250.499 362.565 250.231C363.904 249.963 365.295 250.238 366.431 250.995C367.568 251.752 368.357 252.93 368.625 254.269L368.937 255.828L371.888 255.236L371.568 253.637C371.376 252.57 370.973 251.552 370.383 250.642C369.793 249.732 369.027 248.949 368.131 248.338C367.235 247.728 366.226 247.303 365.163 247.087C364.1 246.871 363.005 246.87 361.941 247.082C360.878 247.295 359.868 247.718 358.97 248.326C358.071 248.933 357.304 249.714 356.711 250.623C356.118 251.531 355.713 252.548 355.518 253.615C355.323 254.682 355.343 255.777 355.577 256.836L355.888 258.435L358.839 257.891Z" fill="#194E7E"/>
<path opacity="0.2" d="M375.566 316.819H351.739C351.459 316.819 351.19 316.708 350.992 316.51C350.794 316.312 350.683 316.044 350.683 315.764C350.685 315.485 350.797 315.219 350.995 315.023C351.193 314.826 351.46 314.716 351.739 314.716H375.566C375.844 314.716 376.111 314.826 376.309 315.023C376.507 315.219 376.619 315.485 376.621 315.764C376.621 316.044 376.51 316.312 376.312 316.51C376.114 316.708 375.846 316.819 375.566 316.819Z" fill="black"/>
<path d="M296.64 316.379L304.828 309.423C304.828 309.423 311.8 302.035 313.271 301.875C314.742 301.715 317.917 302.347 318.756 303.402C319.596 304.458 313.303 311.318 311.824 312.581C310.345 313.845 307.394 313.637 307.394 313.637L299.591 321.177L296.64 316.379Z" fill="#EBB376"/>
<path d="M233.474 502.135H225.559C225.43 502.139 225.307 502.185 225.207 502.265C225.107 502.346 225.037 502.458 225.007 502.583L223.72 508.388C223.667 508.638 223.716 508.899 223.856 509.113C223.995 509.327 224.213 509.477 224.463 509.531H224.671C227.23 509.491 229.101 509.331 232.315 509.331C234.298 509.331 240.271 509.539 243.005 509.539C245.74 509.539 246.1 506.837 244.98 506.589C239.959 505.493 236.185 503.982 234.586 502.535C234.28 502.265 233.882 502.122 233.474 502.135Z" fill="#263238"/>
<path d="M267.04 501.935H259.125C258.995 501.936 258.87 501.981 258.77 502.062C258.67 502.144 258.6 502.257 258.573 502.383L257.286 508.18C257.233 508.43 257.282 508.691 257.422 508.905C257.561 509.119 257.779 509.27 258.029 509.323H258.237C260.804 509.283 262.667 509.123 265.881 509.123C267.864 509.123 273.837 509.331 276.571 509.331C279.306 509.331 279.665 506.629 278.546 506.381C273.525 505.286 269.751 503.774 268.152 502.327C267.845 502.06 267.447 501.92 267.04 501.935Z" fill="#263238"/>
<path d="M229.276 355.422H263.858C267.144 373.373 276.547 446.037 269.167 502.647L257.621 503.91C257.621 503.91 259.428 416.917 249.098 389.132C247.906 404.004 246.491 419.82 245.268 428.239C242.261 448.964 235.481 502.959 235.481 502.959L223.775 503.279C223.775 503.279 226.342 450.899 227.461 430.518C228.701 408.426 229.228 359.956 229.276 355.422Z" fill="#263238"/>
<path opacity="0.2" d="M229.276 355.422H263.858C267.144 373.373 276.547 446.037 269.167 502.647L257.621 503.91C257.621 503.91 259.428 416.917 249.098 389.132C247.906 404.004 246.491 419.82 245.268 428.239C242.261 448.964 235.481 502.959 235.481 502.959L223.775 503.279C223.775 503.279 226.342 450.899 227.461 430.518C228.701 408.426 229.228 359.956 229.276 355.422Z" fill="white"/>
<path opacity="0.2" d="M249.098 389.132C250.799 394.003 252.091 399.007 252.96 404.092C253.927 390.859 250.057 376.827 250.057 376.827L249.098 389.132Z" fill="black"/>
<path d="M260.699 295.591C266.161 296.254 276.915 321.081 281.025 323.296C285.134 325.511 301.43 311.59 301.43 311.59L305.539 316.651C305.539 316.651 287.037 336.425 279.761 334.242C272.485 332.059 262.171 313.365 259.044 307.512C255.918 301.659 260.699 295.591 260.699 295.591Z" fill="#194E7E"/>
<path opacity="0.5" d="M305.54 316.651C305.54 316.651 287.038 336.417 279.762 334.242C276.563 333.274 272.837 329.173 269.367 324.375C265.585 318.975 262.14 313.346 259.053 307.52C258.378 306.186 258.012 304.717 257.982 303.223C257.952 301.728 258.257 300.245 258.877 298.885C259.344 297.723 259.959 296.626 260.708 295.623C266.169 296.286 276.923 321.121 281.033 323.336C285.143 325.55 301.438 311.63 301.438 311.63L305.54 316.651Z" fill="white"/>
<path opacity="0.2" d="M269.359 324.335C265.577 318.935 262.132 313.306 259.044 307.48C258.37 306.146 258.004 304.677 257.974 303.183C257.943 301.688 258.249 300.206 258.868 298.845C261.979 302.675 268.303 311.87 269.359 324.335Z" fill="black"/>
<path d="M260.7 295.591C260.7 295.591 238.703 294.551 222.32 298.685C222.32 298.685 228.461 346.267 228.189 366.992L267.368 364.881C267.368 364.881 266.417 316.971 260.7 295.591Z" fill="#194E7E"/>
<path opacity="0.6" d="M228.189 366.992C228.317 357.357 227.054 341.918 225.671 328.149C225.143 322.896 224.599 317.883 224.072 313.533C223.072 304.778 222.289 298.693 222.289 298.693C238.672 294.559 260.668 295.599 260.668 295.599C266.385 316.979 267.376 364.889 267.376 364.889L228.189 366.992Z" fill="white"/>
<path opacity="0.2" d="M225.67 328.141C225.143 322.888 224.599 317.875 224.071 313.525L226.59 311.59C226.59 311.59 228.813 320.257 225.67 328.141Z" fill="black"/>
<path opacity="0.2" d="M260.412 346.931L258.261 347.035L252.424 347.307L248.842 347.475L241.382 347.826C241.382 347.826 241.382 347.459 241.342 346.787C241.278 345.34 241.15 342.477 240.934 338.871C240.782 336.185 240.574 333.082 240.319 329.836C240.135 327.597 239.935 325.295 239.703 323.016C239.359 319.634 238.959 316.291 238.488 313.285C238.24 311.686 237.968 310.159 237.688 308.784L256.246 307.576C256.246 307.576 256.486 308.752 256.846 310.774C257.086 312.102 257.373 313.797 257.685 315.78C259.358 326.082 260.269 336.494 260.412 346.931Z" fill="black"/>
<path opacity="0.2" d="M252.424 347.323L248.842 347.491C251.392 341.006 252.392 331.867 250.681 329.021C248.362 325.167 245.515 332.555 243.485 341.414C243.104 343.326 242.372 345.15 241.326 346.795C241.262 345.348 241.134 342.485 240.918 338.879C242.062 336.98 242.927 334.925 243.485 332.779C246.339 322.76 248.874 320.969 252.136 323.6C255.142 326.006 256.022 337.68 252.424 347.323Z" fill="black"/>
<path opacity="0.2" d="M258.261 347.051C258.989 338.551 257.869 324.231 255.375 319.826C252.52 314.772 246.22 314.66 243.189 323.823C242.524 325.962 241.558 327.994 240.319 329.86C240.135 327.621 239.935 325.319 239.703 323.04C240.556 321.972 241.318 320.836 241.982 319.642C245.436 313.525 250.777 310.679 256.054 314.237C256.671 314.679 257.211 315.219 257.653 315.836C259.334 326.119 260.256 336.512 260.412 346.931L258.261 347.051Z" fill="black"/>
<path opacity="0.2" d="M256.838 310.806C252.688 307.672 247.083 308.52 243.501 311.486C242.133 312.724 240.331 313.371 238.488 313.285C238.24 311.686 237.968 310.159 237.688 308.784L256.246 307.576C256.246 307.576 256.478 308.752 256.838 310.806Z" fill="black"/>
<path d="M235.162 297.038C238.32 299.908 246.06 298.845 246.06 298.845C246.06 298.845 250.857 297.526 249.874 296.014C247.027 295.543 245.652 294.215 245.076 292.52C244.76 291.466 244.662 290.359 244.788 289.266C244.833 288.657 244.914 288.051 245.028 287.451L235.433 280.367C236.721 285.044 238.256 293.648 235.162 297.038Z" fill="#EBB376"/>
<path opacity="0.2" d="M237.672 284.868C238.056 290.609 242.773 292.193 245.084 292.52C244.767 291.466 244.67 290.359 244.796 289.266L237.672 284.868Z" fill="black"/>
<path d="M251.657 265.495C251.657 265.495 254.327 274.13 250.145 278.232C245.964 282.334 243.501 265.887 243.501 265.887L251.657 265.495Z" fill="#263238"/>
<path d="M237.584 287.291C238.785 288.6 240.382 289.478 242.13 289.79C243.878 290.102 245.68 289.831 247.259 289.018C249.324 288.01 250.926 286.251 251.737 284.101C251.851 283.802 251.949 283.498 252.032 283.189C253.528 277.448 252.832 267.894 246.603 265.207C245.228 264.609 243.722 264.372 242.229 264.52C240.736 264.668 239.306 265.196 238.074 266.052C236.842 266.909 235.85 268.066 235.192 269.414C234.534 270.762 234.232 272.256 234.314 273.754C234.562 280.167 234.402 283.957 237.584 287.291Z" fill="#EBB376"/>
<path d="M244.021 275.769C243.973 276.281 244.276 276.721 244.62 276.721C244.964 276.721 245.244 276.305 245.26 275.785C245.276 275.266 244.996 274.834 244.66 274.834C244.324 274.834 244.037 275.218 244.021 275.769Z" fill="#263238"/>
<path d="M249.93 275.865C249.882 276.377 250.194 276.817 250.529 276.817C250.865 276.817 251.153 276.401 251.169 275.881C251.185 275.362 250.905 274.93 250.569 274.93C250.234 274.93 249.946 275.37 249.93 275.865Z" fill="#263238"/>
<path d="M248.05 276.081C248.635 277.694 249.442 279.217 250.449 280.607C250.083 280.855 249.668 281.021 249.231 281.093C248.795 281.165 248.348 281.141 247.922 281.023L248.05 276.081Z" fill="#D58745"/>
<path d="M242.221 273.794C242.277 273.804 242.335 273.798 242.388 273.779C242.441 273.759 242.489 273.726 242.525 273.682C242.756 273.374 243.055 273.124 243.399 272.952C243.744 272.78 244.123 272.69 244.508 272.691C244.59 272.698 244.671 272.672 244.733 272.62C244.796 272.567 244.836 272.492 244.844 272.411C244.847 272.371 244.843 272.331 244.83 272.293C244.818 272.255 244.798 272.219 244.772 272.189C244.746 272.159 244.714 272.134 244.679 272.115C244.643 272.097 244.604 272.086 244.564 272.083C244.078 272.069 243.595 272.172 243.156 272.383C242.718 272.595 242.337 272.909 242.046 273.299C241.995 273.36 241.971 273.439 241.979 273.519C241.986 273.598 242.025 273.671 242.085 273.722C242.128 273.752 242.173 273.776 242.221 273.794Z" fill="#263238"/>
<path d="M252.512 273.874C252.569 273.894 252.631 273.894 252.688 273.874C252.725 273.859 252.758 273.836 252.786 273.807C252.814 273.779 252.836 273.745 252.851 273.708C252.866 273.671 252.873 273.631 252.872 273.591C252.872 273.551 252.863 273.511 252.848 273.475C252.652 273.027 252.352 272.632 251.972 272.324C251.592 272.017 251.144 271.805 250.665 271.708C250.585 271.696 250.505 271.717 250.44 271.764C250.376 271.812 250.333 271.884 250.321 271.963C250.312 272.043 250.333 272.122 250.381 272.186C250.428 272.25 250.498 272.293 250.577 272.307C250.953 272.395 251.303 272.571 251.599 272.82C251.895 273.068 252.128 273.383 252.28 273.738C252.307 273.776 252.341 273.808 252.381 273.831C252.421 273.855 252.466 273.869 252.512 273.874Z" fill="#263238"/>
<path d="M239.183 265.839L239.607 268.653C239.136 268.896 238.773 269.307 238.591 269.804C238.408 270.302 238.42 270.85 238.624 271.34C239.599 273.738 238.352 277.424 236.569 278.944C236.569 278.944 236.481 277.92 235.617 278.184C234.754 278.448 235.137 283.781 236.912 286.332C234.657 284.001 233.045 281.125 232.235 277.984C230.756 272.811 230.908 268.973 231.923 266.926L239.183 265.839Z" fill="#263238"/>
<path d="M248.41 282.59C248.143 283.332 247.932 284.094 247.779 284.868C247.64 284.876 247.501 284.876 247.363 284.868C245.476 284.789 244.628 284.125 244.261 283.413C244.09 283.062 244.005 282.676 244.013 282.286C244.011 282.064 244.04 281.844 244.101 281.63C245.239 282.204 246.489 282.523 247.763 282.566C248.162 282.59 248.41 282.59 248.41 282.59Z" fill="#263238"/>
<path d="M247.763 282.55L247.563 283.221C245.788 283.133 244.548 282.838 244.013 282.27C244.011 282.048 244.041 281.827 244.101 281.614C245.239 282.188 246.489 282.507 247.763 282.55Z" fill="white"/>
<path d="M247.363 284.852C245.476 284.773 244.628 284.109 244.26 283.397C244.978 283.444 245.682 283.617 246.339 283.909C246.772 284.107 247.13 284.437 247.363 284.852Z" fill="#DE5753"/>
<path d="M243.413 267.59C243.619 267.31 243.915 267.11 244.252 267.024C244.589 266.938 244.945 266.971 245.26 267.118C246.611 267.51 247.802 268.869 249.194 270.596C250.585 272.323 253.335 272.331 253.991 271.308C254.647 270.284 253.359 268.853 253.359 268.853C253.359 268.853 254.543 262.289 247.387 260.785C240.23 259.282 236.464 262.449 236.464 262.449C236.464 262.449 230.524 262.648 230.068 268.141C229.913 270.372 230.048 272.614 230.468 274.81C230.468 274.81 228.869 276.817 231.875 276.697C235.289 276.561 239.391 274.706 239.591 271.388C239.791 268.07 243.413 267.59 243.413 267.59Z" fill="#263238"/>
<path d="M231.403 278.968C232.087 280.433 233.323 281.568 234.841 282.126C236.856 282.846 238.04 281.078 237.592 279.096C237.192 277.329 235.681 274.778 233.594 274.93C231.507 275.082 230.588 277.145 231.403 278.968Z" fill="#EBB376"/>
<path d="M222.32 298.685C216.587 300.356 208.576 339.367 209.631 344.428C210.687 349.49 230.82 370.814 230.82 370.814L236.417 366.568C236.417 366.568 219.306 342.341 219.098 337.28C218.89 332.219 226.686 313.453 226.686 313.453C226.686 313.453 226.478 307.128 225.631 303.962C225.036 301.931 223.89 300.105 222.32 298.685Z" fill="#194E7E"/>
<path opacity="0.5" d="M222.32 298.685C216.587 300.356 208.576 339.367 209.631 344.428C210.687 349.49 230.82 370.814 230.82 370.814L236.417 366.568C236.417 366.568 219.306 342.341 219.098 337.28C218.89 332.219 226.686 313.453 226.686 313.453C226.686 313.453 226.478 307.128 225.631 303.962C225.036 301.931 223.89 300.105 222.32 298.685Z" fill="white"/>
</svg>
