<svg width="19" height="22" viewBox="0 0 19 22" fill="none" xmlns="http://www.w3.org/2000/svg">
<g clip-path="url(#clip0_0_727)">
<path fill-rule="evenodd" clip-rule="evenodd" d="M9.46785 0C13.01 2.28272 16.2051 3.3623 18.9582 3.10628C19.166 7.38525 18.6059 10.9033 17.3923 13.7142C17.0482 13.4386 16.6704 13.2093 16.2685 13.0321C17.2373 10.6867 17.6776 7.77734 17.5015 4.25928C15.1818 4.47591 12.471 3.56104 9.47313 1.62744C6.86982 3.67741 4.19956 4.27718 1.46943 4.13216C1.34789 8.81755 2.15813 12.3535 3.72399 14.9137C4.88122 13.9308 6.8522 14.0776 7.77516 12.7653C7.82411 12.7086 7.85806 12.6403 7.8738 12.5666C7.8738 12.5433 6.86101 11.2811 6.76942 11.1343C6.53163 10.7493 6.08424 10.2248 6.08424 9.7736C6.0938 9.62914 6.14549 9.49085 6.2327 9.37637C6.31991 9.2619 6.4387 9.17642 6.5739 9.13086C6.55277 8.74772 6.53868 8.361 6.53868 7.97787C6.53868 7.75049 6.53868 7.52132 6.55101 7.29574C6.56347 7.17937 6.58827 7.06472 6.62498 6.95378C6.7976 6.37824 7.17418 5.88828 7.68181 5.57878C7.86378 5.46405 8.0575 5.3698 8.25954 5.29769C8.62591 5.16162 8.44801 4.58154 8.84961 4.56722C9.78666 4.54216 11.3296 5.37467 11.9303 6.03711C12.3128 6.43486 12.5352 6.96362 12.5538 7.51953L12.515 9.18815C12.604 9.20633 12.6869 9.2475 12.7557 9.30771C12.8245 9.36792 12.8769 9.44513 12.9078 9.5319C13.0364 10.0583 12.4992 10.7135 12.2491 11.1325C12.0183 11.5192 11.1376 12.5755 11.1376 12.5827C11.1376 12.6292 11.1553 12.6847 11.2169 12.7778C11.3589 12.9746 11.5293 13.1485 11.7224 13.2935C11.3535 13.5089 11.0126 13.7705 10.7079 14.0723L10.6515 14.1242C9.77866 15.0113 9.25346 16.1911 9.17404 17.4432C9.09462 18.6952 9.46642 19.9339 10.22 20.9276C9.9857 21.0314 9.74791 21.1299 9.50484 21.223C3.37172 18.9492 -0.254965 13.3758 0.0145265 2.95768C3.23961 3.13672 6.40305 2.42057 9.46785 0Z" fill="white"/>
<path fill-rule="evenodd" clip-rule="evenodd" d="M14.2459 13.5513C15.0681 13.5509 15.872 13.7984 16.5558 14.2625C17.2396 14.7265 17.7727 15.3863 18.0876 16.1584C18.4025 16.9304 18.4851 17.78 18.3249 18.5997C18.1647 19.4195 17.7689 20.1725 17.1876 20.7636C16.6064 21.3547 15.8657 21.7573 15.0593 21.9205C14.2529 22.0836 13.417 22.0001 12.6573 21.6803C11.8977 21.3606 11.2483 20.819 10.7915 20.1241C10.3347 19.4293 10.0908 18.6123 10.0908 17.7765C10.0913 16.6564 10.5291 15.5822 11.3082 14.79C12.0873 13.9977 13.1439 13.5522 14.2459 13.5513ZM13.0587 17.1642L13.6876 17.7622L15.3239 16.0667C15.4683 15.9181 15.5599 15.7982 15.7378 15.9844L16.3138 16.5859C16.504 16.7757 16.4899 16.8885 16.3138 17.0658L14.0169 19.37C13.64 19.7459 13.7052 19.7692 13.323 19.3825L12.09 18.1292C12.0731 18.1114 12.06 18.0901 12.0516 18.0669C12.0431 18.0436 12.0396 18.0188 12.0411 17.9941C12.0425 17.9694 12.0491 17.9452 12.0602 17.9232C12.0714 17.9011 12.0869 17.8817 12.1058 17.866L12.7769 17.1606C12.8773 17.0514 12.9531 17.0604 13.0623 17.1606L13.0587 17.1642Z" fill="white"/>
</g>
<defs>
<clipPath id="clip0_0_727">
<rect width="19" height="22" fill="white"/>
</clipPath>
</defs>
</svg>
