<svg width="73" height="67" viewBox="0 0 73 67" fill="none" xmlns="http://www.w3.org/2000/svg">
<path d="M25.1924 58.3076L26.7659 58.2508C31.1539 58.121 34.0171 64.7396 37.3102 64.7396H63.2653C66.5096 64.7396 67.1423 59.9622 67.1017 57.9831C67.1017 57.9831 71.1086 56.1906 69.2755 48.9718C70.0438 48.2454 70.6476 47.3628 71.0464 46.3834C71.4451 45.4041 71.6295 44.3507 71.5871 43.2942C71.6234 42.2736 71.4491 41.2564 71.0751 40.3061C70.7012 39.3558 70.1355 38.4927 69.4134 37.7706C70.7883 36.1257 71.5558 34.0581 71.5871 31.9145C71.5871 28.4268 68.5212 26.4396 65.2606 26.4396H55.7302C47.4245 26.4396 48.1221 22.0596 48.1221 22.0596C48.1221 22.0596 47.1812 10.5989 44.2613 5.35105C40.5951 -1.28372 33.2547 0.930579 35.98 9.49576C38.0158 15.8061 28.6801 25.3121 25.3059 28.516" fill="#FFDAC6"/>
<path d="M21.9807 24.0793H4.80979C1.5654 24.0793 1.45996 26.5126 1.45996 29.4893V56.9855C1.45996 59.9703 1.55729 62.3874 4.80979 62.3874H21.9807C25.2251 62.3874 25.3305 59.9541 25.3305 56.9855V29.4893C25.3305 26.5044 25.2413 24.0793 21.9807 24.0793Z" fill="#FF8898"/>
<path d="M13.3993 56.2555C15.0836 56.2555 16.4491 54.8901 16.4491 53.2057C16.4491 51.5214 15.0836 50.156 13.3993 50.156C11.715 50.156 10.3496 51.5214 10.3496 53.2057C10.3496 54.8901 11.715 56.2555 13.3993 56.2555Z" fill="#FFEB97"/>
<path d="M63.2251 66.1995H37.3106C35.2098 66.1995 33.5065 64.5124 31.8519 62.8821C30.1972 61.2518 28.6075 59.6378 26.8312 59.7108L25.2739 59.7594L25.1441 56.8476L26.7014 56.7989C29.67 56.6529 31.9168 58.8834 33.8634 60.8057C35.0963 62.0224 36.3697 63.239 37.27 63.239H63.2251C63.4232 63.2435 63.6199 63.2053 63.8018 63.1269C63.9838 63.0485 64.1467 62.9318 64.2795 62.7848C65.3015 61.7466 65.6259 59.2809 65.5935 57.975V57.0017L66.4857 56.6042C66.5749 56.5556 69.3164 55.1037 67.8321 49.3044L67.5401 48.177L68.4242 47.7065C69.535 46.4869 70.1182 44.8774 70.0464 43.2293C70.0832 42.4229 69.9586 41.6172 69.6801 40.8596C69.4015 40.1019 68.9746 39.4075 68.4242 38.8169L67.2643 37.8355L68.2944 36.7162C69.4158 35.3386 70.0439 33.6255 70.0789 31.8496C70.0789 29.0919 67.5563 27.8347 65.2123 27.8347H55.7306C51.9346 27.8347 49.2418 26.9587 47.7899 25.2391C47.0063 24.3451 46.5993 23.1823 46.6544 21.9948C46.5408 20.77 45.5594 10.6394 42.9882 5.99182C41.512 3.38009 39.4762 2.54466 38.2271 3.0962C36.978 3.64775 36.2805 5.66738 37.3754 9.05777C39.5492 15.8061 31.3733 24.8174 26.3121 29.5866L24.333 27.4291C30.2378 21.865 36.0452 14.3461 34.6177 9.92564C32.8495 4.45074 34.8448 1.36857 37.051 0.395253C39.4843 -0.642951 43.1099 0.233034 45.527 4.59673C48.5605 10.0554 49.5257 21.4189 49.5824 21.8974V22.0759V22.2462C49.5929 22.6867 49.7696 23.1068 50.0772 23.4223C50.5882 23.9901 52.0157 24.939 55.7549 24.939H65.2123C69.649 24.939 72.9988 27.9158 72.9988 31.8739C72.9775 33.9303 72.3666 35.9374 71.2387 37.657C72.4117 39.288 73.0288 41.253 72.9988 43.2617C73.0339 45.5137 72.2662 47.7047 70.8332 49.4423C72.0174 55.1199 69.8031 57.7479 68.4972 58.778C68.4242 60.2217 68.0592 63.1336 66.364 64.8693C65.9586 65.2926 65.4712 65.6289 64.9315 65.8576C64.3918 66.0863 63.8112 66.2026 63.2251 66.1995Z" fill="#576065"/>
<path d="M21.9807 63.8473H4.8098C0 63.8473 0 59.7189 0 56.9855V29.4893C0 26.7559 0 22.6193 4.8098 22.6193H21.9807C26.7905 22.6193 26.7905 26.7559 26.7905 29.4893V56.9855C26.7662 59.7189 26.7662 63.8473 21.9807 63.8473ZM4.8098 25.5392C3.27683 25.5392 2.91995 25.9042 2.91995 29.4893V56.9855C2.91995 60.5624 3.27683 60.9274 4.8098 60.9274H21.9807C23.5137 60.9274 23.8706 60.5624 23.8706 56.9855V29.4893C23.8706 25.9042 23.5137 25.5392 21.9807 25.5392H4.8098Z" fill="#576065"/>
</svg>
