<svg width="23" height="16" viewBox="0 0 23 16" fill="none" xmlns="http://www.w3.org/2000/svg">
<path fill-rule="evenodd" clip-rule="evenodd" d="M2.68786 2.68424V13.1652H11.4328C11.4421 13.1388 11.4534 13.1125 11.4646 13.0861L11.4814 13.0447L12.0991 11.5388H6.03645C6.03645 10.56 5.33454 9.86918 4.4885 9.87671V5.73553C4.89165 5.72566 5.27474 5.55662 5.55495 5.26497C5.83516 4.97331 5.98997 4.58247 5.98592 4.17694H17.385C17.385 5.15765 18.0888 5.84659 18.9386 5.84094V7.11529C19.0378 7.04565 19.1257 6.97224 19.2268 6.89882C19.8973 6.38867 20.4201 5.70761 20.7411 4.92612L20.7261 2.68235L2.68786 2.68424ZM13.1361 13.7205L15.4683 8.05082L16.3705 10.0273C19.2231 9.46259 21.8716 7.60094 22.5829 5.06541C24.0803 9.06541 21.2989 12.5402 18.1674 13.9727L19.092 16L13.1361 13.7205ZM13.7893 6.77647C13.5717 6.3615 13.2373 6.02017 12.828 5.79506C12.4187 5.56996 11.9526 5.47105 11.4877 5.51069C11.0229 5.55032 10.5799 5.72673 10.2141 6.01792C9.84834 6.30911 9.57592 6.70217 9.43085 7.14807C9.28578 7.59396 9.27449 8.07295 9.39839 8.52525C9.52229 8.97756 9.77589 9.38316 10.1276 9.69145C10.4792 9.99973 10.9134 10.1971 11.3758 10.2588C11.8383 10.3205 12.3086 10.2439 12.728 10.0386L13.7987 7.43718C13.8411 7.33395 13.8931 7.23499 13.954 7.14165C13.9138 7.01166 13.8618 6.88564 13.7987 6.76518L13.7893 6.77647ZM0 0V9.76376H1.24098V2.65224C1.23794 2.49198 1.2682 2.33285 1.3298 2.18502C1.3914 2.03718 1.48301 1.90391 1.59875 1.79371C1.71449 1.68352 1.85183 1.59882 2.00198 1.54505C2.15213 1.49127 2.31178 1.4696 2.47073 1.48141H17.0911L17.0799 0H0Z" fill="white"/>
</svg>
