<svg width="38" height="43" viewBox="0 0 38 43" fill="none" xmlns="http://www.w3.org/2000/svg">
<path d="M19 2H8.8C6.41979 2 5.22966 2 4.32054 2.47231C3.52084 2.88775 2.87068 3.55066 2.46323 4.36604C2 5.29299 2 6.50645 2 8.93333V34.0667C2 36.4935 2 37.7071 2.46323 38.634C2.87068 39.4493 3.52084 40.1123 4.32054 40.5277C5.22966 41 6.41979 41 8.8 41H16.875M19 2L31.75 15M19 2V11.5333C19 12.7468 19 13.3535 19.2316 13.817C19.4354 14.2247 19.7603 14.5561 20.1602 14.7639C20.6148 15 21.2098 15 22.4 15H31.75M31.75 15V19.3333M10.5 32.3333H14.75M10.5 23.6667H19M10.5 15H12.625M32.3208 37.2486L36 41M33.875 33.4167C33.875 36.4082 31.4965 38.8333 28.5625 38.8333C25.6285 38.8333 23.25 36.4082 23.25 33.4167C23.25 30.4252 25.6285 28 28.5625 28C31.4965 28 33.875 30.4252 33.875 33.4167Z" stroke="#FF914D" stroke-width="2.5" stroke-linecap="round" stroke-linejoin="round"/>
</svg>
