<svg width="35" height="35" viewBox="0 0 35 35" fill="none" xmlns="http://www.w3.org/2000/svg">
<path d="M17.5 0C14.0388 0 10.6554 1.02636 7.77753 2.94928C4.89967 4.87221 2.65665 7.60533 1.33212 10.803C0.00758245 14.0007 -0.338976 17.5194 0.336265 20.9141C1.01151 24.3087 2.67822 27.4269 5.12564 29.8744C7.57306 32.3218 10.6913 33.9885 14.0859 34.6637C17.4806 35.339 20.9993 34.9924 24.197 33.6679C27.3947 32.3433 30.1278 30.1003 32.0507 27.2225C33.9736 24.3446 35 20.9612 35 17.5C34.9948 12.8603 33.1493 8.41216 29.8686 5.1314C26.5878 1.85065 22.1397 0.00522737 17.5 0ZM17.5 32.5C13.5218 32.5 9.70645 30.9196 6.8934 28.1066C4.08036 25.2936 2.50001 21.4782 2.50001 17.5C2.50001 13.5218 4.08036 9.70644 6.8934 6.8934C9.70645 4.08035 13.5218 2.5 17.5 2.5V17.5L28.1015 28.1017C26.7112 29.497 25.0589 30.6038 23.2396 31.3585C21.4202 32.1133 19.4697 32.5012 17.5 32.5Z" fill="#FF914C"/>
</svg>
