<svg width="21" height="20" viewBox="0 0 21 20" fill="none" xmlns="http://www.w3.org/2000/svg">
<path fill-rule="evenodd" clip-rule="evenodd" d="M16.2572 4.33073C16.7725 4.83366 16.7825 5.64583 16.2805 6.13737L16.0087 6.40267L18.1934 8.49902L12.6682 13.6943L10.5402 11.5426L2.24493 19.6383C1.74295 20.1283 0.909084 20.1185 0.393757 19.6156C-0.12157 19.1126 -0.131576 18.3005 0.370409 17.8089L8.69569 9.68392L7.02964 7.99284L12.253 2.7959L14.1225 4.58626L14.4093 4.30631C14.9096 3.81803 15.7418 3.8278 16.2572 4.33073ZM12.0261 0.305663C12.4364 0.706054 12.4447 1.35221 12.0445 1.74284L5.95229 7.68848C5.55203 8.0791 4.88995 8.07096 4.47968 7.67057C4.06942 7.27018 4.06109 6.62402 4.46134 6.2334L10.5535 0.287759C10.9538 -0.102866 11.6159 -0.0947276 12.0261 0.305663ZM20.6866 8.75781C21.0969 9.1582 21.1052 9.80436 20.705 10.195L14.6128 16.1423C14.2125 16.5329 13.5504 16.5247 13.1402 16.1243C12.7299 15.724 12.7216 15.0778 13.1218 14.6872L19.214 8.74154C19.6143 8.34928 20.2764 8.35742 20.6866 8.75781Z" fill="white"/>
</svg>
