<svg width="35" height="35" viewBox="0 0 35 35" fill="none" xmlns="http://www.w3.org/2000/svg">
<path d="M34.5727 23.807C34.2992 23.5336 33.9284 23.38 33.5417 23.38C33.155 23.38 32.7841 23.5336 32.5106 23.807L24.3046 32.0147L20.3846 28.1456C20.1138 27.8681 19.7439 27.7095 19.3563 27.7048C18.9686 27.7 18.5949 27.8494 18.3174 28.1201C18.0399 28.3909 17.8813 28.7608 17.8765 29.1485C17.8717 29.5361 18.0211 29.9099 18.2919 30.1874L22.2935 34.125C22.5446 34.3956 22.8477 34.6126 23.1848 34.763C23.5219 34.9134 23.8859 34.994 24.255 35H24.3031C24.6649 35.0012 25.0233 34.9305 25.3575 34.7921C25.6917 34.6536 25.9951 34.4502 26.25 34.1935L34.5727 25.8691C34.8461 25.5957 34.9997 25.2248 34.9997 24.8381C34.9997 24.4514 34.8461 24.0805 34.5727 23.807ZM16.1729 32.0235C13.3569 31.7661 10.6765 30.6957 8.45793 28.9423C6.23937 27.189 4.57837 24.8285 3.67715 22.1482C2.77593 19.4679 2.67337 16.5834 3.38196 13.8458C4.09054 11.1082 5.5797 8.63574 7.66815 6.72929C9.75659 4.82285 12.3542 3.5647 15.1448 3.10802C17.9354 2.65134 20.7986 3.01583 23.3858 4.15711C25.973 5.29839 28.1725 7.16723 29.7168 9.53613C31.261 11.905 32.0832 14.6718 32.0833 17.4996C32.0833 17.9473 32.0615 18.3906 32.0235 18.8281C32.0057 19.0193 32.0258 19.2122 32.0827 19.3956C32.1395 19.579 32.2321 19.7494 32.355 19.897C32.4779 20.0446 32.6287 20.1664 32.7988 20.2555C32.9689 20.3446 33.155 20.3993 33.3462 20.4163C33.5374 20.4355 33.7305 20.4164 33.9141 20.36C34.0978 20.3036 34.2683 20.211 34.4157 20.0878C34.5631 19.9646 34.6844 19.8132 34.7724 19.6424C34.8605 19.4717 34.9136 19.2851 34.9285 19.0936C34.9752 18.5642 35 18.0348 35 17.4996C34.9998 14.1061 34.0131 10.7859 32.1599 7.94314C30.3067 5.10041 27.667 2.8578 24.5622 1.48834C21.4575 0.118885 18.0215 -0.318333 14.6727 0.229916C11.3239 0.778166 8.20672 2.28823 5.70069 4.57626C3.19465 6.86429 1.40787 9.83159 0.557887 13.1169C-0.2921 16.4022 -0.168624 19.8637 0.913281 23.0801C1.99519 26.2964 3.98885 29.1289 6.65153 31.2325C9.31422 33.3362 12.5311 34.6203 15.9104 34.9285C15.9556 34.9285 15.9994 34.9285 16.0431 34.9285C16.4299 34.9457 16.8077 34.8086 17.0933 34.5473C17.379 34.2859 17.5491 33.9218 17.5664 33.5351C17.5836 33.1483 17.4464 32.7705 17.1851 32.4848C16.9238 32.1992 16.5597 32.029 16.1729 32.0118V32.0235ZM16.0417 10.2077V16.8958L12.094 20.8436C11.9547 20.9781 11.8436 21.139 11.7671 21.317C11.6907 21.4949 11.6505 21.6863 11.6488 21.8799C11.6471 22.0736 11.684 22.2656 11.7573 22.4448C11.8307 22.624 11.939 22.7869 12.0759 22.9238C12.2128 23.0607 12.3756 23.169 12.5549 23.2424C12.7341 23.3157 12.9261 23.3526 13.1198 23.3509C13.3134 23.3492 13.5048 23.309 13.6827 23.2326C13.8606 23.1561 14.0215 23.045 14.156 22.9057L18.531 18.5306C18.8046 18.2572 18.9583 17.8863 18.9583 17.4996V10.2077C18.9583 9.82093 18.8047 9.44998 18.5312 9.17649C18.2577 8.90299 17.8868 8.74934 17.5 8.74934C17.1132 8.74934 16.7423 8.90299 16.4688 9.17649C16.1953 9.44998 16.0417 9.82093 16.0417 10.2077Z" fill="#FF914C"/>
</svg>
