<svg width="19" height="22" viewBox="0 0 19 22" fill="none" xmlns="http://www.w3.org/2000/svg">
<path fill-rule="evenodd" clip-rule="evenodd" d="M9.46761 0C13.0097 2.28272 16.2049 3.3623 18.9579 3.10628C19.1658 7.38525 18.6056 10.9033 17.3921 13.7142C17.0479 13.4386 16.6702 13.2093 16.2683 13.0321C17.2371 10.6867 17.6774 7.77734 17.5013 4.25928C15.1815 4.47591 12.4708 3.56104 9.47289 1.62744C6.86957 3.67741 4.19932 4.27718 1.46918 4.13216C1.34765 8.81755 2.15788 12.3535 3.72375 14.9137C4.88097 13.9308 6.85196 14.0776 7.77492 12.7653C7.82387 12.7086 7.85781 12.6403 7.87356 12.5666C7.87356 12.5433 6.86076 11.2811 6.76917 11.1343C6.53139 10.7493 6.084 10.2248 6.084 9.7736C6.09356 9.62914 6.14524 9.49085 6.23245 9.37637C6.31967 9.2619 6.43845 9.17642 6.57366 9.13086C6.55252 8.74772 6.53843 8.361 6.53843 7.97787C6.53843 7.75049 6.53843 7.52132 6.55076 7.29574C6.56322 7.17937 6.58803 7.06472 6.62474 6.95378C6.79735 6.37824 7.17394 5.88828 7.68157 5.57878C7.86354 5.46405 8.05726 5.3698 8.2593 5.29769C8.62567 5.16162 8.44777 4.58154 8.84936 4.56722C9.78642 4.54216 11.3294 5.37467 11.93 6.03711C12.3125 6.43486 12.535 6.96362 12.5535 7.51953L12.5148 9.18815C12.6038 9.20633 12.6867 9.2475 12.7555 9.30771C12.8243 9.36792 12.8767 9.44513 12.9076 9.5319C13.0362 10.0583 12.4989 10.7135 12.2488 11.1325C12.0181 11.5192 11.1374 12.5755 11.1374 12.5827C11.1374 12.6292 11.155 12.6847 11.2167 12.7778C11.3586 12.9746 11.529 13.1485 11.7222 13.2935C11.3533 13.5089 11.0124 13.7705 10.7076 14.0723L10.6513 14.1242C9.77841 15.0113 9.25321 16.1911 9.1738 17.4432C9.09438 18.6952 9.46618 19.9339 10.2197 20.9276C9.98545 21.0314 9.74767 21.1299 9.50459 21.223C3.37147 18.9492 -0.255209 13.3758 0.0142823 2.95768C3.23937 3.13672 6.40281 2.42057 9.46761 0Z" fill="white"/>
</svg>
