<svg width="555" height="750" viewBox="0 0 555 750" fill="none" xmlns="http://www.w3.org/2000/svg">
<rect width="555" height="750" fill="#D9DFE5"/>
<path d="M524.75 481.094H66.4519V481.323H524.75V481.094Z" fill="#EBEBEB"/>
<path d="M478.829 495.842H448.471V496.071H478.829V495.842Z" fill="#EBEBEB"/>
<path d="M370.047 498.335H362.082V498.564H370.047V498.335Z" fill="#EBEBEB"/>
<path d="M447.554 487.336H429.965V487.565H447.554V487.336Z" fill="#EBEBEB"/>
<path d="M154.124 488.875H114.537V489.105H154.124V488.875Z" fill="#EBEBEB"/>
<path d="M168.093 488.875H162.291V489.105H168.093V488.875Z" fill="#EBEBEB"/>
<path d="M272.824 492.743H186.957V492.973H272.824V492.743Z" fill="#EBEBEB"/>
<path d="M283.685 440.213H106.7C105.313 440.211 103.984 439.658 103.005 438.677C102.025 437.696 101.475 436.366 101.475 434.98V186.188C101.487 184.809 102.043 183.491 103.021 182.52C103.999 181.549 105.321 181.002 106.7 181H283.685C285.073 181 286.405 181.551 287.386 182.533C288.368 183.514 288.919 184.846 288.919 186.234V434.98C288.919 436.368 288.368 437.699 287.386 438.68C286.405 439.662 285.073 440.213 283.685 440.213ZM106.7 181.183C105.374 181.186 104.103 181.714 103.167 182.652C102.23 183.591 101.704 184.862 101.704 186.188V434.98C101.704 436.305 102.23 437.577 103.167 438.515C104.103 439.453 105.374 439.982 106.7 439.984H283.685C285.012 439.982 286.283 439.454 287.221 438.516C288.159 437.578 288.687 436.306 288.69 434.98V186.188C288.687 184.861 288.159 183.59 287.221 182.652C286.283 181.714 285.012 181.186 283.685 181.183H106.7Z" fill="#EBEBEB"/>
<path d="M481.954 440.213H304.959C303.572 440.211 302.242 439.659 301.261 438.678C300.28 437.697 299.728 436.367 299.726 434.98V186.188C299.74 184.809 300.298 183.49 301.277 182.519C302.257 181.548 303.58 181.002 304.959 181H481.954C483.331 181.005 484.651 181.552 485.627 182.523C486.603 183.494 487.157 184.811 487.169 186.188V434.98C487.169 436.365 486.621 437.693 485.643 438.674C484.665 439.655 483.339 440.208 481.954 440.213ZM304.959 181.183C303.633 181.186 302.361 181.714 301.423 182.652C300.485 183.59 299.957 184.861 299.955 186.188V434.98C299.957 436.306 300.485 437.578 301.423 438.516C302.361 439.454 303.633 439.982 304.959 439.984H481.954C483.281 439.982 484.552 439.454 485.49 438.516C486.428 437.578 486.956 436.306 486.959 434.98V186.188C486.956 184.861 486.428 183.59 485.49 182.652C484.552 181.714 483.281 181.186 481.954 181.183H304.959Z" fill="#EBEBEB"/>
<path d="M270.569 298.993H127.085V480.681H270.569V298.993Z" fill="#F0F0F0"/>
<path d="M265.491 305.62H132.154V344.475H265.491V305.62Z" fill="#E0E0E0"/>
<path d="M139.725 311.908H132.154V344.466H139.725V311.908Z" fill="#EBEBEB"/>
<path d="M176.352 311.908H168.781V344.466H176.352V311.908Z" fill="#EBEBEB"/>
<path d="M217.929 311.082L210.468 312.368L215.998 344.452L223.459 343.166L217.929 311.082Z" fill="#EBEBEB"/>
<path d="M149.111 316.198H141.54V344.466H149.111V316.198Z" fill="#EBEBEB"/>
<path d="M166.517 316.198H158.946V344.466H166.517V316.198Z" fill="#EBEBEB"/>
<path d="M210.458 316.198H202.887V344.466H210.458V316.198Z" fill="#EBEBEB"/>
<path d="M186.298 315.224L178.907 316.866L185.04 344.461L192.431 342.818L186.298 315.224Z" fill="#EBEBEB"/>
<path d="M155.664 310.286H151.879V344.466H155.664V310.286Z" fill="#EBEBEB"/>
<path d="M200.715 310.286H196.929V344.466H200.715V310.286Z" fill="#EBEBEB"/>
<path d="M132.153 389.471H265.491V350.616H132.153V389.471Z" fill="#E0E0E0"/>
<path d="M257.92 389.471H265.491V356.913H257.92V389.471Z" fill="#EBEBEB"/>
<path d="M221.292 389.471H228.864V356.913H221.292V389.471Z" fill="#EBEBEB"/>
<path d="M174.187 388.189L181.648 389.475L187.178 357.391L179.717 356.105L174.187 388.189Z" fill="#EBEBEB"/>
<path d="M248.524 389.471H256.095V361.203H248.524V389.471Z" fill="#EBEBEB"/>
<path d="M231.127 389.471H238.698V361.203H231.127V389.471Z" fill="#EBEBEB"/>
<path d="M187.177 389.471H194.748V361.203H187.177V389.471Z" fill="#EBEBEB"/>
<path d="M205.224 387.821L212.615 389.464L218.747 361.869L211.357 360.227L205.224 387.821Z" fill="#EBEBEB"/>
<path d="M241.98 389.471H245.766V355.291H241.98V389.471Z" fill="#EBEBEB"/>
<path d="M196.929 389.471H200.715V355.291H196.929V389.471Z" fill="#EBEBEB"/>
<path d="M139.725 356.913H132.154V389.471H139.725V356.913Z" fill="#EBEBEB"/>
<path d="M149.111 361.203H141.54V389.471H149.111V361.203Z" fill="#EBEBEB"/>
<path d="M166.517 361.203H158.946V389.471H166.517V361.203Z" fill="#EBEBEB"/>
<path d="M155.664 355.291H151.879V389.471H155.664V355.291Z" fill="#EBEBEB"/>
<path d="M265.491 395.621H132.154V434.475H265.491V395.621Z" fill="#E0E0E0"/>
<path d="M216.251 401.909H208.68V434.466H216.251V401.909Z" fill="#EBEBEB"/>
<path d="M257.835 401.089L250.374 402.375L255.905 434.459L263.366 433.173L257.835 401.089Z" fill="#EBEBEB"/>
<path d="M189.01 406.208H181.439V434.475H189.01V406.208Z" fill="#EBEBEB"/>
<path d="M206.425 406.208H198.854V434.475H206.425V406.208Z" fill="#EBEBEB"/>
<path d="M250.367 406.208H242.796V434.475H250.367V406.208Z" fill="#EBEBEB"/>
<path d="M226.214 405.229L218.823 406.871L224.956 434.466L232.346 432.823L226.214 405.229Z" fill="#EBEBEB"/>
<path d="M195.564 400.296H191.778V434.475H195.564V400.296Z" fill="#EBEBEB"/>
<path d="M240.614 400.296H236.829V434.475H240.614V400.296Z" fill="#EBEBEB"/>
<path d="M170.696 401.097L163.235 402.383L168.766 434.467L176.227 433.181L170.696 401.097Z" fill="#EBEBEB"/>
<path d="M163.226 406.208H155.655V434.475H163.226V406.208Z" fill="#EBEBEB"/>
<path d="M139.068 405.234L131.677 406.876L137.81 434.471L145.2 432.828L139.068 405.234Z" fill="#EBEBEB"/>
<path d="M153.474 400.296H149.688V434.475H153.474V400.296Z" fill="#EBEBEB"/>
<path d="M346.27 372.229H427.132C429.221 372.229 431.289 372.642 433.218 373.442C435.147 374.243 436.899 375.416 438.374 376.895C439.849 378.374 441.017 380.13 441.812 382.061C442.608 383.993 443.014 386.062 443.008 388.151V451.286H330.431V388.151C330.422 383.939 332.085 379.897 335.055 376.911C338.025 373.926 342.059 372.242 346.27 372.229Z" fill="#E6E6E6"/>
<path d="M306.49 419.031H320.954C322.198 419.026 323.43 419.267 324.58 419.74C325.73 420.213 326.776 420.908 327.657 421.786C328.537 422.664 329.236 423.708 329.712 424.857C330.188 426.006 330.433 427.237 330.432 428.481V480.727H297.049V428.481C297.048 427.24 297.291 426.012 297.765 424.865C298.239 423.719 298.934 422.677 299.811 421.799C300.688 420.922 301.729 420.225 302.875 419.75C304.021 419.275 305.249 419.031 306.49 419.031Z" fill="#E0E0E0"/>
<path d="M306.49 419.031H306.792C308.033 419.031 309.261 419.275 310.408 419.75C311.554 420.225 312.595 420.922 313.471 421.799C314.348 422.677 315.043 423.719 315.517 424.865C315.991 426.012 316.235 427.24 316.233 428.481V480.727H297.049V428.481C297.048 427.24 297.291 426.012 297.765 424.865C298.239 423.719 298.934 422.677 299.811 421.799C300.688 420.922 301.729 420.225 302.875 419.75C304.021 419.275 305.249 419.031 306.49 419.031Z" fill="#EBEBEB"/>
<path d="M431.23 456.694H320.267V480.681H431.23V456.694Z" fill="#E6E6E6"/>
<path d="M427.124 434.76H320.111C314.811 434.76 310.514 439.056 310.514 444.356V450.323C310.514 455.624 314.811 459.92 320.111 459.92H427.124C432.424 459.92 436.72 455.624 436.72 450.323V444.356C436.72 439.056 432.424 434.76 427.124 434.76Z" fill="#F5F5F5"/>
<path d="M426.94 434.76H413.677C408.377 434.76 404.08 439.056 404.08 444.356V450.323C404.08 455.624 408.377 459.92 413.677 459.92H426.94C432.24 459.92 436.537 455.624 436.537 450.323V444.356C436.537 439.056 432.24 434.76 426.94 434.76Z" fill="#E0E0E0"/>
<path d="M428.379 419.031H442.852C444.092 419.031 445.32 419.275 446.466 419.751C447.611 420.226 448.652 420.922 449.528 421.8C450.404 422.678 451.098 423.719 451.571 424.866C452.044 426.012 452.286 427.241 452.284 428.481V480.727H418.947V428.481C418.945 427.241 419.187 426.012 419.66 424.866C420.133 423.719 420.827 422.678 421.703 421.8C422.579 420.922 423.62 420.226 424.765 419.751C425.911 419.275 427.139 419.031 428.379 419.031Z" fill="#E0E0E0"/>
<path d="M428.379 419.031H428.691C429.931 419.031 431.159 419.275 432.304 419.751C433.45 420.226 434.49 420.922 435.366 421.8C436.243 422.678 436.937 423.719 437.41 424.866C437.883 426.012 438.125 427.241 438.122 428.481V480.727H418.947V428.481C418.945 427.241 419.187 426.012 419.66 424.866C420.133 423.719 420.827 422.678 421.703 421.8C422.579 420.922 423.62 420.226 424.765 419.751C425.911 419.275 427.139 419.031 428.379 419.031Z" fill="#F0F0F0"/>
<path d="M204.176 276.907C215.943 274.997 223.934 263.909 222.024 252.141C220.114 240.374 209.026 232.383 197.259 234.293C185.491 236.203 177.5 247.291 179.41 259.058C181.32 270.826 192.408 278.817 204.176 276.907Z" fill="#E0E0E0"/>
<path d="M203.659 273.722C213.667 272.097 220.464 262.667 218.839 252.658C217.215 242.65 207.784 235.853 197.775 237.478C187.767 239.102 180.97 248.533 182.595 258.541C184.219 268.55 193.65 275.347 203.659 273.722Z" fill="#F0F0F0"/>
<path d="M199.844 268.205V255.373L191.347 260.185" fill="#F0F0F0"/>
<path d="M199.844 269.122C199.601 269.122 199.368 269.025 199.196 268.853C199.024 268.681 198.927 268.448 198.927 268.205V256.94L191.796 260.982C191.585 261.101 191.335 261.131 191.101 261.066C190.867 261 190.669 260.845 190.55 260.634C190.43 260.423 190.399 260.174 190.462 259.941C190.526 259.707 190.679 259.508 190.889 259.387L199.395 254.575C199.534 254.497 199.692 254.456 199.852 254.458C200.011 254.459 200.168 254.502 200.306 254.583C200.444 254.663 200.559 254.779 200.639 254.917C200.718 255.056 200.76 255.213 200.761 255.373V268.205C200.761 268.448 200.664 268.681 200.492 268.853C200.32 269.025 200.087 269.122 199.844 269.122Z" fill="#E0E0E0"/>
<path d="M459.314 228.37H321.137V350.983H459.314V228.37Z" fill="#E6E6E6"/>
<path d="M455.675 231.734H324.593V347.692H455.675V231.734Z" fill="#F0F0F0"/>
<path d="M355.354 231.734L324.593 347.436V293.072L340.835 231.734H355.354Z" fill="white"/>
<path d="M366.252 231.734L335.216 347.692H330.267L361.303 231.734H366.252Z" fill="white"/>
<path d="M455.675 304.905V323.43L449.397 347.692H444.447L455.675 304.905Z" fill="white"/>
<path d="M370.313 229.653H368.104V350.286H370.313V229.653Z" fill="#E6E6E6"/>
<path d="M413.109 229.653H410.9V350.286H413.109V229.653Z" fill="#E6E6E6"/>
<path d="M295.601 522.487C393.753 522.487 473.32 517.842 473.32 512.111C473.32 506.381 393.753 501.735 295.601 501.735C197.45 501.735 117.882 506.381 117.882 512.111C117.882 517.842 197.45 522.487 295.601 522.487Z" fill="#F5F5F5"/>
<path d="M434.831 489.187C434.831 489.187 439.185 479.691 434.208 470.324C429.231 460.956 427.792 458.756 430.963 456.831C434.135 454.906 435.592 464.329 435.592 464.329C437.16 460.074 437.321 455.428 436.051 451.075C433.851 444.301 432.467 433.266 435.473 432.083C438.479 430.901 436.051 445.832 438.672 450.947C440.001 447.367 440.861 443.629 441.229 439.828C441.587 434.384 441.028 425.694 443.402 423.467C445.776 421.24 447.306 422.78 444.969 434.787C443.564 441.965 442.788 449.252 442.65 456.565C442.65 456.565 447.81 440.809 451.284 440.351C454.758 439.893 454.749 444.989 451.779 449.416C448.81 453.843 443.081 461.772 442.146 465.851C442.146 465.851 447.82 453.99 452.916 457.601C458.012 461.213 448.48 468.39 444.227 470.984C439.974 473.577 437.022 489.783 437.022 489.783L434.831 489.187Z" fill="#194E7E"/>
<path opacity="0.2" d="M434.831 489.187C434.831 489.187 439.185 479.691 434.208 470.324C429.231 460.956 427.792 458.756 430.963 456.831C434.135 454.906 435.592 464.329 435.592 464.329C437.16 460.074 437.321 455.428 436.051 451.075C433.851 444.301 432.467 433.266 435.473 432.083C438.479 430.901 436.051 445.832 438.672 450.947C440.001 447.367 440.861 443.629 441.229 439.828C441.587 434.384 441.028 425.694 443.402 423.467C445.776 421.24 447.306 422.78 444.969 434.787C443.564 441.965 442.788 449.252 442.65 456.565C442.65 456.565 447.81 440.809 451.284 440.351C454.758 439.893 454.749 444.989 451.779 449.416C448.81 453.843 443.081 461.772 442.146 465.851C442.146 465.851 447.82 453.99 452.916 457.601C458.012 461.213 448.48 468.39 444.227 470.984C439.974 473.577 437.022 489.783 437.022 489.783L434.831 489.187Z" fill="black"/>
<path d="M438.269 493.083C438.269 493.083 434.025 483.523 439.112 474.228C444.199 464.934 445.666 462.752 442.522 460.791C439.378 458.829 437.801 468.215 437.801 468.215C436.282 463.944 436.176 459.298 437.499 454.961C439.781 448.215 441.303 437.198 438.305 435.97C435.308 434.741 437.563 449.718 434.886 454.787C433.599 451.189 432.782 447.44 432.457 443.632C432.164 438.188 432.833 429.508 430.478 427.244C428.122 424.98 426.582 426.501 428.782 438.545C430.099 445.737 430.786 453.03 430.835 460.342C430.835 460.342 425.858 444.512 422.402 444.008C418.947 443.504 418.883 448.591 421.797 453.064C424.712 457.537 430.34 465.548 431.257 469.636C431.257 469.636 425.757 457.72 420.587 461.258C415.418 464.796 424.895 472.111 429.112 474.769C433.328 477.427 436.096 493.678 436.096 493.678L438.269 493.083Z" fill="#194E7E"/>
<path d="M418.708 486.263H453.732L450.899 511.332H421.541L418.708 486.263Z" fill="#263238"/>
<path d="M288.818 507.308V510.599C288.818 510.696 288.799 510.793 288.761 510.883C288.724 510.973 288.67 511.055 288.601 511.124C288.532 511.193 288.45 511.247 288.36 511.285C288.27 511.322 288.173 511.341 288.076 511.341H195.114C194.322 511.341 193.541 511.147 192.84 510.775C192.14 510.403 191.542 509.866 191.097 509.209C190.653 508.552 190.377 507.796 190.293 507.008C190.208 506.22 190.319 505.423 190.614 504.687L220.073 431.726L267.681 432.047L266.059 441.515L255.555 502.789C255.476 503.254 255.5 503.73 255.624 504.184C255.748 504.639 255.969 505.061 256.273 505.421C256.576 505.781 256.955 506.071 257.381 506.27C257.808 506.47 258.273 506.574 258.744 506.575H288.076C288.173 506.574 288.269 506.592 288.359 506.628C288.449 506.664 288.531 506.718 288.6 506.786C288.669 506.855 288.724 506.936 288.761 507.025C288.799 507.115 288.818 507.211 288.818 507.308Z" fill="#263238"/>
<path opacity="0.5" d="M288.818 507.308V510.599C288.818 510.696 288.799 510.793 288.761 510.883C288.724 510.973 288.67 511.055 288.601 511.124C288.532 511.193 288.45 511.247 288.36 511.285C288.27 511.322 288.173 511.341 288.076 511.341H195.114C194.322 511.341 193.541 511.147 192.84 510.775C192.14 510.403 191.542 509.866 191.097 509.209C190.653 508.552 190.377 507.796 190.293 507.008C190.208 506.22 190.319 505.423 190.614 504.687L208.882 459.453L220.073 431.726L267.681 432.047L266.059 441.515L261.476 468.16L255.546 502.789C255.467 503.254 255.491 503.73 255.615 504.184C255.739 504.639 255.96 505.061 256.264 505.421C256.567 505.781 256.945 506.071 257.372 506.27C257.799 506.47 258.264 506.574 258.735 506.575H288.066C288.164 506.572 288.262 506.59 288.353 506.625C288.444 506.661 288.527 506.715 288.597 506.783C288.667 506.851 288.722 506.933 288.76 507.023C288.798 507.113 288.818 507.21 288.818 507.308Z" fill="white"/>
<path opacity="0.2" d="M258.744 506.566H198.249C197.901 506.565 197.558 506.478 197.25 506.313C196.943 506.149 196.681 505.911 196.488 505.621C196.294 505.332 196.174 504.999 196.139 504.652C196.104 504.305 196.155 503.955 196.288 503.633L222.117 441.506H266.05L255.546 502.78C255.467 503.245 255.491 503.722 255.615 504.177C255.74 504.632 255.962 505.055 256.267 505.415C256.571 505.776 256.951 506.065 257.379 506.264C257.806 506.463 258.273 506.566 258.744 506.566Z" fill="black"/>
<path opacity="0.1" d="M267.681 432.037L266.059 441.506L261.485 468.151L208.882 459.453L220.073 431.716L267.681 432.037Z" fill="black"/>
<path d="M360.248 296.033H139.853C139.113 296.033 138.38 296.179 137.696 296.462C137.012 296.745 136.39 297.16 135.867 297.684C135.343 298.207 134.928 298.829 134.645 299.513C134.362 300.197 134.216 300.93 134.216 301.67V450.883C134.216 452.378 134.81 453.811 135.867 454.869C136.924 455.926 138.358 456.52 139.853 456.52H360.248C361.744 456.52 363.179 455.926 364.238 454.869C365.296 453.812 365.892 452.378 365.895 450.883V301.67C365.892 300.174 365.296 298.74 364.238 297.683C363.179 296.626 361.744 296.033 360.248 296.033Z" fill="#263238"/>
<path opacity="0.6" d="M360.248 296.033H139.853C139.113 296.033 138.38 296.179 137.696 296.462C137.012 296.745 136.39 297.16 135.867 297.684C135.343 298.207 134.928 298.829 134.645 299.513C134.362 300.197 134.216 300.93 134.216 301.67V450.883C134.216 452.378 134.81 453.811 135.867 454.869C136.924 455.926 138.358 456.52 139.853 456.52H360.248C361.744 456.52 363.179 455.926 364.238 454.869C365.296 453.812 365.892 452.378 365.895 450.883V301.67C365.892 300.174 365.296 298.74 364.238 297.683C363.179 296.626 361.744 296.033 360.248 296.033Z" fill="white"/>
<path opacity="0.2" d="M144.528 456.51H139.853C138.359 456.51 136.927 455.918 135.87 454.863C134.813 453.807 134.218 452.376 134.216 450.883V301.679C134.215 300.938 134.36 300.204 134.642 299.519C134.925 298.834 135.34 298.212 135.864 297.687C136.387 297.163 137.009 296.747 137.694 296.463C138.378 296.179 139.112 296.033 139.853 296.033H144.528C143.784 296.029 143.047 296.173 142.36 296.455C141.672 296.737 141.047 297.153 140.52 297.677C139.994 298.202 139.577 298.826 139.292 299.513C139.008 300.199 138.862 300.936 138.863 301.679V450.883C138.863 451.625 139.01 452.36 139.295 453.045C139.58 453.73 139.998 454.352 140.524 454.875C141.051 455.398 141.676 455.812 142.363 456.093C143.05 456.373 143.785 456.515 144.528 456.51Z" fill="black"/>
<path d="M360.817 300.882H143.978V444.76H360.817V300.882Z" fill="#194E7E"/>
<path opacity="0.4" d="M249.404 355.648C259.802 355.648 268.231 347.219 268.231 336.821C268.231 326.424 259.802 317.994 249.404 317.994C239.006 317.994 230.577 326.424 230.577 336.821C230.577 347.219 239.006 355.648 249.404 355.648Z" fill="white"/>
<path d="M244.913 333.962V332.238C244.913 331.417 245.239 330.629 245.82 330.048C246.401 329.467 247.189 329.14 248.011 329.14H250.761C251.171 329.135 251.578 329.212 251.958 329.365C252.338 329.519 252.684 329.746 252.975 330.035C253.267 330.323 253.498 330.666 253.656 331.044C253.814 331.423 253.896 331.828 253.896 332.238V333.998H255.903V332.238C255.901 330.885 255.362 329.588 254.405 328.631C253.448 327.674 252.151 327.135 250.798 327.133H248.048C246.695 327.135 245.397 327.674 244.44 328.631C243.483 329.588 242.945 330.885 242.942 332.238V333.998L244.913 333.962Z" fill="white"/>
<path d="M240.376 336.281V345.529C240.376 345.664 240.403 345.797 240.454 345.922C240.506 346.046 240.581 346.16 240.677 346.255C240.772 346.35 240.885 346.426 241.01 346.477C241.134 346.529 241.268 346.556 241.403 346.556H257.406C257.541 346.556 257.675 346.529 257.799 346.477C257.924 346.426 258.037 346.35 258.132 346.255C258.228 346.16 258.303 346.046 258.355 345.922C258.406 345.797 258.433 345.664 258.433 345.529V336.281C258.433 336.008 258.325 335.747 258.132 335.555C257.94 335.362 257.679 335.254 257.406 335.254H241.403C241.268 335.254 241.134 335.281 241.01 335.332C240.885 335.384 240.772 335.459 240.677 335.555C240.581 335.65 240.506 335.763 240.454 335.888C240.403 336.012 240.376 336.146 240.376 336.281ZM249.982 341.514V343.348H248.854V341.514C248.69 341.423 248.551 341.29 248.451 341.13C248.352 340.969 248.295 340.786 248.286 340.598C248.286 340.294 248.407 340.002 248.622 339.788C248.837 339.573 249.128 339.452 249.432 339.452C249.736 339.452 250.027 339.573 250.242 339.788C250.457 340.002 250.578 340.294 250.578 340.598C250.566 340.789 250.505 340.974 250.401 341.135C250.296 341.295 250.152 341.426 249.982 341.514Z" fill="white"/>
<path d="M203.474 371.24H185.692C184.634 371.24 183.776 372.097 183.776 373.155V390.937C183.776 391.995 184.634 392.853 185.692 392.853H203.474C204.532 392.853 205.389 391.995 205.389 390.937V373.155C205.389 372.097 204.532 371.24 203.474 371.24Z" fill="white"/>
<path d="M230.889 371.212H213.107C212.049 371.212 211.191 372.07 211.191 373.128V390.91C211.191 391.968 212.049 392.825 213.107 392.825H230.889C231.947 392.825 232.805 391.968 232.805 390.91V373.128C232.805 372.07 231.947 371.212 230.889 371.212Z" fill="white"/>
<path d="M258.295 371.185H240.513C239.455 371.185 238.598 372.042 238.598 373.1V390.882C238.598 391.94 239.455 392.798 240.513 392.798H258.295C259.353 392.798 260.211 391.94 260.211 390.882V373.1C260.211 372.042 259.353 371.185 258.295 371.185Z" fill="white"/>
<path d="M285.702 371.148H267.92C266.862 371.148 266.004 372.006 266.004 373.064V390.845C266.004 391.904 266.862 392.761 267.92 392.761H285.702C286.76 392.761 287.617 391.904 287.617 390.845V373.064C287.617 372.006 286.76 371.148 285.702 371.148Z" fill="white"/>
<path d="M313.108 371.12H295.326C294.268 371.12 293.41 371.978 293.41 373.036V390.818C293.41 391.876 294.268 392.734 295.326 392.734H313.108C314.166 392.734 315.023 391.876 315.023 390.818V373.036C315.023 371.978 314.166 371.12 313.108 371.12Z" fill="white"/>
<path d="M299.46 382.349C299.46 378.545 301.495 376.382 304.226 376.382C306.957 376.382 308.983 378.545 308.983 382.349C308.983 386.153 306.948 388.316 304.226 388.316C301.504 388.316 299.46 386.153 299.46 382.349ZM307.315 382.349C307.315 379.361 306.041 377.867 304.226 377.867C302.411 377.867 301.128 379.361 301.128 382.349C301.128 385.337 302.393 386.831 304.226 386.831C306.059 386.831 307.315 385.328 307.315 382.349Z" fill="#263238"/>
<path d="M198.928 382.202C198.928 386.18 196.673 388.316 193.428 388.316C192.415 388.352 191.412 388.114 190.522 387.628L191.109 386.318C191.79 386.711 192.569 386.902 193.355 386.867C195.719 386.867 197.223 385.383 197.223 382.459V382.046C196.832 382.558 196.32 382.965 195.732 383.231C195.145 383.496 194.502 383.612 193.859 383.568C191.54 383.568 189.872 382.184 189.872 380.039C189.872 377.894 191.705 376.372 193.987 376.372C197.159 376.382 198.928 378.481 198.928 382.202ZM196.874 379.984C196.874 378.783 195.958 377.729 194.125 377.729C193.804 377.69 193.478 377.72 193.17 377.816C192.861 377.912 192.576 378.072 192.334 378.286C192.091 378.499 191.897 378.762 191.763 379.056C191.63 379.351 191.56 379.67 191.558 379.993C191.558 381.368 192.576 382.248 194.216 382.248C195.857 382.248 196.874 381.267 196.874 379.984Z" fill="#263238"/>
<path d="M217.232 382.349C217.232 378.545 219.267 376.382 221.998 376.382C224.729 376.382 226.755 378.545 226.755 382.349C226.755 386.153 224.72 388.316 221.998 388.316C219.276 388.316 217.232 386.153 217.232 382.349ZM225.087 382.349C225.087 379.361 223.822 377.867 221.998 377.867C220.174 377.867 218.9 379.361 218.9 382.349C218.9 385.337 220.165 386.831 221.998 386.831C223.831 386.831 225.087 385.337 225.087 382.349Z" fill="#263238"/>
<path d="M253.621 386.73V388.151H245.234V387.051L249.982 382.468C251.219 381.267 251.449 380.534 251.449 379.801C251.449 378.6 250.605 377.866 248.965 377.866C248.404 377.835 247.845 377.933 247.328 378.152C246.812 378.372 246.352 378.707 245.986 379.131L244.849 378.151C245.385 377.557 246.047 377.091 246.785 376.785C247.524 376.479 248.322 376.341 249.12 376.382C251.549 376.382 253.117 377.628 253.117 379.626C253.117 380.763 252.787 381.78 251.201 383.293L247.636 386.721L253.621 386.73Z" fill="#263238"/>
<path d="M278.186 376.51V388.151H276.536V377.967H273.896V376.51H278.186Z" fill="#263238"/>
<g opacity="0.6">
<path d="M228.9 365.96V366.372H225.719V361.872H228.799V362.284H226.196V363.888H228.515V364.319H226.196V365.987L228.9 365.96Z" fill="white"/>
<path d="M233.025 364.411V366.372H232.566V364.457C232.594 364.314 232.587 364.168 232.546 364.028C232.506 363.889 232.433 363.762 232.334 363.656C232.235 363.551 232.112 363.47 231.975 363.421C231.839 363.372 231.693 363.357 231.549 363.375C231.388 363.364 231.226 363.387 231.074 363.445C230.923 363.503 230.786 363.593 230.674 363.709C230.561 363.825 230.475 363.965 230.422 364.118C230.369 364.271 230.35 364.433 230.367 364.594V366.372H229.917V362.99H230.348V363.613C230.486 363.402 230.677 363.231 230.903 363.119C231.128 363.006 231.38 362.955 231.632 362.972C231.823 362.956 232.015 362.982 232.194 363.049C232.374 363.116 232.536 363.223 232.67 363.361C232.803 363.498 232.904 363.664 232.966 363.846C233.027 364.027 233.047 364.22 233.025 364.411Z" fill="white"/>
<path d="M236.022 366.152C235.82 366.316 235.566 366.4 235.307 366.391C235.175 366.402 235.042 366.384 234.918 366.339C234.793 366.293 234.68 366.222 234.586 366.128C234.492 366.035 234.419 365.923 234.373 365.799C234.326 365.675 234.307 365.542 234.317 365.41V363.403H233.712V363.018H234.317V362.284H234.775V363.018H235.802V363.403H234.775V365.419C234.775 365.822 234.977 366.033 235.353 366.033C235.535 366.039 235.713 365.981 235.857 365.868L236.022 366.152Z" fill="white"/>
<path d="M239.689 364.823H236.865C236.887 365.155 237.038 365.465 237.288 365.685C237.537 365.904 237.863 366.017 238.195 365.997C238.389 366.003 238.582 365.967 238.761 365.891C238.94 365.815 239.1 365.701 239.23 365.557L239.487 365.85C239.237 366.085 238.926 366.245 238.59 366.311C238.253 366.378 237.905 366.349 237.584 366.228C237.263 366.107 236.983 365.898 236.775 365.625C236.567 365.353 236.439 365.027 236.407 364.686C236.394 364.463 236.428 364.24 236.506 364.03C236.583 363.821 236.703 363.63 236.858 363.469C237.013 363.308 237.199 363.181 237.406 363.095C237.612 363.01 237.834 362.968 238.057 362.972C238.28 362.967 238.501 363.009 238.706 363.095C238.911 363.181 239.097 363.308 239.25 363.47C239.404 363.631 239.522 363.822 239.597 364.032C239.673 364.241 239.704 364.464 239.689 364.686C239.689 364.686 239.689 364.768 239.689 364.823ZM236.865 364.484H239.258C239.232 364.185 239.094 363.907 238.873 363.704C238.651 363.501 238.362 363.388 238.062 363.388C237.761 363.388 237.472 363.501 237.25 363.704C237.029 363.907 236.892 364.185 236.865 364.484Z" fill="white"/>
<path d="M242.319 362.972V363.403H242.209C242.048 363.394 241.887 363.422 241.738 363.483C241.588 363.544 241.454 363.638 241.346 363.757C241.237 363.876 241.156 364.018 241.109 364.172C241.062 364.327 241.049 364.489 241.072 364.649V366.372H240.605V362.99H241.045V363.65C241.163 363.421 241.348 363.233 241.576 363.111C241.803 362.99 242.063 362.941 242.319 362.972Z" fill="white"/>
<path d="M247.709 362.99L246.022 366.776C245.738 367.436 245.38 367.646 244.895 367.646C244.745 367.652 244.595 367.627 244.455 367.574C244.315 367.52 244.187 367.439 244.079 367.335L244.29 366.996C244.368 367.08 244.463 367.146 244.569 367.19C244.675 367.235 244.789 367.256 244.904 367.252C245.206 367.252 245.408 367.115 245.6 366.693L245.747 366.363L244.271 362.99H244.748L246.013 365.859L247.287 362.99H247.709Z" fill="white"/>
<path d="M247.938 364.686C247.936 364.345 248.036 364.011 248.224 363.726C248.412 363.441 248.681 363.219 248.995 363.087C249.31 362.955 249.657 362.92 249.992 362.985C250.327 363.051 250.634 363.214 250.876 363.455C251.118 363.696 251.283 364.003 251.351 364.337C251.418 364.672 251.384 365.019 251.254 365.334C251.124 365.649 250.903 365.919 250.619 366.109C250.336 366.299 250.002 366.4 249.661 366.4C249.433 366.409 249.206 366.371 248.993 366.288C248.781 366.205 248.588 366.079 248.426 365.918C248.264 365.758 248.138 365.565 248.054 365.353C247.97 365.141 247.93 364.914 247.938 364.686ZM250.908 364.686C250.897 364.44 250.814 364.202 250.669 364.003C250.524 363.804 250.324 363.651 250.093 363.565C249.863 363.478 249.612 363.462 249.372 363.517C249.132 363.572 248.913 363.697 248.743 363.876C248.573 364.054 248.46 364.279 248.417 364.521C248.374 364.764 248.403 365.014 248.501 365.24C248.599 365.466 248.761 365.658 248.967 365.793C249.173 365.927 249.415 365.998 249.661 365.997C249.829 365.996 249.995 365.961 250.148 365.893C250.302 365.826 250.44 365.728 250.554 365.605C250.668 365.482 250.756 365.337 250.812 365.179C250.868 365.021 250.892 364.853 250.88 364.686H250.908Z" fill="white"/>
<path d="M255.316 362.99V366.372H254.886V365.749C254.76 365.958 254.581 366.128 254.366 366.243C254.151 366.357 253.91 366.412 253.667 366.4C253.473 366.419 253.277 366.395 253.094 366.328C252.911 366.262 252.746 366.155 252.609 366.016C252.473 365.877 252.37 365.709 252.307 365.525C252.244 365.341 252.223 365.145 252.246 364.952V362.99H252.695V364.906C252.668 365.048 252.675 365.195 252.715 365.334C252.755 365.473 252.828 365.601 252.928 365.706C253.027 365.812 253.15 365.892 253.286 365.941C253.423 365.99 253.569 366.006 253.712 365.987C253.872 365.997 254.031 365.971 254.179 365.912C254.327 365.853 254.461 365.762 254.57 365.646C254.679 365.529 254.762 365.39 254.811 365.239C254.861 365.087 254.877 364.927 254.858 364.768V362.99H255.316Z" fill="white"/>
<path d="M258.295 362.972V363.403H258.185C258.024 363.394 257.863 363.422 257.714 363.483C257.564 363.544 257.431 363.638 257.322 363.757C257.213 363.876 257.132 364.018 257.085 364.172C257.038 364.327 257.025 364.49 257.049 364.649V366.372H256.59V362.99H257.03V363.65C257.148 363.422 257.331 363.235 257.557 363.114C257.783 362.993 258.04 362.943 258.295 362.972Z" fill="white"/>
<path d="M260.541 364.127C260.525 363.656 260.649 363.191 260.899 362.791C261.148 362.392 261.512 362.076 261.942 361.884C262.373 361.692 262.85 361.634 263.315 361.715C263.779 361.797 264.208 362.015 264.547 362.343C264.886 362.67 265.119 363.091 265.217 363.552C265.315 364.013 265.274 364.492 265.097 364.929C264.921 365.366 264.618 365.74 264.228 366.004C263.837 366.268 263.377 366.409 262.906 366.409C262.599 366.421 262.293 366.372 262.006 366.262C261.719 366.153 261.457 365.987 261.236 365.773C261.015 365.56 260.839 365.304 260.72 365.021C260.6 364.738 260.54 364.434 260.541 364.127ZM264.785 364.127C264.796 363.749 264.693 363.376 264.49 363.058C264.286 362.739 263.992 362.488 263.645 362.339C263.298 362.189 262.914 362.147 262.542 362.218C262.171 362.289 261.83 362.47 261.562 362.737C261.295 363.005 261.114 363.346 261.043 363.717C260.972 364.089 261.014 364.473 261.164 364.82C261.313 365.167 261.564 365.461 261.882 365.665C262.201 365.868 262.574 365.971 262.952 365.96C263.438 365.96 263.904 365.767 264.248 365.423C264.592 365.079 264.785 364.613 264.785 364.127Z" fill="white"/>
<path d="M267.131 362.284H265.555V361.872H269.221V362.284H267.635V366.372H267.159L267.131 362.284Z" fill="white"/>
<path d="M273.465 363.403C273.465 364.319 272.768 364.933 271.632 364.933H270.431V366.354H269.936V361.854H271.613C272.768 361.872 273.465 362.486 273.465 363.403ZM272.988 363.403C272.988 362.679 272.512 362.266 271.613 362.266H270.422V364.512H271.613C272.512 364.53 272.988 364.127 272.988 363.403Z" fill="white"/>
</g>
<g opacity="0.6">
<path d="M231.577 404.549L231.76 404.191C232.171 404.548 232.7 404.741 233.245 404.732C234.079 404.732 234.446 404.384 234.446 403.935C234.446 402.706 231.696 403.458 231.696 401.799C231.696 401.139 232.209 400.571 233.346 400.571C233.839 400.564 234.323 400.701 234.739 400.965L234.583 401.341C234.213 401.105 233.784 400.978 233.346 400.974C232.53 400.974 232.163 401.341 232.163 401.79C232.163 403.018 234.913 402.275 234.913 403.907C234.913 404.576 234.391 405.135 233.245 405.135C232.635 405.158 232.038 404.948 231.577 404.549Z" fill="white"/>
<path d="M238.772 403.55H235.949C235.97 403.881 236.122 404.191 236.371 404.411C236.62 404.631 236.946 404.743 237.278 404.723C237.472 404.729 237.665 404.693 237.844 404.617C238.023 404.541 238.183 404.427 238.314 404.283L238.57 404.576C238.409 404.761 238.208 404.907 237.983 405.003C237.758 405.1 237.514 405.145 237.269 405.135C237.036 405.149 236.803 405.115 236.585 405.034C236.366 404.953 236.167 404.828 236 404.666C235.833 404.503 235.701 404.308 235.613 404.092C235.526 403.877 235.484 403.645 235.491 403.412C235.479 403.189 235.514 402.967 235.592 402.758C235.67 402.549 235.79 402.359 235.945 402.198C236.099 402.037 236.285 401.91 236.491 401.824C236.696 401.738 236.918 401.695 237.14 401.698C237.364 401.692 237.586 401.733 237.792 401.819C237.999 401.904 238.185 402.031 238.34 402.192C238.494 402.354 238.613 402.546 238.689 402.756C238.765 402.966 238.797 403.189 238.781 403.412C238.781 403.412 238.772 403.504 238.772 403.55ZM235.949 403.21H238.341C238.315 402.911 238.178 402.633 237.956 402.43C237.735 402.227 237.445 402.114 237.145 402.114C236.845 402.114 236.555 402.227 236.334 402.43C236.113 402.633 235.975 402.911 235.949 403.21Z" fill="white"/>
<path d="M242.832 403.137V405.099H242.383V403.183C242.409 403.041 242.401 402.896 242.36 402.758C242.318 402.62 242.245 402.493 242.146 402.389C242.047 402.284 241.925 402.205 241.789 402.156C241.654 402.108 241.509 402.092 241.366 402.11C241.204 402.099 241.042 402.123 240.891 402.181C240.74 402.238 240.603 402.328 240.491 402.445C240.378 402.561 240.292 402.7 240.239 402.853C240.186 403.006 240.167 403.169 240.183 403.33V405.099H239.688V401.726H240.128V402.349C240.265 402.136 240.456 401.963 240.682 401.849C240.907 401.735 241.159 401.682 241.412 401.698C241.605 401.677 241.8 401.701 241.983 401.766C242.166 401.831 242.332 401.937 242.469 402.075C242.605 402.213 242.709 402.381 242.772 402.565C242.835 402.748 242.856 402.944 242.832 403.137Z" fill="white"/>
<path d="M247.168 400.332V405.099H246.728V404.429C246.594 404.653 246.402 404.836 246.174 404.96C245.945 405.084 245.687 405.145 245.426 405.135C244.992 405.104 244.586 404.909 244.29 404.59C243.994 404.271 243.829 403.852 243.829 403.417C243.829 402.981 243.994 402.562 244.29 402.243C244.586 401.925 244.992 401.73 245.426 401.698C245.68 401.689 245.931 401.746 246.156 401.863C246.381 401.981 246.572 402.154 246.71 402.367V400.332H247.168ZM246.719 403.412C246.708 403.166 246.625 402.929 246.481 402.73C246.337 402.531 246.137 402.378 245.907 402.292C245.677 402.205 245.426 402.188 245.186 402.242C244.946 402.297 244.728 402.421 244.558 402.598C244.387 402.776 244.273 403 244.229 403.242C244.185 403.484 244.213 403.733 244.309 403.959C244.406 404.186 244.566 404.379 244.772 404.514C244.977 404.65 245.217 404.723 245.463 404.723C245.634 404.726 245.803 404.693 245.96 404.628C246.117 404.562 246.259 404.465 246.377 404.342C246.495 404.219 246.586 404.072 246.645 403.912C246.704 403.753 246.729 403.582 246.719 403.412Z" fill="white"/>
<path d="M252.667 403.009V405.099H252.228V404.576C252.1 404.764 251.925 404.915 251.721 405.013C251.516 405.111 251.29 405.153 251.063 405.135C250.303 405.135 249.835 404.732 249.835 404.145C249.835 403.559 250.165 403.229 251.137 403.229H252.209V403.027C252.222 402.904 252.207 402.779 252.166 402.662C252.124 402.544 252.057 402.438 251.969 402.35C251.882 402.262 251.775 402.195 251.658 402.154C251.541 402.112 251.416 402.098 251.293 402.11C250.88 402.104 250.48 402.247 250.165 402.514L249.964 402.175C250.35 401.866 250.834 401.703 251.329 401.716C251.506 401.695 251.685 401.714 251.854 401.771C252.023 401.828 252.177 401.921 252.305 402.045C252.433 402.169 252.532 402.319 252.595 402.486C252.657 402.653 252.682 402.831 252.667 403.009ZM252.209 404.081V403.531H251.146C250.495 403.531 250.284 403.788 250.284 404.136C250.284 404.484 250.596 404.769 251.137 404.769C251.366 404.784 251.593 404.725 251.786 404.601C251.979 404.478 252.127 404.295 252.209 404.081Z" fill="white"/>
<path d="M257.04 401.726V404.649C257.076 404.879 257.057 405.114 256.985 405.335C256.913 405.556 256.79 405.757 256.625 405.922C256.461 406.086 256.26 406.209 256.039 406.281C255.818 406.353 255.583 406.372 255.353 406.336C254.783 406.358 254.224 406.176 253.777 405.823L254.006 405.474C254.382 405.778 254.852 405.94 255.335 405.933C256.197 405.933 256.582 405.548 256.582 404.714V404.283C256.437 404.494 256.24 404.665 256.011 404.778C255.781 404.892 255.527 404.946 255.271 404.934C255.046 404.95 254.819 404.921 254.606 404.846C254.393 404.772 254.198 404.654 254.032 404.5C253.867 404.347 253.735 404.161 253.644 403.954C253.554 403.747 253.508 403.523 253.508 403.297C253.508 403.072 253.554 402.848 253.644 402.641C253.735 402.434 253.867 402.248 254.032 402.095C254.198 401.941 254.393 401.823 254.606 401.749C254.819 401.674 255.046 401.644 255.271 401.661C255.531 401.649 255.79 401.704 256.023 401.821C256.256 401.938 256.455 402.114 256.6 402.33V401.689L257.04 401.726ZM256.6 403.33C256.609 403.074 256.542 402.822 256.406 402.605C256.271 402.388 256.074 402.216 255.84 402.112C255.607 402.008 255.347 401.976 255.096 402.02C254.844 402.064 254.611 402.183 254.427 402.36C254.243 402.538 254.116 402.766 254.062 403.016C254.009 403.266 254.032 403.526 254.127 403.764C254.223 404.001 254.387 404.204 254.599 404.347C254.811 404.49 255.061 404.567 255.317 404.567C255.484 404.577 255.652 404.553 255.809 404.495C255.966 404.437 256.11 404.347 256.23 404.23C256.351 404.114 256.446 403.974 256.51 403.819C256.573 403.664 256.604 403.497 256.6 403.33Z" fill="white"/>
<path d="M260.862 403.009V405.099H260.431V404.576C260.303 404.763 260.128 404.913 259.924 405.011C259.72 405.11 259.493 405.152 259.267 405.135C258.497 405.135 258.03 404.732 258.03 404.145C258.03 403.559 258.369 403.229 259.34 403.229H260.404V403.027C260.404 402.45 260.083 402.11 259.487 402.11C259.078 402.106 258.681 402.249 258.369 402.514L258.158 402.175C258.548 401.866 259.035 401.703 259.533 401.716C259.709 401.697 259.887 401.716 260.055 401.774C260.222 401.831 260.375 401.925 260.502 402.049C260.629 402.172 260.727 402.323 260.79 402.489C260.852 402.654 260.876 402.832 260.862 403.009ZM260.404 404.081V403.531H259.349C258.689 403.531 258.479 403.788 258.479 404.136C258.479 404.484 258.799 404.769 259.34 404.769C259.568 404.785 259.795 404.726 259.987 404.602C260.178 404.478 260.325 404.295 260.404 404.081Z" fill="white"/>
<path d="M261.998 400.653C262.011 400.574 262.052 400.502 262.114 400.45C262.175 400.398 262.253 400.37 262.333 400.37C262.413 400.37 262.491 400.398 262.552 400.45C262.613 400.502 262.654 400.574 262.667 400.653C262.654 400.732 262.613 400.804 262.552 400.856C262.491 400.908 262.413 400.937 262.333 400.937C262.253 400.937 262.175 400.908 262.114 400.856C262.052 400.804 262.011 400.732 261.998 400.653ZM262.099 401.725H262.557V405.099H262.099V401.725Z" fill="white"/>
<path d="M266.93 403.137V405.099H266.481V403.183C266.506 403.041 266.498 402.896 266.457 402.758C266.416 402.62 266.343 402.493 266.243 402.389C266.144 402.284 266.022 402.205 265.887 402.156C265.751 402.108 265.606 402.092 265.463 402.11C265.302 402.099 265.14 402.123 264.988 402.181C264.837 402.238 264.701 402.328 264.588 402.445C264.475 402.561 264.389 402.7 264.336 402.853C264.283 403.006 264.264 403.169 264.281 403.33V405.099H263.832V401.725H264.262V402.349C264.399 402.136 264.59 401.963 264.815 401.849C265.041 401.735 265.293 401.682 265.546 401.698C265.736 401.683 265.927 401.711 266.106 401.779C266.284 401.846 266.445 401.953 266.578 402.091C266.71 402.228 266.81 402.393 266.871 402.574C266.932 402.755 266.952 402.947 266.93 403.137Z" fill="white"/>
</g>
<path opacity="0.4" d="M274.941 428.013H223.859C221.84 428.011 219.905 427.207 218.479 425.779C217.052 424.351 216.251 422.415 216.251 420.397C216.251 418.378 217.052 416.442 218.479 415.014C219.905 413.586 221.84 412.782 223.859 412.78H274.941C276.961 412.78 278.898 413.582 280.327 415.011C281.755 416.439 282.558 418.376 282.558 420.397C282.558 422.417 281.755 424.354 280.327 425.783C278.898 427.211 276.961 428.013 274.941 428.013Z" fill="white"/>
<path d="M229.478 420.012C229.473 419.655 229.542 419.301 229.681 418.972C229.819 418.643 230.023 418.346 230.281 418.099C230.539 417.852 230.845 417.661 231.18 417.538C231.515 417.414 231.871 417.361 232.228 417.381C232.592 417.368 232.954 417.433 233.291 417.572C233.628 417.712 233.931 417.921 234.18 418.188L233.703 418.646C233.519 418.448 233.294 418.291 233.045 418.187C232.795 418.082 232.526 418.033 232.255 418.041C231.93 418.044 231.61 418.128 231.325 418.284C231.04 418.441 230.798 418.666 230.62 418.939C230.443 419.212 230.337 419.525 230.31 419.849C230.283 420.174 230.337 420.5 230.467 420.798C230.597 421.096 230.799 421.358 231.054 421.559C231.31 421.761 231.611 421.896 231.932 421.952C232.252 422.009 232.582 421.985 232.891 421.883C233.2 421.781 233.479 421.604 233.703 421.368L234.18 421.826C233.93 422.093 233.625 422.304 233.287 422.443C232.948 422.582 232.584 422.647 232.218 422.633C231.863 422.653 231.508 422.6 231.174 422.477C230.84 422.354 230.536 422.164 230.278 421.918C230.021 421.672 229.818 421.376 229.68 421.048C229.542 420.72 229.473 420.367 229.478 420.012Z" fill="white"/>
<path d="M234.675 420.012C234.649 419.463 234.788 418.919 235.075 418.451C235.361 417.982 235.781 417.609 236.28 417.382C236.78 417.154 237.337 417.08 237.878 417.172C238.42 417.263 238.922 417.514 239.319 417.893C239.717 418.272 239.991 418.761 240.108 419.298C240.225 419.834 240.179 420.394 239.975 420.904C239.771 421.414 239.419 421.851 238.965 422.159C238.51 422.467 237.974 422.632 237.425 422.633C237.069 422.652 236.714 422.598 236.381 422.474C236.047 422.351 235.742 422.161 235.485 421.915C235.227 421.67 235.023 421.374 234.883 421.047C234.744 420.72 234.673 420.367 234.675 420.012ZM239.395 420.012C239.401 419.615 239.288 419.226 239.071 418.893C238.855 418.561 238.544 418.3 238.179 418.145C237.814 417.99 237.411 417.947 237.021 418.022C236.631 418.096 236.273 418.285 235.991 418.565C235.709 418.844 235.517 419.201 235.438 419.59C235.36 419.979 235.399 420.382 235.551 420.749C235.703 421.115 235.961 421.428 236.291 421.648C236.621 421.868 237.01 421.984 237.406 421.982C237.668 421.991 237.929 421.946 238.174 421.851C238.418 421.755 238.64 421.61 238.826 421.426C239.012 421.241 239.159 421.021 239.257 420.778C239.355 420.534 239.402 420.274 239.395 420.012Z" fill="white"/>
<path d="M245.665 417.482V422.615H245.06L241.98 418.783V422.615H241.247V417.482H241.852L244.931 421.304V417.482H245.665Z" fill="white"/>
<path d="M248.222 418.078H246.462V417.482H250.688V418.114H248.946V422.615H248.222V418.078Z" fill="white"/>
<path d="M251.504 417.482H252.237V422.615H251.504V417.482Z" fill="white"/>
<path d="M258.195 417.482V422.615H257.59L254.51 418.783V422.615H253.777V417.482H254.354L257.434 421.304V417.482H258.195Z" fill="white"/>
<path d="M259.689 420.36V417.482H260.422V420.369C260.422 421.506 260.944 422.019 261.87 422.019C262.796 422.019 263.318 421.506 263.318 420.369V417.482H264.033V420.397C264.033 420.973 263.805 421.525 263.397 421.933C262.99 422.34 262.437 422.569 261.861 422.569C261.285 422.569 260.732 422.34 260.325 421.933C259.918 421.525 259.689 420.973 259.689 420.397V420.36Z" fill="white"/>
<path d="M269.258 421.936V422.578H265.536V417.482H269.203V418.114H266.27V419.691H268.836V420.314H266.27V421.973L269.258 421.936Z" fill="white"/>
<path opacity="0.1" d="M338.213 301.551C308.232 331.588 231.228 398.444 143.978 393.494V301.551H338.213Z" fill="white"/>
<path opacity="0.1" d="M360.807 356.757V445.438H230.266C235.27 427.528 245.28 403 264.693 385.474C299.616 353.943 340.147 354.035 360.807 356.757Z" fill="white"/>
<path d="M388.388 287.408L391.431 300.845L394.474 287.408H388.388Z" fill="#194E7E"/>
<path opacity="0.7" d="M388.388 287.408L391.431 300.845L394.474 287.408H388.388Z" fill="white"/>
<path d="M425.492 249.36H357.379C353.031 249.36 349.506 252.885 349.506 257.233V282.513C349.506 286.861 353.031 290.387 357.379 290.387H425.492C429.84 290.387 433.365 286.861 433.365 282.513V257.233C433.365 252.885 429.84 249.36 425.492 249.36Z" fill="#194E7E"/>
<path opacity="0.7" d="M425.492 249.36H357.379C353.031 249.36 349.506 252.885 349.506 257.233V282.513C349.506 286.861 353.031 290.387 357.379 290.387H425.492C429.84 290.387 433.365 286.861 433.365 282.513V257.233C433.365 252.885 429.84 249.36 425.492 249.36Z" fill="white"/>
<g opacity="0.5">
<path d="M366.252 264.41V266.179H365.528V264.41L363.493 261.074H364.281L365.922 263.824L367.572 261.074H368.296L366.252 264.41Z" fill="#263238"/>
<path d="M368.131 264.245C368.124 263.843 368.237 263.448 368.455 263.11C368.673 262.772 368.987 262.507 369.356 262.348C369.725 262.189 370.134 262.144 370.529 262.217C370.924 262.291 371.289 262.481 371.576 262.763C371.863 263.045 372.059 263.406 372.141 263.8C372.222 264.194 372.184 264.603 372.032 264.975C371.879 265.347 371.62 265.666 371.286 265.89C370.952 266.114 370.559 266.234 370.157 266.234C369.891 266.247 369.625 266.205 369.375 266.11C369.126 266.015 368.9 265.869 368.709 265.682C368.519 265.496 368.37 265.272 368.27 265.024C368.171 264.777 368.123 264.512 368.131 264.245ZM371.458 264.245C371.474 264.065 371.451 263.883 371.392 263.711C371.334 263.54 371.24 263.382 371.117 263.248C370.994 263.115 370.845 263.008 370.679 262.936C370.513 262.863 370.334 262.825 370.152 262.825C369.971 262.825 369.792 262.863 369.625 262.936C369.459 263.008 369.31 263.115 369.188 263.248C369.065 263.382 368.971 263.54 368.912 263.711C368.854 263.883 368.831 264.065 368.846 264.245C368.831 264.426 368.854 264.608 368.912 264.779C368.971 264.951 369.065 265.109 369.188 265.242C369.31 265.376 369.459 265.482 369.625 265.555C369.792 265.628 369.971 265.666 370.152 265.666C370.334 265.666 370.513 265.628 370.679 265.555C370.845 265.482 370.994 265.376 371.117 265.242C371.24 265.109 371.334 264.951 371.392 264.779C371.451 264.608 371.474 264.426 371.458 264.245Z" fill="#263238"/>
<path d="M376.765 262.302V266.188H376.105V265.602C375.953 265.806 375.753 265.97 375.523 266.081C375.293 266.191 375.04 266.243 374.786 266.234C374.558 266.258 374.328 266.23 374.113 266.153C373.897 266.075 373.702 265.951 373.541 265.788C373.38 265.625 373.258 265.429 373.183 265.212C373.108 264.996 373.082 264.766 373.108 264.539V262.302H373.814V264.465C373.814 265.226 374.199 265.602 374.868 265.602C375.036 265.613 375.204 265.586 375.36 265.525C375.516 265.463 375.657 265.367 375.772 265.244C375.887 265.121 375.973 264.975 376.024 264.815C376.076 264.655 376.091 264.485 376.069 264.319V262.302H376.765Z" fill="#263238"/>
<path d="M380.203 262.265V262.953H380.038C379.867 262.942 379.695 262.969 379.536 263.032C379.377 263.095 379.234 263.193 379.117 263.319C379 263.444 378.913 263.594 378.861 263.758C378.81 263.921 378.795 264.094 378.819 264.264V266.198H378.094V262.302H378.773V262.962C378.92 262.721 379.132 262.528 379.386 262.405C379.639 262.281 379.923 262.233 380.203 262.265Z" fill="#263238"/>
<path d="M382.778 263.622C382.755 263.074 382.896 262.531 383.183 262.063C383.47 261.596 383.891 261.225 384.391 260.998C384.891 260.772 385.447 260.7 385.988 260.792C386.529 260.884 387.03 261.136 387.427 261.516C387.823 261.895 388.097 262.385 388.213 262.921C388.329 263.457 388.282 264.016 388.078 264.526C387.874 265.035 387.522 265.472 387.068 265.78C386.613 266.087 386.077 266.252 385.528 266.253C385.172 266.273 384.815 266.219 384.48 266.096C384.146 265.972 383.84 265.781 383.582 265.535C383.324 265.288 383.12 264.991 382.981 264.662C382.843 264.333 382.774 263.979 382.778 263.622ZM387.499 263.622C387.504 263.225 387.392 262.836 387.175 262.503C386.958 262.171 386.648 261.911 386.283 261.756C385.917 261.6 385.514 261.557 385.125 261.632C384.735 261.707 384.376 261.896 384.095 262.175C383.813 262.454 383.62 262.811 383.542 263.2C383.464 263.589 383.503 263.992 383.655 264.359C383.807 264.726 384.064 265.039 384.395 265.258C384.725 265.478 385.113 265.594 385.51 265.593C385.772 265.601 386.033 265.557 386.277 265.461C386.521 265.365 386.743 265.221 386.929 265.036C387.116 264.852 387.262 264.631 387.36 264.388C387.458 264.145 387.505 263.884 387.499 263.622Z" fill="#263238"/>
<path d="M390.304 261.66H388.544V261.028H392.76V261.66H391V266.152H390.276L390.304 261.66Z" fill="#263238"/>
<path d="M397.728 262.852C397.728 263.961 396.921 264.639 395.583 264.639H394.318V266.188H393.585V261.065H395.583C396.921 261.065 397.728 261.734 397.728 262.852ZM396.995 262.852C396.995 262.119 396.5 261.697 395.565 261.697H394.318V263.998H395.565C396.5 263.998 396.995 263.585 396.995 262.852Z" fill="#263238"/>
<path d="M400.432 263.622C400.457 263.092 400.634 262.58 400.944 262.148C401.253 261.716 401.68 261.384 402.175 261.19C402.669 260.996 403.209 260.949 403.729 261.056C404.25 261.162 404.728 261.417 405.107 261.789L404.63 262.256C404.446 262.057 404.222 261.899 403.972 261.793C403.722 261.687 403.453 261.636 403.182 261.642C402.659 261.642 402.158 261.85 401.788 262.219C401.419 262.589 401.211 263.09 401.211 263.613C401.211 264.135 401.419 264.637 401.788 265.006C402.158 265.376 402.659 265.584 403.182 265.584C403.453 265.59 403.722 265.539 403.972 265.433C404.222 265.327 404.446 265.169 404.63 264.969L405.107 265.437C404.728 265.809 404.25 266.064 403.729 266.17C403.209 266.276 402.669 266.23 402.175 266.036C401.68 265.842 401.253 265.509 400.944 265.078C400.634 264.646 400.457 264.134 400.432 263.604V263.622Z" fill="#263238"/>
<path d="M405.528 264.245C405.521 263.843 405.633 263.448 405.852 263.11C406.07 262.772 406.383 262.507 406.753 262.348C407.122 262.189 407.531 262.144 407.926 262.217C408.321 262.291 408.686 262.481 408.973 262.763C409.26 263.045 409.456 263.406 409.538 263.8C409.619 264.194 409.581 264.603 409.429 264.975C409.276 265.347 409.017 265.666 408.683 265.89C408.349 266.114 407.956 266.234 407.554 266.234C407.288 266.247 407.022 266.205 406.772 266.11C406.523 266.015 406.297 265.869 406.106 265.682C405.916 265.496 405.767 265.272 405.667 265.024C405.568 264.777 405.52 264.512 405.528 264.245ZM408.855 264.245C408.871 264.065 408.848 263.883 408.789 263.711C408.731 263.54 408.637 263.382 408.514 263.248C408.391 263.115 408.242 263.008 408.076 262.936C407.91 262.863 407.731 262.825 407.549 262.825C407.368 262.825 407.189 262.863 407.022 262.936C406.856 263.008 406.707 263.115 406.585 263.248C406.462 263.382 406.368 263.54 406.309 263.711C406.25 263.883 406.228 264.065 406.243 264.245C406.228 264.426 406.25 264.608 406.309 264.779C406.368 264.951 406.462 265.109 406.585 265.242C406.707 265.376 406.856 265.482 407.022 265.555C407.189 265.628 407.368 265.666 407.549 265.666C407.731 265.666 407.91 265.628 408.076 265.555C408.242 265.482 408.391 265.376 408.514 265.242C408.637 265.109 408.731 264.951 408.789 264.779C408.848 264.608 408.871 264.426 408.855 264.245Z" fill="#263238"/>
<path d="M414.208 260.744V266.179H413.539V265.565C413.379 265.779 413.17 265.951 412.929 266.066C412.688 266.181 412.422 266.235 412.155 266.225C411.652 266.191 411.181 265.967 410.837 265.599C410.493 265.23 410.301 264.745 410.301 264.241C410.301 263.737 410.493 263.251 410.837 262.883C411.181 262.514 411.652 262.29 412.155 262.256C412.414 262.248 412.671 262.301 412.907 262.409C413.142 262.517 413.349 262.678 413.512 262.88V260.744H414.208ZM413.512 264.236C413.499 263.98 413.412 263.732 413.26 263.525C413.108 263.318 412.899 263.16 412.658 263.071C412.417 262.982 412.155 262.965 411.905 263.024C411.655 263.082 411.427 263.213 411.251 263.399C411.074 263.586 410.956 263.82 410.912 264.073C410.867 264.326 410.898 264.586 411 264.822C411.102 265.058 411.272 265.258 411.487 265.398C411.702 265.538 411.953 265.612 412.21 265.611C412.388 265.615 412.564 265.582 412.729 265.514C412.893 265.446 413.041 265.345 413.163 265.216C413.286 265.088 413.38 264.935 413.44 264.768C413.5 264.6 413.525 264.422 413.512 264.245V264.236Z" fill="#263238"/>
<path d="M419.039 264.484H415.895C415.939 264.817 416.109 265.12 416.37 265.332C416.631 265.543 416.963 265.646 417.298 265.62C417.507 265.628 417.715 265.59 417.908 265.509C418.101 265.428 418.274 265.307 418.416 265.153L418.81 265.602C418.523 265.893 418.158 266.095 417.758 266.183C417.359 266.27 416.943 266.241 416.56 266.097C416.177 265.954 415.844 265.703 415.601 265.374C415.357 265.045 415.215 264.653 415.189 264.245C415.179 263.985 415.223 263.725 415.317 263.482C415.411 263.239 415.554 263.018 415.737 262.833C415.92 262.647 416.139 262.501 416.381 262.404C416.622 262.306 416.881 262.259 417.142 262.265C417.405 262.252 417.667 262.296 417.912 262.394C418.157 262.491 418.377 262.64 418.559 262.831C418.741 263.021 418.879 263.249 418.965 263.497C419.051 263.746 419.083 264.011 419.057 264.273C419.055 264.343 419.049 264.414 419.039 264.484ZM415.895 263.979H418.425C418.398 263.668 418.256 263.379 418.026 263.168C417.796 262.957 417.495 262.84 417.183 262.84C416.871 262.84 416.57 262.957 416.34 263.168C416.11 263.379 415.968 263.668 415.941 263.979H415.895Z" fill="#263238"/>
</g>
<g opacity="0.5">
<path d="M380.844 274.218C380.844 277.105 379.222 278.645 376.848 278.645C376.117 278.671 375.392 278.5 374.749 278.15L375.207 277.233C375.703 277.516 376.269 277.652 376.839 277.628C378.553 277.628 379.644 276.555 379.644 274.438V274.145C379.36 274.516 378.989 274.812 378.564 275.005C378.138 275.199 377.672 275.284 377.205 275.254C376.844 275.293 376.479 275.257 376.133 275.147C375.786 275.037 375.467 274.856 375.195 274.615C374.923 274.374 374.705 274.079 374.554 273.748C374.403 273.418 374.322 273.06 374.318 272.696C374.327 272.321 374.412 271.952 374.569 271.611C374.726 271.27 374.95 270.965 375.229 270.715C375.508 270.464 375.836 270.273 376.191 270.153C376.547 270.034 376.923 269.988 377.297 270.02C379.561 270.001 380.844 271.523 380.844 274.218ZM379.35 272.66C379.35 271.789 378.654 271.028 377.334 271.028C377.103 271.004 376.87 271.028 376.65 271.099C376.429 271.17 376.226 271.287 376.053 271.442C375.88 271.596 375.742 271.785 375.647 271.997C375.552 272.208 375.502 272.437 375.501 272.669C375.501 273.659 376.234 274.3 377.416 274.3C377.652 274.324 377.89 274.3 378.116 274.23C378.342 274.16 378.552 274.045 378.732 273.891C378.913 273.738 379.061 273.55 379.167 273.339C379.273 273.127 379.335 272.896 379.35 272.66Z" fill="#263238"/>
<path d="M381.999 274.328C381.999 271.578 383.475 270.001 385.455 270.001C387.435 270.001 388.892 271.578 388.892 274.328C388.892 277.078 387.416 278.645 385.455 278.645C383.493 278.645 381.999 277.078 381.999 274.328ZM387.682 274.328C387.682 272.165 386.766 271.083 385.455 271.083C384.144 271.083 383.209 272.165 383.209 274.328C383.209 276.491 384.126 277.573 385.455 277.573C386.784 277.573 387.682 276.491 387.682 274.328Z" fill="#263238"/>
<path d="M395.959 277.499V278.553H389.882V277.728L393.328 274.41C394.245 273.54 394.382 273.008 394.382 272.476C394.382 271.615 393.768 271.083 392.549 271.083C392.144 271.059 391.738 271.13 391.365 271.289C390.991 271.448 390.659 271.691 390.395 272L389.57 271.285C389.958 270.855 390.436 270.518 390.97 270.296C391.505 270.074 392.081 269.973 392.659 270.001C394.419 270.001 395.556 270.918 395.556 272.357C395.542 272.876 395.41 273.385 395.17 273.846C394.931 274.306 394.589 274.706 394.172 275.015L391.587 277.499H395.959Z" fill="#263238"/>
<path d="M399.57 270.102V278.553H398.37V271.156H396.427V270.102H399.57Z" fill="#263238"/>
<path d="M401.413 274.328C401.413 271.578 402.889 270.001 404.868 270.001C406.848 270.001 408.306 271.578 408.306 274.328C408.306 277.078 406.839 278.645 404.868 278.645C402.898 278.645 401.413 277.078 401.413 274.328ZM407.105 274.328C407.105 272.165 406.188 271.083 404.868 271.083C403.549 271.083 402.623 272.165 402.623 274.328C402.623 276.491 403.539 277.573 404.868 277.573C406.197 277.573 407.105 276.491 407.105 274.328Z" fill="#263238"/>
</g>
<path d="M383.897 326.821C389.368 330.608 395.489 333.357 401.954 334.933H402.018C401.534 334.919 401.057 335.054 400.652 335.318C400.253 335.567 399.934 335.927 399.736 336.354C399.669 336.485 399.631 336.629 399.626 336.776C399.772 334.851 398.938 332.687 398.351 330.607C397.297 327.316 396.06 323.943 394.823 320.634L398.361 318.737C401.285 323.219 411.046 337.408 404.383 341.514C403.24 342.181 401.89 342.396 400.597 342.119C393.336 341.044 386.412 338.343 380.34 334.218C379.919 333.925 379.552 333.668 379.057 333.302L383.915 326.803L383.897 326.821Z" fill="#DC897C"/>
<path d="M382.87 325.822C386.079 326.209 389.126 327.446 391.697 329.406L388.03 340.754C388.03 340.754 370.212 324.328 382.87 325.822Z" fill="#194E7E"/>
<path opacity="0.6" d="M382.833 335.364C384.464 337.232 386.19 339.016 388.003 340.708L389.515 336.042L391.697 329.36C389.129 327.402 386.085 326.165 382.879 325.776C375.088 324.906 378.81 330.735 382.833 335.364Z" fill="white"/>
<path opacity="0.2" d="M382.833 335.364C384.464 337.232 386.19 339.016 388.003 340.708L389.515 336.042C387.613 334.56 385.272 333.754 382.861 333.751C382.806 334.287 382.797 334.826 382.833 335.364Z" fill="black"/>
<path d="M343.264 309.039C343.264 309.039 334.739 337.38 352.696 341.184C370.652 344.988 372.595 331.945 372.595 331.945C372.595 331.945 357.838 309.617 343.264 309.039Z" fill="#263238"/>
<path d="M339.057 318.425C339.024 318.435 338.989 318.435 338.956 318.425C338.93 318.413 338.907 318.395 338.888 318.373C338.869 318.351 338.855 318.326 338.847 318.298C338.838 318.271 338.835 318.242 338.838 318.213C338.841 318.185 338.85 318.157 338.864 318.132C339.132 317.643 339.51 317.223 339.968 316.905C340.427 316.587 340.952 316.379 341.504 316.299C341.561 316.301 341.616 316.323 341.658 316.362C341.7 316.4 341.727 316.453 341.733 316.51C341.736 316.538 341.733 316.568 341.724 316.595C341.715 316.623 341.701 316.649 341.682 316.671C341.663 316.693 341.64 316.711 341.615 316.724C341.589 316.738 341.561 316.746 341.532 316.748C341.054 316.826 340.6 317.012 340.204 317.291C339.809 317.571 339.482 317.937 339.249 318.361C339.226 318.388 339.196 318.408 339.162 318.419C339.128 318.43 339.092 318.433 339.057 318.425Z" fill="#263238"/>
<path d="M341.623 321.945C341.508 323.05 341.259 324.136 340.881 325.181C341.165 325.35 341.49 325.44 341.82 325.44C342.151 325.44 342.476 325.35 342.76 325.181L341.623 321.945Z" fill="#DE5753"/>
<path d="M339.891 320.708C340.083 321.212 340.514 321.514 340.807 321.386C341.101 321.258 341.266 320.753 341.073 320.249C340.881 319.745 340.45 319.443 340.157 319.571C339.863 319.699 339.708 320.203 339.891 320.708Z" fill="#263238"/>
<path d="M340.303 319.543H339.048C339.048 319.543 339.946 320.24 340.303 319.543Z" fill="#263238"/>
<path d="M358.14 325.465C358.109 325.547 358.066 325.624 358.012 325.694C357.929 325.85 357.838 325.996 357.746 326.152C357.209 327.118 356.494 327.973 355.638 328.673C352.888 330.863 350.496 331.523 348.415 330.891L348.113 330.79C345.024 329.534 342.613 325.841 340.698 320.955C339.847 319.043 339.312 317.007 339.112 314.924C339.112 314.924 339.112 314.851 339.112 314.832C339.112 314.814 339.112 314.667 339.112 314.594C339.04 313.4 339.268 312.208 339.773 311.124C340.279 310.04 341.047 309.1 342.008 308.389C342.83 307.744 343.722 307.193 344.666 306.748C353.823 302.284 362.732 316.821 358.14 325.465Z" fill="#E4897B"/>
<path opacity="0.2" d="M357.746 326.152C357.209 327.118 356.494 327.973 355.638 328.673C352.888 330.863 350.496 331.523 348.415 330.891C350.439 330.401 352.26 329.296 353.631 327.729C354.16 327.181 354.802 326.756 355.513 326.483C356.225 326.211 356.987 326.098 357.746 326.152Z" fill="black"/>
<path d="M339.066 314.869C339.066 314.869 341.623 321.597 349.094 321.478C349.094 321.478 354.923 326.977 358.855 325.226C364.217 322.852 365.317 313.1 359.854 306.29C352.76 297.454 337.288 303.824 339.066 314.869Z" fill="#263238"/>
<path d="M345.097 321.093C344.621 320.075 344.63 317.994 346.307 317.481C347.985 316.968 350.89 320.533 347.279 323.32C346.765 323.723 346.087 323.201 345.097 321.093Z" fill="#E4897B"/>
<path d="M347.104 302.623C347.104 302.623 340.175 303.989 337.938 308.123C335.317 312.926 335.189 316.647 342.155 319.122C342.155 319.122 350.963 310.872 354.758 309.956C356.969 309.407 359.223 309.045 361.495 308.874C358.965 301.551 349.9 299.589 347.104 302.623Z" fill="#263238"/>
<path d="M353.823 328.847C353.823 328.847 358.589 332.147 359.827 337.591L374.685 328.92C374.685 328.92 363.053 326.271 361.055 321.771C361.055 321.771 353.282 322.733 353.823 328.847Z" fill="#E4897B"/>
<path d="M368.58 364.548C368.58 364.548 349.332 345.639 347.26 339.699C347.26 339.699 355.354 327.096 371.532 326.565C387.71 326.033 398.718 356.812 398.718 356.812L368.58 364.548Z" fill="#194E7E"/>
<path opacity="0.6" d="M398.718 356.821L368.589 364.558C368.589 364.558 364.391 360.424 359.698 355.392C358.25 353.824 356.738 352.174 355.28 350.543C351.458 346.207 348.085 341.973 347.269 339.672C347.269 339.672 355.354 327.069 371.532 326.537C387.71 326.006 398.718 356.821 398.718 356.821Z" fill="white"/>
<path d="M350.597 318.251C350.597 318.251 353.411 327.6 363.292 330.698C373.172 333.797 370.688 343.888 380.267 342.697C385.363 342.064 389.726 331.698 374.098 322.532C364.987 317.206 368.525 299.699 349.185 301.34C349.167 301.349 353.181 313.347 350.597 318.251Z" fill="#263238"/>
<path d="M360.194 507.061L355.611 506.016C356.298 483.101 359.607 455.392 362.531 434.576C362.989 431.313 363.448 428.233 363.869 425.355C364.08 423.99 364.272 422.679 364.465 421.414C365.382 415.172 366.225 410.241 366.729 407.188C367.105 404.961 367.316 403.742 367.316 403.742L383.814 407.766L382.632 411.927L378.736 425.676L378.296 427.244L375.712 436.309L371.33 451.735C371.605 475.026 360.194 507.061 360.194 507.061Z" fill="#E4897B"/>
<path d="M399.424 503.229L394.731 502.991C391.156 478.353 389.653 447.537 389.002 426.116C388.911 422.798 388.828 419.7 388.764 416.877C388.764 416.739 388.764 416.602 388.764 416.464C388.645 410.882 388.59 406.446 388.562 403.632C388.562 401.432 388.562 400.231 388.562 400.231L405.492 401.341L404.768 408.398L403.704 418.756L403.494 420.791L402.76 427.848L400.78 446.813C405.107 469.728 399.424 503.229 399.424 503.229Z" fill="#E4897B"/>
<path d="M401.183 502.313C401.183 501.726 393.942 502.184 393.942 502.184C393.942 502.184 389.497 506.703 385.18 507.684C380.863 508.665 383.282 511.295 388.104 511.295H400.019C403.466 511.332 401.321 508.408 401.183 502.313Z" fill="#263238"/>
<path d="M389.506 503.862C389.402 503.767 389.329 503.642 389.298 503.504C389.267 503.367 389.279 503.223 389.332 503.092C389.361 502.989 389.409 502.894 389.476 502.81C389.542 502.727 389.624 502.657 389.717 502.606C390.231 502.397 390.792 502.333 391.34 502.423C390.753 502.111 390.24 501.735 390.212 501.35C390.212 501.103 390.359 500.901 390.689 500.745C390.833 500.68 390.989 500.646 391.147 500.646C391.305 500.646 391.461 500.68 391.605 500.745C392.586 501.158 393.191 502.844 393.219 502.909C393.238 502.956 393.238 503.008 393.219 503.055V503.101C393.201 503.121 393.179 503.137 393.154 503.147C392.22 503.626 391.208 503.936 390.166 504.063C389.929 504.079 389.694 504.008 389.506 503.862ZM389.91 502.945C389.86 502.97 389.816 503.005 389.779 503.048C389.743 503.09 389.716 503.14 389.699 503.193C389.625 503.477 389.699 503.55 389.699 503.578C390.047 503.862 391.367 503.459 392.449 503.009C391.625 502.75 390.746 502.724 389.91 502.936V502.945ZM390.826 501.112C390.725 501.112 390.56 501.25 390.57 501.35C390.57 501.671 391.624 502.267 392.687 502.643C392.45 502.008 392.016 501.465 391.449 501.094C391.358 501.051 391.258 501.029 391.156 501.03C391.052 501.029 390.949 501.051 390.854 501.094L390.826 501.112Z" fill="#263238"/>
<path d="M362.512 502.313C362.512 501.726 355.28 502.184 355.28 502.184C355.28 502.184 350.835 506.703 346.518 507.684C342.2 508.665 344.611 511.295 349.432 511.295H361.348C364.804 511.332 362.668 508.408 362.512 502.313Z" fill="#263238"/>
<path d="M350.844 503.862C350.742 503.765 350.67 503.641 350.639 503.504C350.608 503.366 350.619 503.223 350.67 503.092C350.699 502.989 350.747 502.894 350.813 502.81C350.88 502.727 350.962 502.657 351.055 502.606C351.569 502.397 352.13 502.334 352.677 502.423C352.091 502.111 351.578 501.735 351.559 501.35C351.559 501.106 351.715 500.904 352.027 500.745C352.171 500.68 352.327 500.646 352.485 500.646C352.643 500.646 352.799 500.68 352.943 500.745C353.924 501.158 354.529 502.844 354.556 502.909C354.568 502.931 354.574 502.956 354.574 502.982C354.574 503.007 354.568 503.032 354.556 503.055C354.556 503.055 354.556 503.055 354.556 503.101L354.492 503.147C353.554 503.624 352.54 503.934 351.495 504.063C351.261 504.075 351.03 504.004 350.844 503.862ZM351.248 502.945C351.199 502.971 351.156 503.006 351.121 503.048C351.087 503.091 351.061 503.14 351.046 503.193C350.973 503.477 351.046 503.55 351.092 503.578C351.431 503.862 352.751 503.459 353.842 503.009C353.001 502.739 352.102 502.714 351.248 502.936V502.945ZM352.164 501.112C352.063 501.112 351.898 501.25 351.908 501.35C351.908 501.671 352.962 502.267 354.034 502.643C353.794 502.007 353.357 501.465 352.787 501.094C352.696 501.05 352.596 501.028 352.494 501.03C352.39 501.029 352.287 501.051 352.192 501.094L352.164 501.112Z" fill="#263238"/>
<path d="M364.676 410.635L368.58 383.137V364.53C378.874 356.794 398.718 356.794 398.718 356.794C398.718 356.794 413.961 377.94 406.555 412.706L387.416 415.456L386.197 408.967L383.796 415.456L364.676 410.635Z" fill="#263238"/>
<path opacity="0.2" d="M364.676 410.635L368.58 383.137V364.53C378.874 356.794 398.718 356.794 398.718 356.794C398.718 356.794 413.961 377.94 406.555 412.706L387.416 415.456L386.197 408.967L383.796 415.456L364.676 410.635Z" fill="white"/>
<path opacity="0.2" d="M386.197 409.067L389.864 397.619C389.864 397.619 393.732 396.446 398.7 388.765C398.718 388.765 397.856 401.835 386.197 409.067Z" fill="black"/>
<path opacity="0.2" d="M378.04 369.819L386.628 369.003C387.999 372.214 388.474 375.736 388.003 379.196L382.503 382.504L378.516 379.672C378.516 379.672 378.388 372.404 378.04 369.819Z" fill="black"/>
<path opacity="0.2" d="M398.718 367.72C399.871 370.553 400.722 373.499 401.257 376.51L404.3 377.802L405.941 375.758C405.941 375.758 404.832 369.773 402.953 366.84L398.718 367.72Z" fill="black"/>
<path d="M364.318 409.067L384.63 415.025L383.356 417.757L364.062 411.817L364.318 409.067Z" fill="#263238"/>
<path d="M386.628 414.631L386.967 417.143L406.885 414.631L407.187 411.469L386.628 414.631Z" fill="#263238"/>
<path d="M390.808 360.653C394.066 360.103 397.358 359.781 400.661 359.69L399.433 357.665C396.221 357.58 393.007 357.77 389.827 358.233L390.808 360.653Z" fill="#263238"/>
<path d="M372.54 363.146C369.909 364.283 368.397 365.135 368.397 365.135V367.637C369.876 366.892 371.358 366.21 372.842 365.593L372.54 363.146Z" fill="#263238"/>
<path d="M373.805 365.236C378.9 363.238 384.185 361.767 389.579 360.845L388.663 358.407C383.434 359.279 378.322 360.749 373.429 362.788L373.805 365.236Z" fill="#263238"/>
<path d="M318.736 372.394L313.53 370.305L312.613 375.218C312.613 375.218 317.306 378.059 319.268 374.677L318.736 372.394Z" fill="#E4897B"/>
<path d="M310.945 370.607L309.277 374.402L312.65 375.218L313.53 370.305L310.945 370.607Z" fill="#E4897B"/>
<path d="M398.635 319.589L398.021 314.016L393.273 315.556C393.273 315.556 392.98 321.056 396.894 321.166L398.635 319.589Z" fill="#E4897B"/>
<path d="M396.527 311.881L392.393 312.211L393.273 315.556L398.021 314.016L396.527 311.881Z" fill="#E4897B"/>
<path opacity="0.2" d="M359.699 355.419C358.25 353.852 356.738 352.202 355.281 350.57C354.721 347.161 354.364 344.154 354.364 344.154C356.11 345.449 357.51 347.155 358.44 349.119C359.371 351.084 359.803 353.248 359.699 355.419Z" fill="black"/>
<path d="M354.896 342.578C352.796 351.042 349.627 359.204 345.464 366.867C341.339 374.704 325.656 375.648 317.773 375.85L317.407 371.854C322.155 370.735 336.912 367.793 338.928 363.513C342.22 356.096 344.93 348.435 347.031 340.598L354.896 342.559V342.578Z" fill="#DC897C"/>
<path d="M350.404 335.666C345.922 338.6 343.521 346.226 342.76 349.956L352.072 356.812L356.774 352.229C358.681 341.707 352.109 334.557 350.404 335.666Z" fill="#194E7E"/>
<path opacity="0.6" d="M350.404 335.666C345.922 338.6 343.521 346.226 342.76 349.956L352.072 356.812L356.774 352.229C358.681 341.707 352.109 334.557 350.404 335.666Z" fill="white"/>
<path d="M395.867 321.377L389.213 322.092C389.119 322.094 389.026 322.077 388.939 322.042C388.852 322.007 388.773 321.954 388.708 321.887C388.642 321.82 388.591 321.74 388.558 321.652C388.525 321.564 388.511 321.47 388.516 321.377L388.113 307.289C388.1 307.089 388.16 306.892 388.281 306.734C388.402 306.576 388.577 306.466 388.773 306.427L395.418 305.721C395.512 305.717 395.606 305.733 395.694 305.768C395.781 305.802 395.861 305.855 395.926 305.923C395.992 305.99 396.043 306.071 396.075 306.159C396.108 306.248 396.121 306.342 396.115 306.436L396.518 320.524C396.531 320.721 396.472 320.916 396.352 321.072C396.233 321.229 396.06 321.337 395.867 321.377Z" fill="#263238"/>
<path opacity="0.6" d="M395.867 321.377L389.213 322.092C389.119 322.094 389.026 322.077 388.939 322.042C388.852 322.007 388.773 321.954 388.708 321.887C388.642 321.82 388.591 321.74 388.558 321.652C388.525 321.564 388.511 321.47 388.516 321.377L388.113 307.289C388.1 307.089 388.16 306.892 388.281 306.734C388.402 306.576 388.577 306.466 388.773 306.427L395.418 305.721C395.512 305.717 395.606 305.733 395.694 305.768C395.781 305.802 395.861 305.855 395.926 305.923C395.992 305.99 396.043 306.071 396.075 306.159C396.108 306.248 396.121 306.342 396.115 306.436L396.518 320.524C396.531 320.721 396.472 320.916 396.352 321.072C396.233 321.229 396.06 321.337 395.867 321.377Z" fill="white"/>
<path d="M395.281 321.441L388.636 322.147C388.541 322.152 388.447 322.137 388.359 322.104C388.271 322.07 388.191 322.018 388.125 321.952C388.058 321.885 388.006 321.805 387.973 321.717C387.939 321.629 387.924 321.535 387.93 321.441L387.536 307.344C387.519 307.146 387.576 306.949 387.696 306.792C387.817 306.634 387.991 306.527 388.186 306.491L394.832 305.785C394.925 305.781 395.018 305.797 395.105 305.831C395.192 305.865 395.271 305.917 395.336 305.984C395.402 306.05 395.453 306.13 395.486 306.217C395.519 306.305 395.534 306.398 395.528 306.491L395.932 320.588C395.949 320.786 395.891 320.983 395.771 321.14C395.651 321.298 395.476 321.405 395.281 321.441Z" fill="#263238"/>
<path opacity="0.7" d="M395.281 321.441L388.636 322.147C388.541 322.152 388.447 322.137 388.359 322.104C388.271 322.07 388.191 322.018 388.125 321.952C388.058 321.885 388.006 321.805 387.973 321.717C387.939 321.629 387.924 321.535 387.93 321.441L387.536 307.344C387.519 307.146 387.576 306.949 387.696 306.792C387.817 306.634 387.991 306.527 388.186 306.491L394.832 305.785C394.925 305.781 395.018 305.797 395.105 305.831C395.192 305.865 395.271 305.917 395.336 305.984C395.402 306.05 395.453 306.13 395.486 306.217C395.519 306.305 395.534 306.398 395.528 306.491L395.932 320.588C395.949 320.786 395.891 320.983 395.771 321.14C395.651 321.298 395.476 321.405 395.281 321.441Z" fill="white"/>
<path d="M394.841 306.06L393.099 306.244L392.879 306.784L390.185 307.069L389.937 306.583L388.195 306.766C388.069 306.792 387.957 306.864 387.88 306.966C387.802 307.069 387.764 307.197 387.774 307.325L388.168 321.413C388.164 321.475 388.173 321.536 388.195 321.593C388.216 321.651 388.25 321.703 388.293 321.746C388.337 321.79 388.389 321.823 388.446 321.845C388.504 321.867 388.565 321.876 388.626 321.872L395.272 321.166C395.397 321.142 395.509 321.072 395.587 320.971C395.664 320.87 395.702 320.743 395.693 320.616L395.299 306.519C395.302 306.458 395.292 306.397 395.27 306.34C395.247 306.283 395.214 306.232 395.171 306.189C395.128 306.146 395.076 306.112 395.019 306.09C394.962 306.068 394.902 306.058 394.841 306.06Z" fill="#194E7E"/>
<path opacity="0.8" d="M393.951 311.157L389.066 311.679C389.006 311.682 388.947 311.672 388.891 311.65C388.835 311.629 388.785 311.596 388.743 311.553C388.7 311.511 388.667 311.461 388.646 311.405C388.624 311.349 388.614 311.29 388.617 311.23V309.873C388.605 309.747 388.641 309.621 388.717 309.519C388.794 309.418 388.905 309.348 389.029 309.323L393.924 308.801C393.984 308.8 394.043 308.811 394.098 308.833C394.153 308.856 394.203 308.89 394.245 308.933C394.286 308.976 394.318 309.028 394.339 309.084C394.359 309.14 394.368 309.2 394.364 309.259L394.41 310.616C394.418 310.748 394.374 310.877 394.289 310.978C394.204 311.079 394.083 311.143 393.951 311.157Z" fill="white"/>
</svg>
